/* XPM */
static char * knob47_xpm[] = {
"31 31 256 2",
"  	c None",
". 	c #120202",
"+ 	c #493639",
"@ 	c #7E7070",
"# 	c #A29696",
"$ 	c #B65E6E",
"% 	c #D2C6C6",
"& 	c #760E0E",
"* 	c #9A4242",
"= 	c #372628",
"- 	c #B6A6A6",
"; 	c #745E60",
"> 	c #4E0606",
", 	c #C4787A",
"' 	c #9C8A8B",
") 	c #763E42",
"! 	c #322222",
"~ 	c #CEBEBF",
"{ 	c #3A040A",
"] 	c #5E4E50",
"^ 	c #926E72",
"/ 	c #C2B2B2",
"( 	c #EEDEDE",
"_ 	c #A64A4E",
": 	c #2C1C1E",
"< 	c #A21E1A",
"[ 	c #997A7B",
"} 	c #270204",
"| 	c #72363A",
"1 	c #622A2A",
"2 	c #AA5254",
"3 	c #E3D6D7",
"4 	c #CA4E52",
"5 	c #5A2226",
"6 	c #421A1E",
"7 	c #8A4242",
"8 	c #B29697",
"9 	c #564646",
"0 	c #A48E8F",
"a 	c #502626",
"b 	c #261416",
"c 	c #A27A7D",
"d 	c #B29E9E",
"e 	c #D25A5E",
"f 	c #DEA6A2",
"g 	c #6A2A2A",
"h 	c #9B5E62",
"i 	c #DACECE",
"j 	c #E6B6BE",
"k 	c #3D1616",
"l 	c #7E464A",
"m 	c #BEAEAF",
"n 	c #846262",
"o 	c #CA7A7E",
"p 	c #8C7A7B",
"q 	c #2A0E10",
"r 	c #AE5E62",
"s 	c #C2B6B6",
"t 	c #D86062",
"u 	c #AA8A8C",
"v 	c #9E6E72",
"w 	c #554244",
"x 	c #722E32",
"y 	c #413233",
"z 	c #661020",
"A 	c #320202",
"B 	c #7A4A4E",
"C 	c #A28686",
"D 	c #988686",
"E 	c #664246",
"F 	c #561A26",
"G 	c #AA2E52",
"H 	c #624E4E",
"I 	c #B69E9F",
"J 	c #220E0E",
"K 	c #8E5660",
"L 	c #BAA6A6",
"M 	c #7D6A6B",
"N 	c #4A2222",
"O 	c #4A2A2A",
"P 	c #685A5A",
"Q 	c #E272A6",
"R 	c #620E0E",
"S 	c #822A22",
"T 	c #BE666E",
"U 	c #420E12",
"V 	c #E2707E",
"W 	c #AA3232",
"X 	c #926666",
"Y 	c #AEA2A2",
"Z 	c #B28A8A",
"` 	c #4E3636",
" .	c #522A2E",
"..	c #CAB6B7",
"+.	c #220206",
"@.	c #957E7F",
"#.	c #765A5A",
"$.	c #821612",
"%.	c #402E30",
"&.	c #D66A72",
"*.	c #6C4E52",
"=.	c #BA9E9E",
"-.	c #664A4E",
";.	c #A06268",
">.	c #D26272",
",.	c #6A1A1A",
"'.	c #DBCACB",
").	c #A78284",
"!.	c #AD9E9E",
"~.	c #7D6265",
"{.	c #D2C2C2",
"].	c #260A0E",
"^.	c #160202",
"/.	c #C2AEAF",
"(.	c #C2A6A6",
"_.	c #9E7276",
":.	c #4F3E3F",
"<.	c #AA626A",
"[.	c #B08688",
"}.	c #AC9294",
"|.	c #AE423E",
"1.	c #422222",
"2.	c #846E6E",
"3.	c #5A4A4A",
"4.	c #B69698",
"5.	c #D6CACA",
"6.	c #3A0A0C",
"7.	c #360A0A",
"8.	c #36121A",
"9.	c #CABABA",
"0.	c #BAA2A4",
"a.	c #9E7E82",
"b.	c #A69696",
"c.	c #1E0206",
"d.	c #BAAAAC",
"e.	c #92767A",
"f.	c #350E11",
"g.	c #D67A92",
"h.	c #402A2C",
"i.	c #662222",
"j.	c #D2526E",
"k.	c #7A1A2E",
"l.	c #EEDADE",
"m.	c #E65A62",
"n.	c #843E46",
"o.	c #4E0616",
"p.	c #AE7A7E",
"q.	c #AE6E72",
"r.	c #5A3236",
"s.	c #DED2D2",
"t.	c #9C6A6C",
"u.	c #2E0202",
"v.	c #8E8282",
"w.	c #8A6A6E",
"x.	c #B29294",
"y.	c #86223A",
"z.	c #EFE2E2",
"A.	c #B69A9B",
"B.	c #4E2E32",
"C.	c #460A0A",
"D.	c #6A5255",
"E.	c #CC6A70",
"F.	c #1A0607",
"G.	c #857273",
"H.	c #766666",
"I.	c #5B4242",
"J.	c #362225",
"K.	c #AE9698",
"L.	c #AA666A",
"M.	c #520E0E",
"N.	c #420606",
"O.	c #4A3232",
"P.	c #B46670",
"Q.	c #C6B2B3",
"R.	c #341E22",
"S.	c #5F4646",
"T.	c #B6A2A3",
"U.	c #461216",
"V.	c #80565A",
"W.	c #704A4A",
"X.	c #AE4A62",
"Y.	c #8E2A2A",
"Z.	c #3A2A2A",
"`.	c #8A6268",
" +	c #CEBABD",
".+	c #9D8E8F",
"++	c #A59292",
"@+	c #320606",
"#+	c #D6C6C7",
"$+	c #EADADA",
"%+	c #C6AEAF",
"&+	c #B29A9B",
"*+	c #A37E81",
"=+	c #6F5255",
"-+	c #9E7A7B",
";+	c #53393A",
">+	c #8A7375",
",+	c #A67276",
"'+	c #BEA2A3",
")+	c #AA8E90",
"!+	c #4A1B1D",
"~+	c #493A3A",
"{+	c #2A0606",
"]+	c #7B6667",
"^+	c #AC9A9B",
"/+	c #9A6E74",
"(+	c #BEA6A7",
"_+	c #563E3E",
":+	c #F6E6E6",
"<+	c #746262",
"[+	c #2E1212",
"}+	c #A66E74",
"|+	c #AA868A",
"1+	c #6E4046",
"2+	c #560818",
"3+	c #BA9A9C",
"4+	c #33020B",
"5+	c #420312",
"6+	c #B2A2A2",
"7+	c #948284",
"8+	c #624A4A",
"9+	c #DECECE",
"0+	c #560A06",
"a+	c #D2BEBE",
"b+	c #DE5E66",
"c+	c #463236",
"d+	c #9E8686",
"e+	c #6E5A5E",
"f+	c #721E26",
"g+	c #9A7676",
"h+	c #D26A72",
"i+	c #C6BABA",
"j+	c #C2AAAB",
"k+	c #967272",
"l+	c #B69295",
"m+	c #3A2224",
"n+	c #8E7E7E",
"o+	c #2E040C",
"p+	c #C6B6B8",
"q+	c #661E2E",
"r+	c #1E060A",
"s+	c #BEAAAB",
"t+	c #655255",
"u+	c #9B8283",
"v+	c #4F3235",
"w+	c #6E565A",
"x+	c #A57679",
"y+	c #26020A",
"z+	c #1A0206",
"A+	c #E2D2D2",
"B+	c #AE8E90",
"C+	c #82666A",
"D+	c #4E3A3E",
"E+	c #A2666A",
"F+	c #AA6A70",
"G+	c #7E5A5E",
"                                                              ",
"                                                              ",
"                          ++.+p D ' G.]+                      ",
"                    Q.9./ - 6+' .+b.p 2.M <+D.                ",
"                '.A+'.{.i+/.d.6+^+^+.+D p ]+t+w I.            ",
"              :+z.3 i '.{.~ p+m - !.K.}.' @.~.8+S.;+          ",
"            ( ( 3 9+'.9+5.{. +../ d.6+^+}..+@.~.D.` 1.        ",
"          $+3 i 5.5.% #+{.{.a+~ ..%+(+0.d }.' u+>+I.J.k       ",
"        A+( A+'.#+#+{.{.a+~ ........%+j+(+=.K.)+u+~.O.q {+    ",
"        9+s.i 5.#+{.{. +9...p+Q.Q.%+%+j+(.'+3+x.B+a.*.q }     ",
"      z.9+5.5.#+% {.~ 9...Q.Q.%+j+(+(+'+'+'+=.A.4.B+k+a {+@+  ",
"      A+i '.#+% {. + +9.p+Q.%+s+(+(+'+=.3+4.4.l+l+l+).W.f.}   ",
"      '.5.#+{.{.{.i+9...Q.%+/.j+'+0.=.A.x.*+c *+[.Z [.X k u.  ",
"    l.i 5.% {.~ 9.9.p+/ Q.m j+L (+=.3+l+g+ .a 1+X x+p.X !+A A ",
"    i % % {.~ ~ i+..p+/.j+s+(+0.=.I A.u W.f.@+U.5 ) h h 1 6.@+",
"    l.5.{.~ ~ i+..s / /.m (+0.=.=.A.l+g+!+@+U 1 1 x n.n.i.C.N.",
"    $+{.~ ~ i+i+Q.Q.m j+L (+0.I 3+A.B+C+U.6.| L.r 2 _ * ,.C.N.",
"    m s i+s p+/ / m j+d.(+T.T.A.8 x.*+r.7.!+E+, E.e t 4 Y.R > ",
"    !.Y - d.m m m m d.- 0.I I A.8 }.g+!+@+5 q.o E.t m.b+W & 0+",
"    @ v.' ++!.6+T.6+T.T.6+I &+8 x.B+[ r.a l F+, &.V j f |.$.R ",
"      <+@ p v.' ++# ^+^+&+&+^+}.}.B+).V.B K h P.E.&.Q g.2 S < ",
"      9 P <+H.@ >+@.7+' 0 0 )+}.)+Z C -+k+t.;.<.T >.j.G y.f+  ",
"      ~+9 3.t+P P H.M G.e.@.u+u+d+).).).*+x+q.F+P.$ X.k.R z   ",
"        Z.~+:.9 3.] D.P <+M M >+e.[ [ -+x+_.,+}+h n.,.2+2+    ",
"        : = y + ~+:.w 3.H w+w+#.~.C+w.^ k+^ v }+K F 5+5+o.    ",
"          ! ! Z.%.y + D+:._+S.8+H =+w+G+n `.`.V.) U @+5+      ",
"            J : = %.%.%.y c++ ` _+I.S.S.*.*.E 6 f.4+5+        ",
"              ! = = = = = h.h.%.O.` v+` r.B.8.y++.4+          ",
"                r+b : ! R.R.R.R.m+= m+q ].{+c.y+y+            ",
"                    F.F.F.F.F.r+r+r+r+z+z+c.y+                ",
"                          ^.. . ^.^.^.c.                      "};
