/* XPM */
static char * knob1_xpm[] = {
"31 31 256 2",
"  	c None",
". 	c #0E0202",
"+ 	c #3E3232",
"@ 	c #867A7A",
"# 	c #EDDEE0",
"$ 	c #D6C7CA",
"% 	c #B2324E",
"& 	c #B9AAAD",
"* 	c #6E1420",
"= 	c #635255",
"- 	c #4A0A12",
"; 	c #9C8E91",
"> 	c #963446",
", 	c #2E2222",
"' 	c #BF9297",
") 	c #C44C56",
"! 	c #38060C",
"~ 	c #AA525E",
"{ 	c #CA7E86",
"] 	c #8A3A4A",
"^ 	c #A69A9D",
"/ 	c #261A1A",
"( 	c #7E7272",
"_ 	c #DAAAB2",
": 	c #2A0206",
"< 	c #B05E6C",
"[ 	c #A47A80",
"} 	c #251619",
"| 	c #89575E",
"1 	c #C6BABA",
"2 	c #72363E",
"3 	c #E6C6CE",
"4 	c #240206",
"5 	c #B28E92",
"6 	c #B2262A",
"7 	c #CE5676",
"8 	c #C29AA1",
"9 	c #4A3A3A",
"0 	c #592D35",
"a 	c #B2A6A7",
"b 	c #CFADB2",
"c 	c #F2E6E6",
"d 	c #786668",
"e 	c #E2CECE",
"f 	c #120202",
"g 	c #AE626E",
"h 	c #964856",
"i 	c #BA9A9E",
"j 	c #9E5E66",
"k 	c #7A2E3A",
"l 	c #A88E92",
"m 	c #7D565D",
"n 	c #9E868A",
"o 	c #F4D2D6",
"p 	c #866A6E",
"q 	c #1D0F11",
"r 	c #D3A5AB",
"s 	c #F3DEE1",
"t 	c #928286",
"u 	c #361C1E",
"v 	c #AE9A9D",
"w 	c #564A4E",
"x 	c #C19EA5",
"y 	c #6A5A5A",
"z 	c #C4B6B8",
"A 	c #E0B6BE",
"B 	c #1A0203",
"C 	c #D26286",
"D 	c #AA8A8E",
"E 	c #2C0E10",
"F 	c #220A0E",
"G 	c #C8AAB0",
"H 	c #BE6672",
"I 	c #9E666E",
"J 	c #B44458",
"K 	c #AEA2A3",
"L 	c #FAE6EA",
"M 	c #844652",
"N 	c #E4D2D4",
"O 	c #664246",
"P 	c #462626",
"Q 	c #9A2E36",
"R 	c #661622",
"S 	c #FBDEE3",
"T 	c #544547",
"U 	c #A83246",
"V 	c #B07C84",
"W 	c #B66A72",
"X 	c #4E161E",
"Y 	c #A69295",
"Z 	c #BFB2B5",
"` 	c #6A2630",
" .	c #463232",
"..	c #CA3A46",
"+.	c #DCBEC2",
"@.	c #9D7176",
"#.	c #AA4252",
"$.	c #CCA6AC",
"%.	c #CA4E7A",
"&.	c #924E5A",
"*.	c #FAEAEC",
"=.	c #866266",
"-.	c #D0B6BA",
";.	c #BEAAAE",
">.	c #F2D7DB",
",.	c #1A0A0E",
"'.	c #AE9296",
").	c #BFA2A7",
"!.	c #BA868E",
"~.	c #6B4146",
"{.	c #E7BEC5",
"].	c #160A0A",
"^.	c #E2D6D6",
"/.	c #CEBABE",
"(.	c #877578",
"_.	c #362222",
":.	c #C25A6A",
"<.	c #DDCED0",
"[.	c #401018",
"}.	c #C6828E",
"|.	c #761E26",
"1.	c #CC909A",
"2.	c #B69A9E",
"3.	c #BC767E",
"4.	c #978689",
"5.	c #CA6E7A",
"6.	c #8F7D7F",
"7.	c #B49298",
"8.	c #160202",
"9.	c #705E60",
"0.	c #CE98A2",
"a.	c #725256",
"b.	c #241113",
"c.	c #A64A56",
"d.	c #46161E",
"e.	c #440A14",
"f.	c #36262A",
"g.	c #A28E92",
"h.	c #2E1618",
"i.	c #5A3E42",
"j.	c #B2A2A5",
"k.	c #AA727A",
"l.	c #E6D8DA",
"m.	c #A69699",
"n.	c #543236",
"o.	c #5A121E",
"p.	c #BAA6AA",
"q.	c #664A4E",
"r.	c #B18991",
"s.	c #FEDAE2",
"t.	c #2A0A0E",
"u.	c #AE9EA1",
"v.	c #C8B2B6",
"w.	c #7A4E56",
"x.	c #FAE2E6",
"y.	c #BFAEB2",
"z.	c #763A42",
"A.	c #A08A8E",
"B.	c #92666A",
"C.	c #7E5E62",
"D.	c #BE868A",
"E.	c #C6A6AA",
"F.	c #7A1216",
"G.	c #925E66",
"H.	c #C98A91",
"I.	c #BA3A3E",
"J.	c #BA9EA3",
"K.	c #CFBEC2",
"L.	c #BA949A",
"M.	c #9E9292",
"N.	c #9E3A3E",
"O.	c #7E6E72",
"P.	c #D05E78",
"Q.	c #AE727C",
"R.	c #521E26",
"S.	c #926E74",
"T.	c #1D0609",
"U.	c #CE6A8E",
"V.	c #FEEAEB",
"W.	c #EED6DA",
"X.	c #967C80",
"Y.	c #FEE6EA",
"Z.	c #BE465A",
"`.	c #AA9E9F",
" +	c #AA6672",
".+	c #D66E7E",
"++	c #F5E2E5",
"@+	c #3E282C",
"#+	c #F6EAEA",
"$+	c #120606",
"%+	c #462E32",
"&+	c #C0A6AB",
"*+	c #988A8C",
"=+	c #B5969A",
"-+	c #160608",
";+	c #72424A",
">+	c #B63A4E",
",+	c #8E7676",
"'+	c #F7D9DF",
")+	c #B6878E",
"!+	c #DECACE",
"~+	c #AA7E82",
"{+	c #A68589",
"]+	c #A29295",
"^+	c #1E0204",
"/+	c #D6BEC2",
"(+	c #EEE2E4",
"_+	c #2C1D1F",
":+	c #ECC9CF",
"<+	c #503D3E",
"[+	c #5A4646",
"}+	c #E2C2C6",
"|+	c #B6A6A9",
"1+	c #D6AEB2",
"2+	c #AE969A",
"3+	c #716266",
"4+	c #BAA2A6",
"5+	c #EBDADD",
"6+	c #9E3242",
"7+	c #AA9A9D",
"8+	c #EACED2",
"9+	c #5E4C50",
"0+	c #FEE2E7",
"a+	c #B69EA2",
"b+	c #D2C2C6",
"c+	c #F6E6E9",
"d+	c #B29EA2",
"e+	c #BE4E62",
"f+	c #32020A",
"g+	c #7E6A6E",
"h+	c #AE8E96",
"i+	c #825A62",
"j+	c #9A8282",
"k+	c #725A5E",
"l+	c #CAB6BA",
"m+	c #320E12",
"n+	c #EAD2D6",
"o+	c #B67E8A",
"p+	c #56161E",
"q+	c #D6B6BA",
"r+	c #C2AAAE",
"s+	c #3E2226",
"t+	c #7E1A2A",
"u+	c #320A0E",
"v+	c #824E56",
"w+	c #A68A8E",
"x+	c #827678",
"y+	c #A27E82",
"z+	c #24060A",
"A+	c #C6AEB2",
"B+	c #DCC2C6",
"C+	c #3A2A2E",
"D+	c #B29A9E",
"E+	c #AA9296",
"F+	c #B6A2A6",
"G+	c #AA9698",
"                                                              ",
"                                                              ",
"                          N 5+# # 5+<.;.                      ",
"                    ++L L ++++c+++c (+l.# $ (.                ",
"                ++L *.c+c+c+c+#+c+c+#+(+# <.Z ]+<+            ",
"              x.Y.V.L *.*.*.L L c+c+# l.<.$ 1 K 3+=           ",
"            W.c+L *.L *.*.*.*.L ++# ^.$ /.z & & ^ *+9+        ",
"          >.s L L Y.V.Y.L L ++# l.!+b+1 Z y.& |+a `.@ C+      ",
"        :+x.0+V.V.Y.V.Y.L ++5+e $ K.v.y.& & a a j.u.; w b.    ",
"        W.x.Y.Y.Y.Y.x.x.s W.!+K.l+y.y.& & & a j.K K ^ @ C+    ",
"      }+'+x.0+0+Y.x.s W.!+B+/.v.y.;.& p.|+|+a K `.`.^ *+T q   ",
"      :+s 0+0+x.S '+8+B+/+l+A+y.y.& p.|+j.j.d+u.u.^ m.M.3+}   ",
"      o S S s.>.n+:+/.1+v.y.r+&+&+&+F+|+j.K u.7+7+^ m.M.( /   ",
"    $.o s.s.o 3 {.1+-.A+G E.&+&+p.F+F+a+d+u.7+7+^ ]+M.M.x+} . ",
"    8 :+o :+{.q+1+G $.E.&+E.).4+4+F+d+d+v v G+m.m.]+M.; x+/ . ",
"    )+{.{.A 1+r 8 r.r.L.x x 4+J.a+a+d+v v 7+m.Y ]+M.*+4.O./ . ",
"    V r _ r 0.!.| 0 0 m r.8 J.J.2.D+D+2+G+G+m.]+g.; 4.6.3+b.. ",
"    j o+1.1.Q.z.X ! [.~.S.7.i =+D+=+2+G+E+Y g.; *+t @ d w q . ",
"    j Q.{ g k o.- e.X ;+m ~+=+=+=+2+2+Y Y g.A.4.6.O.9.T _+. . ",
"    < W g > t+* R ` M w.w.=.{+7.2+'.l E+A.*+t (.3+= <+f.].. . ",
"      #.J >+% U > ] M G.v+=.y+h+'.E+l A.j+(.g+y T C+, q . .   ",
"      6+>+%.U.%.>+h &.k.[ [ 5 5 l w+n X.(.3+9+ .f./ ,.$+. f   ",
"      #.Z..+b+C e+~  +V !.L.).5 {+X.,+=.= <+%+/ q -+. . . f   ",
"      ..I.) C P.Z.H 3.}.' 8 L.{+X.p k+[+%+_.b.F 8.. . . .     ",
"        N.Q U :.5.{ H.1.' )+[ S.d q.9 P h.q -+f f f f f f     ",
"        6 F.|.h 3.H.H.)+[ S.=.a.i.%+u b.T.8.f . f . . f       ",
"            * ` 2 | I @.B.m O 0 u m+F 8.8.8.8.f f . f         ",
"              o.e.X n.;+~.n.s+u E T.8.8.8.f f . f 8.          ",
"                ! f+u+m+E t.z+T.B B B 8.8.f f f B             ",
"                    f+: 4 4 ^+^+B B 8.8.8.8.B                 ",
"                          4 B B 8.8.B F                       "};
