/* XPM */
static char * knob27_xpm[] = {
"31 31 256 2",
"  	c None",
". 	c #0A0202",
"+ 	c #3C2F2F",
"@ 	c #756261",
"# 	c #C6BAB6",
"$ 	c #8C7E7E",
"% 	c #CE3A42",
"& 	c #721E1A",
"* 	c #A29694",
"= 	c #8E2E2A",
"- 	c #D26A72",
"; 	c #420A06",
"> 	c #302222",
", 	c #CC9694",
"' 	c #CE7E7E",
") 	c #504242",
"! 	c #B2625E",
"~ 	c #BBAAA9",
"{ 	c #D2C6C6",
"] 	c #281A18",
"^ 	c #B67E76",
"/ 	c #822E2A",
"( 	c #E62A2E",
"_ 	c #BE9694",
": 	c #7E4646",
"< 	c #2A0606",
"[ 	c #A2625A",
"} 	c #CAA5A2",
"| 	c #948685",
"1 	c #F3D2D1",
"2 	c #625656",
"3 	c #1E1212",
"4 	c #AA9E9C",
"5 	c #6A3236",
"6 	c #8E5E5A",
"7 	c #7E7270",
"8 	c #B28686",
"9 	c #E6CAC6",
"0 	c #BE4A52",
"a 	c #6C4646",
"b 	c #461E1E",
"c 	c #240202",
"d 	c #AB7F7E",
"e 	c #956765",
"f 	c #B99692",
"g 	c #CAAAA6",
"h 	c #160E0C",
"i 	c #DEBABA",
"j 	c #5A2E2E",
"k 	c #BA4A3E",
"l 	c #9E9291",
"m 	c #E2CECD",
"n 	c #BF9E9B",
"o 	c #BC928E",
"p 	c #AE9E9E",
"q 	c #5A524E",
"r 	c #DEB4B4",
"s 	c #160202",
"t 	c #8E6868",
"u 	c #9A6662",
"v 	c #624242",
"w 	c #503E3E",
"x 	c #A28682",
"y 	c #B29E9C",
"z 	c #AA4038",
"A 	c #662A26",
"B 	c #D9BAB9",
"C 	c #B29696",
"D 	c #B65E62",
"E 	c #9E7E7A",
"F 	c #CA5E66",
"G 	c #B5A6A6",
"H 	c #EEDAD6",
"I 	c #C4B6B6",
"J 	c #8E7272",
"K 	c #8A5E5E",
"L 	c #160606",
"M 	c #453131",
"N 	c #501410",
"O 	c #CB9191",
"P 	c #9E6E6E",
"Q 	c #E6D6D2",
"R 	c #903C36",
"S 	c #E27272",
"T 	c #2A0E0E",
"U 	c #C46866",
"V 	c #AE9695",
"W 	c #D8B2AE",
"X 	c #5A4E4E",
"Y 	c #DDCECE",
"Z 	c #BFA6A5",
"` 	c #C3AAA8",
" .	c #866666",
"..	c #C25E5A",
"+.	c #473A37",
"@.	c #CE7662",
"#.	c #CAAEAE",
"$.	c #D2C2C1",
"%.	c #3C2222",
"&.	c #7A362E",
"*.	c #705C5A",
"=.	c #847775",
"-.	c #B69E9C",
";.	c #756968",
">.	c #6E4A46",
",.	c #220606",
"'.	c #ECD1D1",
").	c #D68A82",
"!.	c #AE8A8A",
"~.	c #442A28",
"{.	c #F3D6D3",
"].	c #563E3A",
"^.	c #A68C8A",
"/.	c #3A0A06",
"(.	c #C27E76",
"_.	c #584545",
":.	c #C3B2B1",
"<.	c #988280",
"[.	c #CCB2B2",
"}.	c #341C1C",
"|.	c #D8C1C1",
"1.	c #DA9E9A",
"2.	c #664646",
"3.	c #DAA2AA",
"4.	c #C6463A",
"5.	c #6C2A26",
"6.	c #A69A98",
"7.	c #9C8A88",
"8.	c #D7C6C6",
"9.	c #D65A64",
"0.	c #B68A86",
"a.	c #9E7674",
"b.	c #0E0202",
"c.	c #522E2E",
"d.	c #CE7A76",
"e.	c #B6A2A2",
"f.	c #332626",
"g.	c #865050",
"h.	c #6A5A5A",
"i.	c #3C2624",
"j.	c #7D6969",
"k.	c #92464A",
"l.	c #BE6A6A",
"m.	c #DEC9C8",
"n.	c #421616",
"o.	c #160A08",
"p.	c #361616",
"q.	c #5E120E",
"r.	c #863E42",
"s.	c #522A26",
"t.	c #CCBABA",
"u.	c #120202",
"v.	c #EAC2C2",
"w.	c #CA9E9A",
"x.	c #A29291",
"y.	c #9A8E8D",
"z.	c #E4D2D1",
"A.	c #AC918F",
"B.	c #968A89",
"C.	c #FADADA",
"D.	c #A69695",
"E.	c #8A7979",
"F.	c #DA7A7C",
"G.	c #C0A2A0",
"H.	c #564A4A",
"I.	c #2A1212",
"J.	c #C6A6A6",
"K.	c #DEC2C2",
"L.	c #B2A2A0",
"M.	c #634D4A",
"N.	c #86706C",
"O.	c #1E0E0D",
"P.	c #AE6A6A",
"Q.	c #BEAEAD",
"R.	c #6A3A36",
"S.	c #6E5252",
"T.	c #240E0E",
"U.	c #DA928E",
"V.	c #CA464E",
"W.	c #927F7E",
"X.	c #2E1E1E",
"Y.	c #221212",
"Z.	c #C49290",
"`.	c #1B0202",
" +	c #AE9A98",
".+	c #C4AEAD",
"++	c #9E8E8D",
"@+	c #D2A6A6",
"#+	c #7E625E",
"$+	c #645252",
"%+	c #762A26",
"&+	c #C6868A",
"*+	c #8A4A46",
"=+	c #9A5A5A",
"-+	c #EAD6D5",
";+	c #B89A97",
">+	c #DACACA",
",+	c #1E0602",
"'+	c #1E0A0A",
")+	c #AEA2A1",
"!+	c #BAA6A6",
"~+	c #C69A96",
"{+	c #967A76",
"]+	c #763E3A",
"^+	c #F4DAD7",
"/+	c #4E3636",
"(+	c #CCBEBE",
"_+	c #120604",
":+	c #C69E9A",
"<+	c #D2B6B6",
"[+	c #8E8282",
"}+	c #BF9A99",
"|+	c #0E0602",
"1+	c #E67682",
"2+	c #AA9695",
"3+	c #D29A92",
"4+	c #ECC7C6",
"5+	c #5E423E",
"6+	c #B2928E",
"7+	c #AA9A99",
"8+	c #BAA2A1",
"9+	c #524646",
"0+	c #2A1E1E",
"a+	c #CBB6B3",
"b+	c #241615",
"c+	c #4E2220",
"d+	c #E6B6B6",
"e+	c #DE5E62",
"f+	c #E6BEBE",
"g+	c #342A28",
"h+	c #6A5E5D",
"i+	c #3B2A29",
"j+	c #BA9E9C",
"k+	c #EED6D5",
"l+	c #36221E",
"m+	c #62322E",
"n+	c #E6CECE",
"o+	c #A68282",
"p+	c #1A0603",
"q+	c #4A3232",
"r+	c #561612",
"s+	c #765A56",
"t+	c #1A0A09",
"u+	c #D29E9A",
"v+	c #723A3A",
"w+	c #765252",
"x+	c #D2464A",
"y+	c #D2BEBE",
"z+	c #CC9A96",
"A+	c #D6B6B6",
"B+	c #9E7A78",
"C+	c #2C1614",
"D+	c #A69292",
"E+	c #B68080",
"F+	c #DA8A8E",
"G+	c #B29A99",
"                                                              ",
"                                  (                           ",
"                          ! U - 9.x+V.0 %                     ",
"                    , , O P.l.S 1+e+9.F D k.r.                ",
"                @+W d+r Z.*+R .., >+@+F.' =+g.g.5             ",
"              W B 4+v.r ^ A & z 4.@.).F.).&+E+e j c+          ",
"            W |.'.{.v.@+6 r+q.= z k U d.U.O Z.o+a c.b         ",
"          A+|.{.C.1 v., m+; N %+/ R ! d.1., Z.8 t v p.<       ",
"        [.m.9 ^+C.1 K.o c+/.N A 5.&.[ ^ u+, o o+t 2.b ,.c     ",
"        #.m.k+{.^+'.i f c+n.5 : v+]+u d z+}+o o+t 2.~.T `.    ",
"      .+a+m k+^+{.9 B n w+a K u e P 0._ :+f 6+E #+5+~.C+,+c   ",
"      a+8.n+-+{.k+4+B g !.B+{+P a.d _ G.}+_ !.J s+].i.I.`.`.  ",
"      [.>+n+-+k+'.|.<+#.J.n n ;+f _ } } ;+f !.N.S.q+%.I.s `.  ",
"    Z t.8.z.-+-+z.K.[.` ` J.G.G.n j+n j+;+A.x t M.q+X.T.`.s s ",
"    ~ $.m.m -+k+m y+[.g ` Z G.j+n -.-.;+ +A.<. .M.~.}.O.s s u.",
"    -.(+>+Y z.Q 9 t..+` Z G.8+8+-.;+;+G+C ++W.*.5+i+C+'+s u.u.",
"    A.Q.8.z.z.z.8.t..+` ~ G.8+j+-.G+G+V V ^.E.h.w l+b+t+s s u.",
"    7.p 8.Y m z.|.[.Q.~ Z e.-.L.G+G+ +V D+x N.S./+l+T.L u.b.u.",
"    ++L.|.Y Y Y (+.+!+!+!+e.-.y p V 7+2+x.[+j.X M X.T.L u.u.b.",
"    ++4 $.Y z.>+t.Q.~ G e.L.y p  +7+A.D+7.W.@ _.+ ] t+_+s b.. ",
"      7.# >+>+8.I ~ !+L.e.p y 7+2+D.* D+7.E.@ ) i+] t+_+u.u.  ",
"      $ Q.{ Y (+:.~ e.e.p y 7+7+D.D.D+++| =.2 w f.b+t+b.u.u.  ",
"      j.[+:.8.(+~ G G )+p 7+7+6.D.x.x.++<.7 $++.> O.L b.b.s   ",
"        h.B.# I Q.G p p 4 7+2+D+x.l ++7.$ j.X M ] h _+b.u.    ",
"        _.h.6.Q.G )+p 7+4 D.D.x.l ++y.| E.@ 9++ X.t+u.b.u.    ",
"          ) h+l 4 4 4 4 D.* * l ++y.| | =.h+) g+3 L b.b.      ",
"            + H.$ * 6.6.6.l l ++y.y.| [+7 2 +.> o.. u.        ",
"              X.w =.[+y.l l ++y.B.| | $ ;.9+f.o.b.u.          ",
"                t+0+g+2 =.| B.B.$ 7 7 ;.X > _+b.u.            ",
"                    L 3 g+H.;.;.9+g+f.b+3 _+u.                ",
"                          h 3 3 o.. |+.                       "};
