/* XPM */
static char * knob8_xpm[] = {
"31 31 256 2",
"  	c None",
". 	c #0E0202",
"+ 	c #2E2222",
"@ 	c #5E5256",
"# 	c #8D7E7E",
"$ 	c #CABABD",
"% 	c #BA2A4A",
"& 	c #B5A6A8",
"* 	c #C25E6A",
"= 	c #660E1A",
"- 	c #C27E82",
"; 	c #A22232",
"> 	c #AA525A",
", 	c #9A8E8E",
"' 	c #4E0A16",
") 	c #76222A",
"! 	c #4E4242",
"~ 	c #261A1A",
"{ 	c #6A5E5E",
"] 	c #DEAAB0",
"^ 	c #AB9295",
"/ 	c #EABEC2",
"( 	c #1E1212",
"_ 	c #94646C",
": 	c #AE7E86",
"< 	c #E6828E",
"[ 	c #44282A",
"} 	c #94545A",
"| 	c #CEA6AA",
"1 	c #9E2E3E",
"2 	c #C19297",
"3 	c #B26A6E",
"4 	c #BEAEB1",
"5 	c #DFBAC1",
"6 	c #AA9A9D",
"7 	c #AA7E86",
"8 	c #766666",
"9 	c #8E525A",
"0 	c #EA4246",
"a 	c #6E2A2E",
"b 	c #C2767E",
"c 	c #24060A",
"d 	c #BFA2A5",
"e 	c #423232",
"f 	c #92363E",
"g 	c #B29A9D",
"h 	c #7C6E6E",
"i 	c #BE3646",
"j 	c #DA5E62",
"k 	c #6A464A",
"l 	c #E4BEC2",
"m 	c #1D0E11",
"n 	c #921A2E",
"o 	c #C7A6AA",
"p 	c #E6929E",
"q 	c #A64E56",
"r 	c #1A0607",
"s 	c #9B868A",
"t 	c #5E2E36",
"u 	c #9E9292",
"v 	c #D3BABD",
"w 	c #321616",
"x 	c #A27076",
"y 	c #BA8E92",
"z 	c #8E666A",
"A 	c #B2A2A4",
"B 	c #DA929A",
"C 	c #421E1E",
"D 	c #C6B6B8",
"E 	c #825A5A",
"F 	c #825E62",
"G 	c #823E4A",
"H 	c #8E8283",
"I 	c #BF9A9E",
"J 	c #DAA2A6",
"K 	c #5A4C4E",
"L 	c #B63E4E",
"M 	c #EAC6CC",
"N 	c #4A1E22",
"O 	c #DA8A8E",
"P 	c #D6C2C3",
"Q 	c #A65E66",
"R 	c #EAAEB2",
"S 	c #CE3A5A",
"T 	c #4A3A3A",
"U 	c #887A7E",
"V 	c #DEC2C6",
"W 	c #C2A6AA",
"X 	c #EA526A",
"Y 	c #5E0E1A",
"Z 	c #968A8B",
"` 	c #A8727A",
" .	c #C6AEB2",
"..	c #7A3A46",
"+.	c #6E3E42",
"@.	c #B6969A",
"#.	c #866E70",
"$.	c #160A0C",
"%.	c #B69A9D",
"&.	c #761624",
"*.	c #EACACE",
"=.	c #AA8286",
"-.	c #B4606A",
";.	c #120202",
">.	c #2C1416",
",.	c #D2AAAE",
"'.	c #422226",
").	c #C28A8E",
"!.	c #DEA2AA",
"~.	c #864E52",
"{.	c #2A1A1E",
"].	c #56363A",
"^.	c #A69294",
"/.	c #624646",
"(.	c #B28A92",
"_.	c #C2466E",
":.	c #522A2C",
"<.	c #AE9EA0",
"[.	c #72464A",
"}.	c #665659",
"|.	c #E5CACF",
"1.	c #86666A",
"2.	c #BAA6AA",
"3.	c #A28E91",
"4.	c #CA929A",
"5.	c #B29296",
"6.	c #DABABE",
"7.	c #968286",
"8.	c #B67A7E",
"9.	c #351A1A",
"0.	c #D2B6B6",
"a.	c #DE667A",
"b.	c #B24652",
"c.	c #661A22",
"d.	c #BEB2B2",
"e.	c #E64E52",
"f.	c #E25E7A",
"g.	c #827275",
"h.	c #A6868A",
"i.	c #D2BEC1",
"j.	c #BAA2A5",
"k.	c #4A121A",
"l.	c #A87A7E",
"m.	c #664A4D",
"n.	c #C69298",
"o.	c #D7AEB5",
"p.	c #AA9699",
"q.	c #B69EA1",
"r.	c #E6C6CC",
"s.	c #9A8A8B",
"t.	c #C26682",
"u.	c #BA9296",
"v.	c #928687",
"w.	c #E2B6BC",
"x.	c #BAAAAC",
"y.	c #C69CA0",
"z.	c #7C444C",
"A.	c #130607",
"B.	c #A69696",
"C.	c #221616",
"D.	c #220E12",
"E.	c #B29EA0",
"F.	c #46363A",
"G.	c #160203",
"H.	c #9C6066",
"I.	c #A29697",
"J.	c #CE727E",
"K.	c #BE6266",
"L.	c #D65A6E",
"M.	c #CE8E96",
"N.	c #924A56",
"O.	c #BE4A56",
"P.	c #C7B2B5",
"Q.	c #1A0A0B",
"R.	c #231213",
"S.	c #2E1E20",
"T.	c #F2CCD0",
"U.	c #AA868A",
"V.	c #462E32",
"W.	c #8E5A5E",
"X.	c #A2767A",
"Y.	c #5E1622",
"Z.	c #7E4A4E",
"`.	c #C6A2A6",
" +	c #CEBEBE",
".+	c #CAB6BA",
"++	c #BE969A",
"@+	c #5E4E52",
"#+	c #665254",
"$+	c #DEC6C9",
"%+	c #9E8E90",
"&+	c #4A3233",
"*+	c #664E4F",
"=+	c #C9AAAE",
"-+	c #C09EA2",
";+	c #A29293",
">+	c #AE9A9B",
",+	c #B6A2A4",
"'+	c #867274",
")+	c #4A3E40",
"!+	c #E6AAB2",
"~+	c #DAC2C5",
"{+	c #230A0B",
"]+	c #C2AAAE",
"^+	c #665A5A",
"/+	c #CEBABD",
"(+	c #AE9698",
"_+	c #E2C6CA",
":+	c #D6BEC1",
"<+	c #C2B2B5",
"[+	c #AA263A",
"}+	c #B25262",
"|+	c #C2AEAF",
"1+	c #1E0607",
"2+	c #662A32",
"3+	c #3A161A",
"4+	c #8A5E66",
"5+	c #928282",
"6+	c #BA9A9D",
"7+	c #E69EA6",
"8+	c #BA8A92",
"9+	c #9E8A8D",
"0+	c #7E7272",
"a+	c #AEA2A2",
"b+	c #86767A",
"c+	c #BA9EA2",
"d+	c #4A3636",
"e+	c #766A6A",
"f+	c #EDCED2",
"g+	c #968688",
"h+	c #A28A8A",
"i+	c #DA8E9A",
"j+	c #CA768A",
"k+	c #B6AAAA",
"l+	c #CEAEB2",
"m+	c #322223",
"n+	c #B2969A",
"o+	c #BA969B",
"p+	c #BEAAAE",
"q+	c #BEA6AA",
"r+	c #321E21",
"s+	c #B08288",
"t+	c #8A6A6C",
"u+	c #761A26",
"v+	c #120206",
"w+	c #DABEC2",
"x+	c #C6969E",
"y+	c #D25E72",
"z+	c #7A6A6E",
"A+	c #A68A8B",
"B+	c #A6969A",
"C+	c #EEC6CA",
"D+	c #CAAEB2",
"E+	c #8A6E70",
"F+	c #E6B6BA",
"G+	c #D2AEB6",
"                                                              ",
"                                                              ",
"                          P.i.v P.p+,+E.                      ",
"                    0.:+v 0..+$ D <+<+2.;+s s                 ",
"                6.V w+:+i.i..+.+.+P.<+|+& A 6 # h             ",
"              l *._+$+$+~+:+i.i..+D D <+d.4 x.<.%+8           ",
"            5 *.f+|._+_+_+$+:+P i./+/+.+D d.d.x.A v.}.        ",
"          F+T.f+f+*.f+f+|.$+$+~+:+:+i. +$ .+<+D 4 <.U K       ",
"        J / C+C+C+r._+_+_+$+V ~+P i.i. + +$ D D D d.<.8 S.    ",
"        7+F+F+F+5 5 5 6.6.6.:+i.v v /+.+D D <+d.4 4 k+, F.    ",
"      B !+!+] ] o.,.o.o.l+D+l+ . .|+]+|+p+x.x.k+& & A I.@ R.  ",
"      i+7+B M.4.4.x+y.o ,.=+]+=+p+q+2.,+& A E.E.a+<.<.I.g.{.  ",
"    X < * q N.G ..z._ (.-+o W W q+q+2.,+,+E.<.6 6 I.I.I.U +   ",
"    y+f.i 1 &.Y ' k.t 1.I d d d d q.q.q.<.<.<.6 B+B+;+u H )+Q.",
"    y+f.S % n = ' k.+._ o+`.d c+j.,+A E.<.6 6 B+;+I.%+, g+e+C.",
"  0 j O .+_.[+&.Y.2+_ X.++-+c+c+c+q.g g p.p.B.I.I.%+, , Z h C.",
"  e.J.y+j+t.; &.c.z.x 7 o+-+-+%.%.g >+>+p.^.^.3.u %+s.Z v.e+C.",
"    b.L O.> f ) 2+H.l.U.++6+%.%.g g (+p.p.B+;+u %+, Z g+H { ( ",
"    q > K.-.Q N.9 ` 8+2 o+6+%.%.g (+(+^.^.;+3.%+9+s.Z H h )+$.",
"    -.3 b - 8.` x : y.o -+6+%.n+(+p.^.^.3.3.%+s.Z g+v.b+)+( . ",
"      } H.).n.2 y ++,.,.6+@.n+^ (+^ ^ ;+3., s.s.g+5+H h S..   ",
"      ~.W.: 2 u.2 ++6+%.n+^ ^ ^ ^ ^.3.h+s.9+s.g+v.5+# ^+m .   ",
"      Z.Z.E X.=.h.U.U.h.A+A+h+s s s s s 7.5+# H H # e++ . ;.  ",
"        :.:./.F 1.1.t+E+t+#.E+'+'+'+g.'+g.'+b+'+h e+@+( .     ",
"        N C '.]./.m.m.*+m.m.*+#+#+#+@ }.}.}.}.^+@+F.( v+;.    ",
"          C 9.9.'.[ V.V.&+&+&+&+d+d+d+d+T T T e ~ $.. .       ",
"            3+{+{+D.w {.r+r+r+r+r+m+m+m+m++ S.Q.. . ;.        ",
"              c 1+1+r 1+Q.D.R.R.R.R.m m m A.v+. . ;.          ",
"                >.1+G.G.G.G.r r A.Q.A.v+v+. . . .             ",
"                    c c G.G.v+v+v+;.;.. ;.v+v+                ",
"                          G.. ;.;.. . ;.                      "};
