/* XPM */
static char * knob21_xpm[] = {
"31 31 256 2",
"  	c None",
". 	c #0A0202",
"+ 	c #3A2E2A",
"@ 	c #615250",
"# 	c #7E7270",
"$ 	c #9E9291",
"% 	c #E6726E",
"& 	c #CF9A95",
"* 	c #681A12",
"= 	c #BE6246",
"- 	c #AA462E",
"; 	c #C67266",
"> 	c #4E0E0A",
", 	c #B29696",
"' 	c #261A18",
") 	c #B65232",
"! 	c #7E4236",
"~ 	c #A87A76",
"{ 	c #CEA69E",
"] 	c #857A78",
"^ 	c #C2AEAE",
"/ 	c #574A47",
"( 	c #925242",
"_ 	c #6A5E5D",
": 	c #6A2E26",
"< 	c #B29E9B",
"[ 	c #8E8280",
"} 	c #C69E9A",
"| 	c #51423F",
"1 	c #1A120E",
"2 	c #DABEBA",
"3 	c #C29E99",
"4 	c #A58682",
"5 	c #523632",
"6 	c #AA9E9A",
"7 	c #F24E3A",
"8 	c #2B1E1D",
"9 	c #3F322E",
"0 	c #BAAAA8",
"a 	c #756666",
"b 	c #968A88",
"c 	c #C65E4A",
"d 	c #CEAEAA",
"e 	c #A69290",
"f 	c #962A1A",
"g 	c #C67E62",
"h 	c #E2AEAA",
"i 	c #967672",
"j 	c #8A5A52",
"k 	c #DA8E86",
"l 	c #BE9E96",
"m 	c #3E2A26",
"n 	c #160E0A",
"o 	c #E09288",
"p 	c #EE5E56",
"q 	c #BA827E",
"r 	c #A66E62",
"s 	c #B5A6A3",
"t 	c #2A221E",
"u 	c #9A7A76",
"v 	c #521E1A",
"w 	c #443632",
"x 	c #C2AAA8",
"y 	c #92362A",
"z 	c #BB7A71",
"A 	c #8A6C68",
"B 	c #B8928E",
"C 	c #D2B2AA",
"D 	c #B69E9D",
"E 	c #6E2A1E",
"F 	c #9E8282",
"G 	c #A69A97",
"H 	c #C28E8A",
"I 	c #0E0602",
"J 	c #72524E",
"K 	c #CABEB6",
"L 	c #907672",
"M 	c #DE9E99",
"N 	c #7E6664",
"O 	c #DBB6B3",
"P 	c #322A26",
"Q 	c #655653",
"R 	c #C7A6A1",
"S 	c #2C1614",
"T 	c #DA7666",
"U 	c #9A8A89",
"V 	c #623E3A",
"W 	c #664A46",
"X 	c #493E3B",
"Y 	c #BC968E",
"Z 	c #7A3E3A",
"` 	c #8C7A78",
" .	c #785E5A",
"..	c #E67E72",
"+.	c #E2BAB6",
"@.	c #A28A86",
"#.	c #46120E",
"$.	c #E6C0BC",
"%.	c #CEA29D",
"&.	c #624A46",
"*.	c #9A8E8D",
"=.	c #2F2222",
"-.	c #7A6E6B",
";.	c #4A2E2E",
">.	c #541A14",
",.	c #543C38",
"'.	c #B6A29F",
").	c #AE5E4E",
"!.	c #AE8C88",
"~.	c #7A2A22",
"{.	c #CE8E86",
"].	c #D67E6A",
"^.	c #160602",
"/.	c #DAA09A",
"(.	c #C2A6A2",
"_.	c #AE9A98",
":.	c #928682",
"<.	c #621E12",
"[.	c #B2A2A1",
"}.	c #86726F",
"|.	c #5E4642",
"1.	c #D6B6B3",
"2.	c #BEA29F",
"3.	c #C39A95",
"4.	c #3A221E",
"5.	c #946862",
"6.	c #C6AEAC",
"7.	c #4E3834",
"8.	c #A29694",
"9.	c #EE6A5A",
"0.	c #BE8E86",
"a.	c #AE9692",
"b.	c #EA9A8E",
"c.	c #EE7E74",
"d.	c #0E0202",
"e.	c #7F6A67",
"f.	c #DAAAA2",
"g.	c #26120E",
"h.	c #322624",
"i.	c #2E1A18",
"j.	c #422E2D",
"k.	c #8A4A42",
"l.	c #5E322E",
"m.	c #AA928E",
"n.	c #926256",
"o.	c #C6B2AE",
"p.	c #6A524E",
"q.	c #BEA6A4",
"r.	c #86625E",
"s.	c #C0928C",
"t.	c #72605C",
"u.	c #CEB6B2",
"v.	c #665A58",
"w.	c #9E8E8A",
"x.	c #B25246",
"y.	c #E68E7E",
"z.	c #9E3A2A",
"A.	c #BA5A4A",
"B.	c #C2A29F",
"C.	c #8A7E7B",
"D.	c #BAA6A4",
"E.	c #BAA29A",
"F.	c #463A37",
"G.	c #46322E",
"H.	c #362220",
"I.	c #5A4E4A",
"J.	c #C6AAA8",
"K.	c #EAC6C2",
"L.	c #D68672",
"M.	c #622622",
"N.	c #966E6A",
"O.	c #A69692",
"P.	c #362A26",
"Q.	c #AA8E8A",
"R.	c #A2928E",
"S.	c #96827E",
"T.	c #120202",
"U.	c #554642",
"V.	c #7E6E6E",
"W.	c #AE7E76",
"X.	c #5E4A4A",
"Y.	c #827676",
"Z.	c #D6AEAA",
"`.	c #1E0E0D",
" +	c #D6A296",
".+	c #756A67",
"++	c #D6827A",
"@+	c #BA9E9A",
"#+	c #CAAEAB",
"$+	c #6E6260",
"%+	c #DABAB8",
"&+	c #867674",
"*+	c #AA9A96",
"=+	c #AE9E9D",
"-+	c #8E7E7D",
";+	c #66524E",
">+	c #2A1A16",
",+	c #56423E",
"'+	c #9E726E",
")+	c #9E7E7A",
"!+	c #4A3632",
"~+	c #6A5652",
"{+	c #6A3A36",
"]+	c #4E3E3E",
"^+	c #927A7A",
"/+	c #EABAB6",
"(+	c #5A1A12",
"_+	c #822A1A",
":+	c #D68A7E",
"<+	c #362625",
"[+	c #A67E76",
"}+	c #BA9A96",
"|+	c #AA9694",
"1+	c #C7A29B",
"2+	c #AEA2A2",
"3+	c #BAA29F",
"4+	c #4A3A36",
"5+	c #8E8682",
"6+	c #A28E8E",
"7+	c #160A09",
"8+	c #9E8A88",
"9+	c #C67672",
"0+	c #7E4642",
"a+	c #120604",
"b+	c #9A867E",
"c+	c #D6BAB6",
"d+	c #968685",
"e+	c #B29A96",
"f+	c #DEA29A",
"g+	c #221612",
"h+	c #827270",
"i+	c #BEAAA8",
"j+	c #D2B6B4",
"k+	c #6A5A58",
"l+	c #3A2A26",
"m+	c #CEAAA6",
"n+	c #705652",
"o+	c #76625E",
"p+	c #E2827A",
"q+	c #624E4C",
"r+	c #3E2E2C",
"s+	c #A68E8C",
"t+	c #1A0A08",
"u+	c #A69696",
"v+	c #A29292",
"w+	c #CEB2B2",
"x+	c #9E8E8E",
"y+	c #AA9A9A",
"z+	c #928686",
"A+	c #9B8685",
"B+	c #1E1210",
"C+	c #DEBEBA",
"D+	c #CAB2B2",
"E+	c #CAAAA6",
"F+	c #826E6C",
"G+	c #967E7A",
"                                                              ",
"                                                              ",
"                      7 9.++z z q ~ '+5.                      ",
"                  p % ..y.b.o M h } , u J W V                 ",
"                p+c.c.M ++T :+M f+{ 3.4 A n+5 ;.,.            ",
"              k y...].K g c ; {. +%.3 !.i  .X.5 m 4.          ",
"            M M 9+x.A.= ) - ).z & %.} B )+N p.,+j.H.S         ",
"          /.h & 0+~.y y f _+( r s.1+1+}+4 A k+|.7.m S g.      ",
"        3.O /+& Z (+* E * * ! n.W.l B.@+Q.L  .q+,.r+H.i.i.    ",
"        m+$.$.%.j >.> >.M.: 0+n.[+l (.@+m.G+N ;+]+G.l+h.>+    ",
"      } 1.$.+.f.~ >.#.{+~ s.0.Y } 1+2.E., b+e.n+U.w j.l+8 t+  ",
"      l c+C+C+1.B l.l.N.B Y 3.{ C (.2.@+_.@.}._ / 7.r+l+=.t+  ",
"      @+u.c+%+1.B.r.r.!.3 E+C d R 2.E.@+e+e ^+o+@ ]+j.l+<+>+  ",
"    4 a.x j+2 1.d Y l O 1.m+E+1+2.l @+D _.e S.e.Q U.w + P.g+^.",
"    Q.e+q.6.c+j+w+#+E+d J.(.2.E.E.@+'.D _.O.b+h+k+/ w + h.`.d.",
"    A+s+D x D+u.u.#+6.x x B.q.E.D D e+_._.|+U &+t./ X r+=.B+a+",
"    &+` |+3+6.D+D+6.J.(.q.2.3+E.D < < _.|+O.@.` N @ ]+9 P g+a+",
"    8+6+|+< q.o.D+6.i+i+D.'.E.D < < _._.O.e *.[ -.Q U.w <+`.d.",
"    A+8+O._.3+^ o.6.q.q.D.'.[.< _._.|+|+O.R.w.:.h+v./ F.P B+I ",
"    }.}.A+O.=+'.^ o.i+s '.[.< =+_.|+O.O.R.6+*.d+Y.$+/ X P.7+d.",
"      F+` 8+*+< 0 ^ 0 s D [.< =+*+|+e R.R.w.U d+] a @ X t ^.  ",
"      e.h+U v+6 [.0 0 '.2+=+*+*+O.O.8.R.*.w.b :.` -.Q X `.d.  ",
"      N a ` A+O.2+s 0 [.=+_.*+*+8.R.w.w.U U b :.C.# v.F.n T.  ",
"        / @ -.U |+< [.[._.6 O.8.R.$ $ *.*.b :.5+C.# I.8 T.    ",
"        !+| _ [ $ *+2+2+*+G O.8.R.w.*.b b d+S.[ C.a t I T.    ",
"          q+@ .+-+8.=+2+y+8.v+R.*.*.U b :.[ [ C..+Q 1 T.      ",
"            !+F.Q C.O.6 G 8.$ x+*.b d+:.5+[ ] _ t `.a+        ",
"              ' + I.Y.b $ $ *.*.b b b 5+C.-._ + 7+d.          ",
"                `.`.8 F.$+Y.] ] # -.-..+v.h.g+7+d.            ",
"                    T.t+B+' =.h.' ' 8 ' g+d..                 ",
"                          d.. I . . . .                       "};
