/* XPM */
static char * knob20_xpm[] = {
"31 31 256 2",
"  	c None",
". 	c #0A0202",
"+ 	c #3E3230",
"@ 	c #665655",
"# 	c #827675",
"$ 	c #CE8682",
"% 	c #968A88",
"& 	c #EE564E",
"* 	c #66160E",
"= 	c #AE4636",
"- 	c #E68A82",
"; 	c #AC8A88",
"> 	c #BE5E4A",
", 	c #460E0A",
"' 	c #8E3E36",
") 	c #2E2222",
"! 	c #CAA696",
"~ 	c #AE564E",
"{ 	c #6A3A32",
"] 	c #BAA6A4",
"^ 	c #4A3E3B",
"/ 	c #B6766E",
"( 	c #716261",
"_ 	c #221614",
": 	c #AA9692",
"< 	c #BA9692",
"[ 	c #DABAB6",
"} 	c #A27672",
"| 	c #E2A6A2",
"1 	c #422E2E",
"2 	c #8E6A66",
"3 	c #9E9291",
"4 	c #564644",
"5 	c #8A7E7C",
"6 	c #1E1211",
"7 	c #F24A4E",
"8 	c #CAB2AE",
"9 	c #CA968E",
"0 	c #7E726F",
"a 	c #62322E",
"b 	c #92261E",
"c 	c #825A52",
"d 	c #DEA69E",
"e 	c #B69E9D",
"f 	c #8A6A6A",
"g 	c #AE9E9B",
"h 	c #DE9692",
"i 	c #9E7E7A",
"j 	c #1B0E0E",
"k 	c #761A12",
"l 	c #9E5E56",
"m 	c #736663",
"n 	c #BE8A86",
"o 	c #918682",
"p 	c #864A46",
"q 	c #C29E9A",
"r 	c #5A4E4B",
"s 	c #3D2E2D",
"t 	c #9E8A89",
"u 	c #E65E52",
"v 	c #DCB2B0",
"w 	c #62261E",
"x 	c #664242",
"y 	c #E6766A",
"z 	c #3E2222",
"A 	c #4A3230",
"B 	c #4A1E16",
"C 	c #6E4A4A",
"D 	c #C69A98",
"E 	c #7E1E0E",
"F 	c #9E625A",
"G 	c #AA362A",
"H 	c #1C0A0A",
"I 	c #826666",
"J 	c #C7AEAB",
"K 	c #725656",
"L 	c #A27E7A",
"M 	c #A69A96",
"N 	c #9E4A42",
"O 	c #DA625A",
"P 	c #BE9E9C",
"Q 	c #C64E42",
"R 	c #AE9692",
"S 	c #967A7A",
"T 	c #8E7E7A",
"U 	c #EA867A",
"V 	c #D2AAAB",
"W 	c #D69E96",
"X 	c #120603",
"Y 	c #BEAAA7",
"Z 	c #B27E7E",
"` 	c #E6625A",
" .	c #352A27",
"..	c #A69692",
"+.	c #4E120A",
"@.	c #CFB2AF",
"#.	c #9C6A62",
"$.	c #E6AEAA",
"%.	c #C66A62",
"&.	c #AE726A",
"*.	c #B6A2A1",
"=.	c #664646",
"-.	c #523E3E",
";.	c #762A1E",
">.	c #EE7672",
",.	c #682E26",
"'.	c #665A5A",
").	c #7A6E6D",
"!.	c #4B3A3A",
"~.	c #2A1E1E",
"{.	c #E4BEBA",
"].	c #C9A29D",
"^.	c #5E1E1A",
"/.	c #664E4C",
"(.	c #DEA2A2",
"_.	c #2A1616",
":.	c #7A6A69",
"<.	c #C19692",
"[.	c #8E8281",
"}.	c #AA9A98",
"|.	c #9A8E8C",
"1.	c #8C7674",
"2.	c #AA928E",
"3.	c #0E0202",
"4.	c #A68A8A",
"5.	c #E26A5A",
"6.	c #C6AAA7",
"7.	c #CE5A4A",
"8.	c #DA968E",
"9.	c #DC9288",
"0.	c #3C2624",
"a.	c #BE8E8A",
"b.	c #CFAEAA",
"c.	c #A29291",
"d.	c #5D4645",
"e.	c #8A7272",
"f.	c #B1A29F",
"g.	c #CEA6A4",
"h.	c #776260",
"i.	c #BE827E",
"j.	c #5A0E08",
"k.	c #D6B2AE",
"l.	c #5E5251",
"m.	c #362222",
"n.	c #9C8282",
"o.	c #6D5A57",
"p.	c #8E7272",
"q.	c #9E8E8D",
"r.	c #928281",
"s.	c #7E524E",
"t.	c #DC7E76",
"u.	c #725E5A",
"v.	c #968684",
"w.	c #9A8A89",
"x.	c #927E7B",
"y.	c #624E4C",
"z.	c #6A221E",
"A.	c #B29A99",
"B.	c #C2A6A2",
"C.	c #C2766E",
"D.	c #AE766E",
"E.	c #AA4636",
"F.	c #C2AEAA",
"G.	c #BA9E9D",
"H.	c #4E3636",
"I.	c #C6A6A4",
"J.	c #B29E9A",
"K.	c #423636",
"L.	c #BAA2A0",
"M.	c #B28E8A",
"N.	c #C28E8A",
"O.	c #867A77",
"P.	c #4E4241",
"Q.	c #623A36",
"R.	c #DEAEAA",
"S.	c #6A5252",
"T.	c #826E6E",
"U.	c #A28682",
"V.	c #E2B6B2",
"W.	c #EA6A6A",
"X.	c #523A36",
"Y.	c #2E1612",
"Z.	c #120202",
"`.	c #766A68",
" +	c #D2B6B2",
".+	c #160A08",
"++	c #BEA2A0",
"@+	c #A28E8D",
"#+	c #6E5656",
"$+	c #4A2E2A",
"%+	c #C2A29F",
"&+	c #473635",
"*+	c #C19A97",
"=+	c #5B4A49",
"-+	c #6D5E5B",
";+	c #CE9E9E",
">+	c #3A2A27",
",+	c #A69291",
"'+	c #966E6A",
")+	c #825A56",
"!+	c #CA9E9B",
"~+	c #BEA6A2",
"{+	c #C2AAA6",
"]+	c #EAC2BE",
"^+	c #CEA29A",
"/+	c #86524E",
"(+	c #7A5E5E",
"_+	c #564A46",
":+	c #DCB6B2",
"<+	c #AE9A99",
"[+	c #8A7A7A",
"}+	c #9C8682",
"|+	c #322626",
"1+	c #261A19",
"2+	c #827270",
"3+	c #CAAAA7",
"4+	c #D2A29F",
"5+	c #55423F",
"6+	c #22120E",
"7+	c #2A1A19",
"8+	c #B99A99",
"9+	c #A3827F",
"0+	c #BB928E",
"a+	c #CAA6A0",
"b+	c #423230",
"c+	c #322222",
"d+	c #7E6A68",
"e+	c #DEBEBA",
"f+	c #826A6A",
"g+	c #B4827A",
"h+	c #9A6E6A",
"i+	c #56120A",
"j+	c #D6B6B4",
"k+	c #7E5E5E",
"l+	c #A29696",
"m+	c #867674",
"n+	c #4E3E3A",
"o+	c #5E4E4E",
"p+	c #967E7A",
"q+	c #3E2A2A",
"r+	c #AA9696",
"s+	c #928686",
"t+	c #B29E9E",
"u+	c #968282",
"v+	c #A69696",
"w+	c #AE4A3A",
"x+	c #DEAAA2",
"y+	c #8A6E6E",
"z+	c #E2B2AA",
"A+	c #A68E8E",
"B+	c #362622",
"C+	c #6E261E",
"D+	c #B2928E",
"E+	c #C29282",
"F+	c #EA6E6A",
"G+	c #967272",
"                                                              ",
"                                                              ",
"                        u C.i.N.Z } '+)+                      ",
"                  7 ` y - h (.$.^+0+i )+C =.x                 ",
"              & F+W.F+O O t.h (.4+D ; 1.k+/.X.A $+            ",
"              - U t.b.7.Q %.$ W 4+!+< L y+#+x H.q+z           ",
"            8.9.9.! <.> = ~ / 9 ^+].P U.p.h.y.-.&+0._.        ",
"          d d &.N E.w+G b ' l g+!+a+q D+i I K =+!.s m.0.      ",
"        ^+V.$.l C+;.E k * z.p #.0+].%+R U.T.K /.-.A 1 q+_.    ",
"        g.]+R.D.w j.j.j.^.,./+#.<.].%+G.4.1.I S.5+!.K.+ 7+    ",
"      9 @.{.v 0+a , +.,.#.n 0+<.V I.q e 2.x.d+o.d.!.&+b+c+H   ",
"      P [ {.:+q s.B a Z E+*+^+b.j+B.L.8+R n.1.u.o+5+A s >+6+  ",
"      *+b.:+[ b.L Q.)+0+!+g.v V I.%+L.8+A.t x.d+@ 4 !.+ B+j   ",
"    M.G.6.@.j+j+q 2 L ].:+b.I.B.P G.G.e A.2.n.T.o.=+^ b+ .H Z.",
"    n.2.] J  +@.J q %+I.3+I.++++G.e e A.<+..w.1.( o+n+&+s 6 X ",
"    n.A+8+{+J  +b.J 6.6.%+~+++L.G.8+A.A.<+2.t T :.S.4 &+s 7+Z.",
"    x.}+: *.~+8 J J B.Y ++++G.*.e J.J.R : ..@+r.0 o._+!.+ ) X ",
"    f+T.t R ] {+8 {+Y ~+~+L.*.e J.A.r+: : ,+q.v.m+m l.P.K.) X ",
"    x.x.t ,+J.L.F.{+~+] *.L.*.J.<+<+}...,+c.@+% [+:.@ _+K.7+X ",
"    }+x.v.t ,+f.Y F.Y *.*.J.J.g <+}.: ,+c.c.|.}+[.0 -+_+K.j 3.",
"      d+m+v.@+r+t+] ] *.*.g A.g <+....c.@+q.|.}+[.# m l.s X   ",
"      ( h.T }+c.}.*.] ] g <+}.r+....c.c.q.|.% % [.O.m r ~.X   ",
"      h.( 2+x.q.l+g f.f.J.g }.v+v+c.3 |.t % v.v.[.5 )._+6 Z.  ",
"        #+-+0 T q...g g g v+M ..c.c.q.q.% v.s+[.T O.( ~.Z.    ",
"        5+^ r :.r.q.}.g g v+v+c.3 q.|.w.% s+s+[.[+`.r 6 Z.    ",
"          s !.l.# v.3 v+M v+c.3 q.|.% % v.r.[.5 `.|+6 Z.      ",
"            !.!.r :.o c.M l+3 q.w.w.% s+o [.5 m _+j 3.        ",
"              B+ .P.m 5 % 3 q.|.|.s+s+[.5 ).'.) j 3.          ",
"                6+6 _ s l.0 O.# # 0 ).).'.) 6 3..             ",
"                    Z..+6 1+~. . .1+1+_ _ X .                 ",
"                          3.3.X 3.. . .                       "};
