/* XPM */
static char * knob36_xpm[] = {
"31 31 256 2",
"  	c None",
". 	c #0E0202",
"+ 	c #433333",
"@ 	c #887977",
"# 	c #E2D6D2",
"$ 	c #AA9E9C",
"% 	c #6E1E16",
"& 	c #A63A36",
"* 	c #D9C6C5",
"= 	c #4A0E0A",
"- 	c #726464",
"; 	c #823632",
"> 	c #322624",
", 	c #C87C72",
"' 	c #C6BAB9",
") 	c #380C06",
"! 	c #918381",
"~ 	c #635251",
"{ 	c #BEB2B1",
"] 	c #261A16",
"^ 	c #6E322E",
"/ 	c #DE9E92",
"( 	c #9E8E8E",
"_ 	c #2A0804",
": 	c #F1E2E0",
"< 	c #DA6252",
"[ 	c #BA463E",
"} 	c #BAAEAD",
"| 	c #A28886",
"1 	c #AE1616",
"2 	c #1F0202",
"3 	c #92423E",
"4 	c #96625E",
"5 	c #C98B86",
"6 	c #A67672",
"7 	c #524242",
"8 	c #BC9E9C",
"9 	c #B05E58",
"0 	c #AE8E8D",
"a 	c #F6EAE7",
"b 	c #CA5E56",
"c 	c #8E4A42",
"d 	c #E0BEBC",
"e 	c #5A120E",
"f 	c #6E3A36",
"g 	c #201212",
"h 	c #5E1A16",
"i 	c #EDCDCA",
"j 	c #BA827E",
"k 	c #564646",
"l 	c #AC9290",
"m 	c #927676",
"n 	c #36211F",
"o 	c #7A524E",
"p 	c #76120E",
"q 	c #1A0E0C",
"r 	c #BAA6A5",
"s 	c #AEA2A0",
"t 	c #C39793",
"u 	c #A24F47",
"v 	c #AE6662",
"w 	c #160202",
"x 	c #8A2222",
"y 	c #1E0E0D",
"z 	c #BA9A99",
"A 	c #D7BBB9",
"B 	c #7E6E6C",
"C 	c #4B221E",
"D 	c #F6D6D6",
"E 	c #B6827E",
"F 	c #C06A64",
"G 	c #DACECC",
"H 	c #D2827A",
"I 	c #704442",
"J 	c #CAB2AE",
"K 	c #906664",
"L 	c #320E0A",
"M 	c #F8E2DE",
"N 	c #3E2A26",
"O 	c #725352",
"P 	c #C7AEAD",
"Q 	c #D0C2C0",
"R 	c #866462",
"S 	c #895953",
"T 	c #AA9696",
"U 	c #C6AAA8",
"V 	c #4C3E3E",
"W 	c #B2A6A6",
"X 	c #563E3E",
"Y 	c #DE766E",
"Z 	c #9A7775",
"` 	c #8C6C6A",
" .	c #BE7E7E",
"..	c #B19695",
"+.	c #CEAAA6",
"@.	c #FAEEEA",
"#.	c #96716D",
"$.	c #3C120E",
"%.	c #A25E5A",
"&.	c #EED6D6",
"*.	c #D2BBB9",
"=.	c #180A08",
"-.	c #6A4A4A",
";.	c #4E2E2A",
">.	c #A49696",
",.	c #5E2622",
"'.	c #978A88",
").	c #862E26",
"!.	c #5A3A3A",
"~.	c #722E2A",
"{.	c #62423E",
"].	c #BA6E66",
"^.	c #220A08",
"/.	c #764E4A",
"(.	c #C2B2B0",
"_.	c #4E3232",
":.	c #655957",
"<.	c #B69E9D",
"[.	c #A66A66",
"}.	c #725C5C",
"|.	c #120202",
"1.	c #C2A6A6",
"2.	c #9B8583",
"3.	c #5A261E",
"4.	c #E0CECC",
"5.	c #DEC6C2",
"6.	c #CEBAB6",
"7.	c #7C4642",
"8.	c #FEE2E2",
"9.	c #C2B6B5",
"0.	c #C2AEAD",
"a.	c #D48A82",
"b.	c #46120E",
"c.	c #DCA69C",
"d.	c #7E5C58",
"e.	c #B6221E",
"f.	c #FAEAE9",
"g.	c #AE8682",
"h.	c #923A36",
"i.	c #7E3E3A",
"j.	c #B6A2A1",
"k.	c #EADEDE",
"l.	c #BC8A88",
"m.	c #D8C2C0",
"n.	c #B68A88",
"o.	c #9E7E7A",
"p.	c #D8AEAC",
"q.	c #180604",
"r.	c #BAAAAA",
"s.	c #92564E",
"t.	c #2B1513",
"u.	c #AE9A99",
"v.	c #642420",
"w.	c #3E2E2E",
"x.	c #2F1F1F",
"y.	c #EAD2D2",
"z.	c #564A4A",
"A.	c #4C3938",
"B.	c #A87E7A",
"C.	c #B6AAA8",
"D.	c #AE9E9E",
"E.	c #A78683",
"F.	c #766A66",
"G.	c #F6DADA",
"H.	c #D66A62",
"I.	c #1F0603",
"J.	c #C2928E",
"K.	c #BCA2A0",
"L.	c #AB716A",
"M.	c #6A2A22",
"N.	c #867070",
"O.	c #907E7E",
"P.	c #D0786A",
"Q.	c #F8E6E5",
"R.	c #E3D2D1",
"S.	c #3A2929",
"T.	c #633936",
"U.	c #420E0A",
"V.	c #301A1A",
"W.	c #DE8A76",
"X.	c #E0685A",
"Y.	c #9E423A",
"Z.	c #922E2A",
"`.	c #A88A88",
" +	c #1A0202",
".+	c #F2E6E3",
"++	c #7A6464",
"@+	c #A69292",
"#+	c #321614",
"$+	c #D26656",
"%+	c #4E2622",
"&+	c #826A66",
"*+	c #AA9A9A",
"=+	c #DA7E76",
"-+	c #8E7272",
";+	c #FEF2EE",
">+	c #F2DEDA",
",+	c #120606",
"'+	c #461A16",
")+	c #925E5A",
"!+	c #623E3A",
"~+	c #D7CAC6",
"{+	c #CAB6B6",
"]+	c #9F7A76",
"^+	c #B39A99",
"/+	c #B38E8D",
"(+	c #230E0D",
"_+	c #9B6F6D",
":+	c #BEAEAC",
"<+	c #9E8A8A",
"[+	c #CABEBA",
"}+	c #B6A6A5",
"|+	c #FEEEEC",
"1+	c #D2B6B6",
"2+	c #B69696",
"3+	c #E8D9D8",
"4+	c #E6CECA",
"5+	c #B29292",
"6+	c #6A524E",
"7+	c #521E1A",
"8+	c #452925",
"9+	c #C6B6B5",
"0+	c #260602",
"a+	c #A29291",
"b+	c #320A06",
"c+	c #5E4642",
"d+	c #462E2C",
"e+	c #F2D2D2",
"f+	c #5E4C48",
"g+	c #CEBEBC",
"h+	c #C6B2B0",
"i+	c #B29E9D",
"j+	c #FEEAE9",
"k+	c #CABABA",
"l+	c #968282",
"m+	c #76322A",
"n+	c #B65E52",
"o+	c #E6BEBA",
"p+	c #261616",
"q+	c #B2A2A2",
"r+	c #92221E",
"s+	c #DA8276",
"t+	c #7E4E4A",
"u+	c #6A5A5A",
"v+	c #BEAAA8",
"w+	c #6A221E",
"x+	c #AE7E7A",
"y+	c #7E7272",
"z+	c #F8DEDC",
"A+	c #BEA6A3",
"B+	c #A69A9A",
"C+	c #3E1612",
"D+	c #F0DAD9",
"E+	c #C2AAA8",
"F+	c #DFCAC8",
"G+	c #FEE6E5",
"                                                              ",
"                                                              ",
"                          z 8 ..E.o.#.K                       ",
"                    U J 1+6.*.A 1.^+E.Z _+t+7.                ",
"                m.~+* 4.R.D D+G.e+i o+p.t S 7.^ w+            ",
"              F+R.D+>+M M Q.8.z+D i d p.t L.s.M.m+3           ",
"            R.3+: f.f.j+j+G+8.G.i d +.l.4 i.; h.u u Z.e.      ",
"          F+3+f.f.j+j+j+G+M &.i 1+z #.T.7+h ).[ $+, & x 1     ",
"        * R.: |+|+|+j+Q.M &.5.A 8 o C ) = v.u P.W.c.F r+p     ",
"        R.: f.|+j+j+G+M R.5.*.J 5+;.b+U.3.c 9 P./ c.s+Y.%     ",
"      G : @.|+|+|+a >+R.m.1+P U 5+{.$.'+S %.9 b < X.H.9 w+e   ",
"      # a |+|+@.Q.D+F+m.6.h+P U ^+R C C )+[.v F H.Y =+].,.b.  ",
"      a @.;+@..+# ~+g+{+h+P 1.1.8 E.I C f x+ ., , W.H L.,.U.  ",
"    9+.+;+a >+R.~+g+{+h+P E+E+1.K.^+]+T.T.6 j l.5 5 j L.f $.b+",
"    g+: a k.4.m.6.{+h+0.0.v+A+K.8 ^+0 R /._+l.J.J.E x+6 S C+0+",
"    ~+k.# G Q k+' (.h+0.:+v+A+K.8 z 2+`.Z /+t n.E B.6 ` o $.0+",
"    Q 4.* Q ' 9+9+(.(.v+A+r K.j.<.^+2+5+`./+/+E.o.Z ` d.!+L 2 ",
"    a+[+Q ' ' 9+(.{ :+v+r.j.j.<.i+..../+0 `.E.]+#.R /.!+8+^.I.",
"    ( { ' ' 9.9.0.:+} r r }+i+^+^+..T 0 <+2.]+` d.-.!.8+#+0+2 ",
"    ! W ' 9+9.(.{ r.r.}+}+q+i+D.u.T l ( 2.m &+u+{._.S.#+^. +I.",
"      2.} 9.{ :+} r.r.q+j.q+^+*+T @+<+2.-+++-.7 d+n t.0+2  +  ",
"      >.} { { } r.}+q+}+s D.*+T @+<+Z &+}.c+A.8+V.^.I.q.w 2   ",
"      @ $ C.} } C.}+q+i+D.$ >.( 2.@ F.6+X d+x.t.(+ +w w w 2   ",
"        - B+C.W W W s s u.>.( l+y+- f+A.S.V.(+q.w w w w w     ",
"        k @ s W W s $ B+@+<+O.&+:.X + n p+(+q.w w w w w  +    ",
"          ~ ! >.$ $ *+a+'.@ - ~ A.w.V.g q.|.w |.|.|.|.w       ",
"            A.:.'.>.a+! B :.k + n ] q ,+|.. |.|.|.|.w         ",
"              S.k B y+- :.7 S.x.g q.|.|.. |.. |.|..           ",
"                y x.+ A.w.> ] q ,+. . |.|.|.. |..             ",
"                    =.q q q ,+. . . . . . |..                 ",
"                          . . . . . . |.                      "};
