/* XPM */
static char * knob22_xpm[] = {
"31 31 256 2",
"  	c None",
". 	c #0A0202",
"+ 	c #362A2A",
"@ 	c #5C4E50",
"# 	c #7F7273",
"$ 	c #AEA2A2",
"% 	c #C27E82",
"& 	c #DA4E52",
"* 	c #661212",
"= 	c #8E8282",
"- 	c #AE3A42",
"; 	c #CE5A56",
"> 	c #4E0E0E",
", 	c #A23232",
"' 	c #BA8282",
") 	c #2A1E1E",
"! 	c #B24E4E",
"~ 	c #DDA2A1",
"{ 	c #A69696",
"] 	c #C68286",
"^ 	c #524646",
"/ 	c #AE7A7E",
"( 	c #825252",
"_ 	c #221616",
": 	c #6E3236",
"< 	c #CEA6A8",
"[ 	c #746667",
"} 	c #2E1212",
"| 	c #C28A8A",
"1 	c #4E3E3E",
"2 	c #AA8686",
"3 	c #9E7676",
"4 	c #B29292",
"5 	c #BEAEAE",
"6 	c #DCB4B4",
"7 	c #5E2A2A",
"8 	c #9A8E8E",
"9 	c #965E60",
"0 	c #6F5E5E",
"a 	c #1E1212",
"b 	c #F23E3E",
"c 	c #C6A2A2",
"d 	c #C49294",
"e 	c #861A1E",
"f 	c #B49698",
"g 	c #D0AEAE",
"h 	c #927272",
"i 	c #764E4E",
"j 	c #9A6E6E",
"k 	c #D68E8E",
"l 	c #1E0608",
"m 	c #CA7276",
"n 	c #5C2424",
"o 	c #BAA2A2",
"p 	c #4A2A2A",
"q 	c #9A8282",
"r 	c #E0605E",
"s 	c #8A7E7E",
"t 	c #BE9696",
"u 	c #D8827E",
"v 	c #D27672",
"w 	c #AE9E9E",
"x 	c #422626",
"y 	c #DEBABA",
"z 	c #180A0C",
"A 	c #BAAAAA",
"B 	c #846666",
"C 	c #8E767A",
"D 	c #624646",
"E 	c #D29A98",
"F 	c #B29E9F",
"G 	c #C26E6E",
"H 	c #AA4A4E",
"I 	c #D0B2B2",
"J 	c #EABABA",
"K 	c #D67A7E",
"L 	c #403232",
"M 	c #C59A9B",
"N 	c #2E1E1E",
"O 	c #681C1E",
"P 	c #F2564E",
"Q 	c #635656",
"R 	c #6E423E",
"S 	c #A26E6E",
"T 	c #120202",
"U 	c #301A1D",
"V 	c #AE8A8A",
"W 	c #322626",
"X 	c #EE827E",
"Y 	c #4E3234",
"Z 	c #6A4E4E",
"` 	c #AE9699",
" .	c #520E0E",
"..	c #422A2A",
"+.	c #C2A2A2",
"@.	c #928686",
"#.	c #7D6E6E",
"$.	c #DA6A66",
"%.	c #DE726E",
"&.	c #866A6E",
"*.	c #CAAEAE",
"=.	c #523234",
"-.	c #8A7272",
";.	c #DA9E9E",
">.	c #9E9292",
",.	c #420A0A",
"'.	c #7C6062",
").	c #A28686",
"!.	c #96767A",
"~.	c #C8AAAA",
"{.	c #D5BABA",
"].	c #725858",
"^.	c #BA9A9D",
"/.	c #906C6C",
"(.	c #BA9E9E",
"_.	c #B27676",
":.	c #A66E6E",
"<.	c #965256",
"[.	c #822E32",
"}.	c #BE9A9E",
"|.	c #5E3434",
"1.	c #C6666E",
"2.	c #AA9A9A",
"3.	c #A68E8E",
"4.	c #5A3E3E",
"5.	c #CC9A9C",
"6.	c #3A2226",
"7.	c #1E0E0E",
"8.	c #D28A8C",
"9.	c #620E12",
"0.	c #E8B6B6",
"a.	c #682424",
"b.	c #E3BEBE",
"c.	c #A67E82",
"d.	c #BAA6A6",
"e.	c #EA7A76",
"f.	c #862626",
"g.	c #ECC4C2",
"h.	c #9A8686",
"i.	c #5E464A",
"j.	c #281616",
"k.	c #B69292",
"l.	c #271213",
"m.	c #963E3E",
"n.	c #120606",
"o.	c #E68686",
"p.	c #A28E91",
"q.	c #4C3A3A",
"r.	c #8A7A78",
"s.	c #AE9090",
"t.	c #CE969A",
"u.	c #B29A9B",
"v.	c #543E42",
"w.	c #341E20",
"x.	c #7C6868",
"y.	c #C2AEAE",
"z.	c #A87478",
"A.	c #B67E7E",
"B.	c #3C2A2B",
"C.	c #927A7E",
"D.	c #B26666",
"E.	c #B68A8A",
"F.	c #968A8A",
"G.	c #B5A6A6",
"H.	c #CAB6B6",
"I.	c #827676",
"J.	c #523A3E",
"K.	c #AE9A9A",
"L.	c #AA9697",
"M.	c #574647",
"N.	c #8C6464",
"O.	c #EA5A5A",
"P.	c #170607",
"Q.	c #B2A2A2",
"R.	c #716262",
"S.	c #A69293",
"T.	c #CEB6B6",
"U.	c #C2AAAA",
"V.	c #463434",
"W.	c #7A5A5C",
"X.	c #D65656",
"Y.	c #C2A6A6",
"Z.	c #421212",
"`.	c #621612",
" +	c #3E2E2E",
".+	c #B26E6E",
"++	c #C8A6A6",
"@+	c #C59E9E",
"#+	c #261A1A",
"$+	c #625152",
"%+	c #938283",
"&+	c #C6B2B2",
"*+	c #B69E9E",
"=+	c #BE8E90",
"-+	c #A29292",
";+	c #322224",
">+	c #9E8E8E",
",+	c #382627",
"'+	c #DCBEBD",
")+	c #6A5A5A",
"!+	c #867272",
"~+	c #765E5E",
"{+	c #968689",
"]+	c #9A7E7E",
"^+	c #D0AAAB",
"/+	c #544244",
"(+	c #BE7C7C",
"_+	c #BE8A8A",
":+	c #BEA2A2",
"<+	c #2A1A1C",
"[+	c #C29699",
"}+	c #CAB2B2",
"|+	c #A28A8A",
"1+	c #584A4A",
"2+	c #C6AEAE",
"3+	c #B63A42",
"4+	c #8A4E4E",
"5+	c #E2B6B6",
"6+	c #8E1E22",
"7+	c #D6AEB2",
"8+	c #622222",
"9+	c #DE8686",
"0+	c #D6B2B2",
"a+	c #E26666",
"b+	c #4E4242",
"c+	c #9A8A8B",
"d+	c #BE9292",
"e+	c #0E0202",
"f+	c #BE9E9F",
"g+	c #B69A9C",
"h+	c #1A0E12",
"i+	c #CA5A62",
"j+	c #766A6A",
"k+	c #1E0A0A",
"l+	c #8E7A7B",
"m+	c #CA9E9E",
"n+	c #BEA6A6",
"o+	c #B6A2A2",
"p+	c #AA9292",
"q+	c #8E7E7F",
"r+	c #D2B6B5",
"s+	c #654A4A",
"t+	c #665A5A",
"u+	c #452E2F",
"v+	c #BEAAAA",
"w+	c #362224",
"x+	c #5E5252",
"y+	c #DA9292",
"z+	c #D29E9E",
"A+	c #4A3636",
"B+	c #6C5254",
"C+	c #826E6E",
"D+	c #52363A",
"E+	c #8A7676",
"F+	c #E67E7E",
"G+	c #947E80",
"                                                              ",
"                                                              ",
"                      b P %.v G .+_.:.9                       ",
"                  O.a+r e.X F+9+y+~ E.j N.i |.                ",
"                K o.F+$.t.X.& K y+;.t.V 3 W.=.p =.            ",
"              k k 9+X.; % 1.i+m 8.t.5.d c.B s+u+x x           ",
"            ~ ~ _.m., ! - - H D.% t.5.t 2 /.].4.p U }         ",
"          z+J 0.] a.O f.6+e [.<.:.d @+[+2 h W.D Y ,+l.l       ",
"        m+0+g.0.| O > * 9.9.O 4+S d @+M s.h '.s+D+..U l l     ",
"        < b.b.6 =+n ,.Z.8+8+: 9 z.d+@+}.k.]+'.Z J.u+w.l.l.    ",
"      M I b.b.y @+R > 7 A.' / =+M ^+c }.f ).&.B+v.V.w+U U l   ",
"      ^.r+y b.5+c /.|.( ' k.=+M ^+0++.^.f |+-.]./+V.,+w+N P.  ",
"      f I {.'+'+7+k.N.3 [+< 7+++c +.(.^.f |+l+~+i.Y ,+;+N k+  ",
"    s.*+U.T.'+y I ~.(.@+c ++++c f+^.^.g+f 3.C.'.1+q.B.w+U a T ",
"    ).p+n+}+{.'+r+g ~.++++:+:+(.(.(.*+u.u.S.G+x.$+1  +W N j.n.",
"    q |+o U.H.{.r+*.U.Y.+.+.f+(.(.*+f u.L.3.%+&.B+v. +w+U z e+",
"    3.K.o U.&+r+{.2+U.n+:+:+(.g+g+u.` ` L.S.h.# )+/+V.W #+P.e+",
"    |+L.F o+y.H.}+2+Y.n+d.o (.*+u.u.K.` p+S.c+E+)+1+V.B.<+z e+",
"    E+q+L.F d.&+}+y.v+o o+o+*+F K.` L.{ S.p.c+l+0 @ A+ +) P.e+",
"    -.l+S.F d.v+H.&+n+d.*+F F K.K.L.S.S.p.>+h.r.[ @ 1  +U T e+",
"      r.>+2.o+d.y.2+d.o+o+u.K.L.K.L.S.-+p.>+c+G+j+Q 1  +#+T   ",
"      C+I.c+2.G.v+5 d.o+F w K.2.S.S.-+>.>+c+{+q+#.Q ^  +z e+  ",
"      B+$+C+-+$ d.5 G.w w 2.L.{ { -+p.>+c+F.@.= # 0 ^ + P.T   ",
"        $+R.{+L.$ A A F 2.2.L.{ -+p.>+c+c+{+%+q+# 0 ^ a e+    ",
"        0 R.I.c+2.Q.G.w L.2.{ >.>.8 c+F.{+@.%+q+# x+L P.T     ",
"          /+/+R.8 $ G.w 2.-+>.p.8 |+c+{+{+%+q+s j+W P.e+      ",
"             +1 R.F.w w 2.>.>.>+8 F.F.@.@.= I.[ @ a T         ",
"              N + 1+s 8 >.>.8 F.F.@.@.= s #.b+#+h+T           ",
"                P.7.W 1+#.I.I.# I.I.#.j+[ ^ _ e+e+            ",
"                    P.7.j.<+<+#+W  +) _ a h+e+                ",
"                          e+e+e+n.n.. .                       "};
