/* XPM */
static char * knob10_xpm[] = {
"31 31 256 2",
"  	c None",
". 	c #0A0202",
"+ 	c #342626",
"@ 	c #624E4E",
"# 	c #7E7272",
"$ 	c #B2A6A6",
"% 	c #BA7272",
"& 	c #D25E3E",
"* 	c #AA322E",
"= 	c #928685",
"- 	c #5C1210",
"; 	c #A64E4E",
"> 	c #C27A76",
", 	c #E2A69E",
"' 	c #722A26",
") 	c #520A0A",
"! 	c #9E9292",
"~ 	c #985656",
"{ 	c #261A1A",
"] 	c #4B3E3E",
"^ 	c #BC8E8E",
"/ 	c #C2A6A6",
"( 	c #652622",
"_ 	c #CAB6B6",
": 	c #825252",
"< 	c #221616",
"[ 	c #E0B0AC",
"} 	c #AE7676",
"| 	c #DA8E82",
"1 	c #A69A98",
"2 	c #726666",
"3 	c #BA9696",
"4 	c #260A0A",
"5 	c #AA8686",
"6 	c #1A0E0E",
"7 	c #BE5E5E",
"8 	c #DEBEBA",
"9 	c #4E2E2E",
"0 	c #867A7A",
"a 	c #D2AEAC",
"b 	c #D69E96",
"c 	c #EA765E",
"d 	c #625656",
"e 	c #F25E4E",
"f 	c #8C5A5A",
"g 	c #863232",
"h 	c #965A5A",
"i 	c #C4AAA9",
"j 	c #4A3636",
"k 	c #9C8684",
"l 	c #6E1212",
"m 	c #684040",
"n 	c #C69898",
"o 	c #361E1E",
"p 	c #1A0A0A",
"q 	c #785A5C",
"r 	c #AE9292",
"s 	c #AEA2A2",
"t 	c #4A0E0A",
"u 	c #9A7E7E",
"v 	c #D67E7E",
"w 	c #C29A9A",
"x 	c #5E3232",
"y 	c #DAB6B4",
"z 	c #402626",
"A 	c #574A49",
"B 	c #A63632",
"C 	c #EEC2BE",
"D 	c #B69E9D",
"E 	c #966262",
"F 	c #7E5252",
"G 	c #8B7E7E",
"H 	c #846868",
"I 	c #C6B2B1",
"J 	c #724242",
"K 	c #A69292",
"L 	c #6B5E5E",
"M 	c #AE9A99",
"N 	c #563E3E",
"O 	c #C65A5A",
"P 	c #B68A8A",
"Q 	c #D6765E",
"R 	c #0E0202",
"S 	c #E26266",
"T 	c #BE4E3E",
"U 	c #BEAEAD",
"V 	c #9A8E8E",
"W 	c #B24236",
"X 	c #120202",
"Y 	c #DA9A92",
"Z 	c #CA6656",
"` 	c #BAA6A6",
" .	c #CEAAAA",
"..	c #B26E6E",
"+.	c #562222",
"@.	c #927676",
"#.	c #422E2E",
"$.	c #D3B6B5",
"%.	c #120606",
"&.	c #BA9E9E",
"*.	c #9A6662",
"=.	c #BA8A8A",
"-.	c #2E2221",
";.	c #563232",
">.	c #AE9E9E",
",.	c #CAA6A6",
"'.	c #705656",
").	c #A88280",
"!.	c #EABEBA",
"~.	c #9A2E2A",
"{.	c #C26864",
"].	c #967A7A",
"^.	c #A28E8D",
"/.	c #524646",
"(.	c #BAAAAA",
"_.	c #E3C6C3",
":.	c #C6A0A0",
"<.	c #DABAB9",
"[.	c #D2BAB8",
"}.	c #966A6A",
"|.	c #DE767A",
"1.	c #968282",
"2.	c #968A88",
"3.	c #CAAAA9",
"4.	c #3E2020",
"5.	c #6E4E4E",
"6.	c #CA8282",
"7.	c #6E3636",
"8.	c #D28A8A",
"9.	c #BAA2A1",
"0.	c #7C1A1A",
"a.	c #BE4A4A",
"b.	c #A69696",
"c.	c #EE7272",
"d.	c #B6A2A2",
"e.	c #7C6E6E",
"f.	c #B08E8E",
"g.	c #766262",
"h.	c #564646",
"i.	c #867272",
"j.	c #E6BEBA",
"k.	c #C29E9E",
"l.	c #DEB6B4",
"m.	c #D26E6E",
"n.	c #CEB2B2",
"o.	c #927E7E",
"p.	c #6A2E2E",
"q.	c #503A3A",
"r.	c #C28682",
"s.	c #6A322E",
"t.	c #EFCACA",
"u.	c #AA9E9B",
"v.	c #2A0E0E",
"w.	c #C2AEAD",
"x.	c #CC7470",
"y.	c #BA9292",
"z.	c #AA9696",
"A.	c #1F0E0E",
"B.	c #665652",
"C.	c #8C6A6A",
"D.	c #583838",
"E.	c #726060",
"F.	c #2B1616",
"G.	c #EAAAA2",
"H.	c #B28282",
"I.	c #E6A296",
"J.	c #A28A8A",
"K.	c #B29A9A",
"L.	c #8E8281",
"M.	c #D7AEAD",
"N.	c #2D1A1A",
"O.	c #524040",
"P.	c #EE6646",
"Q.	c #8E3A32",
"R.	c #664646",
"S.	c #521616",
"T.	c #5E3A3A",
"U.	c #C26E6E",
"V.	c #9E8E8D",
"W.	c #1F1211",
"X.	c #2D1E1E",
"Y.	c #1E0606",
"Z.	c #3A2929",
"`.	c #9A8A8A",
" +	c #7A6666",
".+	c #BE9A9A",
"++	c #9E6A6A",
"@+	c #D6BEBC",
"#+	c #DABEBD",
"$+	c #8E7A7A",
"%+	c #B29E9E",
"&+	c #BE9291",
"*+	c #C24E4E",
"=+	c #968686",
"-+	c #AE9695",
";+	c #4A2E2E",
">+	c #A29292",
",+	c #5E3E3E",
"'+	c #E6B6B2",
")+	c #3F2A2B",
"!+	c #BEA6A5",
"~+	c #BEAAAA",
"{+	c #B2A2A0",
"]+	c #B6A6A4",
"^+	c #665252",
"/+	c #6A2626",
"(+	c #8A4E4E",
"_+	c #E6B2AE",
":+	c #B28686",
"<+	c #8E3632",
"[+	c #A27E7E",
"}+	c #A26666",
"|+	c #7E6262",
"1+	c #5E4646",
"2+	c #2E1212",
"3+	c #D27266",
"4+	c #D2B2B2",
"5+	c #160A0A",
"6+	c #200A0A",
"7+	c #463232",
"8+	c #A29696",
"9+	c #827676",
"0+	c #D6BABA",
"a+	c #BEA2A2",
"b+	c #DFC2BF",
"c+	c #C2A2A1",
"d+	c #685A59",
"e+	c #160606",
"f+	c #BE9E9E",
"g+	c #AE4242",
"h+	c #CEB6B5",
"i+	c #AA9A9A",
"j+	c #6E6262",
"k+	c #928282",
"l+	c #D6B2B2",
"m+	c #CAB2B2",
"n+	c #C6AEAE",
"o+	c #B69A9A",
"p+	c #332222",
"q+	c #C38A8A",
"r+	c #796A6A",
"s+	c #9D6E6E",
"t+	c #827272",
"u+	c #C6A6A4",
"v+	c #8A7A7A",
"w+	c #CEA6A4",
"x+	c #C29290",
"y+	c #362A2A",
"z+	c #5E5252",
"A+	c #E0AAA6",
"B+	c #4A3A38",
"C+	c #584242",
"D+	c #CEAEAE",
"E+	c #887676",
"F+	c #E6C2BE",
"G+	c #261212",
"                                                              ",
"                                                              ",
"                          9.-+K 9.d.^.k                       ",
"                    D+$.n.i ` d.]+]+>.>.M `. +                ",
"                y 8 0+[.m+m+w.~+` d.%+s M >+G t+t+            ",
"              j.t._.b+0+[._ m+n+~+` ]+d.>.i+K `.k+d+          ",
"            '+t.t._._.b+#+0+[._ I w.` ]+{+>.u.b.V.t+d+        ",
"          Y !.C F+F+b+b+8 b+0+[.[.m+I U ` $ %+>.b.V t+O.      ",
"        b A+[ _+[ l.y <.0+@+0+[.[._ m+I i (.]+{+>.1 V L Z.    ",
"        I., I., M.M.M.a a D+n.n._ h+_ I I U (.(.$ %+1 L.A     ",
"      3+| x.> r.q+x+n w+ .n+3.3.n+i ~+U w.~+(.(.]+]+s b.r+N.  ",
"    P.3+Z W Q.' ( s.: [+k.,.i i !+!+` 9.]+]+{+{+$ s s u.G -.  ",
"    e c & a.~.l ) t +.: ^ c+/ / !+!+` d.%+{+>.>.>.i+1 1 = ]   ",
"    S c. .{.* 0.- S.J }.:.u+c+a+9.d.d.D %+M >.i+b.b.8+! = A 6 ",
"    m.|.x.T B 0.- s.s+P 4+3.c+a+9.D %+%+>.i+i+b.8+>+! V.G /.5+",
"    7 O a.g+<+( ( E H.^ w+c+a+9.&.D %+M -+z.b.b.>+! V.2.= B.W.",
"    U.v 7 ; g ( 7.^ y..+k.f+.+o+D K.%+M z.b.b.>+^.V.V 2.= j+W.",
"    ..8.r...~ (+f ^ k. .c+&.D D K.K.-+z.z.K >+>+V V `.= G z+W.",
"    h }+q+r.} *.s+&+ .$.c+&.o+K.K.M i+b.b.^.V.V.`.2.2.= e.-.. ",
"    ~ E =.n x+^ y.w+l+,.&.D D K.M b.r K ^.! V.`.`.=+= L.e.W.. ",
"      f s+P 3 y.y.f+f+&.o+K.K.-+-+b.K >+^.V.V.2.2.k+L.0 L W.  ",
"      m m C.].).5 P r r -+r z.z.b.K >+>+V.`.2.2.= = 0 d N.X   ",
"      x ;.,+q H C.@.].u k J.^.^.^.^.J.V `.k =+1.k+L.e.-.%..   ",
"        D.9 D.R.5.'.q |+H i.E+].G 1.= 1.=+= k+L.L.0 d+W.R     ",
"        T.;+z #.D.N C+1+R.^+B.q E.r+t+t+E+0 G 0 9+d+X.R X     ",
"          4.2+F.o z )+7+j q.N h.A @ ^+d+L j+g.L A -.%.R       ",
"            4 Y.Y.v.F.p+4.Z.)+#.7+B+B+] /.A B+{ 6 %.X         ",
"              v.6+6+G+F.N.N.N.X.X.p+p++ y++ W.R . R           ",
"                4.F.Y.X %.p 6+e+%.5+e+e+%.%.R X X             ",
"                    v.X X X X R X R R R X X X                 ",
"                          e+X R X X X R                       "};
