/* XPM */
static char * knob32_xpm[] = {
"31 31 256 2",
"  	c None",
". 	c #0E0202",
"+ 	c #423232",
"@ 	c #847677",
"# 	c #E2D6D6",
"$ 	c #C6B7B6",
"% 	c #B63236",
"& 	c #9A8E8E",
"* 	c #661212",
"= 	c #420A0E",
"- 	c #6E4040",
"; 	c #AD9E9E",
"> 	c #6A5456",
", 	c #BE7A7E",
"' 	c #362729",
") 	c #34060A",
"! 	c #CE929A",
"~ 	c #9A767A",
"{ 	c #9E5256",
"] 	c #AA5E62",
"^ 	c #2C1A1C",
"/ 	c #DECECE",
"( 	c #BE2E2A",
"_ 	c #C6A2A2",
": 	c #766A6A",
"< 	c #BB8F91",
"[ 	c #26060A",
"} 	c #723A3E",
"| 	c #F2E2E2",
"1 	c #BAAEAE",
"2 	c #544646",
"3 	c #422224",
"4 	c #AE7272",
"5 	c #8E3232",
"6 	c #B87C82",
"7 	c #AA9192",
"8 	c #DEB6B6",
"9 	c #6E6262",
"0 	c #200206",
"a 	c #BE9E9E",
"b 	c #845456",
"c 	c #A07E7E",
"d 	c #96322E",
"e 	c #B6AAA9",
"f 	c #32161A",
"g 	c #AC9697",
"h 	c #CEC2C2",
"i 	c #948686",
"j 	c #DA7880",
"k 	c #623838",
"l 	c #9F6163",
"m 	c #AE4E52",
"n 	c #160202",
"o 	c #F6D6DA",
"p 	c #943E40",
"q 	c #5E1A1E",
"r 	c #9C8284",
"s 	c #F1D1D1",
"t 	c #C8A9A9",
"u 	c #F6E6E6",
"v 	c #6C5B5C",
"w 	c #BE5656",
"x 	c #B2A6A6",
"y 	c #8E363A",
"z 	c #A69A9A",
"A 	c #4E3E40",
"B 	c #C66A6E",
"C 	c #DAB8B8",
"D 	c #201414",
"E 	c #2A0A0A",
"F 	c #DEBABA",
"G 	c #6E2E32",
"H 	c #B29E9E",
"I 	c #1A0B0C",
"J 	c #C8888E",
"K 	c #45272A",
"L 	c #AB898A",
"M 	c #361A1E",
"N 	c #9A666A",
"O 	c #714F53",
"P 	c #764A4A",
"Q 	c #8E7A7A",
"R 	c #8A6E72",
"S 	c #B24242",
"T 	c #A59697",
"U 	c #B28285",
"V 	c #C7AEAE",
"W 	c #CCB6B6",
"X 	c #5E161A",
"Y 	c #CA5C5E",
"Z 	c #C0A6A6",
"` 	c #7E6666",
" .	c #DAB2B2",
"..	c #DEC2C3",
"+.	c #924A4A",
"@.	c #B6999A",
"#.	c #BA9898",
"$.	c #E9D6D6",
"%.	c #E2CECE",
"&.	c #210E0F",
"*.	c #605252",
"=.	c #8B4143",
"-.	c #460E12",
";.	c #EABEBE",
">.	c #7A5C5C",
",.	c #825E62",
"'.	c #BA6066",
").	c #2A0E12",
"!.	c #F6EAEA",
"~.	c #B69193",
"{.	c #7E5557",
"].	c #503438",
"^.	c #562222",
"/.	c #EFDEDE",
"(.	c #A08E8F",
"_.	c #CE9A9E",
":.	c #CDBABA",
"<.	c #624C50",
"[.	c #A2767A",
"}.	c #B2999A",
"|.	c #CA929A",
"1.	c #A63A36",
"2.	c #B2898B",
"3.	c #120202",
"4.	c #F6E2E2",
"5.	c #B69E9F",
"6.	c #D2B2B2",
"7.	c #BE4646",
"8.	c #A64A4E",
"9.	c #A66E6E",
"0.	c #3D2E2E",
"a.	c #4E2828",
"b.	c #9A8688",
"c.	c #927676",
"d.	c #F0D9DA",
"e.	c #C2AEAF",
"f.	c #D6BDBD",
"g.	c #604042",
"h.	c #824A4A",
"i.	c #BE848A",
"j.	c #B6A6A6",
"k.	c #C6989A",
"l.	c #D78E96",
"m.	c #661E22",
"n.	c #EECACA",
"o.	c #D67276",
"p.	c #D6868E",
"q.	c #B08E8F",
"r.	c #261214",
"s.	c #36161A",
"t.	c #D2C2C2",
"u.	c #BE4E56",
"v.	c #967A7E",
"w.	c #AA9A9B",
"x.	c #483A3A",
"y.	c #200A0C",
"z.	c #FADADA",
"A.	c #FAE6E6",
"B.	c #170607",
"C.	c #DACACA",
"D.	c #FAEAEB",
"E.	c #DFC7C8",
"F.	c #594A4A",
"G.	c #CEB0B0",
"H.	c #D97E85",
"I.	c #B7A2A2",
"J.	c #D6969A",
"K.	c #7F6D6D",
"L.	c #4E1A1E",
"M.	c #A69295",
"N.	c #BA878A",
"O.	c #966E71",
"P.	c #461616",
"Q.	c #120606",
"R.	c #8A7E7E",
"S.	c #FAE2E3",
"T.	c #332122",
"U.	c #774F51",
"V.	c #A2888A",
"W.	c #AEA2A2",
"X.	c #422E32",
"Y.	c #B19293",
"Z.	c #564044",
"`.	c #CA727A",
" +	c #BEAAAA",
".+	c #A19292",
"++	c #A77B7F",
"@+	c #1A0203",
"#+	c #FEEAEA",
"$+	c #C2B2B2",
"%+	c #8E4E4E",
"&+	c #AC7676",
"*+	c #D2626E",
"=+	c #4E0A0A",
"-+	c #CA262A",
";+	c #D2A2A2",
">+	c #A2322E",
",+	c #C6B2B3",
"'+	c #E9CECF",
")+	c #2E1216",
"!+	c #66464A",
"~+	c #DABEBE",
"{+	c #8A7276",
"]+	c #563A3E",
"^+	c #4E2E32",
"/+	c #827272",
"(+	c #FEDEE2",
"_+	c #C29296",
":+	c #E6C6C6",
"<+	c #B2A2A2",
"[+	c #CFBEBE",
"}+	c #E8D2D2",
"|+	c #3B292A",
"1+	c #8F8181",
"2+	c #766566",
"3+	c #BA828A",
"4+	c #3E1316",
"5+	c #E9DADA",
"6+	c #CEAAAE",
"7+	c #D9C2C3",
"8+	c #281618",
"9+	c #DE929E",
"0+	c #3A1E22",
"a+	c #4A3434",
"b+	c #866466",
"c+	c #BAA6A6",
"d+	c #4E1618",
"e+	c #DDD2D3",
"f+	c #1F0609",
"g+	c #9B8A8D",
"h+	c #D6C6C6",
"i+	c #BAAAAA",
"j+	c #FEE6E7",
"k+	c #AE9A9A",
"l+	c #BEAEAE",
"m+	c #2E060A",
"n+	c #5A4646",
"o+	c #F6D2D6",
"p+	c #C6525A",
"q+	c #CE6A72",
"r+	c #926A6E",
"s+	c #D2B6B6",
"t+	c #9A4646",
"u+	c #8A5A5E",
"v+	c #C64646",
"w+	c #5E4E4E",
"x+	c #FEE2E4",
"y+	c #2E1E1E",
"z+	c #968A8A",
"A+	c #4E4242",
"B+	c #FAEEEE",
"C+	c #BA9E9F",
"D+	c #C2AAAA",
"E+	c #C0A2A3",
"F+	c #F7DEDE",
"G+	c #DA7A8A",
"                                                              ",
"                                                              ",
"                          < < 2.&+9.l p                       ",
"                    6+t 6+t  .8 k.N.l =.m '.S -+              ",
"                C f.E.'+o o s F ;+4 =.p Y o.p+% >+(           ",
"              ~+C.}+z.x+F+o n. .6 } m.y Y G+H.v+1.d           ",
"            7+C.}+4.S.j+(+s F ~.- P.X p B l.# j 7.5 *         ",
"          E.$.F+S.j+j+(+o ;._ U.4+= q p w q+G+9+H.] q =+      ",
"        7+}+| #+j+j+j+F+'+F < a.) -.G +.8.u.*+j l., } L.d+    ",
"        / d.A.A.#+j+F+s ..G.L a.-.a.h.+.{ '.`.p.l.3+N k -.    ",
"      :.# | #+#+#+A.d.E.s+G.#.U.k - b l 9., i.J.J 3+++{.s.)   ",
"      :.d.D.D.#+A.F+%.C G.t E+L ,.O P u+U i.! |.2.U ~ {.3 [   ",
"      C./.#+#+j+4.$.h+W V t t E+q.O.{.b U _+_.< U [.r+P K m+  ",
"    e./ u D.D.u 5+E.W ,+D+D+Z E+a q.c O.< k.~.N.r O.{.g.3 y.0 ",
"    l+5+D.B+D./.C.[+,+,+D+Z E+E+C+#.Y.L Y.~.L U ~ ` !+a.s.f+@+",
"    $ /.B+#+4.}+7+,+V D+ +Z c+C+C+}.#.#.Y.q.L v.` P ].T.).0 @+",
"    i+/.D.u $.h+:.$+l+ + +I.I.5.5.g g Y.Y.L r R O ]+3 )+f+@+@+",
"    w.$.!.5+/ [+$+e.e. +c+c+C+5.@.@.g Y.7 b.~ >.g.K f f+n @+n ",
"    T e+| / [+$ l+ +i+c+I.I.5.H k+g Y.(.L v.` w+a+y+).@+n n n ",
"    .+e+e+h $ l+l+1 i+j.I.<+; }.g g M.(.r K.> ].0+).B.n n 3.n ",
"      $ h $ $+l+i+c+c+j.<+H ; k+g T (.b.{+v A ' 8+f+n n n n   ",
"      /+e $ l+1 i+e <+<+H H k+w.T 7 b.c.2+n+X.M y.n 3.3.3.n   ",
"      v i e 1 e j.j.<+W.; w.g g .+(.1+` <.a+y+&.n n 3.3.3.3.  ",
"        v & x e x x W.; w.w.T .+& r /+> A ' r.B.3.3.3.3.3.    ",
"        |+w+T x <+W.; ; z z M.(.z+@ 9 A+|+^ B.3.. 3.3.3..     ",
"          w+z+z W.; ; z z T .+& Q 2+F.+ y+I 3.. 3.. . .       ",
"            n+2+& z z T T .+g+1+K.*.a+T.D Q.. . 3.. .         ",
"              |+F.R..+T .+& i @ v A ' D B.3.3.3.. 3.          ",
"                8+x.2+@ R.R.@ 9 2 0.^ I . . . . 3.            ",
"                    ^ y+0.A+F.A+' D Q.. . . .                 ",
"                          I I I Q.. . .                       "};
