/* XPM */
static char * knob39_xpm[] = {
"31 31 256 2",
"  	c None",
". 	c #0E0202",
"+ 	c #3C2E2A",
"@ 	c #766A6A",
"# 	c #C9BEBC",
"$ 	c #968A86",
"% 	c #6E1212",
"& 	c #9A2E32",
"* 	c #A69B9A",
"= 	c #481612",
"- 	c #F2E2E1",
"; 	c #524440",
"> 	c #CE6A5E",
", 	c #32221F",
"' 	c #B6AAA7",
") 	c #360A06",
"! 	c #D8CAC7",
"~ 	c #96756F",
"{ 	c #DA8A7E",
"] 	c #615351",
"^ 	c #2A1A18",
"/ 	c #762E2A",
"( 	c #8E423E",
"_ 	c #260602",
": 	c #E2AA8A",
"< 	c #C28A7E",
"[ 	c #BDB2B0",
"} 	c #C69A9A",
"| 	c #BA766A",
"1 	c #7C524C",
"2 	c #E6D8D6",
"3 	c #8E463E",
"4 	c #B24A46",
"5 	c #AA1216",
"6 	c #211512",
"7 	c #592F2D",
"8 	c #9B7A75",
"9 	c #8B7E7B",
"0 	c #B49A98",
"a 	c #200602",
"b 	c #DEC5C5",
"c 	c #9E8B87",
"d 	c #4A1A16",
"e 	c #72625E",
"f 	c #72423E",
"g 	c #9A2A1E",
"h 	c #C67666",
"i 	c #AA7A72",
"j 	c #A29694",
"k 	c #B5A2A0",
"l 	c #581A18",
"m 	c #8E5E56",
"n 	c #1A0E0E",
"o 	c #CEB6B6",
"p 	c #C6AAA6",
"q 	c #EBCDCD",
"r 	c #120202",
"s 	c #FEEEEE",
"t 	c #27120F",
"u 	c #C6BAB8",
"v 	c #B26E5E",
"w 	c #7A625E",
"x 	c #7E1E1A",
"y 	c #D2BEBE",
"z 	c #C68676",
"A 	c #8B6B67",
"B 	c #AE5A4E",
"C 	c #46322E",
"D 	c #968482",
"E 	c #3A0E0A",
"F 	c #190A08",
"G 	c #A68A86",
"H 	c #C2AAA8",
"I 	c #F6EAE9",
"J 	c #C2A6A4",
"K 	c #CAB2B2",
"L 	c #D3B1AF",
"M 	c #887878",
"N 	c #62463E",
"O 	c #DECACA",
"P 	c #B67A6E",
"Q 	c #A9928F",
"R 	c #5E3A36",
"S 	c #A69692",
"T 	c #9A5E56",
"U 	c #BBA2A0",
"V 	c #DE9E7E",
"W 	c #D2867A",
"X 	c #421B18",
"Y 	c #42221E",
"Z 	c #EED6D5",
"` 	c #4C3E3C",
" .	c #AA3E3E",
"..	c #C6B2B1",
"+.	c #8A5856",
"@.	c #CA5256",
"#.	c #160202",
"$.	c #521E16",
"%.	c #A27E7A",
"&.	c #5E0A0A",
"*.	c #D3C2C1",
"=.	c #D6726E",
"-.	c #594D4B",
";.	c #EADEDE",
">.	c #886662",
",.	c #675B59",
"'.	c #BC9E9B",
").	c #AEA29E",
"!.	c #BE7E72",
"~.	c #462A26",
"{.	c #E1D2CF",
"].	c #AD9692",
"^.	c #A4726C",
"/.	c #210E0B",
"(.	c #AB827D",
"_.	c #BEAAA8",
":.	c #823636",
"<.	c #BE928A",
"[.	c #D2B6B6",
"}.	c #6E544E",
"|.	c #523430",
"1.	c #352725",
"2.	c #807472",
"3.	c #621E1E",
"4.	c #DE9276",
"5.	c #6E3232",
"6.	c #72463E",
"7.	c #6E2A1E",
"8.	c #AB8A85",
"9.	c #7A1216",
"0.	c #160603",
"a.	c #D07C6E",
"b.	c #A67A72",
"c.	c #9D827F",
"d.	c #BAAEAC",
"e.	c #C2B6B4",
"f.	c #624C48",
"g.	c #463634",
"h.	c #A68581",
"i.	c #785854",
"j.	c #7A6662",
"k.	c #C6A2A2",
"l.	c #B66662",
"m.	c #8E3A36",
"n.	c #B2564E",
"o.	c #56160E",
"p.	c #DAC6C5",
"q.	c #DE7A66",
"r.	c #F2DAD9",
"s.	c #AA665A",
"t.	c #E2866E",
"u.	c #CDC2BF",
"v.	c #F5E6E5",
"w.	c #86726E",
"x.	c #AC9A97",
"y.	c #B2A6A4",
"z.	c #2E120A",
"A.	c #321D19",
"B.	c #AE7672",
"C.	c #E2CACA",
"D.	c #918383",
"E.	c #5A3632",
"F.	c #C6B6B5",
"G.	c #B68681",
"H.	c #5A2624",
"I.	c #B39E9B",
"J.	c #BAA6A3",
"K.	c #EADADA",
"L.	c #B39694",
"M.	c #36120E",
"N.	c #9E9292",
"O.	c #47211D",
"P.	c #F1DEDE",
"Q.	c #402A26",
"R.	c #723A38",
"S.	c #6E4E4A",
"T.	c #907874",
"U.	c #E6D2CF",
"V.	c #805A58",
"W.	c #5A4542",
"X.	c #7F6D6A",
"Y.	c #42120A",
"Z.	c #DCBABA",
"`.	c #BA5E5A",
" +	c #7A261E",
".+	c #92726E",
"++	c #1F0A06",
"@+	c #C2AEAC",
"#+	c #D3C6C4",
"$+	c #C2B2B1",
"%+	c #CEBEBE",
"&+	c #B28E8A",
"*+	c #622420",
"=+	c #EED2D2",
"-+	c #120602",
";+	c #A2665E",
">+	c #AE8682",
",+	c #BEAEAD",
"'+	c #821A1E",
")+	c #AD9E9A",
"!+	c #AE928E",
"~+	c #2A0602",
"{+	c #E3C5C5",
"]+	c #A28581",
"^+	c #3A2926",
"/+	c #A27A7A",
"(+	c #CABAB9",
"_+	c #4E3A36",
":+	c #F6E2E2",
"<+	c #3A221E",
"[+	c #BAAAA8",
"}+	c #9E726A",
"|+	c #BE867E",
"1+	c #EEDAD9",
"2+	c #DA8A8E",
"3+	c #815E5A",
"4+	c #D9BEBD",
"5+	c #6E5A56",
"6+	c #B27E76",
"7+	c #1A0603",
"8+	c #CA8C82",
"9+	c #FAEAE9",
"0+	c #CEA6A6",
"a+	c #3D322F",
"b+	c #C29696",
"c+	c #4E1212",
"d+	c #665652",
"e+	c #5E2E2A",
"f+	c #B27A72",
"g+	c #965A56",
"h+	c #6A423E",
"i+	c #663E3A",
"j+	c #DA8676",
"k+	c #D67E6A",
"l+	c #826662",
"m+	c #B6A6A4",
"n+	c #F6DEDE",
"o+	c #764E4A",
"p+	c #9A8E8C",
"q+	c #A48E8C",
"r+	c #483A38",
"s+	c #2C0A04",
"t+	c #AA8E8A",
"u+	c #1A0202",
"v+	c #BEA6A4",
"w+	c #DECECC",
"x+	c #E4CECD",
"y+	c #301614",
"z+	c #3E1614",
"A+	c #9A262A",
"B+	c #DE9682",
"C+	c #DACECA",
"D+	c #CEBAB8",
"E+	c #CAB6B5",
"F+	c #736663",
"G+	c #C7AEAD",
"                                                              ",
"                                                              ",
"                          0 Q 0 Q c.c.~                       ",
"                    E+D+D+@+H ..p I.L.c.>.i.1                 ",
"                p.p.! {.U.x+x+x+C.b {+[.>+l+V.o+e+            ",
"              p.w+2 1+1+P.1+1+Z =+=+q {+Z.k./+V.7 H.          ",
"            *.w+Z - P.P.P.P.1+r.Z q q {+Z.0+} (.f H.l         ",
"          w+K.- v.v.v.:+:+n+P.=+C.{+Z.L 0+b+G.B.g+R.l &.      ",
"        O ;.I s 9+9+9+v.P.Z =+b 4+K k.8.%.+.R.5.:.( 7.% x     ",
"        K.I s s 9+9+- 1+x+p.4+D+G+k.8 7 d = c+3.m.n.4 & '+5   ",
"      w+v.s s I - K.x+! *.D+K G+p 0 A z+) = *+( `.=.{ @.A+9.  ",
"      ;.I v.- K.x+#+*.D+E+..G+p J '..+X X +.T l.> B+x+2+ .'+  ",
"      v.;.2 {.! u.# E+E+..G+H H J U c.O.O.^.B.| a.V : 4.B  +g ",
"    u {.C+! u.%+%+D+E+..$+@+H v+U '.>+E.d 6.^.| h k+t.q.v 7.o.",
"    ! C+#+#+u.# u u ....,+,+v+v+'.'.!+3+X e+i |+z W k+a.s.H.Y.",
"    u.u.#+%+# (+E+F.e.@+H _.v+U k I.0 8 E.h+^.|+|+8+8+!.g+$.E ",
"    p+e.u.# # u F.$+[ ,+[+[+J.U '.0 L.G 3+>.(.<.<.G.6+i m d ) ",
"    e.# u.(+(+e.$+$+,+d.[+m+k I.I.0 x.&+]+h.8.8.8.(.b.^.1 z+s+",
"    e.u # u F.e.[ ,+_.[+J.m+k I.x.L.].].Q 8.>+(.%.8 .+m h+M.~+",
"    M [ u u e.[ ,+d.d.J.m+k I.)+x.].].q+G ]+D 8 .+>.3+S.Y ~+_ ",
"      d.e.u [ [ ,+' ' m+k ).I.x.].N.q+]+D ~ A j.i.}.N |.z._   ",
"      D ' [ [ ,+d.' y.k ).x.S ].p+]+D M X.e }.f.; |.~.y+a _   ",
"      F+* d.d.' m+m+y.)+)+S p+$ 9 w.j.5+f.W.|.~.+ <+y+++u+_   ",
"        2.j ' ' y.)+* S $ D.M X.5+] W._+g.+ 1.A.y+z.++u+a     ",
"        r+F+* ).* N.D 9 2.e d+f.; g.+ <+A.^ y+/.F 0.u+u+a     ",
"          ] 9 D.D.M @ ,.-.W.r+a+1., y+6 /.++0.#.u+u+0.a       ",
"            g.-.,.] -.` a++ , ^ 6 6 7+0.r #.-+r #.#.u+        ",
"              , + a+1.1.^ 6 6 n 0.r . r -+-+#.0.r u+          ",
"                F n n n F -+. . . r r r r r r 0.0.            ",
"                    . -+r . . . . r . r r r .                 ",
"                          r . . . r . .                       "};
