/* XPM */
static char * knob35_xpm[] = {
"31 31 256 2",
"  	c None",
". 	c #0E0202",
"+ 	c #402E2E",
"@ 	c #827676",
"# 	c #E7D6D6",
"$ 	c #A69A9A",
"% 	c #AE423E",
"& 	c #821A16",
"* 	c #D5C2BF",
"= 	c #726262",
"- 	c #561412",
"; 	c #863632",
"> 	c #CA7676",
", 	c #C2B6B3",
"' 	c #3F0909",
") 	c #2A1E1E",
"! 	c #4E4242",
"~ 	c #948685",
"{ 	c #B2A6A6",
"] 	c #2E0202",
"^ 	c #7A3232",
"/ 	c #271616",
"( 	c #EEE2E0",
"_ 	c #9C6260",
": 	c #B07A7A",
"< 	c #A98685",
"[ 	c #BA5652",
"} 	c #724646",
"| 	c #461616",
"1 	c #1F0202",
"2 	c #CAA6A2",
"3 	c #864745",
"4 	c #B2161A",
"5 	c #665959",
"6 	c #C69A96",
"7 	c #B88686",
"8 	c #957675",
"9 	c #622E2E",
"0 	c #BEB2B1",
"a 	c #DEB6B6",
"b 	c #CC8482",
"c 	c #F0D2CF",
"d 	c #561A1A",
"e 	c #A28E8E",
"f 	c #CA5E62",
"g 	c #8E5A56",
"h 	c #BEA6A6",
"i 	c #B39A9A",
"j 	c #1E0E0E",
"k 	c #FEEEEE",
"l 	c #E1CECC",
"m 	c #360A0A",
"n 	c #160202",
"o 	c #785C5C",
"p 	c #926A6A",
"q 	c #6C4242",
"r 	c #F6DAD6",
"s 	c #957F81",
"t 	c #CA524E",
"u 	c #8A4E4E",
"v 	c #786868",
"w 	c #423232",
"x 	c #421A1A",
"y 	c #FDE2E2",
"z 	c #AD8E8E",
"A 	c #CA666A",
"B 	c #2E0E0E",
"C 	c #CDBEBE",
"D 	c #961E22",
"E 	c #BE8A8A",
"F 	c #BEAAAA",
"G 	c #E8C4C2",
"H 	c #CA8A8A",
"I 	c #A66666",
"J 	c #B29E9E",
"K 	c #583C3C",
"L 	c #BAAEAD",
"M 	c #765656",
"N 	c #AB9696",
"O 	c #886868",
"P 	c #532523",
"Q 	c #FAE6E6",
"R 	c #9A8282",
"S 	c #D8C6C4",
"T 	c #5A4A4A",
"U 	c #CFB6B3",
"V 	c #3C2424",
"W 	c #8E7272",
"X 	c #AEA2A2",
"Y 	c #BE8080",
"Z 	c #BA6A6A",
"` 	c #62221E",
" .	c #685050",
"..	c #A22A2A",
"+.	c #1F0A0A",
"@.	c #9A7676",
"#.	c #D2625E",
"$.	c #6A3636",
"%.	c #963E3E",
"&.	c #524646",
"*.	c #8A3636",
"=.	c #503E3E",
"-.	c #9C9090",
";.	c #A25252",
">.	c #DA8E8A",
",.	c #D87C7A",
"'.	c #3A1212",
").	c #D66E66",
"!.	c #8A6262",
"~.	c #B68E8E",
"{.	c #361212",
"].	c #B45050",
"^.	c #722A22",
"/.	c #6A1616",
"(.	c #764E4E",
"_.	c #362A2A",
":.	c #CEAAA6",
"<.	c #B99E9D",
"[.	c #422626",
"}.	c #C6AAAA",
"|.	c #7C6E6E",
"1.	c #D8B0AE",
"2.	c #E6DADA",
"3.	c #1A0A0A",
"4.	c #120202",
"5.	c #2A1010",
"6.	c #F6EAE8",
"7.	c #9E8A8A",
"8.	c #503434",
"9.	c #FAEAE8",
"0.	c #8B7E7E",
"a.	c #5A4242",
"b.	c #9A3636",
"c.	c #B6AAAA",
"d.	c #AD8281",
"e.	c #AC9A9A",
"f.	c #E2BEBE",
"g.	c #D88686",
"h.	c #887070",
"i.	c #B69696",
"j.	c #725050",
"k.	c #A4706E",
"l.	c #B08886",
"m.	c #DFCACA",
"n.	c #CAB6B6",
"o.	c #C6B2B2",
"p.	c #DA5E5A",
"q.	c #EACECE",
"r.	c #4A120E",
"s.	c #BE9E9C",
"t.	c #BEAEAD",
"u.	c #170606",
"v.	c #B28E8E",
"w.	c #9E8282",
"x.	c #2F1919",
"y.	c #312121",
"z.	c #997170",
"A.	c #D6BEBC",
"B.	c #502A26",
"C.	c #F5E2E1",
"D.	c #483939",
"E.	c #B7A2A2",
"F.	c #AA9E9E",
"G.	c #B29696",
"H.	c #4A0606",
"I.	c #1A0202",
"J.	c #D29292",
"K.	c #A69696",
"L.	c #9A5A5A",
"M.	c #B6A6A6",
"N.	c #6E5E62",
"O.	c #CBAEAB",
"P.	c #ECDAD9",
"Q.	c #362626",
"R.	c #DBC2C1",
"S.	c #7E3636",
"T.	c #9C4440",
"U.	c #A37675",
"V.	c #664A4A",
"W.	c #C69292",
"X.	c #603E3E",
"Y.	c #C4A6A5",
"Z.	c #E06C6A",
"`.	c #9A8888",
" +	c #BE9292",
".+	c #A66262",
"++	c #E27676",
"@+	c #BE4A4A",
"#+	c #5A2A2A",
"$+	c #C6BABA",
"%+	c #7E6262",
"&+	c #C65E5A",
"*+	c #C66262",
"=+	c #260202",
"-+	c #AD9292",
";+	c #FADCDA",
">+	c #D2BEBE",
",+	c #260A0A",
"'+	c #361A1A",
")+	c #BA1E1E",
"!+	c #B2A2A2",
"~+	c #3E2A2A",
"{+	c #622A26",
"]+	c #120606",
"^+	c #4E3A3A",
"/+	c #F5E6E6",
"(+	c #EDDEDB",
"_+	c #BA9A9A",
":+	c #260E0E",
"<+	c #271A1A",
"[+	c #A78A8A",
"}+	c #6B5959",
"|+	c #7E4B49",
"1+	c #DEBEBE",
"2+	c #211212",
"3+	c #FEEAEA",
"4+	c #A67E7E",
"5+	c #D9CAC9",
"6+	c #C0A2A1",
"7+	c #996767",
"8+	c #492A2A",
"9+	c #BAA6A6",
"0+	c #7E7272",
"a+	c #8A7A7A",
"b+	c #5E1212",
"c+	c #C6B6B5",
"d+	c #822E2C",
"e+	c #624442",
"f+	c #5D4E4E",
"g+	c #CEB2B2",
"h+	c #A07A7A",
"i+	c #FEE6E4",
"j+	c #C2AEAE",
"k+	c #462E2E",
"l+	c #C2B2B1",
"m+	c #D24E4E",
"n+	c #7E6A6A",
"o+	c #7E5656",
"p+	c #BE8E8A",
"q+	c #7A2626",
"r+	c #BAAAAA",
"s+	c #361E1E",
"t+	c #AE9E9E",
"u+	c #A24646",
"v+	c #220606",
"w+	c #F5DEDE",
"x+	c #A29292",
"y+	c #C2AAA9",
"z+	c #C6AEAD",
"A+	c #DA7272",
"B+	c #A38280",
"C+	c #A69292",
"D+	c #8E8282",
"E+	c #CABABA",
"F+	c #E7D2CF",
"G+	c #B29293",
"                                                              ",
"                                                              ",
"                          6+<.[+< 4+z.7+                      ",
"                    g+U g+A.A.g+:.6+l.@.g 3 S.                ",
"                A.>+* l # ;+w+r c G 1.6 7+u ^ d+%.            ",
"              m.F+P.C.y i+i+;+r q.G 1.p+_ 3 ; b.u+b.)+        ",
"            m.# C.Q Q i+y y ;+q.f.2 : |+{+^.T.t &+% D 4       ",
"          m.P.C.i+3+3+i+y ;+q.f.2 z.#+r.b+d+[ ).>.f ..&       ",
"        * # /+k 3+3+3+i+w+q.R.:.h+B.] ' ` T.&+p.a ,.].q+/.    ",
"        l P.k 3+3+3+Q C.F+R.U Y.8 x m d 3 ;.@+m+Z.Z.f *.b+    ",
"      >+2./+k k 3+Q w+q.R.g+O.Y.B+B.x |+L.;.].A A+++A+;.- H.  ",
"      5+/+k k 3+9.w+l * g+O.}.6+-+(.P $._ .+Z > g.>.b I d '   ",
"      F+6.k k /+(+l >+n.o.}.}.Y._+B+e+#+} : 7 b H H Y I 9 '   ",
"    t.( k k /+(+m.>+n.o.z+y+Y.6+s.G+z.q } U.E W.W.7 : U.|+'.] ",
"    l+( k 6.P.5+C n.o.j+j+F h 6+s.i.l.p !.d.W. +7 4+U.p (.{.=+",
"    C ( /+2.5+C c+c+l+y+F h E.<._+_+i.l.< l.l.l.d.h+p o+K B 1 ",
"    C 2.# S C $+l+l+j+y+h h E.<.i i i.G+G+z < 4+@.O M X.P ,+1 ",
"    0 5+S C $+o.o.j+t.r+9+E.E.J i i.N z z [+B+8 O j.X.8+'+v+1 ",
"    ~ 0 C , , , t.t.F 9+E.<.<.i i G+N z [+w.W %+ .K 8+x.,+1 I.",
"    @ c.c+c+, t.t.r+M.M.E.!+J e.N N z 7.R W o V.8.[.x.:+1 n 1 ",
"      ~ L l+0 0 r+r+9+M.!+t+i N N C+e s h.o e+8.V 5.,+I.I.I.  ",
"      N.X 0 0 r+r+M.!+!+J J e.N x+7.s h.}+&.k+s+5.+.n I.n I.  ",
"      |.F.L L L c.M.!+t+t+e.K.e 7.a+n+}+K + x.j v+n n n n 1   ",
"        |.K.c.M.M.!+X X e.$ C+7.0.n+ .^+_.x.j u.4.n 4.n n     ",
"        =.n+$ { { X t+e.K.x+7.a+= f+D.Q./ +.I.n 4.n 4.4.I.    ",
"          T 0.e.X t+e.$ x+~ 0+N.T D.y.2+3.n 4.4.4.4.4.n       ",
"            f+0.-.K.K.-.D+0+}+&.w s+2+u.. . 4.4.4.4..         ",
"              y.=.0+~ D+|.5 ! ~+<+j n 4.4.4.. 4.. .           ",
"                <+D.5 }+T D._.<+j ]+. . . 4.. 4..             ",
"                    2+/ <+<+j u.. . . . 4.. 4.                ",
"                          ]+. . . . . .                       "};
