/* XPM */
static char * knob25_xpm[] = {
"31 31 256 2",
"  	c None",
". 	c #120202",
"+ 	c #3A2E2E",
"@ 	c #6A5E5E",
"# 	c #9E9292",
"$ 	c #D2C2C2",
"% 	c #EA3232",
"& 	c #6A1E1E",
"* 	c #CA6266",
"= 	c #C9BAB9",
"- 	c #A63A3A",
"; 	c #7A6E6E",
"> 	c #5E120E",
", 	c #BAAEAE",
"' 	c #82323A",
") 	c #2E2222",
"! 	c #C09290",
"~ 	c #AA7676",
"{ 	c #625656",
"] 	c #867A7A",
"^ 	c #231617",
"/ 	c #B65E5E",
"( 	c #68383A",
"_ 	c #B6A6A6",
": 	c #420C0C",
"< 	c #DA7E7E",
"[ 	c #BEA6A6",
"} 	c #B09292",
"| 	c #483A3B",
"1 	c #908283",
"2 	c #986264",
"3 	c #1E1212",
"4 	c #DEC2C2",
"5 	c #150607",
"6 	c #AE9A9A",
"7 	c #BF9E9D",
"8 	c #C4807E",
"9 	c #E5BAB9",
"0 	c #CA7272",
"a 	c #E0B6B4",
"b 	c #A22A2A",
"c 	c #96423E",
"d 	c #4F3E3F",
"e 	c #A78E8F",
"f 	c #9E6E72",
"g 	c #D44A4C",
"h 	c #865E5E",
"i 	c #928686",
"j 	c #2A1A1A",
"k 	c #5C3232",
"l 	c #DDBABA",
"m 	c #A27A7A",
"n 	c #D6B0B0",
"o 	c #2A0A0A",
"p 	c #561616",
"q 	c #AA464A",
"r 	c #EECACA",
"s 	c #A29696",
"t 	c #AEA2A2",
"u 	c #5A4E4E",
"v 	c #4E2222",
"w 	c #9F8A8A",
"x 	c #6A3E3E",
"y 	c #B29A9C",
"z 	c #964646",
"A 	c #CE9894",
"B 	c #B2464E",
"C 	c #561E1E",
"D 	c #786A6B",
"E 	c #5E3E3E",
"F 	c #CCAEAE",
"G 	c #BE9A9B",
"H 	c #7E5A5A",
"I 	c #862622",
"J 	c #3A1212",
"K 	c #D6AAAA",
"L 	c #160A0A",
"M 	c #E6CECC",
"N 	c #7D6262",
"O 	c #A78282",
"P 	c #3A1A1A",
"Q 	c #D6A29E",
"R 	c #7E4A46",
"S 	c #907A7A",
"T 	c #DA5A5A",
"U 	c #D4BABA",
"V 	c #C6565E",
"W 	c #887274",
"X 	c #1E0203",
"Y 	c #4E2E2E",
"Z 	c #9A8E8E",
"` 	c #622622",
" .	c #CA827E",
"..	c #945250",
"+.	c #C2B6B5",
"@.	c #BE8E8E",
"#.	c #EAC6C2",
"$.	c #BA9A9C",
"%.	c #A69A9A",
"&.	c #CA9292",
"*.	c #1F0A0A",
"=.	c #CECECE",
"-.	c #D66262",
";.	c #BA9395",
">.	c #A28282",
",.	c #C64242",
"'.	c #C6A6A6",
").	c #C68A9E",
"!.	c #977D7E",
"~.	c #9A6A6A",
"{.	c #E64646",
"].	c #322626",
"^.	c #6A2A2E",
"/.	c #2E1212",
"(.	c #764A4A",
"_.	c #B66A68",
":.	c #CC8C90",
"<.	c #B67A7E",
"[.	c #AA9296",
"}.	c #BFAEAD",
"|.	c #DECAC6",
"1.	c #B29E9F",
"2.	c #DA7272",
"3.	c #B68A8E",
"4.	c #968A8A",
"5.	c #6B5A5A",
"6.	c #574243",
"7.	c #CAB2B0",
"8.	c #866262",
"9.	c #D26A66",
"0.	c #B2A2A2",
"a.	c #827676",
"b.	c #C64E4A",
"c.	c #763A36",
"d.	c #D6C2C2",
"e.	c #362A2A",
"f.	c #C69290",
"g.	c #7A1E1E",
"h.	c #1E0E0E",
"i.	c #F0D2CE",
"j.	c #1A0204",
"k.	c #B69395",
"l.	c #A69697",
"m.	c #621A1A",
"n.	c #3E2E2E",
"o.	c #A29293",
"p.	c #C6AEAE",
"q.	c #766666",
"r.	c #CEBEBE",
"s.	c #AA7A7A",
"t.	c #BEA2A2",
"u.	c #2A1E1E",
"v.	c #604646",
"w.	c #735E5E",
"x.	c #4E0A0A",
"y.	c #B8AAAA",
"z.	c #BEAAAC",
"A.	c #664649",
"B.	c #D3BEBE",
"C.	c #D8C6C4",
"D.	c #221214",
"E.	c #AE9E9F",
"F.	c #CE7A72",
"G.	c #DA525A",
"H.	c #965A5A",
"I.	c #260E0E",
"J.	c #AA9697",
"K.	c #BAA2A2",
"L.	c #1E0606",
"M.	c #9E8E8F",
"N.	c #D4626A",
"O.	c #C69A9A",
"P.	c #A25E5E",
"Q.	c #E6C6C6",
"R.	c #BA9EA0",
"S.	c #C6A2A2",
"T.	c #978688",
"U.	c #7F7272",
"V.	c #826666",
"W.	c #CA6A66",
"X.	c #C28686",
"Y.	c #9E7676",
"Z.	c #4A2A2A",
"`.	c #964E4E",
" +	c #D67A7A",
".+	c #622226",
"++	c #8D7E7F",
"@+	c #B69A9C",
"#+	c #261A1A",
"$+	c #C9AAAA",
"%+	c #3E2A2E",
"&+	c #442E2F",
"*+	c #2E1E1F",
"=+	c #7E2A32",
"-+	c #E4CACA",
";+	c #AF9698",
">+	c #4A3E3E",
",+	c #AE7E7E",
"'+	c #BE9397",
")+	c #A28E90",
"!+	c #887676",
"~+	c #C2B2B0",
"{+	c #B69EA0",
"]+	c #DCBEBE",
"^+	c #CDB6B6",
"/+	c #A69295",
"(+	c #9A8A8A",
"_+	c #C29A9B",
":+	c #E2C6C6",
"<+	c #CEBABA",
"[+	c #8E5E5E",
"}+	c #320E0E",
"|+	c #625252",
"1+	c #DE5E5A",
"2+	c #722622",
"3+	c #D28E8E",
"4+	c #220E12",
"5+	c #C2A2A2",
"6+	c #927E7E",
"7+	c #EECECE",
"8+	c #AA9E9E",
"9+	c #665A5A",
"0+	c #1A0E0E",
"a+	c #BAA6A6",
"b+	c #C6B6B6",
"c+	c #AA9A9A",
"d+	c #DAC2C2",
"e+	c #DEC6C6",
"f+	c #371E1F",
"g+	c #423232",
"h+	c #622A2C",
"i+	c #C6969A",
"j+	c #524242",
"k+	c #4B3232",
"l+	c #564646",
"m+	c #B6A2A2",
"n+	c #665659",
"o+	c #C2A6A6",
"p+	c #E2BEBE",
"q+	c #7A6666",
"r+	c #876665",
"s+	c #C6B2B2",
"t+	c #A77E7E",
"u+	c #766262",
"v+	c #7E6E70",
"w+	c #2E1A1E",
"x+	c #1A0A0C",
"y+	c #EACECD",
"z+	c #3A2A2A",
"A+	c #C2AAAA",
"B+	c #261212",
"C+	c #321E1E",
"D+	c #9E7E80",
"E+	c #5A2220",
"F+	c #EACAC8",
"G+	c #CA9696",
"                                                              ",
"                              %                               ",
"                        {.2.g g N.V / z                       ",
"                     ._.W.1+< -.G.-.0 `...2 R                 ",
"                A Q &...c b.F.=.* T  + .X.,+(.x (             ",
"              K a a G+c.2+- ,.X.:.* F.:.A @.Y.H Y J           ",
"            n ]+#.a :.E+> I b B q _.F.:.G+! t+8.6.P }+        ",
"          n ]+r #.9 ! E+x.& g.=+' H.<.f.i+! O r+A.Y /.o       ",
"        '.]+7+i.r 9 @.C : p m..+^.H.~ ! i+;.O 8.v.Y P *.X     ",
"        7.e+y+7+#.a ! v : E+` ^.( [+s.'+G k.D+V.A.k+) I.X     ",
"      7 U e+y+i.-+l k.k k h ~.~.f 3.'+_+'+k.D+V.v.Y f+B+L.X   ",
"      {+<+:+M y+:+a 7 8.h ~ m m t+'+7 G $.} D+N v.k+) /.*..   ",
"      A+B.e+-+y+:+U $+G $._+7 _+G _+7 $.$.} !.N 6.Y C+B+*.j.  ",
"    [ ^+B.d+-+-+e+U F $+S.o+S.7 G R.$.$.;+e S N v.&+w+I.*.*.. ",
"    y b+B.d.|.-+4 U p.$+'.5+t.t.R.$.@+@+;+e S u+6.&+C+B+h.4+. ",
"    J.p.<+d.e+|.e+^+p.A+[ t.t.R.R.@+@+;+;+e S w.6.&+*+4+*.h.5 ",
"    J.~+= B.C.e+d+^+}.o+[ K.K.{+{+y y ;+J.w S w.6.%+*+3 *.h.. ",
"    l.}.^+r.d+C.$ s+A+[ a+K.{+{+1.y ;+;+[.w !+5.j+n.j 4+0+*.5 ",
"    w _ b+r.d.d+B.s+z.K.a+m+{+y y 6 J.[./+T.!+5.d %+j 4+0+x+. ",
"    !+1 }.= $ $ B.p.a+a+m+{+E.1.c+J.l.l.e >.!+5.j+%+j h.x+. . ",
"      ] y.b+$ $ r.~+_ 0.0.1.6 6 J.[./+o.# T.W n+d %+j h.L .   ",
"      6+1.b+= r.= }.m+m+1.6 c+c+J.l.o.)+w 1 U.5.d e.#+h.5 .   ",
"      q+a.y.= = b+}.0.E.E.6 J.l.s o.# M.w 1 v+n+d ].j 0+. .   ",
"        D J.+.= = y.0.E.E.c+l.l.o.)+M.(+4.6+v+{ | z+^ L .     ",
"        5.q.8+~+~+_ t c+%.%.s o.# M.Z T.T.++; |+| ].D.. .     ",
"          | 9+%., _ E.c+l.l.o.# M.(+(+4.i ++D { g+*+5 .       ",
"            g+{ Z E.%.%.s o.)+Z Z 4.T.1 1 ] q.|++ 0+.         ",
"              z+l+] 4.o.o.# # Z 4.T.i i ++a.9+| 3 .           ",
"                h.*+>+; ] ++4.4.4.i ++; D { ) L .             ",
"                    *.#+*+| q.U.; ; @ ].^ ^ .                 ",
"                          L 3 ^ ^ ^ 3 .                       "};
