/* XPM */
static char * knob17_xpm[] = {
"31 31 256 2",
"  	c None",
". 	c #0A0202",
"+ 	c #413234",
"@ 	c #695A5B",
"# 	c #857677",
"$ 	c #D67E82",
"% 	c #C64276",
"& 	c #6A0E1A",
"* 	c #928686",
"= 	c #E27272",
"- 	c #BE3262",
"; 	c #BA8686",
"> 	c #5A0E16",
", 	c #D2829A",
"' 	c #863236",
") 	c #AA6272",
"! 	c #2F2223",
"~ 	c #4A3E3E",
"{ 	c #AE9A9A",
"] 	c #DE92AA",
"^ 	c #9A626A",
"/ 	c #4A1212",
"( 	c #231617",
"_ 	c #A2868A",
": 	c #AE828C",
"< 	c #6E6262",
"[ 	c #BA9292",
"} 	c #56464A",
"| 	c #CAA6AA",
"1 	c #723236",
"2 	c #B69A9A",
"3 	c #A27A7E",
"4 	c #9E2E46",
"5 	c #7A6264",
"6 	c #1E1213",
"7 	c #9E8E8F",
"8 	c #E2AABA",
"9 	c #76464A",
"0 	c #8A7E7E",
"a 	c #5D4E4F",
"b 	c #C09AA0",
"c 	c #621216",
"d 	c #B08E8E",
"e 	c #CA464E",
"f 	c #1A0E0E",
"g 	c #E29EA2",
"h 	c #7A6E6E",
"i 	c #885A5C",
"j 	c #6A3236",
"k 	c #A63A42",
"l 	c #A68E90",
"m 	c #D8B2B4",
"n 	c #EA5252",
"o 	c #BEA2A2",
"p 	c #8E1E26",
"q 	c #DAA6B2",
"r 	c #864E56",
"s 	c #5E1E1E",
"t 	c #C26E86",
"u 	c #F2528A",
"v 	c #F67672",
"w 	c #1B0A0D",
"x 	c #DA7276",
"y 	c #CC969A",
"z 	c #968283",
"A 	c #A69296",
"B 	c #BA4E6E",
"C 	c #96787E",
"D 	c #DE8E92",
"E 	c #EABEBE",
"F 	c #D6A6B0",
"G 	c #D69E9E",
"H 	c #625254",
"I 	c #866666",
"J 	c #9A666E",
"K 	c #963E52",
"L 	c #3E2E30",
"M 	c #DE6E92",
"N 	c #826E70",
"O 	c #A67272",
"P 	c #9A8E8E",
"Q 	c #CAA2A2",
"R 	c #765A5E",
"S 	c #721A1E",
"T 	c #0E0202",
"U 	c #C2A2A5",
"V 	c #968686",
"W 	c #DA7E96",
"X 	c #160A0B",
"Y 	c #5E424A",
"Z 	c #C49698",
"` 	c #92767C",
" .	c #64464E",
"..	c #7A6A6D",
"+.	c #4E383A",
"@.	c #C2767A",
"#.	c #66262E",
"$.	c #301C20",
"%.	c #968A8A",
"&.	c #A69696",
"*.	c #6E5656",
"=.	c #473A3A",
"-.	c #A29292",
";.	c #C2A6A6",
">.	c #D662AA",
",.	c #726666",
"'.	c #B69E9E",
").	c #AF9699",
"!.	c #8E6E76",
"~.	c #130203",
"{.	c #EA7A7E",
"].	c #BE5A6E",
"^.	c #8F7E7E",
"/.	c #725A5E",
"(.	c #CBAAAA",
"_.	c #563E3E",
":.	c #6A5252",
"<.	c #D6AAAC",
"[.	c #CC8A8E",
"}.	c #8A7678",
"|.	c #726264",
"1.	c #C68E96",
"2.	c #966E6E",
"3.	c #EC72A2",
"4.	c #4A3638",
"5.	c #664E50",
"6.	c #261A1A",
"7.	c #AA7A7E",
"8.	c #D29E9E",
"9.	c #C69A9E",
"0.	c #BA9E9E",
"a.	c #B29A9E",
"b.	c #826A6C",
"c.	c #886E74",
"d.	c #E68EAA",
"e.	c #B68E8E",
"f.	c #362A2A",
"g.	c #A6888E",
"h.	c #BA8286",
"i.	c #EEAABE",
"j.	c #A23C40",
"k.	c #8A7A7D",
"l.	c #665658",
"m.	c #9E7E82",
"n.	c #D2ACAE",
"o.	c #564A4A",
"p.	c #5E2E2E",
"q.	c #8E8282",
"r.	c #6D5E5E",
"s.	c #B29E9E",
"t.	c #C692AA",
"u.	c #CEA6A6",
"v.	c #BE949A",
"w.	c #BAA2A2",
"x.	c #EEA2B6",
"y.	c #7E3A46",
"z.	c #AA2E46",
"A.	c #E67AA2",
"B.	c #928284",
"C.	c #16060A",
"D.	c #7E626A",
"E.	c #231212",
"F.	c #D89EAC",
"G.	c #453636",
"H.	c #7E4E52",
"I.	c #DEAEBA",
"J.	c #762222",
"K.	c #CE8E9E",
"L.	c #624E52",
"M.	c #C6A2A2",
"N.	c #6E5A5D",
"O.	c #1F0E0F",
"P.	c #7E7272",
"Q.	c #BE8A9A",
"R.	c #A68282",
"S.	c #9F8A8D",
"T.	c #D6AEAE",
"U.	c #5A4A4B",
"V.	c #BF9EA2",
"W.	c #362626",
"X.	c #665255",
"Y.	c #827274",
"Z.	c #520E10",
"`.	c #462E32",
" +	c #B6929A",
".+	c #866A6A",
"++	c #867A7C",
"@+	c #B09294",
"#+	c #877276",
"$+	c #A28E8F",
"%+	c #C69EAA",
"&+	c #C6A6A7",
"*+	c #463232",
"=+	c #DE7A7E",
"-+	c #F24E4A",
";+	c #8E4A4A",
">+	c #9A7E7E",
",+	c #C25262",
"'+	c #AA9696",
")+	c #766263",
"!+	c #DE9EAE",
"~+	c #7A666A",
"{+	c #DAB6B8",
"]+	c #624A4E",
"^+	c #725E60",
"/+	c #766A6A",
"(+	c #7E6E71",
"_+	c #D2A2A7",
":+	c #AA969A",
"<+	c #4E4242",
"[+	c #2A1E1E",
"}+	c #C6AAAA",
"|+	c #D6AAB6",
"1+	c #987078",
"2+	c #8A1E32",
"3+	c #721E2A",
"4+	c #9A8A8E",
"5+	c #534243",
"6+	c #6A5658",
"7+	c #7F6667",
"8+	c #B69696",
"9+	c #9A8283",
"0+	c #8E7676",
"a+	c #AA8E8E",
"b+	c #766667",
"c+	c #E6AEB2",
"d+	c #DCAAB2",
"e+	c #785E60",
"f+	c #927A7E",
"g+	c #622A2A",
"h+	c #8E7274",
"i+	c #9E8282",
"j+	c #BE8E94",
"k+	c #96868A",
"l+	c #4E3E42",
"m+	c #5A464A",
"n+	c #7E6A6E",
"o+	c #2A1A1C",
"p+	c #D2A6AC",
"q+	c #5E4A4E",
"r+	c #C6A2AA",
"s+	c #AA8E96",
"t+	c #BEA2A6",
"u+	c #B69EA2",
"v+	c #CBA2A8",
"w+	c #BA9EA2",
"x+	c #BA9A9C",
"y+	c #AA9296",
"z+	c #9A8A8A",
"A+	c #9A868A",
"B+	c #AE8E96",
"C+	c #CEA6AE",
"D+	c #D6AEB6",
"E+	c #8A6A72",
"F+	c #B8969E",
"G+	c #F27A76",
"                                                              ",
"                                                              ",
"                          Q.v.: 1+E+!.E+                      ",
"                    , F.8 I.|+F+g.C c.D.]+Y  .                ",
"              u A.d.x.i.8 d+|+%+@+R.` 7+/.X.m++. .            ",
"            v 3.3.M W ] F.F p+v+b B+>+h+D./.5.5+a ]+          ",
"          -+G+E >.% B t K._+p+v+r+F+g.C c.5 N.L.a m+4.        ",
"        n = {.8.t.- 4 K ) Q.F.C+r+V.@+_ 0+n+e+6+5.U.+.`.      ",
"        =+x e B ].z.2+3+y.^ j+v+r+%+2 s+>+#+~+N.l.H o.=.$.    ",
"        D $ k j.j.p & > #.9 1+v.U U w.).S.C N )+6+a q+l+(     ",
"      [.g @.' J.S c > #.r ^ : %+U U t+w+y+i+}.n+^+l.]+} ! w   ",
"      y c+[.;+s Z.Z.1 h.t.b n.r+r+t+V.a.{ $+z #+~+@ H } *+(   ",
"      y <.8.O j / #.h._+8.n.{+&+%+w.t+u+a.y+S.^.(+^+l.a l+[+  ",
"    7.[ F p+v.i p.H.e._+T.m (.U w.w+u+a.a.:+$+z }...@ H } f.C.",
"    3 d Q p+u.d i 2.b n.m | V.V.w+w+w+s.a.{ A 4+q.#+,.@ q+G.X ",
"    R.8+0.&+| Q [ Q {+n.&+U t+w+w+2 a.{ { :+&.$+k+k.h r.H G.X ",
"    m.d d x+;.}+&+| (.r+t+V.w+u+u+a.a.:+:+y+A $+P ^.# b+@ =.w ",
"    I 7+>+a+x+U ;.;.;.o o w+u+2 a.{ :+).A A -.7 S.k+++P.r.<+f ",
"    e+R h+9+a+2 o o o w+w.0.u+a.a.{ :+:+&.-.-.P 4+k+^.# < + C.",
"    I 5 b.0+9+a+).'.w.w.'.s.a.{ { :+&.A $+7 P S.4+k+q.0 < ( T ",
"      :.5.n+}.9+l ).s.'.'.s.s.:+).y+A -.-.S.4+%.k+* ^.++l.6   ",
"      :.X.)+N }.>+$+).{ s.{ :+{ A &.-.-.4+P %.k+* B.0 /+~ f   ",
"      7+^+N.)+(+# B.$+A { { '+'+-.-.7 7 4+4+k+B.q.q.P.=.O.~.  ",
"        5.m+6+)+b.#+z S.-.&.A -.-.7 7 4+4+k+k+* B.0 ,.( T     ",
"        _.=.5+l.)+..#+^.A+-.-.-.7 7 P k+V * B.q.k...o.f T     ",
"          4.*+_.H N./+Y.^.V P 7 7 4+z+%.* B.q.++,.G.6 T       ",
"            + W.L <+l.|.(+k.B.z+%.k+V * q.0 ++r.! X .         ",
"              E.O.$.G.a r...++q.V V B.^.h r.H [+T .           ",
"                E.O.O.o++ q+@ ,./+h h < + ( f C..             ",
"                    ~.~.X f 6 E.( 6.( 6 C.T .                 ",
"                          T . T T . . .                       "};
