/* XPM */
static char * knob18_xpm[] = {
"31 31 256 2",
"  	c None",
". 	c #060202",
"+ 	c #3D2E2F",
"@ 	c #665657",
"# 	c #7A6E6E",
"$ 	c #CE7A7E",
"% 	c #72121A",
"& 	c #8E8283",
"* 	c #F2564E",
"= 	c #B23A42",
"- 	c #5A060E",
"; 	c #CE8286",
"> 	c #BA8286",
", 	c #AA5A5E",
"' 	c #7A4246",
") 	c #2E1E21",
"! 	c #C69296",
"~ 	c #4B3A3A",
"{ 	c #8E5A5E",
"] 	c #A29292",
"^ 	c #A67276",
"/ 	c #4E0A0E",
"( 	c #C2A2A3",
"_ 	c #B08E90",
": 	c #1E1212",
"< 	c #7F6666",
"[ 	c #524242",
"} 	c #DAA2A4",
"| 	c #A26E72",
"1 	c #A48282",
"2 	c #6E2E32",
"3 	c #6E6262",
"4 	c #AE9A9A",
"5 	c #867676",
"6 	c #E2969A",
"7 	c #B22A36",
"8 	c #662226",
"9 	c #9A8E8E",
"0 	c #EE4E4E",
"a 	c #D2A2A2",
"b 	c #BE9A9C",
"c 	c #665252",
"d 	c #E28282",
"e 	c #5A4E4E",
"f 	c #AA3642",
"g 	c #521E22",
"h 	c #9E8688",
"i 	c #B69A9B",
"j 	c #DEAAAE",
"k 	c #862A2E",
"l 	c #968A8A",
"m 	c #D69296",
"n 	c #CAAAAA",
"o 	c #362A2A",
"p 	c #8A7E7E",
"q 	c #1C0A0A",
"r 	c #765A5C",
"s 	c #D6727A",
"t 	c #661E22",
"u 	c #AA9292",
"v 	c #CEA2A4",
"w 	c #5E464A",
"x 	c #A66668",
"y 	c #BA6E72",
"z 	c #72262A",
"A 	c #CE4A52",
"B 	c #2A1A1A",
"C 	c #8C7272",
"D 	c #A28A8A",
"E 	c #927676",
"F 	c #DA8686",
"G 	c #F2625E",
"H 	c #B69E9E",
"I 	c #120205",
"J 	c #8A6668",
"K 	c #DA767E",
"L 	c #B6565A",
"M 	c #5A3A3E",
"N 	c #D6AEAE",
"O 	c #766A6A",
"P 	c #924246",
"Q 	c #C6A2A3",
"R 	c #DAAEB2",
"S 	c #987A7A",
"T 	c #6B5656",
"U 	c #9A8284",
"V 	c #C66672",
"W 	c #4E3636",
"X 	c #564A4A",
"Y 	c #BEA2A3",
"Z 	c #AF9697",
"` 	c #160A0A",
" .	c #C2969A",
"..	c #392629",
"+.	c #928686",
"@.	c #261A1A",
"#.	c #6D5E5E",
"$.	c #866E6E",
"%.	c #6A1216",
"&.	c #E66E72",
"*.	c #866266",
"=.	c #B69292",
"-.	c #C68A8A",
";.	c #726262",
">.	c #A67E7E",
",.	c #DE8E92",
"'.	c #443636",
").	c #82121A",
"!.	c #E29A9E",
"~.	c #B6A2A2",
"{.	c #DAB2B4",
"].	c #CA9A9D",
"^.	c #261216",
"/.	c #8E7676",
"(.	c #7A4E4E",
"_.	c #D2AAAD",
":.	c #C6A6A9",
"<.	c #927E7F",
"[.	c #A69696",
"}.	c #96222A",
"|.	c #462E2E",
"1.	c #764A4A",
"2.	c #B29A9A",
"3.	c #E6B6BA",
"4.	c #AA9696",
"5.	c #624E4E",
"6.	c #BA9EA1",
"7.	c #524646",
"8.	c #866A6B",
"9.	c #A69292",
"0.	c #523A3E",
"a.	c #EA8A82",
"b.	c #766667",
"c.	c #B4868A",
"d.	c #5A0A0E",
"e.	c #867A7A",
"f.	c #130606",
"g.	c #622A2E",
"h.	c #6A5A5A",
"i.	c #C29EA2",
"j.	c #BE868A",
"k.	c #B29E9E",
"l.	c #B88E8E",
"m.	c #EE726E",
"n.	c #AA8282",
"o.	c #7F7273",
"p.	c #0A0202",
"q.	c #A88A8A",
"r.	c #A27A7A",
"s.	c #C2A6A7",
"t.	c #BE7286",
"u.	c #86464A",
"v.	c #968689",
"w.	c #221616",
"x.	c #7E6A6C",
"y.	c #3E3232",
"z.	c #665A5A",
"A.	c #723636",
"B.	c #9E8A8C",
"C.	c #DA9A9E",
"D.	c #EA6A6A",
"E.	c #821A22",
"F.	c #5E5252",
"G.	c #928285",
"H.	c #9E8E8F",
"I.	c #2E2222",
"J.	c #CAA2A5",
"K.	c #564646",
"L.	c #BE9EA1",
"M.	c #625253",
"N.	c #CE9A9E",
"O.	c #3E2A2A",
"P.	c #BE9696",
"Q.	c #4E3E40",
"R.	c #965E62",
"S.	c #9A8A8A",
"T.	c #CEAAAB",
"U.	c #8E7E7F",
"V.	c #A38689",
"W.	c #927A7A",
"X.	c #9A7E81",
"Y.	c #867273",
"Z.	c #C69EA2",
"`.	c #EA9292",
" +	c #6E4E52",
".+	c #BA9A9B",
"++	c #321A1E",
"@+	c #BE5662",
"#+	c #E2AEAE",
"$+	c #725E62",
"%+	c #7A6262",
"&+	c #E69A96",
"*+	c #5E0E16",
"=+	c #6A2A2E",
"-+	c #725A5A",
";+	c #765E5E",
">+	c #CEA6A8",
",+	c #5E4A4C",
"'+	c #DAB6B6",
")+	c #AA8E8E",
"!+	c #BEA6A6",
"~+	c #0E0202",
"{+	c #CAA6A9",
"]+	c #AA969A",
"^+	c #D2A6A9",
"/+	c #573E3F",
"(+	c #8A7676",
"_+	c #C98E91",
":+	c #5A4646",
"<+	c #624A4C",
"[+	c #BAA2A2",
"}+	c #7A6668",
"|+	c #DEA6AA",
"1+	c #D89696",
"2+	c #1E0E0E",
"3+	c #8A6A6E",
"4+	c #B89696",
"5+	c #26161A",
"6+	c #8E7A7E",
"7+	c #523E40",
"8+	c #B68A8A",
"9+	c #7A6A6E",
"0+	c #423232",
"a+	c #CAAAB2",
"b+	c #B29A9E",
"c+	c #221212",
"d+	c #5E4E4E",
"e+	c #3A2A2C",
"f+	c #160206",
"g+	c #8A7A7C",
"h+	c #826A6A",
"i+	c #8E5E5E",
"j+	c #4E0E0E",
"k+	c #A28E92",
"l+	c #DA8A8E",
"m+	c #EE6662",
"n+	c #D6B2B6",
"o+	c #E27276",
"p+	c #DE9EA2",
"q+	c #92262E",
"r+	c #463232",
"s+	c #EA8E8A",
"t+	c #560E12",
"u+	c #BA8A8A",
"v+	c #EA7672",
"w+	c #AA8686",
"x+	c #321E1E",
"y+	c #9A8A8E",
"z+	c #7E6E70",
"A+	c #6E5A5C",
"B+	c #A69296",
"C+	c #564242",
"D+	c #5A4A4C",
"E+	c #766263",
"F+	c #D6AAAE",
"G+	c #D6A6A6",
"                                                              ",
"                                                              ",
"                          -.u+l.1 J *.J                       ",
"                  m+F ; 1+j ^+i.l.S $.<  +/+M                 ",
"              * v+a.`.m p+j j J.b w+S $.r 5./+W |.            ",
"            G m.a.&+s $ m p+G+^+Z.=.1 C < c ,+C+r+0.          ",
"          0 &.m+m {+@+L y _+a >+{+.+_ X.$.;+5.w 7+C+~         ",
"          d o+A V t.7 }.P x _+v J.Z.Z V.E *.-+5.:+K.W O.      ",
"        l+6 K = = f }.% z u.| ! Q Z.b )+X.z+E+T ,+K.7+0+++    ",
"        C.!., k E.% %.*+t ' { l.Z.( L.Z D E < A+5.K.[ ~ o     ",
"      -.|+} x t t+- d.2 { ^ c.>+J.( L.4+k+U C E+c ,+C+7+e+q   ",
"      ! 3.j > A./ j+2 > N.].^+{.:.L.L.H Z D 6+< -+d+X Q.+ 2+  ",
"      P.n+n+].{ g g.^ ].v _.'+>+( 6.6.6.b+9.v.Y.b.T ,+[ r+B   ",
"    n.4+>+F+T.8+1.(.c.J._.n+{+( L.6.6.i 2.4.B.U.x.#.M.K.~ ) f.",
"    V..+Q T.T.Z.r.r.J.{.T.:.L.6.6.H H b+Z u k+G.Y.b.@ e Q...f.",
"    1 i 6.( T.n ( i.:.:.Q ( Y 6.6.i b+4 4 ]+9.B.U.z+#.d+7.+ ` ",
"    C E q.4+Y n :.:.:.( Y Y 6.H H b+2.Z ]+u B+B.G.(+b.@ X + ` ",
"    J 8.<.)+i Y n s.( Y L.6.6.H b+4 ]+]+4.[.] H.v.p # 3 d+0+f.",
"    < 8./.h u i Y !+Y [+6.H H b+2.4 4.B+B+k+H.H.v.G.Y.O F.) I ",
"    r A+%+E h u i 6.[+[+~.H 2.k.4 4.4.9.H.] H.S.v.+.g+z+F.: ~+",
"      ;+E+$.W.y+B+b+H H H k.4 ]+Z B+[.] H.H.y+S.v.& p o.e 2+  ",
"      < b.$.5 W.B.B+4 k.k.4 4 4 [.[.k+] H.S.S.v.G.G.U.O ) I   ",
"      r c A+x.C <.B.u 4 4 ]+[.]+] ] H.H.9 v.l +.+.p e.z.: I   ",
"        <+5.;.z+Y.<.y+] [.]+[.] ] ] H.S.v.l G.G.U.e.#.) ~+    ",
"        w K.D+3 9+5 U.v.] B+[.] H.H.9 S.v.v.G.& U.O o f.I     ",
"          /+'.[ @ }+5 G.S.] k+k+H.y+v.v.v.& & p # e : ~+      ",
"            x+) 0+,+b.Y.U.l 9 H.S.S.l G.& p e.#.o : I         ",
"              ^...0+K.z.z+g+v.l S.v.G.p o.O z.) I p.          ",
"                ..5+B y.e z.b.z+5 o.# @ I.: : ~+.             ",
"                    f+f.2+: w.@.) w.w.: I ~+p.                ",
"                          ~+p.p.p.p.p.~+                      "};
