/* XPM */
static char * knob30_xpm[] = {
"31 31 256 2",
"  	c None",
". 	c #0A0202",
"+ 	c #3E2E2E",
"@ 	c #726666",
"# 	c #DECECE",
"$ 	c #B6AAAA",
"% 	c #B63232",
"& 	c #8B7E7E",
"* 	c #5E1216",
"= 	c #843838",
"- 	c #BE8688",
"; 	c #3E0606",
"> 	c #9A8E8E",
", 	c #625656",
"' 	c #302222",
") 	c #BA6666",
"! 	c #D4C2C2",
"~ 	c #703632",
"{ 	c #C08E90",
"] 	c #291A1A",
"^ 	c #AEA2A2",
"/ 	c #AE6A6A",
"( 	c #2A0202",
"_ 	c #DAAEB2",
": 	c #5A4E4E",
"< 	c #B28282",
"[ 	c #864242",
"} 	c #DE3E3E",
"| 	c #AA8E8E",
"1 	c #E7D6D6",
"2 	c #BE9A9A",
"3 	c #1E1212",
"4 	c #CEBEBE",
"5 	c #4A3A3B",
"6 	c #422626",
"7 	c #D1ADAD",
"8 	c #220202",
"9 	c #926666",
"0 	c #864646",
"a 	c #A88180",
"b 	c #AA9696",
"c 	c #6F5151",
"d 	c #A2524A",
"e 	c #EEDEDE",
"f 	c #7C1E1E",
"g 	c #C24E4E",
"h 	c #EFC9CA",
"i 	c #DAA6AA",
"j 	c #B69696",
"k 	c #1B0E0E",
"l 	c #7E5656",
"m 	c #C6B6B6",
"n 	c #160202",
"o 	c #DA8E86",
"p 	c #4E322E",
"q 	c #9C8282",
"r 	c #AE3636",
"s 	c #2C1615",
"t 	c #8A4E46",
"u 	c #A29696",
"v 	c #FEDEDE",
"w 	c #D69A9C",
"x 	c #C8AAAA",
"y 	c #966E6E",
"z 	c #D8807A",
"A 	c #554647",
"B 	c #807272",
"C 	c #D2525A",
"D 	c #62221A",
"E 	c #F6D6D6",
"F 	c #9E4E52",
"G 	c #AA9A9A",
"H 	c #C09E9E",
"I 	c #E2C7C7",
"J 	c #D0B2B2",
"K 	c #7A6A6A",
"L 	c #520A0A",
"M 	c #C66A6E",
"N 	c #EED2D2",
"O 	c #6E4444",
"P 	c #190A0A",
"Q 	c #908282",
"R 	c #F7E6E6",
"S 	c #DAB6A2",
"T 	c #B69E9E",
"U 	c #6A5E5E",
"V 	c #B65A62",
"W 	c #F7DEDE",
"X 	c #B3797A",
"Y 	c #CBA2A3",
"Z 	c #8A5656",
"` 	c #C1B2B2",
" .	c #260A0A",
"..	c #D08E8A",
"+.	c #B99293",
"@.	c #441414",
"#.	c #2E1E1E",
"$.	c #B18989",
"%.	c #E7BDBF",
"&.	c #DCC2C2",
"*.	c #AE625A",
"=.	c #B7A2A2",
"-.	c #9A3232",
";.	c #826E6E",
">.	c #BAAAAA",
",.	c #AE9A9A",
"'.	c #7A2A2A",
").	c #7E5A5A",
"!.	c #CE7E76",
"~.	c #C65E62",
"{.	c #7E4E4C",
"].	c #5C4545",
"^.	c #9A7272",
"/.	c #A69191",
"(.	c #A88A8A",
"_.	c #1E0505",
":.	c #965E5E",
"<.	c #9A8989",
"[.	c #887A7A",
"}.	c #EACECE",
"|.	c #984246",
"1.	c #403434",
"2.	c #DAB6B6",
"3.	c #5E4E4E",
"4.	c #C0A6A6",
"5.	c #DACACA",
"6.	c #BA3A3E",
"7.	c #0E0202",
"8.	c #F2D8D8",
"9.	c #D26E76",
"0.	c #382A2A",
"a.	c #4E0E0E",
"b.	c #BEAAAA",
"c.	c #4C2828",
"d.	c #3A0606",
"e.	c #3A1612",
"f.	c #A07674",
"g.	c #C7B2B2",
"h.	c #D0B6B6",
"i.	c #938686",
"j.	c #120202",
"k.	c #9E9292",
"l.	c #B6A6A6",
"m.	c #9E5A5E",
"n.	c #AE9E9D",
"o.	c #7E3A32",
"p.	c #D65A6A",
"q.	c #B2524A",
"r.	c #5A2E2A",
"s.	c #FEE6E6",
"t.	c #F1E2E2",
"u.	c #766262",
"v.	c #B28F8F",
"w.	c #AE9696",
"x.	c #866E6E",
"y.	c #C68686",
"z.	c #927A7A",
"A.	c #DBBDBD",
"B.	c #C0AEAE",
"C.	c #EED9D9",
"D.	c #685252",
"E.	c #C63A2E",
"F.	c #A69A9A",
"G.	c #5A2A2A",
"H.	c #D6CAC6",
"I.	c #845A5A",
"J.	c #2C0A0A",
"K.	c #BA8686",
"L.	c #501616",
"M.	c #483636",
"N.	c #8C5E5E",
"O.	c #AA9E9E",
"P.	c #D6B8B8",
"Q.	c #7E5E5E",
"R.	c #726265",
"S.	c #371E1E",
"T.	c #C89898",
"U.	c #C25E62",
"V.	c #C43A3E",
"W.	c #F6E2E2",
"X.	c #862A2E",
"Y.	c #B79A9A",
"Z.	c #A28E8E",
"`.	c #362222",
" +	c #C69090",
".+	c #C6A6A6",
"++	c #763A3E",
"@+	c #B67272",
"#+	c #AA8686",
"$+	c #160606",
"%+	c #DE8682",
"&+	c #BA625A",
"*+	c #461A1A",
"=+	c #D27272",
"-+	c #120606",
";+	c #D26262",
">+	c #E9DADA",
",+	c #230E0E",
"'+	c #231313",
")+	c #533636",
"!+	c #9F8A8A",
"~+	c #EAC6C6",
"{+	c #1A0202",
"]+	c #665656",
"^+	c #D4BEBE",
"/+	c #867272",
"(+	c #624242",
"_+	c #B98182",
":+	c #BAA6A6",
"<+	c #8D6D6D",
"[+	c #997979",
"}+	c #D4C6C6",
"|+	c #FEE2E2",
"1+	c #C8AEAE",
"2+	c #C0A2A3",
"3+	c #DCC6C6",
"4+	c #968A8A",
"5+	c #F6CED2",
"6+	c #B29E9E",
"7+	c #622A26",
"8+	c #FAE2E2",
"9+	c #C19293",
"0+	c #A69696",
"a+	c #DA9292",
"b+	c #A29292",
"c+	c #763232",
"d+	c #B66E72",
"e+	c #D6AAAA",
"f+	c #9A6666",
"g+	c #F2DEDE",
"h+	c #BA9696",
"i+	c #A28282",
"j+	c #968282",
"k+	c #BA9E9E",
"l+	c #B68A8A",
"m+	c #8E7A7E",
"n+	c #DA6A6E",
"o+	c #C2AAAA",
"p+	c #320606",
"q+	c #E0D2D2",
"r+	c #B2A6A6",
"s+	c #CABABA",
"t+	c #CEBAB8",
"u+	c #7C6262",
"v+	c #6A5A5A",
"w+	c #B29A9A",
"x+	c #CB7F7F",
"y+	c #AC9293",
"z+	c #4E3638",
"A+	c #F9DADA",
"B+	c #E8D2D2",
"C+	c #B2A2A2",
"D+	c #9E8E8F",
"E+	c #DECACA",
"F+	c #B29696",
"G+	c #412A2A",
"                                                              ",
"                                                              ",
"                          - _+X / F V M n+}                   ",
"                    Y Y e+_ i w d+|.U.9.x+g q.E.              ",
"                J J A.~+h %.e+X = X.6.p.a+!.V d o.            ",
"              P.&.N A+E 5+%. +++* f 6.C }+S z *.c+D           ",
"            A.I N W v A+~+i :.L.L f r V.;+o %+x+t 7+7+        ",
"          A.3+8.8+v v E %.h+r.; L '.-.% ~.=+z ..X {.r.@.      ",
"        &.E+B+W |+8+A+h J a *+d.a.c+= |.) !.a+..l+f.O e.p+    ",
"        3+1 8.8+R |+8.I _ #+c.@.~ [ [ m.@+- w { K.X Q.c.J.    ",
"      h.E+e W.|+|+A+}.A.7 h+l O {.Z :._+_+ +T.{ #+^.).)+J.(   ",
"      ! B+g+W.W.W.8.3+h.1+2+y+y N.Z N.< 9+Y 9+l+a 9 c r. .8   ",
"      }+C.t.R R W.B+^+7 x .+2+Y.$.y 9 $.T.Y +.$.[+Q.(+6 ,+8   ",
"    =.! >+W.8+8+C.3+h.g.x .+2+H Y.+.v.+.h++.$.i+<+c p S. .{+{+",
"    =.}+C.R t.g+B+^+g.1+4.4.2+2+k+Y.Y.j F+y+(.f.Q.].6 s _.{+n ",
"    >.# t.t.W.C.3+s+1+o+o+4.2+k+T Y.j F+v.| q /+c )+S. .{+n n ",
"    6+# t.t.t.B+^+g.B.b.4.:+T Y.Y.w+F+w.y+(.[+u+(+G+s _.n n n ",
"    ^ # e t.>+5.s+B.b.:+:+=.k+T w+F+w.y+| q x.D.z+`.,+$+n n j.",
"    /.}+e e q+4 g.B.>.:+=.=.=.6+,.w.w./.!+m+u+].G+s _.n n n j.",
"    i.$ 1 1 }+m B.>.>.=.=.C+,.,.,.b /.Z.q ;.]+M.#.,+n n j.j.j.",
"      b+H.q+! ` >.:+l.=.6+6+6+,.w.b /.!+m+u.].+ s P j.n j.n   ",
"      & s+}+m B.$ l.l.C+C+n.G b 0+/.b+i./+D.5 `.k n j.7.j.j.  ",
"      K 4+` B.$ $ C+r+n.n.G G 0+0+Z.!+& R.A G+] P j.j.j.j..   ",
"        R.k.$ l.C+r+n.n.O.G 0+0+b+D+i.;.D.M.' ,+n j.j.7.j.    ",
"        5 3.k.r+C+C+^ ,.G 0+/.b+Z.<.& @ A + ] P 7.7.j.7.7.    ",
"          5 v+4+O.O.G F.0+u u k.> Q B , 5 ' 3 -+7.j.7.j.      ",
"            #.A i.F.F.F.0+k.D+D+<.[.R.A + s $+j.7.7.j.        ",
"              1.U & > k.k.k.k.4+Q B ]+5 ' 3 -+7.7.j.          ",
"                s 0.3.B & & Q i.[.@ A ' k 7.. 7.j.            ",
"                    '+' + 1.: U , A ' P 7.7.j.                ",
"                          -+P 3 k P -+7.                      "};
