/* XPM */
static char * knob12_xpm[] = {
"31 31 256 2",
"  	c None",
". 	c #0A0202",
"+ 	c #382626",
"@ 	c #625252",
"# 	c #827676",
"$ 	c #D27A7A",
"% 	c #9A8E8D",
"& 	c #C23232",
"* 	c #EE5252",
"= 	c #621612",
"- 	c #9A2A2A",
"; 	c #B65256",
"> 	c #AE8E8E",
", 	c #CA969A",
"' 	c #8E2E2A",
") 	c #3A2222",
"! 	c #2A1E1E",
"~ 	c #925A56",
"{ 	c #443232",
"] 	c #C07676",
"^ 	c #CAA29E",
"/ 	c #B6A6A6",
"( 	c #7A6A6A",
"_ 	c #221616",
": 	c #8A7E7D",
"< 	c #DBBAB7",
"[ 	c #663A3A",
"} 	c #AF9696",
"| 	c #6C2624",
"1 	c #C29696",
"2 	c #8E5A5A",
"3 	c #A27E7E",
"4 	c #4E4242",
"5 	c #1E1212",
"6 	c #E2A29E",
"7 	c #A69A9A",
"8 	c #8E8282",
"9 	c #CBAEAD",
"0 	c #6A5E5E",
"a 	c #BB9696",
"b 	c #B27A7A",
"c 	c #A28E8E",
"d 	c #CA5A56",
"e 	c #220A0A",
"f 	c #92221E",
"g 	c #B23A36",
"h 	c #B27272",
"i 	c #8A4242",
"j 	c #AE9E9E",
"k 	c #622A26",
"l 	c #E24A3E",
"m 	c #928686",
"n 	c #3E2222",
"o 	c #E6726A",
"p 	c #CE8E8E",
"q 	c #BA7E7E",
"r 	c #C6A6A6",
"s 	c #976A6A",
"t 	c #4E1212",
"u 	c #A29692",
"v 	c #D6AEAE",
"w 	c #866A6A",
"x 	c #724240",
"y 	c #725656",
"z 	c #564A4A",
"A 	c #D29696",
"B 	c #9A8686",
"C 	c #9A7676",
"D 	c #0E0202",
"E 	c #BE9A9A",
"F 	c #761E1A",
"G 	c #170A0A",
"H 	c #BA8E8E",
"I 	c #E5BAB6",
"J 	c #CE4A4A",
"K 	c #4A3A3A",
"L 	c #804E4E",
"M 	c #A24E4A",
"N 	c #DAA6A2",
"O 	c #422626",
"P 	c #9E7E7E",
"Q 	c #E6A6A2",
"R 	c #C29E9E",
"S 	c #EEC6C2",
"T 	c #1A0606",
"U 	c #5E4242",
"V 	c #6E4646",
"W 	c #7A6262",
"X 	c #A28282",
"Y 	c #D2B6B3",
"Z 	c #EA7A7A",
"` 	c #C2A6A6",
" .	c #625656",
"..	c #A6625E",
"+.	c #E09696",
"@.	c #B69E9D",
"#.	c #CAA6A6",
"$.	c #B68282",
"%.	c #BAA2A2",
"&.	c #120202",
"*.	c #331E1E",
"=.	c #968A89",
"-.	c #4E1E1A",
";.	c #C6AEAD",
">.	c #8E7676",
",.	c #865E5A",
"'.	c #B28A8E",
").	c #B69696",
"!.	c #C67272",
"~.	c #4A2E2F",
"{.	c #2E1616",
"].	c #967E7E",
"^.	c #B24242",
"/.	c #C25A5A",
"(.	c #E4AEAA",
"_.	c #533E3E",
":.	c #D69A96",
"<.	c #A68E8E",
"[.	c #7A6E6E",
"}.	c #CE625A",
"|.	c #D6B6B5",
"1.	c #726666",
"2.	c #604A4A",
"3.	c #120604",
"4.	c #D2AEAE",
"5.	c #A66E6E",
"6.	c #A69696",
"7.	c #9E9292",
"8.	c #AEA29E",
"9.	c #826E6E",
"0.	c #A25A5E",
"a.	c #F2423A",
"b.	c #EEBAB6",
"c.	c #764E52",
"d.	c #AE9A99",
"e.	c #A29292",
"f.	c #BEAAAA",
"g.	c #4E3636",
"h.	c #A68686",
"i.	c #2A0E12",
"j.	c #E2BEBE",
"k.	c #412E2E",
"l.	c #C2AAAA",
"m.	c #B6A2A1",
"n.	c #AA9695",
"o.	c #D2AAA8",
"p.	c #554242",
"q.	c #261212",
"r.	c #963E3E",
"s.	c #BA8A8A",
"t.	c #928282",
"u.	c #6A2E2E",
"v.	c #664E4E",
"w.	c #661E1A",
"x.	c #CAB2B2",
"y.	c #665A5A",
"z.	c #826666",
"A.	c #B24A42",
"B.	c #261A1A",
"C.	c #C08E8C",
"D.	c #9E8E8A",
"E.	c #BEA6A4",
"F.	c #725E5E",
"G.	c #9E8686",
"H.	c #581A18",
"I.	c #DE7A7A",
"J.	c #D65E56",
"K.	c #5A120E",
"L.	c #B29A9A",
"M.	c #8E6666",
"N.	c #867A78",
"O.	c #C6AAA9",
"P.	c #968686",
"Q.	c #9A6E6E",
"R.	c #867272",
"S.	c #725A5A",
"T.	c #322222",
"U.	c #DEAEAE",
"V.	c #BA9E9E",
"W.	c #4B3E3E",
"X.	c #CAAAA8",
"Y.	c #554646",
"Z.	c #C2A2A1",
"`.	c #8A7A7A",
" +	c #B29E9D",
".+	c #9E6666",
"++	c #8E6E6E",
"@+	c #695655",
"#+	c #BE9E9E",
"$+	c #2E2222",
"%+	c #6A5252",
"&+	c #D68A86",
"*+	c #7A5252",
"=+	c #EAC2BE",
"-+	c #6E4A4A",
";+	c #776666",
">+	c #5F4E4D",
",+	c #D2B2B2",
"'+	c #BF9292",
")+	c #8E7E7E",
"!+	c #EA6E6E",
"~+	c #7E2222",
"{+	c #864E4A",
"]+	c #E69292",
"^+	c #DE9E96",
"/+	c #5A4242",
"(+	c #AA9E9A",
"_+	c #9A8A8A",
":+	c #604646",
"<+	c #E4B2AE",
"[+	c #A69292",
"}+	c #9E8A8A",
"|+	c #BEA2A2",
"1+	c #160202",
"2+	c #D6B2AE",
"3+	c #E27276",
"4+	c #CE6666",
"5+	c #A38A89",
"6+	c #C69A9D",
"7+	c #1E0E0E",
"8+	c #160606",
"9+	c #6A5A5A",
"0+	c #C6A2A0",
"a+	c #AE9292",
"b+	c #463636",
"c+	c #6A2A26",
"d+	c #886E6E",
"e+	c #BA9292",
"f+	c #402A2C",
"g+	c #B69A9A",
"h+	c #C05E58",
"i+	c #827272",
"j+	c #C2AEAA",
"k+	c #726262",
"l+	c #9E8E8E",
"m+	c #221212",
"n+	c #2A1A18",
"o+	c #362223",
"p+	c #DAB2B2",
"q+	c #867676",
"r+	c #2E1E1E",
"s+	c #BAA6A5",
"t+	c #AA9A99",
"u+	c #96827E",
"v+	c #CEAAAA",
"w+	c #AA9292",
"x+	c #CE9A9A",
"y+	c #967A7A",
"z+	c #DAAAAA",
"A+	c #2E1A1A",
"B+	c #96423A",
"C+	c #D68E8A",
"D+	c #6E4E4E",
"E+	c #7E6E6E",
"F+	c #CEB2B1",
"G+	c #B2A2A0",
"                                                              ",
"                                                              ",
"                          #+a+<.5+>.u+5+                      ",
"                    o.4.,+O. +} [+}+}+}+P.R.9.                ",
"                <+j.j.,+x.O.%.L.} n.e.5+_+t.)+E+@+            ",
"              <+S S j.< 2+9 O.E. +} w+D.}+_+P.`.k+>+          ",
"            6 b.I I < < < Y F+O.s+m. +n.c % P.m q+k+@+        ",
"          +.6 (.(.p+p+p+2+|.Y x.;.f.m.j t+<.D.P.t.N.[.p.      ",
"        I.]+&+C++.6 o.v ,+,+F+F+x.x.f.%.G+n.[+% _+8 N. .k.    ",
"      * o 4+^.M ..q '+^ v+v+9 9 9 j+l.f.s+G+t+6.l+P.8 [.Y.    ",
"      !+Z 4+A.' | | x Q.).#.O.l.O.l.f.f.s+/  +(+7 l+_+: y.n+  ",
"    a.o 6 O.h+B+w.t -.[ M.#+O.r ` E.E.s+s+m./ j t+6.l+=.[.T.  ",
"    l d J /.g f = H.x ,.3 R l.` E.s+%.m.m. +j j (+7 6.% N.4   ",
"    /.d & ^.- F K.| b H R r 0+|+|+%.m. + +j j t+t+7 u u =.9+5 ",
"    !.$ ; r.F = H.~ C.6+2+O.|+|+V.m.m. +j t+t+6.6.e.e.7.% [._ ",
"    ] +.] 0.i | u.s.'+^ v+Z.|+%.m.@.L.j d.t+6.6.e.7.% % m ;+5 ",
"    h A p b .+L L C.^ v ^ #+E @.@. +L.n.} n.e.e.e.l+_+=.: 4 G ",
"    5.'+x+6+$..+M.'+#.9 |+V.@.g+L.L.n.d.6.e.e.l+l+% =.=.N.K G ",
"    2 M.H R R '+H #.v r #+V.@.L.L.d.n.n.[+e.e.% l+_+P.m N.W.G ",
"    L *+Q.'.e+E E R #+E @.@.g+L.} n.6.[+e.e.D.l+=.=.m 8 ( B.. ",
"      -+D+++P h.> ).g+).L.} } d.} w+[+[+c _+_+=.P.m 8 : y.m+  ",
"      V U *+W d+C X 5+w+a+} } n.6.[+e.l+% l+=.P.m t.8 [.$+3.  ",
"      c.2.U v.y W w ++].G.c c <.e.c c D._+_+=.m 8 8 # y.7+.   ",
"        ~.n ~./+2.%+F.W 9.>.u+B }+% % _+_+P.u+t.8 # z B.3.    ",
"        O *.) f+g._.:+>+@+F.( 9.`.].t.t.t.m 8 8 N.9+B.D .     ",
"          n i.q.) { K K p.2.>+9+W ( i+>.: : )+N.9+$+&.D       ",
"            i.A+*.) f+~.{ K _.Y.>+@ y.k+( [.;+y.! 3.&.        ",
"              ~.*.e m+r++ + k.{ b+W.Y.z z K B.7+3.D           ",
"                {.T 8+8+7+G 5 ! r+$+r+_ 7+G D D &.            ",
"                    e 1+&.&.D &.3.8+&.&.D D D                 ",
"                          &.D D D D . D                       "};
