/* XPM */
static char * knob34_xpm[] = {
"31 31 256 2",
"  	c None",
". 	c #0E0202",
"+ 	c #463636",
"@ 	c #867A7A",
"# 	c #E3D6D6",
"$ 	c #BEB2B2",
"% 	c #6A1A1E",
"& 	c #B2323A",
"* 	c #968A8A",
"= 	c #4A0612",
"- 	c #6E4A4E",
"; 	c #392A2C",
"> 	c #B2A6A6",
", 	c #923C40",
"' 	c #36060B",
") 	c #CC8C92",
"! 	c #C27A82",
"~ 	c #E6CED1",
"{ 	c #925656",
"] 	c #322226",
"^ 	c #261A1A",
"/ 	c #A29696",
"( 	c #7E6E72",
"_ 	c #7A3236",
": 	c #B44A54",
"< 	c #DAB4B8",
"[ 	c #EEDEDF",
"} 	c #BE7A7E",
"| 	c #BA1E2E",
"1 	c #58161C",
"2 	c #2A0206",
"3 	c #BE9A9A",
"4 	c #C2567A",
"5 	c #703A3C",
"6 	c #D2C6C6",
"7 	c #CEA6A6",
"8 	c #726666",
"9 	c #8E5256",
"0 	c #371E1E",
"a 	c #AD8A8B",
"b 	c #CEB2B5",
"c 	c #1F0206",
"d 	c #925A62",
"e 	c #A6767E",
"f 	c #F6E6E7",
"g 	c #BA969A",
"h 	c #4E1E22",
"i 	c #DABABE",
"j 	c #AA9E9E",
"k 	c #7A262A",
"l 	c #C2A6A8",
"m 	c #BE666E",
"n 	c #D6C2C4",
"o 	c #C2626A",
"p 	c #7B565A",
"q 	c #5E3236",
"r 	c #120202",
"s 	c #DEC6C6",
"t 	c #948686",
"u 	c #945E62",
"v 	c #B39699",
"w 	c #908084",
"x 	c #66222A",
"y 	c #F6D6D8",
"z 	c #1E0E0E",
"A 	c #625656",
"B 	c #62363A",
"C 	c #FEDEDE",
"D 	c #D6BEC0",
"E 	c #BAAEAE",
"F 	c #3A1A1E",
"G 	c #C28A8E",
"H 	c #1A0E0E",
"I 	c #CE9E9E",
"J 	c #9E262A",
"K 	c #4A2A2E",
"L 	c #1A0203",
"M 	c #9E3A3E",
"N 	c #CA868E",
"O 	c #D66E7A",
"P 	c #FDEEEE",
"Q 	c #9A7676",
"R 	c #F6D2D2",
"S 	c #764E52",
"T 	c #9B7E82",
"U 	c #BEA6A9",
"V 	c #827272",
"W 	c #BE9EA0",
"X 	c #AE8286",
"Y 	c #B68E92",
"Z 	c #A63E42",
"` 	c #6F5A5A",
" .	c #EECACA",
"..	c #964E52",
"+.	c #94666A",
"@.	c #D98B96",
"#.	c #4E3E42",
"$.	c #B29E9F",
"%.	c #CCB6B8",
"&.	c #AA8E92",
"*.	c #8C383E",
"=.	c #CE7A82",
"-.	c #5E3A3E",
";.	c #734549",
">.	c #AE9697",
",.	c #CE5E62",
"'.	c #8E6062",
").	c #A18E92",
"!.	c #B8868C",
"~.	c #E6C3C6",
"{.	c #260D0F",
"].	c #BA9A9A",
"^.	c #C2AAAB",
"/.	c #1A0A0E",
"(.	c #FAEAED",
"_.	c #40060C",
":.	c #7E3636",
"<.	c #A26A6E",
"[.	c #B6A6A7",
"}.	c #8E6E70",
"|.	c #562C30",
"1.	c #A65056",
"2.	c #C2B2B3",
"3.	c #160A0A",
"4.	c #3E2E2F",
"5.	c #8A4E52",
"6.	c #160203",
"7.	c #A68A8C",
"8.	c #D4B6B8",
"9.	c #B18E91",
"0.	c #B6AAAA",
"a.	c #EAD6D9",
"b.	c #A27E82",
"c.	c #4C1016",
"d.	c #DA828E",
"e.	c #CA666E",
"f.	c #92223E",
"g.	c #A69A9A",
"h.	c #CE969A",
"i.	c #B67276",
"j.	c #5E2E32",
"k.	c #922E46",
"l.	c #574242",
"m.	c #C2525A",
"n.	c #2A1A1A",
"o.	c #C2B6B6",
"p.	c #AE3242",
"q.	c #DE7E8A",
"r.	c #320E12",
"s.	c #E6CACC",
"t.	c #420E12",
"u.	c #DE8EAA",
"v.	c #D3ABAE",
"w.	c #B2A2A2",
"x.	c #604246",
"y.	c #FEE6E8",
"z.	c #EEE2E2",
"A.	c #726262",
"B.	c #C2AEB0",
"C.	c #BAA2A3",
"D.	c #AA7A7E",
"E.	c #D6667A",
"F.	c #362626",
"G.	c #AEA2A2",
"H.	c #B57E81",
"I.	c #A69092",
"J.	c #321A1E",
"K.	c #765A5C",
"L.	c #CBADAF",
"M.	c #DA92A2",
"N.	c #BA5256",
"O.	c #803E42",
"P.	c #8A6E72",
"Q.	c #B09294",
"R.	c #7A6A6C",
"S.	c #621622",
"T.	c #A24656",
"U.	c #761A2E",
"V.	c #560A16",
"W.	c #CE5A6A",
"X.	c #CABABB",
"Y.	c #A09292",
"Z.	c #E2D2D5",
"`.	c #E2CACC",
" +	c #BA3A42",
".+	c #BE262A",
"++	c #B49A9C",
"@+	c #524646",
"#+	c #A6565E",
"$+	c #C69E9E",
"%+	c #FEEAEC",
"&+	c #1A0606",
"*+	c #1F0607",
"=+	c #988284",
"-+	c #D3B2B3",
";+	c #2B0E12",
">+	c #695A5B",
",+	c #9A6A72",
"'+	c #A69698",
")+	c #F2E2E4",
"!+	c #FAE2E2",
"~+	c #BEAAAB",
"{+	c #AE9A9A",
"]+	c #663E42",
"^+	c #F4DADC",
"/+	c #A2767A",
"(+	c #C5979B",
"_+	c #BFA2A5",
":+	c #B88288",
"<+	c #9A5A5E",
"[+	c #E2BABA",
"}+	c #AA9A9C",
"|+	c #DBCACB",
"1+	c #ECDADA",
"2+	c #867272",
"3+	c #BAA6A7",
"4+	c #C6B6B6",
"5+	c #B28A8A",
"6+	c #FAE6E7",
"7+	c #BEAEAF",
"8+	c #DE7282",
"9+	c #C6B2B3",
"0+	c #BE6E76",
"a+	c #2E1A1E",
"b+	c #B6A2A3",
"c+	c #C6AEB1",
"d+	c #120606",
"e+	c #926A6E",
"f+	c #AA9294",
"g+	c #16060A",
"h+	c #1E1212",
"i+	c #514242",
"j+	c #B69E9F",
"k+	c #422E2E",
"l+	c #DA869A",
"m+	c #4B2E32",
"n+	c #B69295",
"o+	c #564646",
"p+	c #BAAAAB",
"q+	c #F2DEDF",
"r+	c #E6D2D3",
"s+	c #3A0A0E",
"t+	c #7E7272",
"u+	c #766A6A",
"v+	c #BA9E9F",
"w+	c #AB7E7F",
"x+	c #9F7A7D",
"y+	c #AE9EA0",
"z+	c #AA969A",
"A+	c #F6E2E4",
"B+	c #220E0E",
"C+	c #C6AAAC",
"D+	c #FEE2E4",
"E+	c #4C2226",
"F+	c #120206",
"G+	c #AA868A",
"                                                              ",
"                                                              ",
"                          3 Q.a 5+w++.9                       ",
"                    -+b 8.i 8.v.-+7 w+'.{ O.*. +              ",
"                %.D s r+^+^+^+R  .[+h.H.<+:., 1.M .+          ",
"              s `.r+a.C !+D+C R ~.7 !.5._ , N.m p.J |         ",
"            `.a.q+6+6+D+D+C R ~.v.D.5 1 % Z W.@.e.p.f.        ",
"          `.# A+%+y.y.y.!+y s.v.x+|._.c.k : E.< @.4 k.U.      ",
"        n a.f y.%+y.y.!+^+~.i n+|.s+_.1 *.: W.l+u.E.T.S.V.    ",
"        s )+%+P %+%+6+^+s.D L.a E+' c.O...1.m.O 8+q.0+x =     ",
"      n Z.f %+P %+!+^+~ D b 7 v - E+j.u <+#+o =.d.@.} 5 t._.  ",
"      |+[ (.%+%+6+q+r+D b C+C+W x+;.j.;.<.i.} ) ) N H.d h '   ",
"      r+f P P (.q+~ n %.L.^.l _+++x+;.B d H.G h.G :+D.,+q s+  ",
"    4+1+P P %+)+r+n %.c+B.C+l _+W Q.Q S '.!.(+(+!.H.D.+.]+;+2 ",
"    $ [ P (.q+# n %.9+c+^.~+U W W v 9.b.X 3 (+Y X /+e+K.B ;+c ",
"    B.z.(.z.# n X.2.B.B.~+U _+C.v+].v 9.9.Q.n+G+x+e+p ]+K *+c ",
"    p+[ )+Z.n X.4+2.7+7+U 3+C.j+j+v v Q.9.a 7.T P.S x.m+F *+c ",
"    > Z.# 6 X.o.2.B.^.U 3+b+j+j+++v >.Q.9.7.T }.p o+m+0 ;+c c ",
"    G.6 6 X.4+2.$ 7+p+3+3+b+$.++{+>.z+&.7.T P.` x.m+F ;+c L L ",
"    t 2.X.o.2.2.7+p+p+[.b+b+$.{+{+f+&.).T 2+` x.m+0 ;+&+6.6.L ",
"      7+o.o.$ 7+E p+3+w.w.$.y+>.z+I.).=+P.` l.k+J.B+c 6.6.L   ",
"      R.g.E 7+~+p+[.> b+y+{+>.z+z+I.=+V ` l.k+J.B+L 6.6.6.6.  ",
"      + A.G.E p+0.[.> w.y+j }+I.).=+P.A l.; a+{.g+r 6.6.6.L   ",
"        u+g.0.0.> w.G.y+j z+'+Y.t V ` l.k+J./.6.r 6.6.6.r     ",
"        A.@ g.w.> y+y+}+}+'+Y.=+V >+i+; a+B+F+r r r r r r     ",
"          i+t+g.j G.j }+/ ).w t+>+l.4.a+z r r r r . . r       ",
"            #.t+Y.g.g.g.Y.t t+>+i+; n./.r r r r r r .         ",
"              #.8 w * ).w t+>+i+; n.H r . . . . r .           ",
"                ^ F.@+u+8 A #.; ^ /.. . . r . . .             ",
"                    /.^ F.4.] h+d+. . . r . 6.                ",
"                          3.d+. . . . .                       "};
