/* XPM */
static char * knob43_xpm[] = {
"31 31 256 2",
"  	c None",
". 	c #120203",
"+ 	c #422E30",
"@ 	c #766A6A",
"# 	c #998A8B",
"$ 	c #CEC2C2",
"% 	c #CC565A",
"& 	c #680A0A",
"* 	c #AE9E9E",
"= 	c #963A3E",
"- 	c #46080E",
"; 	c #665656",
"> 	c #BEAEAF",
", 	c #C66A72",
"' 	c #402224",
") 	c #723236",
"! 	c #2E1E1E",
"~ 	c #EADADB",
"{ 	c #A06C70",
"] 	c #3A020A",
"^ 	c #4A3E3E",
"/ 	c #46161A",
"( 	c #9D767A",
"_ 	c #261A1A",
": 	c #C29296",
"< 	c #9E464A",
"[ 	c #E2D6D6",
"} 	c #CABEBF",
"| 	c #96262A",
"1 	c #2A0206",
"2 	c #1E0E10",
"3 	c #A28A8B",
"4 	c #DED2D2",
"5 	c #C6BABA",
"6 	c #C6A2A2",
"7 	c #72464A",
"8 	c #C6666E",
"9 	c #A78E91",
"0 	c #B4A6A6",
"a 	c #5E2E32",
"b 	c #917A7A",
"c 	c #DACECE",
"d 	c #968686",
"e 	c #482A2C",
"f 	c #92565A",
"g 	c #BE6A72",
"h 	c #6E4A4A",
"i 	c #920A0E",
"j 	c #220203",
"k 	c #CEAEAE",
"l 	c #CA6672",
"m 	c #6E2632",
"n 	c #421216",
"o 	c #A69296",
"p 	c #A65A62",
"q 	c #BEB2B2",
"r 	c #756668",
"s 	c #E27E86",
"t 	c #522E2E",
"u 	c #D2C6C6",
"v 	c #7E6262",
"w 	c #8A4246",
"x 	c #968286",
"y 	c #B69296",
"z 	c #600A0C",
"A 	c #C09EA0",
"B 	c #1E0203",
"C 	c #A66A6F",
"D 	c #7A6A6A",
"E 	c #E2929A",
"F 	c #574647",
"G 	c #BAA6A7",
"H 	c #602628",
"I 	c #482224",
"J 	c #6A1A26",
"K 	c #DA5E7A",
"L 	c #9E7A7E",
"M 	c #9C6266",
"N 	c #DBC6C7",
"O 	c #F0E2E3",
"P 	c #8B7273",
"Q 	c #CEBABC",
"R 	c #C6B2B3",
"S 	c #BA8A8A",
"T 	c #321216",
"U 	c #755E60",
"V 	c #5A3E40",
"W 	c #864E52",
"X 	c #190A0B",
"Y 	c #421E1E",
"Z 	c #E2667E",
"` 	c #D7BEC0",
" .	c #8E646A",
"..	c #AC9A9B",
"+.	c #B46A70",
"@.	c #B69EA0",
"#.	c #561216",
"$.	c #744E52",
"%.	c #6A464A",
"&.	c #866A6A",
"*.	c #6A5A5A",
"=.	c #DA6A7A",
"-.	c #C2A6AA",
";.	c #5A0A16",
">.	c #862232",
",.	c #A48688",
"'.	c #CAAEB0",
").	c #DA5252",
"!.	c #1A0203",
"~.	c #1E0606",
"{.	c #AE6E72",
"].	c #A77679",
"^.	c #AA3A3E",
"/.	c #260E12",
"(.	c #4E3232",
"_.	c #AE9296",
":.	c #362A2A",
"<.	c #D2B2B6",
"[.	c #DAC2C6",
"}.	c #4C1E22",
"|.	c #C6B6B7",
"1.	c #663E3E",
"2.	c #761216",
"3.	c #A58285",
"4.	c #BAAAAC",
"5.	c #927E7F",
"6.	c #2E0A0E",
"7.	c #3A0E12",
"8.	c #B6A2A4",
"9.	c #72565A",
"0.	c #C6AEB0",
"a.	c #3A2A2A",
"b.	c #B8969A",
"c.	c #521E22",
"d.	c #A61E1E",
"e.	c #421A1E",
"f.	c #2E161A",
"g.	c #220A0E",
"h.	c #7E4E52",
"i.	c #D6CACA",
"j.	c #D2BEBF",
"k.	c #211212",
"l.	c #A27E81",
"m.	c #CE6A76",
"n.	c #4B161D",
"o.	c #E27E9E",
"p.	c #150607",
"q.	c #BE6E7A",
"r.	c #AA8A8B",
"s.	c #E2CECF",
"t.	c #8A5E62",
"u.	c #C7A6A7",
"v.	c #B27276",
"w.	c #3F3232",
"x.	c #C29A9A",
"y.	c #D6C2C5",
"z.	c #50282C",
"A.	c #D6BABA",
"B.	c #4B060B",
"C.	c #A27A7C",
"D.	c #AE9697",
"E.	c #D64E56",
"F.	c #6A3232",
"G.	c #B25662",
"H.	c #C2B6B6",
"I.	c #DACACB",
"J.	c #584246",
"K.	c #594A4A",
"L.	c #AE8E92",
"M.	c #A2666C",
"N.	c #966668",
"O.	c #B29A9C",
"P.	c #AA868A",
"Q.	c #EEDEDE",
"R.	c #9E7276",
"S.	c #736263",
"T.	c #D27276",
"U.	c #D65662",
"V.	c #160202",
"W.	c #CAB6B7",
"X.	c #CEAAAA",
"Y.	c #C2AAAC",
"Z.	c #CABABB",
"`.	c #D6C6C8",
" +	c #422A2D",
".+	c #B69A9C",
"++	c #321E1E",
"@+	c #E7D6D8",
"#+	c #E3D2D2",
"$+	c #8E6A6E",
"%+	c #BEAAAC",
"&+	c #BFA2A5",
"*+	c #8E7677",
"=+	c #CE5666",
"-+	c #B2A2A4",
";+	c #2E0206",
">+	c #BA9EA0",
",+	c #F2E6E6",
"'+	c #C2AEB0",
")+	c #9A8E8E",
"!+	c #725256",
"~+	c #928284",
"{+	c #4C1A20",
"]+	c #CEBEBE",
"^+	c #DECACB",
"/+	c #660E16",
"(+	c #D2BABB",
"_+	c #DECECF",
":+	c #C2B2B4",
"<+	c #BEA6A7",
"[+	c #7A3232",
"}+	c #A2767A",
"|+	c #9E2232",
"1+	c #7A464E",
"2+	c #721A1E",
"3+	c #E25E72",
"4+	c #7A5E5E",
"5+	c #BAA2A5",
"6+	c #7A5A5A",
"7+	c #261214",
"8+	c #32060A",
"9+	c #D2C2C2",
"0+	c #A67E81",
"a+	c #BA9A9D",
"b+	c #461A1E",
"c+	c #26060A",
"d+	c #1E0A0C",
"e+	c #CEB6B6",
"f+	c #220E10",
"g+	c #DA5262",
"h+	c #B6AAAA",
"i+	c #321A1D",
"j+	c #C6AAAA",
"k+	c #4E0A12",
"l+	c #CAB2B4",
"m+	c #3B0609",
"n+	c #AA9697",
"o+	c #AB7277",
"p+	c #BB727A",
"q+	c #CA6E76",
"r+	c #6E4E4E",
"s+	c #421616",
"t+	c #563234",
"u+	c #9A666A",
"v+	c #B26E76",
"w+	c #765A5C",
"x+	c #8E6E72",
"y+	c #B29E9F",
"z+	c #260204",
"A+	c #B29296",
"B+	c #A67A7D",
"C+	c #B2969A",
"D+	c #D2B6B8",
"E+	c #CEBEC2",
"F+	c #D2C2C6",
"G+	c #4E0612",
"                                                              ",
"                                                              ",
"                          @...n+n+3 P &.                      ",
"                    G '+Z.Z.R R '+8.5.*+b v 6+                ",
"                Q 9+u F+u 9+]+Q Z.R 0 >+D.&.v r+t             ",
"              _+4 _+_+_+^+i.`.y.j.Q l+l+0.@.3 U t I           ",
"            #+Q.Q.~ ~ [ #+^+I.^+N y.j.D+l+'.-.3 r+e b+        ",
"          @+O O O Q.@+@+#+s.s.^+N [.` ` A.D+k u.3.7 z.s+      ",
"        @+,+O Q.~ ~ @+#+_+^+N N [.` (+D+<.k X.u.x.C.1.7.m+    ",
"        O @+#+_+c `.`.y.9+]+j.e+l+l+'.j+-.6 A x.: S N.{+]     ",
"      s.[ c i.`.`.9+j.Q e+R R 0.Y.-.&+>+r.0+l.C.].o+u+F.- B.  ",
"      #+i.i.`.9+]+Q Z.W.R R 0.Y.-.&+A 3.t Y }.}.H ) w w #.G+  ",
"      _+i.`.F+F+]+]+Z.W.R '+Y.-.<+5+x.l.e.8+b+}.H [+= < 2+z i ",
"    I.i.`.u 9+$ } |.W.:+0.Y.%+<+>+>+.+l.e.n W M M.+.% % ^.2.z ",
"    `.`.F+$ ]+Q Z.|.R '+'+Y.G &+>+a+b.L e.n.M.p+, T.E s E.| z ",
"    u u u $ } Z.|.R :+'+%+G &+>+a+.+A+( s+n.C p+8 ).Z #+E.d.& ",
"    $ $ } ]+5 Z.H.R '+%+%+G 8.@..+b.y ( e.{+C p+, U.Z o.K |+/+",
"    E+} E+5 Z.:+R > > %+G 8.5+@.b.C+_.( z.a M C g , =.3+g+>.;.",
"    4.5 Z.5 |.:+:+> 4.G G @.@.O.C+A+L.l.h h.u+C +.q.q+l G.J G+",
"    r h+5 H.H.q > 4.G 0 8.-+O.O.D._.L.P.C.}+B+].].o++.p m G+B.",
"      q :+q q > 4.4.5+-+y+y+..D.o 9 r.P.,.0+B+].o+o+C f n.-   ",
"      n+0 0 -+-+-+* * D.n+o 9 9 3 ,.,.3.l.C.}+}+R.x+M 7 n ]   ",
"      ; ~+)+# # # d d x 5.5.b b b *+*+P x+x+$+ . .t.7 / 8+]   ",
"        *.r @ r r @ r S.S.S.U U U U w+9.9.!+!+!+$.%.z.6.;+    ",
"        a.^ F K.F K.F F F F J.J.J.J.J.J.V V V V t+' 6.j ;+    ",
"          ! :.a.w.+ w.+ + + + a. +a.e  +a.'  +' T c+B 1       ",
"            7+_ _ ! ! ! ! ! ++! ++! i+i+++i+T d+B B z+        ",
"              p.X 2 k.2 2 k.k.f+f+/.f+/./.g.~.!.!.j           ",
"                . . p.p.2 2 2 2 2 d+X ~.V.V.V.!.j             ",
"                    . . p.2 2 2 X p.V.. V.V.!.                ",
"                          . . . . . . .                       "};
