/* XPM */
static char * knob45_xpm[] = {
"31 31 256 2",
"  	c None",
". 	c #0E0202",
"+ 	c #403232",
"@ 	c #766A6A",
"# 	c #9E8E8E",
"$ 	c #CEC2C2",
"% 	c #B25652",
"& 	c #660E0C",
"* 	c #AEA2A2",
"= 	c #823A3A",
"- 	c #CE6C6C",
"; 	c #440206",
"> 	c #6C5A5A",
", 	c #2E2222",
"' 	c #AD6D6D",
") 	c #BEAEAE",
"! 	c #723636",
"~ 	c #2C1A1A",
"{ 	c #EBDADA",
"] 	c #958282",
"^ 	c #432A2A",
"/ 	c #864246",
"( 	c #320202",
"_ 	c #5A4A4A",
": 	c #946A6A",
"< 	c #C2B6B6",
"[ 	c #AC8A8B",
"} 	c #251615",
"| 	c #DED2D2",
"1 	c #825252",
"2 	c #961A1A",
"3 	c #421216",
"4 	c #AF8E8E",
"5 	c #5C3434",
"6 	c #7C4240",
"7 	c #2D0303",
"8 	c #A37271",
"9 	c #B09293",
"0 	c #A25A56",
"a 	c #C66A66",
"b 	c #8E1E1E",
"c 	c #D6CACA",
"d 	c #B08686",
"e 	c #1F0E0E",
"f 	c #BAA2A3",
"g 	c #620E0E",
"h 	c #BA4A46",
"i 	c #524242",
"j 	c #827474",
"k 	c #371616",
"l 	c #662A2E",
"m 	c #7E4646",
"n 	c #AE9A9A",
"o 	c #5A3A3E",
"p 	c #CE525A",
"q 	c #240202",
"r 	c #CABEBE",
"s 	c #DE7E7E",
"t 	c #AA9E9E",
"u 	c #BAA6A6",
"v 	c #421616",
"w 	c #4E3234",
"x 	c #BE9A9A",
"y 	c #927C7C",
"z 	c #E56B71",
"A 	c #A63236",
"B 	c #A08282",
"C 	c #C6A6A6",
"D 	c #825656",
"E 	c #967E7E",
"F 	c #7A6E6E",
"G 	c #6E6262",
"H 	c #320E0C",
"I 	c #BC6C6A",
"J 	c #A99A9A",
"K 	c #C66666",
"L 	c #CBB1B1",
"M 	c #6E2222",
"N 	c #B29A9B",
"O 	c #55090B",
"P 	c #541C1E",
"Q 	c #6E5454",
"R 	c #3B2A2A",
"S 	c #2E0F0E",
"T 	c #CE5A5E",
"U 	c #DAC6C6",
"V 	c #CEB6B6",
"W 	c #5B4343",
"X 	c #7E6A6A",
"Y 	c #120202",
"Z 	c #1A0A0A",
"` 	c #3E1A1E",
" .	c #604E4E",
"..	c #503A3A",
"+.	c #826666",
"@.	c #EEE2E2",
"#.	c #491F21",
"$.	c #A37A79",
"%.	c #DE7A72",
"&.	c #BEA6A7",
"*.	c #C2AEAF",
"=.	c #461212",
"-.	c #AA726E",
";.	c #A66A6A",
">.	c #1B0202",
",.	c #9D8A8B",
"'.	c #D2C6C6",
").	c #9E2A2A",
"!.	c #CA6E6E",
"~.	c #74161A",
"{.	c #50262A",
"].	c #897676",
"^.	c #764E52",
"/.	c #725E5E",
"(.	c #B69A9A",
"_.	c #C2B2B2",
":.	c #966262",
"<.	c #C6BABA",
"[.	c #DE5A5A",
"}.	c #826A6A",
"|.	c #453637",
"1.	c #4B1616",
"2.	c #E2CED2",
"3.	c #92464A",
"4.	c #7A2622",
"5.	c #3A0202",
"6.	c #BEAAAA",
"7.	c #766262",
"8.	c #A68686",
"9.	c #4E0E0A",
"0.	c #361E1E",
"a.	c #725656",
"b.	c #B79697",
"c.	c #DACECE",
"d.	c #644645",
"e.	c #A68E8E",
"f.	c #322222",
"g.	c #CEBEBE",
"h.	c #B6AAAA",
"i.	c #420A0A",
"j.	c #B69E9F",
"k.	c #260A0A",
"l.	c #D2C2C3",
"m.	c #8E5E62",
"n.	c #8E7A7C",
"o.	c #866A6A",
"p.	c #B67272",
"q.	c #5E4A4A",
"r.	c #3C0E0E",
"s.	c #4E3E3E",
"t.	c #E4D6D6",
"u.	c #C6B6B7",
"v.	c #B68A8A",
"w.	c #340605",
"x.	c #825E5D",
"y.	c #C27678",
"z.	c #665656",
"A.	c #6E161A",
"B.	c #BAAAAA",
"C.	c #1C0605",
"D.	c #D9615E",
"E.	c #4E2E2E",
"F.	c #483230",
"G.	c #382222",
"H.	c #2E1E1D",
"I.	c #A49292",
"J.	c #7E6666",
"K.	c #B2A2A2",
"L.	c #B66E6E",
"M.	c #DBCACB",
"N.	c #663636",
"O.	c #8E6666",
"P.	c #4E0A0A",
"Q.	c #BFA2A2",
"R.	c #9D7A7B",
"S.	c #D6C2C3",
"T.	c #261212",
"U.	c #665250",
"V.	c #C6B2B2",
"W.	c #CAB6B6",
"X.	c #CE7276",
"Y.	c #ECDEDE",
"Z.	c #B19696",
"`.	c #8E262A",
" +	c #9E3A36",
".+	c #BA726E",
"++	c #CE6262",
"@+	c #9C7E7D",
"#+	c #2A1613",
"$+	c #9E6266",
"%+	c #C2AAAB",
"&+	c #A47E7E",
"*+	c #493A3A",
"=+	c #C6AEAF",
"-+	c #160606",
";+	c #F6E6E6",
">+	c #9F7677",
",+	c #D2BEBF",
"'+	c #8C6E6E",
")+	c #AA9292",
"!+	c #4A2E2E",
"~+	c #D6C6C6",
"{+	c #7A5252",
"]+	c #795B5D",
"^+	c #B29E9E",
"/+	c #382626",
"(+	c #561210",
"_+	c #664A4A",
":+	c #563E3E",
"<+	c #CA767A",
"[+	c #BA9E9E",
"}+	c #956E6E",
"|+	c #AE9E9E",
"1+	c #BE9E9E",
"2+	c #3E2E2E",
"3+	c #C2A6A9",
"4+	c #B6A2A3",
"5+	c #4A060A",
"6+	c #7A3636",
"7+	c #E2D2D2",
"8+	c #623A3A",
"9+	c #E67E7A",
"0+	c #A68282",
"a+	c #E2C6C6",
"b+	c #160202",
"c+	c #563636",
"d+	c #7E4E52",
"e+	c #4A3636",
"f+	c #9A4646",
"g+	c #DECECF",
"h+	c #BEB2B2",
"i+	c #544646",
"j+	c #421A1A",
"k+	c #CEBABB",
"l+	c #605252",
"m+	c #3C0604",
"n+	c #786666",
"o+	c #A68A8A",
"p+	c #B6A6A6",
"q+	c #CABABA",
"r+	c #260602",
"s+	c #C6AAAC",
"t+	c #8E7E7E",
"u+	c #360A0A",
"v+	c #9D6668",
"w+	c #BA9A9D",
"x+	c #968686",
"y+	c #462E2E",
"z+	c #221212",
"A+	c #AB7675",
"B+	c #4E1A16",
"C+	c #775656",
"D+	c #321E1E",
"E+	c #661212",
"F+	c #460606",
"G+	c #6E5E5E",
"                                                              ",
"                                                              ",
"                          ,.J J ,.] n.n.                      ",
"                    B.) p+|+u 6.|+,.] y J./.+.                ",
"                S.U ~+g.u._._.*.6.4+n I.n.X n+_+o             ",
"              g+{ t.g+M.~+l.q+u._.*.u 4+Z.e.y U.W c+          ",
"            { { { { t.| M.~+S.,+k+W.*.6.f j.)+'+z.w k         ",
"          Y.t.t.t.| | g+M.M.~+S.,+k+L =+%+3+[+Z.@+d.k H       ",
"        { @.| c c ~+~+~+S.S.,+,+k+k+V L =+s+3+Q.b.'+E.S r.    ",
"        Y.7+M.~+~+l.,+,+k+k+q+L L =+=+=+s+s+Q.Q.1+[ {+` w.    ",
"      7+| c.c ~+l.l.g.r W.L _.=+=+3+Q.Q.1+1+x x x b.$.8+u+5.  ",
"      { c.c ~+l.l.g.q+W.V.V.=+%+&.&.Q.w+4 &+$.$.d v.d m.3 (   ",
"      g+c c '.$ g.k+q+W._.*.%+%+Q.Q.[+4 {+#.#.l ^.v+8 :.=.;   ",
"    ;+c.~+l.$ $ q+<.u._.V.*.6.Q.Q.[+w+0+^ w.w.=.P l 6 / (+; F+",
"    @.c.'.l.g.g.q+W.V.*.%+6.u u [+w+b.$.j+7 v ! 6+= 3.f+A.O F+",
"    S.'.$ g.g.q+u.< _.*.6.&.&.[+(.(.9 >+j+r./ ;.I K - T A A.O ",
"    p+r $ r <.q+V.V.*.) B.u f [+(.b.9 : v =.$+y.- D.z z p `.g ",
"    < q+r q+q+_._.) ) &.&.4+j.^+b.Z.8.x.3 P ;.y.K [.z S.++).& ",
"    $ q+<.u.< _._.) B.u f 4+j.N b.9 [ O.E.N.$+y.<+s 9+%.h b & ",
"    ,.h.) ) ) ) B.B.u 4+4+j.N N 9 9 [ >+^.1 v+' L.- D.T  +~.g ",
"      I.J J |+* ^+K.K.n N N Z.Z.)+e.e.0+R.>+A+A+L..+a % M & 2 ",
"      G j t+] x+,.,.,.I.I.I.# e.o+[ 8.8.0+&+$.A+-.' 0 M (+9.  ",
"      *+l+G+G @ F j j ].n.E E ] E @+@+@+@+>+8 8 ' v+6 P.i.P.  ",
"        |.i+ . .l+U.z.> G+/.7.7.X '+'+'+'+}+}+: : 1 B+w.5.    ",
"        2+2+|.|.s.s.s.s.i+d.q._+ .U.a.C+]+]+x.x.{+#.w.( m+    ",
"          ~ H.R R R 2+F.+ F...*+o :+:+W W d._+d.o u+q (       ",
"            -+z+H.H., f./+/+/+R R ^ ^ w F.!+^ k e r+7         ",
"              -+Z } ~ ~ ~ ~ D+D+0.D+G.0.0.S k.>.q 7           ",
"                Y e } ~ } } } T.#+#+T.T.Z >.>.>.q             ",
"                    b+Y C.e e C.b+b+>.>.>.>.q                 ",
"                          Y Y Y b+Y Y >.                      "};
