/* XPM */
static char * knob33_xpm[] = {
"31 31 256 2",
"  	c None",
". 	c #0A0202",
"+ 	c #493939",
"@ 	c #827676",
"# 	c #EBDADB",
"$ 	c #C5B6B6",
"% 	c #7E3236",
"& 	c #B2362E",
"* 	c #9A8E8E",
"= 	c #521112",
"- 	c #863A3A",
"; 	c #3C2F2F",
"> 	c #B2A6A6",
", 	c #3B0606",
"' 	c #6A5E5E",
") 	c #BC8282",
"! 	c #8E4E4E",
"~ 	c #301E1E",
"{ 	c #CA9292",
"] 	c #DECECE",
"^ 	c #B26E72",
"/ 	c #663A3E",
"( 	c #2D1A1B",
"_ 	c #A17A79",
": 	c #A29696",
"< 	c #260A06",
"[ 	c #DAA6AE",
"} 	c #5A221E",
"| 	c #896161",
"1 	c #5A4A4A",
"2 	c #BC2C20",
"3 	c #E6BABE",
"4 	c #EEE2E2",
"5 	c #BA9696",
"6 	c #C6A6A6",
"7 	c #3D211F",
"8 	c #220202",
"9 	c #A99191",
"0 	c #CE464A",
"a 	c #764A4E",
"b 	c #867070",
"c 	c #6C2022",
"d 	c #928686",
"e 	c #A28A8C",
"f 	c #1A0202",
"g 	c #BEB2B2",
"h 	c #D9C7C7",
"i 	c #AEA2A2",
"j 	c #FEEEEE",
"k 	c #C4A2A4",
"l 	c #F7D5D6",
"m 	c #7E7171",
"n 	c #C67276",
"o 	c #5E4E4E",
"p 	c #D28480",
"q 	c #CEB9B9",
"r 	c #B6A6A7",
"s 	c #9E362C",
"t 	c #441A18",
"u 	c #AE7674",
"v 	c #AF9698",
"w 	c #B9AAAA",
"x 	c #FAEAEA",
"y 	c #967676",
"z 	c #A26060",
"A 	c #B18E8E",
"B 	c #DE5652",
"C 	c #6A3A3A",
"D 	c #9A666A",
"E 	c #9E2E2A",
"F 	c #7E5E5E",
"G 	c #EECED2",
"H 	c #BA524A",
"I 	c #A67A7A",
"J 	c #2A0E0E",
"K 	c #1E0E0E",
"L 	c #D1C2C4",
"M 	c #160202",
"N 	c #6A3234",
"O 	c #9A5656",
"P 	c #F2E2E2",
"Q 	c #4A3E3E",
"R 	c #220909",
"S 	c #964642",
"T 	c #B79A9A",
"U 	c #FBDDDD",
"V 	c #C7AAAD",
"W 	c #E0C5C7",
"X 	c #6A4E4E",
"Y 	c #F0CACC",
"Z 	c #B69E9F",
"` 	c #4E2C2A",
" .	c #C4585C",
"..	c #7E4E4E",
"+.	c #E2D2D2",
"@.	c #1B0A09",
"#.	c #D8665C",
"$.	c #AE9E9E",
"%.	c #221313",
"&.	c #FEE2E4",
"*.	c #A69A9A",
"=.	c #B08A8C",
"-.	c #684848",
";.	c #4A0602",
">.	c #D7B6B9",
",.	c #623236",
"'.	c #BEAAAB",
").	c #CE726E",
"!.	c #C2A6A8",
"~.	c #D6AAAE",
"{.	c #C78786",
"].	c #A28484",
"^.	c #8E7A7A",
"/.	c #926B6B",
"(.	c #766262",
"_.	c #AE7E7A",
":.	c #3A0E0E",
"<.	c #B78E8E",
"[.	c #160A0A",
"}.	c #D48E8C",
"|.	c #925C5C",
"1.	c #C6AEAF",
"2.	c #A07074",
"3.	c #5E0A0A",
"4.	c #F4DDE0",
"5.	c #AC4E4E",
"6.	c #D5BEC1",
"7.	c #6A5252",
"8.	c #0E0202",
"9.	c #B4403A",
"0.	c #7A5854",
"a.	c #826464",
"b.	c #120202",
"c.	c #A63E46",
"d.	c #BEA2A3",
"e.	c #432B2A",
"f.	c #CEAEB2",
"g.	c #4E3E3E",
"h.	c #E0CACA",
"i.	c #8F7F81",
"j.	c #AF8689",
"k.	c #322222",
"l.	c #8C4240",
"m.	c #C65044",
"n.	c #783C40",
"o.	c #8A2A22",
"p.	c #CA322A",
"q.	c #7A2622",
"r.	c #DE6E66",
"s.	c #665658",
"t.	c #503232",
"u.	c #BEAEAF",
"v.	c #987272",
"w.	c #443232",
"x.	c #BEA6A8",
"y.	c #261616",
"z.	c #978181",
"A.	c #523634",
"B.	c #EAD5D6",
"C.	c #F7E6E7",
"D.	c #EAC2C6",
"E.	c #D2B2B2",
"F.	c #B7A2A2",
"G.	c #988688",
"H.	c #AA9E9E",
"I.	c #CE9E9E",
"J.	c #DE827E",
"K.	c #AE9A9A",
"L.	c #D6968E",
"M.	c #524646",
"N.	c #F2D5D7",
"O.	c #160606",
"P.	c #FEE6E9",
"Q.	c #796969",
"R.	c #6C585A",
"S.	c #9A464A",
"T.	c #CA9A9A",
"U.	c #5A4242",
"V.	c #CA4A56",
"W.	c #704648",
"X.	c #E4CED0",
"Y.	c #B79293",
"Z.	c #361A1A",
"`.	c #DAC2C2",
" +	c #DAB2B6",
".+	c #CE5A62",
"++	c #BE4246",
"@+	c #1E0605",
"#+	c #8E3236",
"$+	c #9F8E8F",
"%+	c #BAAEAE",
"&+	c #A29293",
"*+	c #8A7878",
"=+	c #F6E2E3",
"-+	c #3E2626",
";+	c #CEBEBE",
">+	c #220E0E",
",+	c #3E1216",
"'+	c #62121A",
")+	c #826A6A",
"!+	c #72423E",
"~+	c #998A8B",
"{+	c #BE9292",
"]+	c #EEDEDE",
"^+	c #B19293",
"/+	c #C6B2B2",
"(+	c #A79697",
"_+	c #B38181",
":+	c #2B1312",
"<+	c #725E60",
"[+	c #BE9A9E",
"}+	c #AA9A9B",
"|+	c #9E323A",
"1+	c #FEEAEB",
"2+	c #BAA6A7",
"3+	c #544141",
"4+	c #2D0906",
"5+	c #C6BABA",
"6+	c #A27E7E",
"7+	c #615253",
"8+	c #AA8A8A",
"9+	c #562A2A",
"0+	c #420C10",
"a+	c #9A5E62",
"b+	c #825A5E",
"c+	c #A24444",
"d+	c #B2A2A2",
"e+	c #E5D6D6",
"f+	c #D8BABA",
"g+	c #352626",
"h+	c #C2AEAF",
"i+	c #8E5E5E",
"j+	c #C2B2B3",
"k+	c #B68A8A",
"l+	c #D6727A",
"m+	c #967A7A",
"n+	c #DA8E86",
"o+	c #DABEC2",
"p+	c #E6CACE",
"q+	c #725A5A",
"r+	c #624242",
"s+	c #867A7A",
"t+	c #BA8688",
"u+	c #120606",
"v+	c #CEB2B2",
"w+	c #706264",
"x+	c #BA9E9E",
"y+	c #B29E9E",
"z+	c #C2AAAA",
"A+	c #B29A9C",
"B+	c #FAE2E4",
"C+	c #D66A66",
"D+	c #AE8284",
"E+	c #8E464A",
"F+	c #1E0202",
"G+	c #4A0A0E",
"                                                              ",
"                                                              ",
"                          Y.A <.j.2.i+O                       ",
"                    f.v+E.E.f.>. +t+D |.l.S 5.p.              ",
"                >.6.W X.N.l l Y 3 I.u ! - c+H 9.E 2           ",
"              6.h.X.4.U U U l Y ~._.n.c #+ .#.V.& |+2         ",
"            h.+.U =+P.P.&.l D. +_.,.= '+|+ .[ L.m.s o.        ",
"          h.B.B+x P.P.&.U N.f+=.,., ;.c c.V.C+n+C+9.q.3.      ",
"        W e+P P.P.P.&.U G o+k b+,+, = % c+++0 B r.).l.= ;.    ",
"        ] 4.x 1+1+P.B+N.W >.k | t :.N E+S.5. .#.J.p z } ,     ",
"      q e+C.x 1+1+C.4.p+f+f.6 6+C 9+n.a+a+^ n p }.{.u !+:.,   ",
"      h # C.j 1+P.4.X.6.f.V 6 Y./.!+C .._+) {.}.{.t+u i+t 8   ",
"      ] C.1+1+x =+B.`.$ f.!.6 x+Y.v.a a 2.t+{ { k+D+_ i+` 4+  ",
"    /+# x j j =+# `.5+f.z+V !.k [+Y.y F I <.T.<._+_ D 0.t.4+8 ",
"    $ ]+j x C.# h.q /+h+'.!.d.F.[+T Y.=.<.Y.<.j.6+/.0.r+-+4+F+",
"    j+]+j x ]+h.q /+1.z+z+x.F.x+Z T 5 ^+^+A j.6+/.F r+` 7 @.f ",
"    r ]+x 4 ] L $ j+h+'.2+x.F.x+Z A+v ^+A 9 ].y a.-.t.7 4+@+f ",
"    *.# 4 +.L $ j+u.'.x.x.F.x+Z T A+v ^+$+].y a.-.A.7 J @+f f ",
"    *.+.+.L 5+/+h+u.w w F.F.y+A+A+v ^+9 8+z.)+7.A.7 :+@+M M M ",
"    &+L L 5+j+g u.w w F.F.d+y+$.v (+9 e z.)+7.g.-+y.@+M M M f ",
"      ~+%+j+g u.u.w r r d+y+K.}+K.9 9 z.b q+U.e.:+R M M M f   ",
"      Q.$.g u.%+w r r d+y+$.K.}+9 &+G.b <+U.e.:+>+M M M M M   ",
"      w+z.i w w r > d+i $.}+(+(+$+G.^.<+U.w.~ K M M M b.b.f   ",
"        7+~+> w r d+i $.}+}+}+&+~+^.Q.o + ~ >+M b.b.b.b.M     ",
"        o i.H.> > d+$.H.}+(+: $+i.Q.o + ~ %.M b.b.8.b.8..     ",
"          s.s+: i H.H.}+*.: $+i.Q.7.+ k.%.M b.b.8.b.8.8.      ",
"            Q w+* *.*.(+&+* G.m s.g.-+%.O.8.8.b.b.b.8.        ",
"              ; o s+~+* * G.m ' 3+; ( @.8.8.8.8.8.b.          ",
"                y.g+M.w+m m ' 3+g+y.[.8.b.b.8.b.8.            ",
"                    K ~ ; Q w.g+%.[.8.8.8.8.M                 ",
"                          K [.u+. 8.8.8.                      "};
