/* XPM */
static char * knob28_xpm[] = {
"31 31 256 2",
"  	c None",
". 	c #0A0202",
"+ 	c #3A2A2A",
"@ 	c #706261",
"# 	c #D5BEBE",
"$ 	c #8B7E7D",
"% 	c #C23E3E",
"& 	c #B9AAA8",
"* 	c #8C2E2C",
"= 	c #C08482",
"- 	c #4E0E0E",
"; 	c #D06460",
"> 	c #9A8E8D",
", 	c #5A4E4E",
"' 	c #302220",
") 	c #722E2A",
"! 	c #9E6E6A",
"~ 	c #320A0A",
"{ 	c #D8CACA",
"] 	c #AEA2A2",
"^ 	c #261616",
"/ 	c #C28E8A",
"( 	c #AC8E8E",
"_ 	c #683230",
": 	c #AA8682",
"< 	c #524242",
"[ 	c #D6AAAA",
"} 	c #906260",
"| 	c #F4CECE",
"1 	c #9A5E62",
"2 	c #1F1211",
"3 	c #BE9A9A",
"4 	c #7D4F4D",
"5 	c #220604",
"6 	c #AA9695",
"7 	c #C8BAB9",
"8 	c #D2AAAA",
"9 	c #BE463E",
"0 	c #DA9A7A",
"a 	c #E2D2D1",
"b 	c #B63A36",
"c 	c #A5817E",
"d 	c #1B0E0D",
"e 	c #7E322E",
"f 	c #866666",
"g 	c #522E2A",
"h 	c #BA9695",
"i 	c #9F7977",
"j 	c #86403E",
"k 	c #EABEC0",
"l 	c #1A0202",
"m 	c #986E6E",
"n 	c #CA6A62",
"o 	c #9E9291",
"p 	c #6C5A5A",
"q 	c #C2B6B5",
"r 	c #3E120E",
"s 	c #EA5E5A",
"t 	c #721A1A",
"u 	c #684844",
"v 	c #908280",
"w 	c #D09A9C",
"x 	c #F4D2D2",
"y 	c #CAAAAA",
"z 	c #AA9A9A",
"A 	c #725452",
"B 	c #D68E86",
"C 	c #561212",
"D 	c #724A4A",
"E 	c #7B5E5B",
"F 	c #827373",
"G 	c #D6827A",
"H 	c #AE9A99",
"I 	c #D64E4A",
"J 	c #E2D6D6",
"K 	c #A66C66",
"L 	c #E4C6C6",
"M 	c #4A3E3E",
"N 	c #DCBABA",
"O 	c #ECCCCC",
"P 	c #BEAAA8",
"Q 	c #964E4E",
"R 	c #F2DADA",
"S 	c #0E0202",
"T 	c #A29696",
"U 	c #BE9E9A",
"V 	c #621A18",
"W 	c #963A36",
"X 	c #40322E",
"Y 	c #B2918E",
"Z 	c #160202",
"` 	c #786A6A",
" .	c #968282",
"..	c #DE9E96",
"+.	c #D2C6C6",
"@.	c #4F2121",
"#.	c #867272",
"$.	c #C27A7A",
"%.	c #B66252",
"&.	c #BAA2A2",
"*.	c #D0B2B0",
"=.	c #CAA2A0",
"-.	c #AE5256",
";.	c #CE9494",
">.	c #42221E",
",.	c #461A1A",
"'.	c #BEA2A1",
").	c #DA7662",
"!.	c #635655",
"~.	c #C3B2B2",
"{.	c #EED6D6",
"].	c #C65E4A",
"^.	c #B27A76",
"/.	c #D6422A",
"(.	c #321616",
"_.	c #2D1E1D",
":.	c #4A322E",
"<.	c #BA9A9A",
"[.	c #220A06",
"}.	c #A38989",
"|.	c #66514F",
"1.	c #B69A98",
"2.	c #9A7878",
"3.	c #967E7E",
"4.	c #EED2D4",
"5.	c #1C0A0A",
"6.	c #563A36",
"7.	c #CEA6A6",
"8.	c #DEC0C0",
"9.	c #F4DEDE",
"0.	c #5E4542",
"a.	c #B08A8A",
"b.	c #814742",
"c.	c #160A0A",
"d.	c #3A2523",
"e.	c #C4AAA9",
"f.	c #B2A6A3",
"g.	c #AE9E9D",
"h.	c #968686",
"i.	c #8C7978",
"j.	c #7A6464",
"k.	c #120202",
"l.	c #C3A29F",
"m.	c #2A1212",
"n.	c #DE6666",
"o.	c #400A0A",
"p.	c #A28E8D",
"q.	c #B16767",
"r.	c #DFCACA",
"s.	c #CA9692",
"t.	c #D9C6C6",
"u.	c #ECC6C6",
"v.	c #2E1717",
"w.	c #523635",
"x.	c #AA9E9D",
"y.	c #CA5252",
"z.	c #E2AEAE",
"A.	c #422A28",
"B.	c #B88E8C",
"C.	c #9C8686",
"D.	c #351D1B",
"E.	c #A29292",
"F.	c #B2A2A0",
"G.	c #A69A98",
"H.	c #92463A",
"I.	c #5A221E",
"J.	c #CC7468",
"K.	c #C49696",
"L.	c #CAAEAE",
"M.	c #4A3A3A",
"N.	c #E6D6D6",
"O.	c #FAD6D6",
"P.	c #564949",
"Q.	c #D6B1B2",
"R.	c #C3AEAD",
"S.	c #866E6C",
"T.	c #B78986",
"U.	c #BA625E",
"V.	c #CA7E76",
"W.	c #160605",
"X.	c #7E2E2A",
"Y.	c #92726E",
"Z.	c #D6565A",
"`.	c #DFCECE",
" +	c #AF9695",
".+	c #E7D2D2",
"++	c #C6928C",
"@+	c #CEBABA",
"#+	c #FADEDE",
"$+	c #D4C2C2",
"%+	c #DAA28A",
"&+	c #AE4242",
"*+	c #D69692",
"=+	c #CE5642",
"-+	c #D6A6A6",
";+	c #B25A5A",
">+	c #5E4A4A",
",+	c #120606",
"'+	c #CE7A6E",
")+	c #EADAD8",
"!+	c #261212",
"~+	c #C5A6A4",
"{+	c #C7B6B6",
"]+	c #2A0E0A",
"^+	c #DEC6C6",
"/+	c #1A0605",
"(+	c #EEDADA",
"_+	c #9E8E8D",
":+	c #968A8A",
"<+	c #928684",
"[+	c #BAA6A5",
"}+	c #BA9E9D",
"|+	c #725E5E",
"1+	c #927672",
"2+	c #B29E9C",
"3+	c #EAD6D6",
"4+	c #BEAEAC",
"5+	c #D0B6B6",
"6+	c #2A0602",
"7+	c #523E3C",
"8+	c #322625",
"9+	c #261A18",
"0+	c #AB9291",
"a+	c #BEA6A6",
"b+	c #B69E9D",
"c+	c #9B8A8A",
"d+	c #A69695",
"e+	c #B29A99",
"f+	c #B6A2A0",
"g+	c #B6A6A5",
"h+	c #DABEBE",
"i+	c #5E4E4D",
"j+	c #6E322A",
"k+	c #824E4A",
"l+	c #DE8676",
"m+	c #E2BABA",
"n+	c #9E3E3A",
"o+	c #3A2E2C",
"p+	c #DACECC",
"q+	c #9A7270",
"r+	c #6C5E5C",
"s+	c #CE9E9E",
"t+	c #423636",
"u+	c #4A3636",
"v+	c #402E2E",
"w+	c #BA928E",
"x+	c #CAB2B2",
"y+	c #1E0605",
"z+	c #BAAEAE",
"A+	c #F8DADA",
"B+	c #C0928F",
"C+	c #7A6E6E",
"D+	c #220E0E",
"E+	c #5E5252",
"F+	c #A69290",
"G+	c #D1AEAD",
"                                                              ",
"                                                              ",
"                          $.q.;+; ; y.% /.                    ",
"                    s+w w ;.q.-.n.s I =+].%.H.                ",
"                7.G+N k z.= j * % Z.7.0 ).J.j j+b.            ",
"              Q.8.u.| u.-+1 V t &+; '+%+l+B K k+4 _           ",
"            N 8.4.O.x k K._ - V W b 9 n l+w ++: q+g r         ",
"          *.8.{.#+A+| N a.@.o.C X.* W U.$.0 s.B+c u >.~       ",
"        L.@+O R #+A+O G+m ,.o.I.) X.Q q.= ;.++B.c E w.]+6+    ",
"        @+$+3+9.#+O.u.G+2.@.@.b.b.b.K ^./ B+B+a.2.E 6.v.5     ",
"      5+r..+{.9.9.4.8.G+Y 4 D } } ! T./ s+h B+: m A w.D.[.5   ",
"      x+r..+R A+A+`.N *.l.a.2.m m 2./ =.[ 3 B.c f u v+D.y+l   ",
"      5+a 3+(+R {.r.5+L.e.~+<.h B.Y s+y =.h ( 2.E 0.>.^ [.l   ",
"    R.$+`.3+(+(+4.^+5+L.R.~+~+U <.1.}+U h  +}.1+A w.d.m./+Z l ",
"    & t.a )+(+(+`.h+x+e.e.a+~+'.}+<.1.e+Y ( C.f i+g D.D+/+Z Z ",
"    H {+`.N.(+(+r.@+R.R.a+'.&.}+<.b+1. + +( 3.j.0.A.^ y+Z k.k.",
"    E.~.r.N.3+N.$+{+R.e.P '.&.b+b+e+1. +0+}.1+A M d.^ /+Z Z k.",
"    z 7 a N.N.`.# ~.e.& [+g+b+b+e+e+ + +F+C.S.|.u+D.D+Z Z k.k.",
"    _+& { N.N.`.@+4+a+[+&.f+f+2+H H 6 0+c+3.j.0.X v.5.k.k.k.S ",
"     .x.{ a a t.{+4+& [+f+F.g.e+H 6 6 E.}.i.r+< d.^ 5.k.k.k.S ",
"      d++.a p+$+4+& g+f.f+2+g.z 6 0+F+o h.#.|.u+' d Z k.k.k.  ",
"      v ~.p+{ 7 4+g+f+f+g.g.H 6 6 d+F+c+v ` >+X v.5.k.S S k.  ",
"      r+i.q $+q & f.f.F.g.z z G.T E.E.C.i.@ < o+9+c.k.k.S k.  ",
"        r+> ~.z+g+f.g.g.H z 6 F+E.o c+<+F !.M.' 2 W.S S k.    ",
"        i+@ x.& F.] g.x.G.G.T E.o _+c+$ ` i+t+D.d k.S S k.    ",
"          , ` > ] g.x.G.G.T T o _+> h.$ @ P.+ ^ c.S S k.      ",
"            + P.$ > d+d+T E.E._+> :+v F p M 8+D+k.S k.        ",
"              d ' E+<+T T o > > :+h.$ C+, X 9+,+. k.          ",
"                c.+ !.F i.v <+$ v $ ` E+t+2 ,+S k.            ",
"                    ^ _.o+, @ >+P.P.' 2 c.S S                 ",
"                          2 2 d d d . S                       "};
