/* XPM */
static char * knob15_xpm[] = {
"31 31 256 2",
"  	c None",
". 	c #0A0202",
"+ 	c #36262A",
"@ 	c #625656",
"# 	c #7E6E6F",
"$ 	c #DA767A",
"% 	c #8E8282",
"& 	c #BA3E46",
"* 	c #6A0E12",
"= 	c #F25672",
"- 	c #AE8284",
"; 	c #922A36",
"> 	c #CA868A",
", 	c #5E0A12",
"' 	c #B25A5E",
") 	c #68262A",
"! 	c #CE9292",
"~ 	c #361E22",
"{ 	c #A2565A",
"] 	c #968A8A",
"^ 	c #423636",
"/ 	c #2A1A1D",
"( 	c #AE9294",
"_ 	c #A27276",
": 	c #C6A2A4",
"< 	c #762A32",
"[ 	c #725A5A",
"} 	c #DEAAAE",
"| 	c #AE9A9A",
"1 	c #1E1212",
"2 	c #4A3E3E",
"3 	c #6E3A3E",
"4 	c #986E72",
"5 	c #BE9A9A",
"6 	c #9A8E8E",
"7 	c #DAB6B6",
"8 	c #AA8286",
"9 	c #827676",
"0 	c #E65256",
"a 	c #726263",
"b 	c #861E26",
"c 	c #DAA6A8",
"d 	c #764246",
"e 	c #564A4A",
"f 	c #1A0E0E",
"g 	c #A28E91",
"h 	c #A28686",
"i 	c #BA9A9E",
"j 	c #A6464E",
"k 	c #82424A",
"l 	c #866264",
"m 	c #D6A2A4",
"n 	c #560E12",
"o 	c #EA86A6",
"p 	c #A29292",
"q 	c #DA6A6E",
"r 	c #5A4246",
"s 	c #92767A",
"t 	c #5A1E22",
"u 	c #C6A6A7",
"v 	c #665A5A",
"w 	c #A98A8B",
"x 	c #160A0A",
"y 	c #8E565A",
"z 	c #9E5E5E",
"A 	c #BE7676",
"B 	c #726666",
"C 	c #9C8284",
"D 	c #EA7276",
"E 	c #DA9296",
"F 	c #B68A8E",
"G 	c #867A7A",
"H 	c #A69295",
"I 	c #AA262E",
"J 	c #3A2A2E",
"K 	c #BEA2A2",
"L 	c #D2A6A7",
"M 	c #DEB2B2",
"N 	c #664A4E",
"O 	c #BE4E5E",
"P 	c #8A6E72",
"Q 	c #B69697",
"R 	c #66222A",
"S 	c #B29A9A",
"T 	c #0E0202",
"U 	c #928686",
"V 	c #9E8A8D",
"W 	c #C28686",
"X 	c #DAAEAE",
"Y 	c #7A6667",
"Z 	c #E66262",
"` 	c #967A7C",
" .	c #AE3646",
"..	c #554647",
"+.	c #92666A",
"@.	c #4E363A",
"#.	c #160202",
"$.	c #B07278",
"%.	c #B29E9E",
"&.	c #A69696",
"*.	c #82565A",
"=.	c #2A1618",
"-.	c #9A161E",
";.	c #CEA6A8",
">.	c #6A5E5E",
",.	c #846E6E",
"'.	c #E2A6AA",
").	c #D49A9E",
"!.	c #7A6263",
"~.	c #302222",
"{.	c #A27E7E",
"].	c #EA7E8A",
"^.	c #D6868A",
"/.	c #867677",
"(.	c #5F4A4B",
"_.	c #533E41",
":.	c #9E7E82",
"<.	c #C29296",
"[.	c #BAA2A2",
"}.	c #863636",
"|.	c #824E52",
"1.	c #7A161E",
"2.	c #8A7A7D",
"3.	c #674E4F",
"4.	c #C2565E",
"5.	c #CE5266",
"6.	c #826A6E",
"7.	c #D6AAAC",
"8.	c #3F2E2F",
"9.	c #928282",
"0.	c #CD9EA2",
"a.	c #8E7679",
"b.	c #5E4E4E",
"c.	c #8A7E7E",
"d.	c #9A6266",
"e.	c #E6AAAE",
"f.	c #7A6A6B",
"g.	c #C2A6A6",
"h.	c #AA8E8E",
"i.	c #EAB6BA",
"j.	c #968686",
"k.	c #CA969A",
"l.	c #CE8E92",
"m.	c #DA7E86",
"n.	c #621218",
"o.	c #F25E76",
"p.	c #321A1E",
"q.	c #D68A8A",
"r.	c #F24A4A",
"s.	c #120203",
"t.	c #C2A2A3",
"u.	c #6E6262",
"v.	c #4A363A",
"w.	c #261616",
"x.	c #62464A",
"y.	c #EA8E9A",
"z.	c #DE9A9E",
"A.	c #665252",
"B.	c #9E6A6E",
"C.	c #EEAEB2",
"D.	c #EE6672",
"E.	c #7A5E62",
"F.	c #CAA6A8",
"G.	c #B69E9E",
"H.	c #7E7272",
"I.	c #3E3232",
"J.	c #CAA2A7",
"K.	c #827275",
"L.	c #B6868A",
"M.	c #9A7E82",
"N.	c #AA9696",
"O.	c #221616",
"P.	c #CEAAAA",
"Q.	c #6D5A5A",
"R.	c #927E7E",
"S.	c #C29EA1",
"T.	c #62222A",
"U.	c #9A8A8A",
"V.	c #2E1E22",
"W.	c #B09696",
"X.	c #4E4242",
"Y.	c #826666",
"Z.	c #D2AAAC",
"`.	c #544244",
" +	c #C89A9E",
".+	c #A28A8A",
"++	c #867274",
"@+	c #7E6A6B",
"#+	c #BA5666",
"$+	c #1A0A0D",
"%+	c #BE8A8A",
"&+	c #C64E62",
"*+	c #8E7E7E",
"=+	c #EEA6AE",
"-+	c #BA9E9E",
";+	c #766A6A",
">+	c #9C8688",
",+	c #CAAAAA",
"'+	c #968282",
")+	c #BE9EA1",
"!+	c #5A4646",
"~+	c #AA969A",
"{+	c #725E5E",
"]+	c #160608",
"^+	c #AA9294",
"/+	c #625252",
"(+	c #665658",
"_+	c #A68E90",
":+	c #766262",
"<+	c #1E0E10",
"[+	c #6E5E5F",
"}+	c #8E7A7C",
"|+	c #BA9EA2",
"1+	c #5E4646",
"2+	c #D67A7A",
"3+	c #AE868A",
"4+	c #AA868A",
"5+	c #DAAAAA",
"6+	c #D6A6AA",
"7+	c #8C7274",
"8+	c #DAB2B4",
"9+	c #946A6E",
"0+	c #503A3E",
"a+	c #BE969A",
"b+	c #DA8E92",
"c+	c #96868A",
"d+	c #8A7678",
"e+	c #6A5254",
"f+	c #765E60",
"g+	c #9A8A8E",
"h+	c #B29A9E",
"i+	c #928286",
"j+	c #463636",
"k+	c #9E8E8F",
"l+	c #967E80",
"m+	c #6E1216",
"n+	c #362222",
"o+	c #8A2222",
"p+	c #AE2A2E",
"q+	c #4A3A3E",
"r+	c #766667",
"s+	c #B69EA2",
"t+	c #BA969A",
"u+	c #7E666A",
"v+	c #BEA2A6",
"w+	c #7E6262",
"x+	c #624E4E",
"y+	c #423233",
"z+	c #CEA2A6",
"A+	c #EE7E92",
"B+	c #D68A92",
"C+	c #3A2628",
"D+	c #B29296",
"E+	c #4E3E3E",
"F+	c #A68688",
"G+	c #967678",
"                                                              ",
"                                                              ",
"                          - 4+F+:.` Y.w+                      ",
"                    ).c M S.Q w >+` ,.@+[ e+!.                ",
"                E } i.X 8+;.t.Q h.C s 7+Y f+Y Q.1+            ",
"            o.y.=+=+e.X 5+Z.J.)+W.w M.a.++@+Y :+/+!+          ",
"          = A+].m.b+z.c 5+7.L F.-+W..+M.a.,.f.r+{+A.!+        ",
"        r.D.o 5.& ' A l.m L P.F.u S ( V '+2.6.Y B u.x+n+      ",
"        Z D ^.&+p+b }.z W 0.F.F.u K i ^+h '+++@+r+a v y+C+    ",
"      0 q $ S.O I 1.n.T.|.- S.F.u u [.S N.>+R.++@+r+Q.e 8.    ",
"      $ $ 4.#+ .-.* n t 3 +.5 : t.g.K G.S _+>+}+9 # a (+2 =.  ",
"      q.^.j ; b m+, ) d._ F : u t.K [.[.%.N.k+j.}+K.Y u.!+~.  ",
"      > > { < n.n T.$. + +L ;.g.K K s+G.%.S N.g '+2.# B (+^   ",
"    W m ).$.k t t y k.0.Z.8+u S.K [.-+%.h+| N.&.6 9./.# u.q+$+",
"    L.z+m ! B.d 3 _  +Z.7 P.K K -+G.G.%.| ~+&.&.p U.*+9 # e f ",
"    _ - 0.;.<.9+*.3+L 8+F.S.)+|+s+s+h+| W.N.N.H k+g+c+*+H.@ 1 ",
"    4 :.<.: z+a+3+F.7 ,+K )+-+i G.h+h+| | H H p p 6 c+i+G @ 1 ",
"    9+G+w t+S.: )+: u t.)+-+i G.S | | ~+H &.p p g+U.] U /...$+",
"    w+l s h D+t+K )+)+)+|+s+i | S N.N.N.H p k+k+U.U.j.U /.X.x ",
"    l E.l 7+M.h.Q -+|+s+G.G.%.h+W.W.H H p p k+U.U.j.U c.u./ s.",
"      3.N w+P ` .+( S G.%.S | | &.~+H g k+k+k+] c+'+i+H.^ x   ",
"      N r e+f+,.a.>+_+N.W.| | ~+~+p p p k+U.c+c+U U % H.8.]+  ",
"      x._._.3.{+u+,.` U._+^+N.H H p k+V V U.j.i+% % G >.O.s.  ",
"        0+0+`.3.Q.:+@+a.c+k+g g g k+k+6 ] j.U U % G >.V.T     ",
"        N !+E+r x+(+{+Y ++*+>+6 k+V g+U.] '+9.*+c.B ~.T .     ",
"          @.8.y+_.(./+Q.a @+G R.j.] j.U 9.% c.H.[+^ x .       ",
"            ~ V.+ j+`.(.@ Q.;+,.2.i+'+i+i+c.;+I.O.]+.         ",
"              p.=./ + ^ `.b.(+u.f.9 c.c.H.a E+f . .           ",
"                p.]+]+$+/ 8.2 ..b.@ >.@ 8.O.x s.s.            ",
"                    #.s.]+]+$+f f <+1 1 s.T s.                ",
"                          T T T T T . T                       "};
