/* XPM */
static char * knob38_xpm[] = {
"31 31 256 2",
"  	c None",
". 	c #0A0202",
"+ 	c #3F2F2D",
"@ 	c #7A6E6E",
"# 	c #D9CAC9",
"$ 	c #9A8E8A",
"% 	c #7A0E12",
"& 	c #9A3E32",
"* 	c #AAA29E",
"= 	c #5E120E",
"- 	c #62362A",
"; 	c #BA7666",
"> 	c #CABEBB",
", 	c #2E221E",
"' 	c #EADAD8",
") 	c #3A0E08",
"! 	c #62463E",
"~ 	c #9A7672",
"{ 	c #BEB6B2",
"] 	c #CE9488",
"^ 	c #281A18",
"/ 	c #82423E",
"( 	c #270602",
"_ 	c #DEB282",
": 	c #C25646",
"< 	c #5D4A46",
"[ 	c #BD9187",
"} 	c #F6EAE6",
"| 	c #BAB2AE",
"1 	c #825650",
"2 	c #635652",
"3 	c #AA9E9A",
"4 	c #20120E",
"5 	c #A2766E",
"6 	c #AA1A16",
"7 	c #C2A29E",
"8 	c #514542",
"9 	c #1E0703",
"0 	c #DA7262",
"a 	c #84605A",
"b 	c #6A3E3A",
"c 	c #A2827E",
"d 	c #A6908C",
"e 	c #B6AAA7",
"f 	c #E5C6C3",
"g 	c #8E827F",
"h 	c #EACECE",
"i 	c #50322C",
"j 	c #52221A",
"k 	c #A69A98",
"l 	c #6F6261",
"m 	c #D4B6B0",
"n 	c #7A3A36",
"o 	c #F1E6E4",
"p 	c #8A161A",
"q 	c #DCCECB",
"r 	c #1A0602",
"s 	c #661A0E",
"t 	c #291612",
"u 	c #DEC4C0",
"v 	c #CE766A",
"w 	c #8A7E7B",
"x 	c #CE6A56",
"y 	c #9C8784",
"z 	c #76524E",
"A 	c #B6A29D",
"B 	c #DEA68A",
"C 	c #BD7D6F",
"D 	c #622A1E",
"E 	c #B58983",
"F 	c #E0886C",
"G 	c #CEC6C2",
"H 	c #C6B6B3",
"I 	c #3C160E",
"J 	c #EAE2DE",
"K 	c #BC9C96",
"L 	c #0E0202",
"M 	c #40241E",
"N 	c #120602",
"O 	c #962E1E",
"P 	c #965E5A",
"Q 	c #493B39",
"R 	c #8C716B",
"S 	c #C3AAA5",
"T 	c #A69692",
"U 	c #742822",
"V 	c #4E3A36",
"W 	c #925246",
"X 	c #E2D6D2",
"Y 	c #1F0E0B",
"Z 	c #D6B0AE",
"` 	c #FAEEEA",
" .	c #AE3232",
"..	c #BE867A",
"+.	c #B0423C",
"@.	c #D6C0BC",
"#.	c #260F0B",
"$.	c #F1DAD7",
"%.	c #724242",
"&.	c #C2B2AF",
"*.	c #AD7A71",
"=.	c #E29A7A",
"-.	c #AA9A96",
";.	c #4E1E16",
">.	c #BAAAA7",
",.	c #7C6662",
"'.	c #382A28",
").	c #B29E9A",
"!.	c #A58681",
"~.	c #826662",
"{.	c #684E46",
"].	c #B68E86",
"^.	c #120202",
"/.	c #944A3E",
"(.	c #46160A",
"_.	c #9A928E",
":.	c #6C5652",
"<.	c #D2BEBB",
"[.	c #967A76",
"}.	c #CEB9B6",
"|.	c #863A32",
"1.	c #946A64",
"2.	c #8E544C",
"3.	c #867A76",
"4.	c #E4D1CE",
"5.	c #AC8682",
"6.	c #C6BAB8",
"7.	c #BAAEAB",
"8.	c #BEA6A3",
"9.	c #9B7D77",
"0.	c #C6968E",
"a.	c #744E44",
"b.	c #5E524E",
"c.	c #583A34",
"d.	c #765A52",
"e.	c #CA8272",
"f.	c #1A0E0A",
"g.	c #D68262",
"h.	c #561612",
"i.	c #6E1A0A",
"j.	c #822622",
"k.	c #AE9A97",
"l.	c #EBD2CF",
"m.	c #B6A6A3",
"n.	c #F2E2DF",
"o.	c #7E7272",
"p.	c #320A06",
"q.	c #AA8E8B",
"r.	c #320E06",
"s.	c #963A22",
"t.	c #443636",
"u.	c #CDC2BF",
"v.	c #372321",
"w.	c #D69276",
"x.	c #CAAEAA",
"y.	c #301E1A",
"z.	c #AD928E",
"A.	c #48322E",
"B.	c #86665E",
"C.	c #DA6458",
"D.	c #F7E6E3",
"E.	c #460E06",
"F.	c #B1A6A3",
"G.	c #4C2A22",
"H.	c #581E16",
"I.	c #361E1A",
"J.	c #574643",
"K.	c #3E2A26",
"L.	c #AD9692",
"M.	c #A27E7A",
"N.	c #57332D",
"O.	c #847270",
"P.	c #766662",
"Q.	c #C68E82",
"R.	c #32160E",
"S.	c #AC827A",
"T.	c #DEBAB6",
"U.	c #FEF2EE",
"V.	c #160602",
"W.	c #C3AEAA",
"X.	c #EEDEDE",
"Y.	c #DECAC8",
"Z.	c #A28E8C",
"`.	c #D2C6C3",
" +	c #F2D6D6",
".+	c #8E1E1E",
"++	c #965A4E",
"@+	c #9E827A",
"#+	c #CA9E9A",
"$+	c #72221A",
"%+	c #DA6A4E",
"&+	c #160A06",
"*+	c #B1A29E",
"=+	c #A0928E",
"-+	c #B69A92",
";+	c #EBD6D2",
">+	c #2E0A02",
",+	c #8A564E",
"'+	c #1A0A06",
")+	c #2E0E06",
"!+	c #A58A86",
"~+	c #B27A6E",
"{+	c #F4DEDB",
"]+	c #EADEDC",
"^+	c #BEAEAB",
"/+	c #C6B2AF",
"(+	c #160202",
"_+	c #CABAB6",
":+	c #8D6966",
"<+	c #FAEAE8",
"[+	c #DEAEAE",
"}+	c #FEEEEC",
"|+	c #F6E2DE",
"1+	c #221613",
"2+	c #3D1A12",
"3+	c #AC7E70",
"4+	c #D2C2C0",
"5+	c #A29695",
"6+	c #C2B6B4",
"7+	c #CAB6B3",
"8+	c #BAA6A2",
"9+	c #CAA29E",
"0+	c #220602",
"a+	c #8A625E",
"b+	c #BAA29E",
"c+	c #46221A",
"d+	c #BEAAA6",
"e+	c #B69E99",
"f+	c #6E4E46",
"g+	c #725A56",
"h+	c #7E5E5A",
"i+	c #761E0A",
"j+	c #AE8E8A",
"k+	c #522A22",
"l+	c #5E1E1A",
"m+	c #B29692",
"n+	c #845A56",
"o+	c #AC8A84",
"p+	c #583E3A",
"q+	c #C2BAB6",
"r+	c #E6D6D3",
"s+	c #B29A95",
"t+	c #D6C6C5",
"u+	c #DED2CE",
"v+	c #622A28",
"w+	c #D89280",
"x+	c #C65652",
"y+	c #BA8A86",
"z+	c #461A16",
"A+	c #2A1E1E",
"B+	c #947E7A",
"C+	c #827676",
"D+	c #CEBEBC",
"E+	c #BEB2AF",
"F+	c #AE9E9D",
"G+	c #260A06",
"                                                              ",
"                                                              ",
"                          s+b+s+q.!+[.:+                      ",
"                    }.<./+S 7+/+/+8.q.9.B.n+n+                ",
"                <.# q 4.r+;+;+l.l.h f m !.:+a+b v+            ",
"              Y.X ' X.n.n.n.{+{+$.$.l.f m 9+E %.v+l+          ",
"            # r+J |+D.D.|+|+n.{+;+l.f T.Z #+..P n h.=         ",
"          # ' n.<+` <+} <+D.{+;+h u m 7 E 5 ,+/ |.i+U j.      ",
"        q ' o <+` <+<+D.n.$.l.u T.S j+B.N.j j U & +.+..+%     ",
"        ' } U.}+}+` D.{+l.Y.<.7+x.z.N.2+) (.D /.: C.C. .p 6   ",
"      # o ` U.}+D.n.' q 4+}.7+/+W.z.G.p.I - 2.; w.B [+x+O i+  ",
"      ' } U.` o ]+q t+u.}.7+W.S S z.! I.N.1.3+C g._ =.%+s.i.  ",
"      ` ` o ]+4.# 4+}.6.H /+W.S 8.-+:+c+k+*.~+; x F F 0 /.s   ",
"    t+n.]+X # u.u._+_+H &.&.^+d+8.b+!.c.z+1 *.C e.w+w+v W H.E.",
"    G u+q `.`.D+> 6.H /+W.W.8.d+b+A z.a G.a.*.S.Q.] Q.; W z+) ",
"    q # G u.> > 6.H &.&.^+>.>.b+b+e+s+@+{.n+3+[ 0.[ ..*.1 ;.p.",
"    > u.u.u.6.6.6+H E+^+d+d+8+A A -+s+j+9.o+0.[ E 5.3+5 1 I >+",
"    w { u._+> H H E+^+^+7.m.m.A e+).L.L.q.j+q.o+!.c [.:+a.I ( ",
"    Z.E+> q+q+6+&.E+7.>.>.m.m.).s+s+m+z.z.!+!.@+[.1.B.z i G+( ",
"    * q+> 6.6+E+E+7.>.e m.A ).F+k.L.d q.y !.B+R ~.g+{.N.R.( ( ",
"      e { 6+{ E+^+7.m.F.F.*+).-.L.T Z.y B+R ,.g+{.p+t.v.G+0+  ",
"      w m.{ E+| 7.e e m.*+F+k L.$ y B+O.,.:.< p+A.K.I.G+(+0+  ",
"      l 3 7.7.7.e F.*+*+3 L.=+y w O.,.2 < V + M y.)+4 0+(+(   ",
"        w * e e F.F.*+-.5+$ g C+,.2 J.V + v.y.t #.'+r (+9     ",
"        < 3.k F.F.3 5+y g O.l b.J.Q + v.^ #.Y V.r (+r (+9     ",
"          Q @ 5+5+$ g C+l b.J.t.'.y.t 4 '+&+N V.V.r (+r       ",
"            b.o.3.C+l b.8 t.'., t 4 '+V.(+(+^.^.^.N r         ",
"              '.t.8 Q + '.A+1+Y &+^.^.N ^.^.^.^.(+(+          ",
"                f.1+A+^ 1+f.N L L L ^.N L ^.N N ^.            ",
"                    N N L L L L L L L L N N .                 ",
"                          L L L L L L L                       "};
