/* XPM */
static char * knob26_xpm[] = {
"31 31 256 2",
"  	c None",
". 	c #0E0202",
"+ 	c #382627",
"@ 	c #665A5A",
"# 	c #9E9292",
"$ 	c #CECECE",
"% 	c #CA5E66",
"& 	c #EA2E32",
"* 	c #CCBABA",
"= 	c #7C6E6F",
"- 	c #7E2626",
"; 	c #521A1A",
"> 	c #BEAEAE",
", 	c #C79294",
"' 	c #5C4F50",
") 	c #460E0A",
"! 	c #AE7276",
"~ 	c #8D7A79",
"{ 	c #261A1A",
"] 	c #BE5C60",
"^ 	c #6A2626",
"/ 	c #B6A6A6",
"( 	c #D67E7E",
"_ 	c #B49294",
": 	c #463A3A",
"< 	c #201212",
"[ 	c #8E5E5E",
"} 	c #C49698",
"| 	c #8E8282",
"1 	c #86363A",
"2 	c #EDC6C5",
"3 	c #240202",
"4 	c #9C6E70",
"5 	c #D8AFAE",
"6 	c #C6767A",
"7 	c #D6726E",
"8 	c #7E4A4A",
"9 	c #C69A9A",
"0 	c #B29A9C",
"a 	c #663838",
"b 	c #1D0E0F",
"c 	c #A48686",
"d 	c #AA9E9E",
"e 	c #885A5A",
"f 	c #523232",
"g 	c #B64A52",
"h 	c #E6BAB6",
"i 	c #928686",
"j 	c #724E4E",
"k 	c #967171",
"l 	c #A79295",
"m 	c #5C4A4C",
"n 	c #726262",
"o 	c #1E0202",
"p 	c #A37B7E",
"q 	c #C29E9F",
"r 	c #EACECE",
"s 	c #A63232",
"t 	c #664A4A",
"u 	c #E3CACA",
"v 	c #461212",
"w 	c #B2A2A2",
"x 	c #D0AEAC",
"y 	c #AE7A7E",
"z 	c #D6A4A2",
"A 	c #DCBEBC",
"B 	c #423232",
"C 	c #C2A2A2",
"D 	c #CE6A6A",
"E 	c #160203",
"F 	c #623A3A",
"G 	c #96464A",
"H 	c #D64A4A",
"I 	c #662222",
"J 	c #9A8E8D",
"K 	c #BE9A9B",
"L 	c #8B7171",
"M 	c #AE7E7E",
"N 	c #CEBFBF",
"O 	c #A69696",
"P 	c #E2827E",
"Q 	c #461616",
"R 	c #C5B6B6",
"S 	c #6C5050",
"T 	c #220606",
"U 	c #564646",
"V 	c #7E6666",
"W 	c #AA9698",
"X 	c #180A0A",
"Y 	c #CA8886",
"Z 	c #9E7A7A",
"` 	c #7E7272",
" .	c #986868",
"..	c #D6C6C6",
"+.	c #553B3B",
"@.	c #B69A9C",
"#.	c #F6D4D2",
"$.	c #CEA8A8",
"%.	c #B06866",
"&.	c #2B1515",
"*.	c #BCA2A2",
"=.	c #BA8A8A",
"-.	c #361D1D",
";.	c #9E8A8B",
">.	c #C66E6A",
",.	c #C2AEAC",
"'.	c #3F2E2E",
").	c #DE6460",
"!.	c #C2A6A6",
"~.	c #5E221E",
"{.	c #A6565A",
"].	c #B68282",
"^.	c #3C2222",
"/.	c #2F2222",
"(.	c #A28A8A",
"_.	c #4E1A1A",
":.	c #90504E",
"<.	c #72322E",
"[.	c #EAD2D1",
"}.	c #DACACA",
"|.	c #9E8282",
"1.	c #DE5A62",
"2.	c #CA8EA2",
"3.	c #BEA6A6",
"4.	c #766666",
"5.	c #5A4646",
"6.	c #703C3E",
"7.	c #AA9A9B",
"8.	c #BA9292",
"9.	c #635153",
"0.	c #D4BEBE",
"a.	c #968A8A",
"b.	c #CFB2B2",
"c.	c #160606",
"d.	c #E26E72",
"e.	c #6C5A5A",
"f.	c #C7A6A6",
"g.	c #D6565A",
"h.	c #923E3A",
"i.	c #C44C48",
"j.	c #B69EA0",
"k.	c #E4CECE",
"l.	c #967E7E",
"m.	c #4E3236",
"n.	c #F2D2D2",
"o.	c #9C7676",
"p.	c #1E0A0A",
"q.	c #260A0E",
"r.	c #544244",
"s.	c #4E4242",
"t.	c #C8AEAE",
"u.	c #846E70",
"v.	c #E0B2B2",
"w.	c #120202",
"x.	c #AE8A8A",
"y.	c #DEC6C6",
"z.	c #2D1A1A",
"A.	c #985C5C",
"B.	c #724848",
"C.	c #2E0A0A",
"D.	c #231616",
"E.	c #CE9290",
"F.	c #D27A6E",
"G.	c #B29E9E",
"H.	c #725256",
"I.	c #E4C2C2",
"J.	c #847677",
"K.	c #D28A8C",
"L.	c #70201E",
"M.	c #462222",
"N.	c #8A2626",
"O.	c #5E120E",
"P.	c #BA7276",
"Q.	c #B9AAAA",
"R.	c #978688",
"S.	c #A29293",
"T.	c #D2BAB8",
"U.	c #722E36",
"V.	c #823E3E",
"W.	c #523636",
"X.	c #A63A3A",
"Y.	c #D2AAAA",
"Z.	c #8E7676",
"`.	c #6A5656",
" +	c #CA8E8E",
".+	c #665656",
"++	c #2D1E1E",
"@+	c #9A6266",
"#+	c #A69A9A",
"$+	c #AA8E92",
"%+	c #382A2A",
"&+	c #8B7E7E",
"*+	c #C9AAA9",
"=+	c #938284",
"-+	c #D2C2C2",
";+	c #AE9292",
">+	c #4A3232",
",+	c #9E8E8F",
"'+	c #462E32",
")+	c #F2CECE",
"!+	c #B6A2A2",
"~+	c #CEB6B6",
"{+	c #4C3B3C",
"]+	c #C8B2B2",
"^+	c #725E5E",
"/+	c #AE9698",
"(+	c #AE9A9A",
"_+	c #1A0606",
":+	c #B5898D",
"<+	c #DDC2C0",
"[+	c #BE9E9E",
"}+	c #BEAAAA",
"|+	c #CAA2A6",
"1+	c #D66C6A",
"2+	c #9A8A8B",
"3+	c #7A5656",
"4+	c #BA9EA0",
"5+	c #B39699",
"6+	c #C2AAAA",
"7+	c #BAA6A6",
"8+	c #DAC6C6",
"9+	c #DECBCB",
"0+	c #D6C2C2",
"a+	c #AE9E9E",
"b+	c #D25E66",
"c+	c #4E0E0A",
"d+	c #927A7A",
"e+	c #A27272",
"f+	c #AA868A",
"g+	c #5A2E2E",
"h+	c #624A4A",
"i+	c #7A6262",
"j+	c #1A0203",
"k+	c #CAB6B6",
"l+	c #866A6A",
"m+	c #C28A86",
"n+	c #EED3D1",
"o+	c #763E3E",
"p+	c #321A1E",
"q+	c #3E2A2A",
"r+	c #BEB2B2",
"s+	c #443636",
"t+	c #C2B2B2",
"u+	c #6C5E60",
"v+	c #F2D6D6",
"w+	c #120606",
"x+	c #A29696",
"y+	c #E6D2D2",
"z+	c #BA9A9B",
"A+	c #786A6B",
"B+	c #240E10",
"C+	c #AEA2A2",
"D+	c #DA666A",
"E+	c #D47878",
"F+	c #A38E90",
"G+	c #BB9697",
"                                                              ",
"                                &                             ",
"                          D 7 g.H b+% ]                       ",
"                    E.Y %.>.).P D+g.d.7 G V.:.                ",
"                z 5 v.z :.h.i.F.$ D ).F.%.A.[ 6.a             ",
"              5 A 2 h , <.L.X.i.2.K.D+( Y m+M B.F g+          ",
"            x A )+2 v.].~.O.N.s g ] 6 Y  +, =.k j M.C.        ",
"          x I.n.#.2 5 e+; c+L.L.1 {.P. +,  +_ o.3+m.C.3       ",
"        f.T.r v+#.2 $.e v ) ^ I <.A.!  +} , :+o.3++.-.T 3     ",
"        ]+A r v+n.A |+e Q Q 8 o+6.@+y K 9 G+x.k H.W.^.q.j+    ",
"      4+,.8+r v+n+I.$.o.6.o+ . . .:+, Y.K _ (.L H.f ^.B+j+o   ",
"      t.* u [.n+r <+b.z+L k p p p 8.|+x q 5+f+L 9.W.-.B+j+j+  ",
"      ~+0+u k.n+u A b.*+K z+K K G+K q q G+_ |.V t >+-.< j+j+  ",
"    j.~+0+y.k.[.k.A x *+*+|+C C [+4+z+@.5+$+|.V 5.'+p+B+_+w.E ",
"    !+* ..9+u r 9+* t.*+3.*.*.[+4+z+z+@.5+$+l.i+5.'+&.B+_+E w.",
"    G.* 0+8+k.k.y.~+t.!.6+!.*.4+z+j.5+5+/+$+d+^+r.q+z.b _+c.w.",
"    (+R 0+..k.k.8+k+,.3.3.*.*.j.@.0 5+/+;+(.Z.H.+.q+&.p.E w.w.",
"    ;.7+N ..}.}.0+]+}+3.*.*.j.j.G.0 (+/+l c L `.{+^.&.X c.w.. ",
"    ~ 2+R 0+9+8+0.t.}+7+!+!+w G.a+W W O S.2+` 9.{++ D.X c.w.. ",
"    Z.a.t+-+....N > 7+/ !+w 0 0 /+/+l l F+=+l+9.B /.B+X w.. . ",
"      ,+> -+..-+* > / / j.G.(+(+7.W l F+;.=+A+' B ++B+c.w..   ",
"      L ,+R ..-+R Q.!+w C+a+(+7.O O S.,+2+~ n 5.'.++b X w.w.  ",
"      = i r+-+-+t+Q.w G.a+d 7.O S.S.S.;.R.~ n U '.{ X w.. w.  ",
"        A+,+R N r+w G.a+d W O l S.,+,+J i J.u+s.%+{ b . w.    ",
"        U u+x+R > w a+(+7.O x+x+S.J 2+R.=+J.e.{+%+D.X . w.    ",
"          {+.+x+/ C+d #+#+x+S.,+J ;.a.a.| = .+{+++b . w.      ",
"            '.' | ,+O O O x+S.,+J 2+R.=+&+A+' '.b w+.         ",
"              b /.' ~ i J ,+J J a.i i | J.@ : < . w.          ",
"                w.b /.s.= i a.a.i &+` 4.9.++X . .             ",
"                    . b B @ = = A+' ++D.< . w.                ",
"                          b D.D.D.b . .                       "};
