<?xml version="1.0" encoding="UTF-8" standalone="no"?>
<!-- Created with Inkscape (http://www.inkscape.org/) -->

<svg
   xmlns:dc="http://purl.org/dc/elements/1.1/"
   xmlns:cc="http://creativecommons.org/ns#"
   xmlns:rdf="http://www.w3.org/1999/02/22-rdf-syntax-ns#"
   xmlns:svg="http://www.w3.org/2000/svg"
   xmlns="http://www.w3.org/2000/svg"
   xmlns:xlink="http://www.w3.org/1999/xlink"
   xmlns:sodipodi="http://sodipodi.sourceforge.net/DTD/sodipodi-0.dtd"
   xmlns:inkscape="http://www.inkscape.org/namespaces/inkscape"
   width="31.108028mm"
   height="31.074406mm"
   viewBox="0 0 110.2253 110.10616"
   id="svg5427"
   version="1.1"
   inkscape:version="0.91 r13725"
   sodipodi:docname="control.svg">
  <defs
     id="defs5429">
    <linearGradient
       id="linearGradient4252">
      <stop
         offset="0.00000000"
         style="stop-color:#ffffff;stop-opacity:1"
         id="stop4254" />
      <stop
         offset="1.00000000"
         style="stop-color:#828282;stop-opacity:1"
         id="stop4256" />
    </linearGradient>
    <linearGradient
       id="linearGradient4221">
      <stop
         id="stop4223"
         style="stop-color:#7fff00;stop-opacity:1"
         offset="0.00000000" />
      <stop
         id="stop4225"
         style="stop-color:#104900;stop-opacity:1"
         offset="1.00000000" />
    </linearGradient>
    <linearGradient
       id="linearGradient725">
      <stop
         id="stop4207"
         style="stop-color:#B0B0B0;stop-opacity:1;"
         offset="0.00000000" />
      <stop
         id="stop4209"
         style="stop-color:#303030;stop-opacity:1;"
         offset="1.00000000" />
    </linearGradient>
    <radialGradient
       gradientUnits="userSpaceOnUse"
       gradientTransform="matrix(0.9193913,0,0,1.0876762,175.98211,584.51441)"
       xlink:href="#linearGradient725"
       id="radialGradient723"
       cx="215.37164"
       cy="61.8265"
       r="25.777763"
       fx="215.37164"
       fy="61.8265" />
    <linearGradient
       id="linearGradient4211">
      <stop
         offset="0.00000000"
         style="stop-color:#B0B0B0;stop-opacity:1;"
         id="stop726" />
      <stop
         offset="1.00000000"
         style="stop-color:#303030;stop-opacity:1;"
         id="stop727" />
    </linearGradient>
    <linearGradient
       gradientUnits="userSpaceOnUse"
       gradientTransform="matrix(0.9193913,0,0,1.0876762,175.98211,584.51441)"
       xlink:href="#linearGradient725"
       id="linearGradient710"
       x1="169.95549"
       y1="30.055435"
       x2="182.55409"
       y2="53.350994" />
    <radialGradient
       gradientUnits="userSpaceOnUse"
       gradientTransform="matrix(0.43680345,0,0,0.83395637,439.18471,59.187117)"
       xlink:href="#linearGradient711"
       id="radialGradient714"
       cx="-106.26583"
       cy="748.03058"
       r="106.37013"
       fx="-106.26583"
       fy="748.03058" />
    <linearGradient
       id="linearGradient711">
      <stop
         offset="0.00000000"
         style="stop-color:#ffffff;stop-opacity:1;"
         id="stop712" />
      <stop
         offset="1.00000000"
         style="stop-color:#ffff00;stop-opacity:1;"
         id="stop713" />
    </linearGradient>
    <linearGradient
       gradientUnits="userSpaceOnUse"
       xlink:href="#linearGradient725"
       id="linearGradient728"
       x1="-223.20419"
       y1="680.45337"
       x2="-205.12636"
       y2="713.88037"
       gradientTransform="matrix(0.43680345,0,0,0.83395637,439.18471,59.187117)" />
    <linearGradient
       gradientUnits="userSpaceOnUse"
       gradientTransform="matrix(0.89386555,0,0,1.1187365,175.98211,584.51441)"
       xlink:href="#linearGradient707"
       id="linearGradient706"
       x1="196.16074"
       y1="52.838055"
       x2="200.14149"
       y2="67.915199" />
    <linearGradient
       id="linearGradient707">
      <stop
         offset="0.00000000"
         style="stop-color:#ffff00;stop-opacity:1;"
         id="stop708" />
      <stop
         offset="1.00000000"
         style="stop-color:#9a9d00;stop-opacity:1;"
         id="stop709" />
    </linearGradient>
    <linearGradient
       gradientUnits="userSpaceOnUse"
       xlink:href="#linearGradient725"
       id="linearGradient729"
       x1="188.12144"
       y1="35.577488"
       x2="198.61748"
       y2="54.985245"
       gradientTransform="matrix(0.89386555,0,0,1.1187365,175.98211,584.51441)" />
    <radialGradient
       inkscape:collect="always"
       xlink:href="#linearGradient4252"
       id="radialGradient4250"
       cx="375.64713"
       cy="710.70453"
       fx="375.64713"
       fy="710.70453"
       r="46.547604"
       gradientTransform="matrix(2.1392452,0.002059,-0.00161798,1.6810239,-426.80428,-484.76101)"
       gradientUnits="userSpaceOnUse" />
    <radialGradient
       inkscape:collect="always"
       xlink:href="#linearGradient725"
       id="radialGradient4288"
       cx="318.44727"
       cy="602.56055"
       fx="318.44727"
       fy="602.56055"
       r="46.547604"
       gradientTransform="matrix(1.2169859,0,0,1.2143312,-354.53345,-658.04558)"
       gradientUnits="userSpaceOnUse" />
    <linearGradient
       inkscape:collect="always"
       xlink:href="#linearGradient725"
       id="linearGradient4576"
       x1="5.7463436"
       y1="45.476013"
       x2="75.818069"
       y2="107.85293"
       gradientUnits="userSpaceOnUse" />
    <linearGradient
       inkscape:collect="always"
       xlink:href="#linearGradient725"
       id="linearGradient4584"
       gradientUnits="userSpaceOnUse"
       x1="5.7463436"
       y1="45.476013"
       x2="75.818069"
       y2="107.85293" />
    <radialGradient
       inkscape:collect="always"
       xlink:href="#linearGradient725"
       id="radialGradient4586"
       gradientUnits="userSpaceOnUse"
       gradientTransform="matrix(1.2169859,0,0,1.2143312,-354.53345,-658.04558)"
       cx="318.44727"
       cy="602.56055"
       fx="318.44727"
       fy="602.56055"
       r="46.547604" />
    <radialGradient
       inkscape:collect="always"
       xlink:href="#linearGradient4252"
       id="radialGradient4588"
       gradientUnits="userSpaceOnUse"
       gradientTransform="matrix(2.1392452,0.002059,-0.00161798,1.6810239,-426.80428,-484.76101)"
       cx="375.64713"
       cy="710.70453"
       fx="375.64713"
       fy="710.70453"
       r="46.547604" />
  </defs>
  <sodipodi:namedview
     id="base"
     pagecolor="#ffffff"
     bordercolor="#666666"
     borderopacity="1.0"
     inkscape:pageopacity="0.0"
     inkscape:pageshadow="2"
     inkscape:zoom="0.98994949"
     inkscape:cx="-95.823739"
     inkscape:cy="48.463757"
     inkscape:document-units="px"
     inkscape:current-layer="layer1"
     showgrid="false"
     fit-margin-top="0"
     fit-margin-left="0"
     fit-margin-right="0"
     fit-margin-bottom="0"
     inkscape:window-width="1262"
     inkscape:window-height="854"
     inkscape:window-x="56"
     inkscape:window-y="55"
     inkscape:window-maximized="0" />
  <metadata
     id="metadata5432">
    <rdf:RDF>
      <cc:Work
         rdf:about="">
        <dc:format>image/svg+xml</dc:format>
        <dc:type
           rdf:resource="http://purl.org/dc/dcmitype/StillImage" />
        <dc:title></dc:title>
      </cc:Work>
    </rdf:RDF>
  </metadata>
  <g
     inkscape:label="Layer 1"
     inkscape:groupmode="layer"
     id="layer1"
     transform="translate(-324.95125,-662.74491)">
    <path
       style="fill:url(#linearGradient4584);fill-opacity:1;stroke:url(#radialGradient4586);stroke-width:7.69999981;stroke-linejoin:round;stroke-miterlimit:4;stroke-dasharray:none;stroke-opacity:1"
       d="m 58.109375,56.902344 a 51.596684,51.470417 0 0 0 -11.021484,2.349609 l 2.060547,4.628906 a 46.326458,45.447418 66.005307 0 0 -5.039063,1.84961 46.326458,45.447418 66.005307 0 0 -4.740234,2.527343 l -2.052735,-4.611328 a 51.596684,51.470417 0 0 0 -7.738281,5.433594 l 3.767578,3.550781 a 46.326458,45.447418 43.301342 0 0 -3.933594,3.650391 46.326458,45.447418 43.301342 0 0 -3.398437,4.160156 l -3.802734,-3.585937 a 51.596684,51.470417 0 0 0 -4.496094,7.095703 l 4.755859,1.919922 a 46.326458,45.447418 21.982514 0 0 -2.337891,4.830078 46.326458,45.447418 21.982514 0 0 -1.652343,5.111328 l -4.804688,-1.939453 a 51.596684,51.470417 0 0 0 -1.785156,8.873043 l 5.273437,0 a 46.326458,45.447418 0 0 0 -0.359374,5.35547 46.326458,45.447418 0 0 0 0.380859,5.35742 l -5.316406,0 a 51.596684,51.470417 0 0 0 1.666015,8.42383 l 4.716797,-1.86328 a 45.447418,46.326458 68.449545 0 0 1.632813,5.11328 45.447418,46.326458 68.449545 0 0 2.322265,4.84375 l -4.699219,1.85547 a 51.596684,51.470417 0 0 0 4.816407,7.54883 l 3.765625,-3.57422 a 45.447418,46.326458 46.507265 0 0 3.427734,4.13281 45.447418,46.326458 46.507265 0 0 3.962891,3.62305 l -3.761719,3.56836 a 51.596684,51.470417 0 0 0 6.587891,4.82422 l 2.232421,-4.69141 a 45.447418,46.326458 25.443067 0 0 4.683594,2.625 45.447418,46.326458 25.443067 0 0 5,1.95508 l -2.228515,4.68555 a 51.596684,51.470417 0 0 0 11.388671,2.66015 L 57.419922,154 a 45.447418,46.326458 0.40608901 0 0 5.355469,0.39648 45.447418,46.326458 0.40608901 0 0 5.357421,-0.34375 l -0.03711,5.25586 a 51.596684,51.470417 0 0 0 10.798828,-2.25195 l -2.148437,-4.82812 a 46.326458,45.447418 66.005307 0 0 5.039062,-1.85157 46.326458,45.447418 66.005307 0 0 4.738282,-2.52539 l 2.164062,4.86328 a 51.596684,51.470417 0 0 0 8.042969,-5.63086 l -3.824219,-3.60546 a 46.326458,45.447418 43.301342 0 0 3.933594,-3.65235 46.326458,45.447418 43.301342 0 0 3.396487,-4.16015 l 3.85351,3.63281 a 51.596684,51.470417 0 0 0 4.4961,-7.11328 l -4.87305,-1.9668 a 46.326458,45.447418 21.982514 0 0 2.33594,-4.83398 46.326458,45.447418 21.982514 0 0 1.65234,-5.10938 l 4.90821,1.98047 a 51.596684,51.470417 0 0 0 1.76367,-8.79688 l -5.27344,0 a 46.326458,45.447418 0 0 0 0.35742,-5.35742 46.326458,45.447418 0 0 0 -0.38086,-5.35547 l 5.31836,0 a 51.596684,51.470417 0 0 0 -1.6875,-8.511715 l -5.01172,1.980469 a 45.447418,46.326458 68.449545 0 0 -1.63476,-5.115235 45.447418,46.326458 68.449545 0 0 -2.32227,-4.839843 l 4.97852,-1.966797 a 51.596684,51.470417 0 0 0 -4.82618,-7.53125 l -3.73242,3.541015 a 45.447418,46.326458 46.507265 0 0 -3.423826,-4.132812 45.447418,46.326458 46.507265 0 0 -3.964844,-3.625 l 3.712891,-3.523438 a 51.596684,51.470417 0 0 0 -6.572266,-4.798828 l -2.201172,4.625 a 45.447418,46.326458 25.443067 0 0 -4.68164,-2.626953 45.447418,46.326458 25.443067 0 0 -5,-1.957031 L 80.21875,59.658203 A 51.596684,51.470417 0 0 0 68.822266,57.007812 l -0.03711,5.134766 a 45.447418,46.326458 0.40608901 0 0 -5.353515,-0.396484 45.447418,46.326458 0.40608901 0 0 -5.359375,0.341797 l 0.03711,-5.185547 z"
       transform="translate(316.93206,609.69252)"
       id="path4240-2"
       inkscape:connector-curvature="0" />
    <ellipse
       style="fill:url(#radialGradient4588);fill-opacity:1;stroke:#ffffff;stroke-width:8.30099297;stroke-linejoin:round;stroke-miterlimit:4;stroke-dasharray:none;stroke-opacity:1"
       id="path4240"
       cx="379.94028"
       cy="717.79486"
       rx="42.397106"
       ry="42.270836" />
    <rect
       style="fill:#ff9855;fill-opacity:1;stroke:none;stroke-width:1;stroke-linejoin:round;stroke-miterlimit:4;stroke-dasharray:none;stroke-opacity:1"
       id="rect4238"
       width="55.705906"
       height="9.5065918"
       x="-355.68793"
       y="746.02344"
       transform="matrix(0.63862572,-0.7695175,0.76093494,0.64882819,0,0)" />
    <path
       id="path4578"
       transform="translate(316.93206,609.69252)"
       d="m 58.109375,56.902344 a 51.596684,51.470417 0 0 0 -11.021484,2.349609 l 2.060547,4.628906 a 46.326458,45.447418 66.005307 0 0 -5.039063,1.84961 46.326458,45.447418 66.005307 0 0 -4.740234,2.527343 l -2.052735,-4.611328 a 51.596684,51.470417 0 0 0 -7.738281,5.433594 l 3.767578,3.550781 a 46.326458,45.447418 43.301342 0 0 -3.933594,3.650391 46.326458,45.447418 43.301342 0 0 -3.398437,4.160156 l -3.802734,-3.585937 a 51.596684,51.470417 0 0 0 -4.496094,7.095703 l 4.755859,1.919922 a 46.326458,45.447418 21.982514 0 0 -2.337891,4.830078 46.326458,45.447418 21.982514 0 0 -1.652343,5.111328 l -4.804688,-1.939453 a 51.596684,51.470417 0 0 0 -1.785156,8.873043 l 5.273437,0 a 46.326458,45.447418 0 0 0 -0.359374,5.35547 46.326458,45.447418 0 0 0 0.380859,5.35742 l -5.316406,0 a 51.596684,51.470417 0 0 0 1.666015,8.42383 l 4.716797,-1.86328 a 45.447418,46.326458 68.449545 0 0 1.632813,5.11328 45.447418,46.326458 68.449545 0 0 2.322265,4.84375 l -4.699219,1.85547 a 51.596684,51.470417 0 0 0 4.816407,7.54883 l 3.765625,-3.57422 a 45.447418,46.326458 46.507265 0 0 3.427734,4.13281 45.447418,46.326458 46.507265 0 0 3.962891,3.62305 l -3.761719,3.56836 a 51.596684,51.470417 0 0 0 6.587891,4.82422 l 2.232421,-4.69141 a 45.447418,46.326458 25.443067 0 0 4.683594,2.625 45.447418,46.326458 25.443067 0 0 5,1.95508 l -2.228515,4.68555 a 51.596684,51.470417 0 0 0 11.388671,2.66015 L 57.419922,154 a 45.447418,46.326458 0.40608901 0 0 5.355469,0.39648 45.447418,46.326458 0.40608901 0 0 5.357421,-0.34375 l -0.03711,5.25586 a 51.596684,51.470417 0 0 0 10.798828,-2.25195 l -2.148437,-4.82812 a 46.326458,45.447418 66.005307 0 0 5.039062,-1.85157 46.326458,45.447418 66.005307 0 0 4.738282,-2.52539 l 2.164062,4.86328 a 51.596684,51.470417 0 0 0 8.042969,-5.63086 l -3.824219,-3.60546 a 46.326458,45.447418 43.301342 0 0 3.933594,-3.65235 46.326458,45.447418 43.301342 0 0 3.396487,-4.16015 l 3.85351,3.63281 a 51.596684,51.470417 0 0 0 4.4961,-7.11328 l -4.87305,-1.9668 a 46.326458,45.447418 21.982514 0 0 2.33594,-4.83398 46.326458,45.447418 21.982514 0 0 1.65234,-5.10938 l 4.90821,1.98047 a 51.596684,51.470417 0 0 0 1.76367,-8.79688 l -5.27344,0 a 46.326458,45.447418 0 0 0 0.35742,-5.35742 46.326458,45.447418 0 0 0 -0.38086,-5.35547 l 5.31836,0 a 51.596684,51.470417 0 0 0 -1.6875,-8.511715 l -5.01172,1.980469 a 45.447418,46.326458 68.449545 0 0 -1.63476,-5.115235 45.447418,46.326458 68.449545 0 0 -2.32227,-4.839843 l 4.97852,-1.966797 a 51.596684,51.470417 0 0 0 -4.82618,-7.53125 l -3.73242,3.541015 a 45.447418,46.326458 46.507265 0 0 -3.423826,-4.132812 45.447418,46.326458 46.507265 0 0 -3.964844,-3.625 l 3.712891,-3.523438 a 51.596684,51.470417 0 0 0 -6.572266,-4.798828 l -2.201172,4.625 a 45.447418,46.326458 25.443067 0 0 -4.68164,-2.626953 45.447418,46.326458 25.443067 0 0 -5,-1.957031 L 80.21875,59.658203 A 51.596684,51.470417 0 0 0 68.822266,57.007812 l -0.03711,5.134766 a 45.447418,46.326458 0.40608901 0 0 -5.353515,-0.396484 45.447418,46.326458 0.40608901 0 0 -5.359375,0.341797 l 0.03711,-5.185547 z"
       style="fill:url(#linearGradient4576);fill-opacity:1;stroke:url(#radialGradient4288);stroke-width:7.69999981;stroke-linejoin:round;stroke-miterlimit:4;stroke-dasharray:none;stroke-opacity:1"
       inkscape:connector-curvature="0" />
    <ellipse
       ry="42.270836"
       rx="42.397106"
       cy="717.79486"
       cx="379.94028"
       id="ellipse4580"
       style="fill:url(#radialGradient4250);fill-opacity:1;stroke:#ffffff;stroke-width:8.30099297;stroke-linejoin:round;stroke-miterlimit:4;stroke-dasharray:none;stroke-opacity:1" />
    <rect
       transform="matrix(0.63862572,-0.7695175,0.76093494,0.64882819,0,0)"
       y="746.02344"
       x="-355.68793"
       height="9.5065918"
       width="55.705906"
       id="rect4582"
       style="fill:#ff9855;fill-opacity:1;stroke:none;stroke-width:1;stroke-linejoin:round;stroke-miterlimit:4;stroke-dasharray:none;stroke-opacity:1" />
  </g>
</svg>
