<?xml version="1.0" encoding="UTF-8" standalone="no"?>
<!-- Created with Inkscape (http://www.inkscape.org/) -->

<svg
   xmlns:dc="http://purl.org/dc/elements/1.1/"
   xmlns:cc="http://creativecommons.org/ns#"
   xmlns:rdf="http://www.w3.org/1999/02/22-rdf-syntax-ns#"
   xmlns:svg="http://www.w3.org/2000/svg"
   xmlns="http://www.w3.org/2000/svg"
   xmlns:xlink="http://www.w3.org/1999/xlink"
   xmlns:sodipodi="http://sodipodi.sourceforge.net/DTD/sodipodi-0.dtd"
   xmlns:inkscape="http://www.inkscape.org/namespaces/inkscape"
   width="47.225487mm"
   height="23.555483mm"
   viewBox="0 0 167.3344 83.464309"
   id="svg8528"
   version="1.1"
   inkscape:version="0.91 r13725"
   sodipodi:docname="grab.svg">
  <defs
     id="defs8530">
    <linearGradient
       gradientUnits="userSpaceOnUse"
       gradientTransform="matrix(0.9083389,0,0,1.1009107,-68.378839,210.77618)"
       xlink:href="#linearGradient633"
       id="linearGradient636"
       x1="521.38684"
       y1="244.24693"
       x2="479.45837"
       y2="215.28035" />
    <linearGradient
       id="linearGradient633">
      <stop
         offset="0.00000000"
         style="stop-color:#303030;stop-opacity:1;"
         id="stop635" />
      <stop
         offset="1.00000000"
         style="stop-color:#b0b0b0;stop-opacity:1;"
         id="stop634" />
    </linearGradient>
    <radialGradient
       gradientUnits="userSpaceOnUse"
       gradientTransform="matrix(1.2788174,0,0,0.78197249,-68.378839,210.77618)"
       xlink:href="#linearGradient637"
       id="radialGradient640"
       cx="442.17053"
       cy="348.97025"
       r="67.201294"
       fx="442.6579"
       fy="347.30252" />
    <linearGradient
       id="linearGradient637">
      <stop
         offset="0.00000000"
         style="stop-color:#ffffff;stop-opacity:1;"
         id="stop638" />
      <stop
         offset="1.00000000"
         style="stop-color:#ffb468;stop-opacity:1;"
         id="stop639" />
    </linearGradient>
    <linearGradient
       gradientUnits="userSpaceOnUse"
       gradientTransform="matrix(1.2788174,0,0,0.78197249,-68.378839,210.77618)"
       xlink:href="#linearGradient633"
       id="linearGradient632"
       x1="411.19217"
       y1="284.13007"
       x2="383.02032"
       y2="257.61612" />
  </defs>
  <sodipodi:namedview
     id="base"
     pagecolor="#ffffff"
     bordercolor="#666666"
     borderopacity="1.0"
     inkscape:pageopacity="0.0"
     inkscape:pageshadow="2"
     inkscape:zoom="0.35"
     inkscape:cx="-551.3328"
     inkscape:cy="-38.267845"
     inkscape:document-units="px"
     inkscape:current-layer="layer1"
     showgrid="false"
     fit-margin-top="0"
     fit-margin-left="0"
     fit-margin-right="0"
     fit-margin-bottom="0"
     inkscape:window-width="1215"
     inkscape:window-height="634"
     inkscape:window-x="2723"
     inkscape:window-y="890"
     inkscape:window-maximized="0" />
  <metadata
     id="metadata8533">
    <rdf:RDF>
      <cc:Work
         rdf:about="">
        <dc:format>image/svg+xml</dc:format>
        <dc:type
           rdf:resource="http://purl.org/dc/dcmitype/StillImage" />
        <dc:title></dc:title>
      </cc:Work>
    </rdf:RDF>
  </metadata>
  <g
     inkscape:label="Layer 1"
     inkscape:groupmode="layer"
     id="layer1"
     transform="translate(-367.76137,-410.63005)">
    <path
       inkscape:connector-curvature="0"
       style="font-size:12px;fill:url(#linearGradient636);stroke-width:1pt"
       id="path631"
       d="m 401.15811,458.50168 c 1.61836,-0.23037 -4.20769,0.46482 -5.36252,0.56298 -4.79713,0.25358 -9.56136,0.3299 -14.31919,0.9897 -0.81983,0.28264 -3.42807,1.89073 -2.92426,1.60773 2.33383,1.23418 4.64494,2.19246 7.19554,3.06881 6.60863,2.70004 9.49412,4.74245 10.37755,11.91062 -3.06143,6.13426 -6.6676,8.10754 -13.01428,10.57217 -1.02574,0.42642 -3.85975,1.18981 -4.00891,2.34233 l -10.22264,-3.68601 c 2.83629,-3.86514 5.60136,-5.51217 10.02627,-7.33147 2.2996,-0.87336 4.362,-1.60522 6.23054,-3.15993 0.66989,0.21259 -2.88987,-1.67307 -3.44292,-1.8963 -6.35861,-2.23695 -10.1817,-4.06171 -13.93192,-9.69802 0.35363,-8.19962 3.74878,-10.41049 11.40474,-12.91038 5.18589,-0.69295 10.35113,-0.88912 15.56845,-1.24662 2.15519,-0.24263 4.27658,-0.63775 6.42355,-0.88999 l 0,9.76438 z" />
    <path
       inkscape:connector-curvature="0"
       style="font-size:12px;fill:url(#radialGradient640);fill-opacity:1;fill-rule:evenodd;stroke:url(#linearGradient632);stroke-width:9.75;stroke-linejoin:round"
       d="m 449.1313,415.50536 c -15.0926,0 -29.18008,1.90624 -41.28598,5.17475 -2.22824,10.62877 -3.43983,21.72268 -3.44049,33.14625 l 43.38384,-0.23308 -0.6247,-37.60308 c 0.48487,24.40487 0.96966,48.81526 1.45452,73.22016 0.17218,4.8e-4 0.34037,0.009 0.51281,0.009 44.76321,0 81.08948,-16.51024 81.08947,-36.85714 0,-20.34692 -36.32626,-36.85717 -81.08947,-36.85717 z m -0.51281,73.705 -0.72726,-35.51453 -43.4864,0.13987 c 0,10.31614 0.99786,20.36101 2.82512,30.04142 12.10412,3.33445 26.23431,5.28953 41.38854,5.33324 z M 404.40483,453.8357 c 0,-0.003 0,-0.006 0,-0.009 l -0.97901,0.009 0.97901,0 z"
       id="path673" />
  </g>
</svg>
