/* XPM */
static char *terminatorX[] = {
/* columns rows colors chars-per-pixel */
"32 32 127 2",
"   c #000000",
".  c #010101",
"X  c #020202",
"o  c #030303",
"O  c #040404",
"+  c #050505",
"@  c #060606",
"#  c #070707",
"$  c #080808",
"%  c #090909",
"&  c #0A0A0A",
"*  c #0B0B0B",
"=  c #0C0C0C",
"-  c #0D0D0D",
";  c #0E0E0E",
":  c #0F0F0F",
">  c #101010",
",  c #111111",
"<  c #121212",
"1  c #131313",
"2  c #141414",
"3  c #151515",
"4  c #161616",
"5  c #171717",
"6  c #181818",
"7  c #191919",
"8  c #1A1A1A",
"9  c #1B1B1B",
"0  c #1C1C1C",
"q  c #1D1D1D",
"w  c #1E1E1E",
"e  c #1F1F1F",
"r  c #202020",
"t  c #212121",
"y  c #232323",
"u  c #242424",
"i  c #252525",
"p  c #262626",
"a  c #272727",
"s  c #282828",
"d  c #292929",
"f  c #2A2A2A",
"g  c #2B2B2B",
"h  c #2C2C2C",
"j  c #2D2D2D",
"k  c #2E2E2E",
"l  c #2F2F2F",
"z  c #303030",
"x  c #323232",
"c  c #343434",
"v  c #353535",
"b  c #363636",
"n  c #383838",
"m  c #3A3A3A",
"M  c #3B3B3B",
"N  c #3D3D3D",
"B  c #3F3F3F",
"V  c #414141",
"C  c #434343",
"Z  c #444444",
"A  c #454545",
"S  c #4C4C4C",
"D  c #4E4E4E",
"F  c #545454",
"G  c #555555",
"H  c #585858",
"J  c #5C5C5C",
"K  c #5D5D5D",
"L  c #5E5E5E",
"P  c #616161",
"I  c #616262",
"U  c #626262",
"Y  c #656565",
"T  c #6B6B6B",
"R  c #717171",
"E  c #727272",
"W  c #737373",
"Q  c #747474",
"!  c #797979",
"~  c #7B7C7C",
"^  c #919090",
"/  c #939393",
"(  c #9C9C9C",
")  c #9E9E9E",
"_  c #A1A1A1",
"`  c #A5A5A5",
"'  c #A6A6A6",
"]  c #ABABAB",
"[  c #AEAEAE",
"{  c #B2B2B2",
"}  c #B5B5B5",
"|  c #BCBCBB",
" . c #C3C3C3",
".. c #C5C5C5",
"X. c #C7C7C7",
"o. c #C8C8C8",
"O. c #CBCBCB",
"+. c #CCCCCC",
"@. c #D0D0D0",
"#. c #D2D2D2",
"$. c #D8D8D9",
"%. c #DADADA",
"&. c #DDDEDE",
"*. c #E1E0E1",
"=. c #E1E1E1",
"-. c #E4E4E4",
";. c #E6E6E6",
":. c #E8E8E8",
">. c #E8E8E9",
",. c #EBE9ED",
"<. c #ECEBEC",
"1. c #ECECEC",
"2. c #EFEFF1",
"3. c #F1F0F0",
"4. c #F1F0F1",
"5. c #F1F1F3",
"6. c #F5F4F5",
"7. c #F6F6F6",
"8. c #F6F6F7",
"9. c #F8F7F9",
"0. c #F8F8F8",
"q. c #FAF9F9",
"w. c #FBFBFB",
"e. c #FDFDFD",
"r. c #FEFEFE",
"t. c gray100",
"y. c None",
/* pixels */
"y.y.y.y.y.y.y.y.y.y.y.y.y.y.y.y.y.y.y.y.y.y.y.y.y.y.y.y.y.y.y.y.",
"y.y.y.y.y.y.y.y.y.y.y.y.  O     O O O y.y.y.y.y.y.y.y.y.y.y.y.y.",
"y.y.y.y.y.y.y.y.y.> > 5 > 5 *   : > > > :   y.y.y.y.y.y.y.y.y.y.",
"y.y.y.y.y.y.y.: x l 5 * O           O O * : *   y.y.y.y.y.y.y.y.",
"y.y.y.y.y.y.f U B y 2 * O                 O * :     y.y.y.y.y.y.",
"y.y.y.y.y.y.G G B i > * O o                   * O   y.y.y.y.y.y.",
"y.y.y.y.l J T G n f 8 * o                       O O     y.y.y.y.",
"y.y.y.y.Q R U D V l > *                           * O   y.y.y.y.",
"y.y.y.l G J D D B q > *                             *     y.y.y.",
"y.y.* x Z V Z Z f q 5 * O                           O       y.y.",
"y.y.q l x l c f q 8 5 *   * q i 5                     *     y.y.",
"y.y.f q q q q > > 5 :   i ~ | O.[ U 8                 * O   y.y.",
"y.y.5 > : : * * * *   t ) 3.e.e.e.-.R >               O O   y.y.",
"y.y.> * O O O O       U :.q.6.8.e.$.' n               O O     y.",
"y.O > O   O         : / 3.3.&...$.} @.J O                     y.",
"y.O >               * / 5.,.*.{ ' @.-.U O             O O     y.",
"y.y.>                 U :.q.<.[ o.q.X.n O             O o     y.",
"y.y.:                 t _ <.o.O.q.*.E 5 * # O O       O O     y.",
"y.y.5 O                 l ! ) ..[ U 0 1 8 > : = # O o O       y.",
"y.y.8 :                   : i l t * : i f a y 2 * # $ *     y.y.",
"y.y.* :                           O > r z V x 9 1 * : #     y.y.",
"y.y.y.* *                         O * 8 c M g t 8 1 :       y.y.",
"y.y.y.  : O                       o * 5 i y i i q 8 O       y.y.",
"y.y.y.y.O :                         O : 1 9 q i q *       y.y.y.",
"y.y.y.y.    O O                       * : > q q *       y.y.y.y.",
"y.y.y.y.y.    * *                       * > 5 O         y.y.y.y.",
"y.y.y.y.y.y.    * O *             O   * * O         y.y.y.y.y.y.",
"y.y.y.y.y.y.y.        * O * O   O O * O           y.y.y.y.y.y.y.",
"y.y.y.y.y.y.y.y.y.                O             y.y.y.y.y.y.y.y.",
"y.y.y.y.y.y.y.y.y.y.                        y.y.y.y.y.y.y.y.y.y.",
"y.y.y.y.y.y.y.y.y.y.y.y.y.y.y.y.y.y.y.y.y.y.y.y.y.y.y.y.y.y.y.y.",
"y.y.y.y.y.y.y.y.y.y.y.y.y.y.y.y.y.y.y.y.y.y.y.y.y.y.y.y.y.y.y.y."
};
