/* XPM */
static char * knob9_xpm[] = {
"31 31 256 2",
"  	c None",
". 	c #0A0204",
"+ 	c #322626",
"@ 	c #5E5252",
"# 	c #8A7E7E",
"$ 	c #C2B2B2",
"% 	c #A69698",
"& 	c #AE363E",
"* 	c #C25272",
"= 	c #621622",
"- 	c #8E2A36",
"; 	c #AE5256",
"> 	c #C27E7E",
", 	c #4A0E16",
"' 	c #DA96A2",
") 	c #BAAAAC",
"! 	c #291A1C",
"~ 	c #6A262E",
"{ 	c #B67E86",
"] 	c #8E5A60",
"^ 	c #564649",
"/ 	c #E6B2BA",
"( 	c #BE969A",
"_ 	c #776A6A",
": 	c #928686",
"< 	c #221617",
"[ 	c #AEA2A2",
"} 	c #562E2E",
"| 	c #260A0A",
"1 	c #925E5E",
"2 	c #B65A5A",
"3 	c #9E8A8C",
"4 	c #CFB2B6",
"5 	c #822A36",
"6 	c #F0CED2",
"7 	c #4E3A3C",
"8 	c #B69A9D",
"9 	c #EA565A",
"0 	c #7E6262",
"a 	c #D89EA6",
"b 	c #1F1213",
"c 	c #B08288",
"d 	c #6A4242",
"e 	c #CEBABA",
"f 	c #726262",
"g 	c #C26E7A",
"h 	c #AA747A",
"i 	c #EE92B6",
"j 	c #E6BEC2",
"k 	c #502A2B",
"l 	c #BF9EA2",
"m 	c #1E0206",
"n 	c #9A464E",
"o 	c #A26A6A",
"p 	c #B2868A",
"q 	c #5E121A",
"r 	c #B29698",
"s 	c #D2628A",
"t 	c #1A0A0B",
"u 	c #847678",
"v 	c #C68A8A",
"w 	c #DA7276",
"x 	c #9E8E90",
"y 	c #C8AAAE",
"z 	c #423234",
"A 	c #C23E56",
"B 	c #664E52",
"C 	c #B68282",
"D 	c #D6A6AA",
"E 	c #DEBEC2",
"F 	c #3A1E1E",
"G 	c #583A3A",
"H 	c #AA9E9E",
"I 	c #6A5458",
"J 	c #4A2A2A",
"K 	c #E2AAB2",
"L 	c #E2C2C6",
"M 	c #9E8084",
"N 	c #B68E90",
"O 	c #922E3E",
"P 	c #0E0202",
"Q 	c #B6A2A3",
"R 	c #9A8E8E",
"S 	c #D6828E",
"T 	c #826A6A",
"U 	c #BEA6A8",
"V 	c #8E7A7E",
"W 	c #EFC9CE",
"X 	c #341A1A",
"Y 	c #AA9698",
"Z 	c #160203",
"` 	c #EE6282",
" .	c #562226",
"..	c #BE7276",
"+.	c #D2C2C6",
"@.	c #BA4646",
"#.	c #EADEDE",
"$.	c #CE4E56",
"%.	c #DEAEB4",
"&.	c #C2AAAA",
"*.	c #9A7276",
"=.	c #B29EA1",
"-.	c #6E5A5E",
";.	c #AA666A",
">.	c #DAB5B9",
",.	c #B4646E",
"'.	c #CAA2A6",
").	c #3B2E2E",
"!.	c #6A222E",
"~.	c #9E9292",
"{.	c #A63646",
"].	c #7C3C40",
"^.	c #DABEC2",
"/.	c #AB9296",
"(.	c #5D4E4F",
"_.	c #6A161E",
":.	c #2A1619",
"<.	c #9A868A",
"[.	c #A42838",
"}.	c #7E7272",
"|.	c #62484C",
"1.	c #B69EA1",
"2.	c #C6B6B6",
"3.	c #2E2222",
"4.	c #120607",
"5.	c #3B292A",
"6.	c #B6A6A7",
"7.	c #E8CACE",
"8.	c #9E5656",
"9.	c #6E4E4E",
"0.	c #AA9A9B",
"a.	c #BA5672",
"b.	c #BEAEAF",
"c.	c #8E8283",
"d.	c #9C7A7C",
"e.	c #7A5E5E",
"f.	c #220E0E",
"g.	c #D6BEC0",
"h.	c #A69295",
"i.	c #CA969E",
"j.	c #BE565A",
"k.	c #320E12",
"l.	c #C4A6A8",
"m.	c #261214",
"n.	c #7E6666",
"o.	c #CEADAF",
"p.	c #120203",
"q.	c #B6868A",
"r.	c #BE6666",
"s.	c #C6A0A4",
"t.	c #E2BABE",
"u.	c #D6B6BA",
"v.	c #76565A",
"w.	c #D67A86",
"x.	c #6E1E26",
"y.	c #A68E92",
"z.	c #524242",
"A.	c #C29292",
"B.	c #A67A7E",
"C.	c #5E4246",
"D.	c #877173",
"E.	c #B29A9D",
"F.	c #E07288",
"G.	c #331E21",
"H.	c #BFA2A6",
"I.	c #BE8686",
"J.	c #4A3436",
"K.	c #968A8B",
"L.	c #5F3133",
"M.	c #C24A5A",
"N.	c #741622",
"O.	c #8A6666",
"P.	c #E3C6CB",
"Q.	c #42262A",
"R.	c #D0B6BA",
"S.	c #180607",
"T.	c #B64E52",
"U.	c #B66A6A",
"V.	c #7E424A",
"W.	c #A28E91",
"X.	c #B29296",
"Y.	c #BAA6A8",
"Z.	c #BA8E92",
"`.	c #D6AAAE",
" +	c #8A777A",
".+	c #422E32",
"++	c #EAC6CA",
"@+	c #D2BEBE",
"#+	c #C2AEB0",
"$+	c #B2A6A6",
"%+	c #968689",
"&+	c #AE9699",
"*+	c #A27376",
"=+	c #C6AEB1",
"-+	c #352225",
";+	c #A29294",
">+	c #7A666A",
",+	c #CAA6AA",
"'+	c #7E6E6E",
")+	c #655556",
"!+	c #D9C2C3",
"~+	c #CAB6B8",
"{+	c #E9BAC2",
"]+	c #C89090",
"^+	c #584A4C",
"/+	c #965A5E",
"(+	c #865E62",
"_+	c #B2727A",
":+	c #EEBEC2",
"<+	c #5E2228",
"[+	c #764C4C",
"}+	c #BA969A",
"|+	c #AE9A9B",
"1+	c #928284",
"2+	c #290E0F",
"3+	c #1A0E0E",
"4+	c #6C5E60",
"5+	c #A28686",
"6+	c #8E7E80",
"7+	c #C29A9E",
"8+	c #BAA2A6",
"9+	c #CA8282",
"0+	c #520A12",
"a+	c #D2BABC",
"b+	c #422222",
"c+	c #DE8286",
"d+	c #BA9EA2",
"e+	c #725E5E",
"f+	c #A69A9A",
"g+	c #523E40",
"h+	c #9A8A8B",
"i+	c #CABABA",
"j+	c #BE9A9E",
"k+	c #DEC2C4",
"l+	c #CA8E9A",
"m+	c #BEAAAE",
"n+	c #BE8A92",
"o+	c #2A1E1E",
"p+	c #756668",
"q+	c #7A6E6E",
"r+	c #472E2F",
"s+	c #B78A8E",
"t+	c #BE9292",
"u+	c #D2AEB2",
"v+	c #BA9A9E",
"w+	c #A28A8D",
"x+	c #C6B2B3",
"y+	c #B2A2A4",
"z+	c #AE9E9F",
"A+	c #2E1616",
"B+	c #CAAEB2",
"C+	c #1E0608",
"D+	c #867A7A",
"E+	c #423636",
"F+	c #5A3E42",
"G+	c #B69292",
"                                                              ",
"                                                              ",
"                          8 8+=+=+=.Y y.                      ",
"                    4 4 4 =+#+#+b.) 6.6.=.1+D.                ",
"                >.E g.e e ~+~+x+#+m+) ) y+0.;+1+-.            ",
"              t.7.P.^.^.a+a+R.x+x+#+m+) 6.$+[ ;+D+>+          ",
"            {+W W 7.P.L ^.g.g.e ~+2.#+#+b.) $+z+f+1+)+        ",
"          / W W 7.++P.P.P.k+!+g.@+e ~+2.$ b.) 6.y+f+}.g+      ",
"        l+{+:+{+{+j L E k+k+!+g.g.@+e R.2.x+$ b.) 6.~.4+.+    ",
"        ' K K K %.>.>.u.R.R.u.R.R.R.~+2.x+2.b.b.b.) 6.R @     ",
"      S ' ' a a D D `.`.o.B+x+=+=+=+#+#+b.b.b.) ) $+6.[ D+G.  ",
"      w.g 2 ,._+{ s+G+j+,+y l.y m+U Y.8+8+6.y+[ [ [ H H c.-+  ",
"    ` F.M.{.5 !.<+ .L.(+( ,+l.H.U 8+6.Q 1.z+z+0.0.0.% % # 3.  ",
"    F.i s a.O q 0+, L.(+7+l.H.l.8+8+1.y+z+=.|+0.% ;+;+R D+5.4.",
"  9 c+#.+.* [.N.q <+] B.'.l.l l d+8+1.E.|+0.0.% % ;+;+~.c.^ 3+",
"    $.w i.A [.N.= ].o c s.s.8+d+1.=.E.=.0.0.Y % ~.~.R K.K.p+b ",
"    T.@.j.& - x.~ _+c s+}+j+d+v+8 E.|+&+Y h.h.;+~.x R K.: _ < ",
"    2 r.,.; n ].].n+Z.t+7+l v+1.8 E.&+Y /.% ;+W.x h+h+: # ^+t ",
"    ,.> > g ;.] ] p 7+o.j+8 8 E.|+&+&+% h.;+~.x R K.%+c.}.3.. ",
"    8.;.v l+C _+*.s+'.o.l 8 }+r &+&+% h.W.W.3 h+h+%+: c.4+b . ",
"      1 c A.A.Z.Z.}+7+l v+E.&+/.Y /.h.;+x x h+%+%+%+c.q++ P   ",
"      V.[+*+p N G+N X.r /./.&+&+/.y.W.W.3 h+h+K.: c.c._ b P   ",
"      L.k d O.*.d.d.M M 5+5+w+3 3 3 <.3 h+%+%+1+1+# }.-.3+p.  ",
"        k k G 9.v.e.e.n.O.D.D.D. +V 6+6+6+6+V # V '+^+< 4.    ",
"        k J b+r+7 F+C.|.|.B I I -.e+f f >+_ T q+p+(.< P p.    ",
"          k A+k.F Q.r+r+J.J.7 7 g+F+z.^+(.(.@ ^ ).b p.p.      ",
"            k.| 2+A+! X -+G.+ 5.5.5.5.).z E+).b 4.P p.        ",
"              | C+Z m f.2+m.A+< :.! ! ! o+! t P . P           ",
"                | S.S.S.Z Z C+t S.S.S.p.p.P P p.p.            ",
"                    Q.2+Z p.p.p.P P P P P p.p.                ",
"                          p.p.p.P P P p.                      "};
