/* XPM */
static char * knob2_xpm[] = {
"31 31 256 2",
"  	c None",
". 	c #0E0202",
"+ 	c #3A2E2A",
"@ 	c #827A76",
"# 	c #E6DAD6",
"$ 	c #CEC2C2",
"% 	c #A63632",
"& 	c #A29693",
"* 	c #6E5E5E",
"= 	c #581A14",
"- 	c #C1B2B0",
"; 	c #2A221E",
"> 	c #82322A",
", 	c #C8968E",
"' 	c #3A0A02",
") 	c #A6463A",
"! 	c #AE7A73",
"~ 	c #A69E9A",
"{ 	c #271A1A",
"] 	c #5E524E",
"^ 	c #A65A4A",
"/ 	c #280604",
"( 	c #928682",
"_ 	c #8E5E5A",
": 	c #763830",
"< 	c #7A423A",
"[ 	c #B6AAA7",
"} 	c #221614",
"| 	c #584646",
"1 	c #CA5E52",
"2 	c #E6C6BE",
"3 	c #AF8681",
"4 	c #BA9A96",
"5 	c #211210",
"6 	c #F2DADA",
"7 	c #817673",
"8 	c #C8A09A",
"9 	c #DBB6B2",
"0 	c #BA9E9A",
"a 	c #1F0602",
"b 	c #F2E2E1",
"c 	c #7A2A22",
"d 	c #422420",
"e 	c #824E46",
"f 	c #9E7E7A",
"g 	c #AA6E62",
"h 	c #B39692",
"i 	c #726262",
"j 	c #8E6662",
"k 	c #A28A86",
"l 	c #B18A85",
"m 	c #E3CECA",
"n 	c #160202",
"o 	c #CBBEBA",
"p 	c #361E1A",
"q 	c #CA6656",
"r 	c #523636",
"s 	c #B29E9B",
"t 	c #FEE2E0",
"u 	c #CE9286",
"v 	c #C6A6A2",
"w 	c #807272",
"x 	c #F2D2CE",
"y 	c #CEB686",
"z 	c #C23E3A",
"A 	c #924A42",
"B 	c #DECECA",
"C 	c #968A88",
"D 	c #8E7674",
"E 	c #766666",
"F 	c #27120F",
"G 	c #D6A69E",
"H 	c #453635",
"I 	c #D0B2AE",
"J 	c #724E46",
"K 	c #94807E",
"L 	c #A23E2E",
"M 	c #72221A",
"N 	c #CA7E66",
"O 	c #2E2222",
"P 	c #AA9694",
"Q 	c #825E56",
"R 	c #9A564A",
"S 	c #B2A2A0",
"T 	c #BA3632",
"U 	c #EED2CE",
"V 	c #5A2A26",
"W 	c #190A09",
"X 	c #6A5656",
"Y 	c #C2AAA6",
"Z 	c #FAE2E0",
"` 	c #C2847A",
" .	c #4A1E1A",
"..	c #C6705C",
"+.	c #B25E4A",
"@.	c #C6523E",
"#.	c #815A55",
"$.	c #BE8E86",
"%.	c #7A6666",
"&.	c #E2D2D1",
"*.	c #A38E8B",
"=.	c #B08E8A",
"-.	c #D2A6A0",
";.	c #9A726E",
">.	c #D47460",
",.	c #362A26",
"'.	c #9A8E8C",
").	c #4E2E2A",
"!.	c #D7C6C2",
"~.	c #502822",
"{.	c #F2E6E3",
"].	c #EEE2E0",
"^.	c #AEA2A0",
"/.	c #87625D",
"(.	c #7E6A66",
"_.	c #BAAAA8",
":.	c #92362A",
"<.	c #AE5242",
"[.	c #C7B6B3",
"}.	c #4C3E3E",
"|.	c #A2665E",
"1.	c #867A7A",
"2.	c #160602",
"3.	c #E1BEBB",
"4.	c #C7AEAA",
"5.	c #BAA29E",
"6.	c #120202",
"7.	c #BA928E",
"8.	c #B47466",
"9.	c #B2A6A5",
"0.	c #301E1A",
"a.	c #614643",
"b.	c #D4A096",
"c.	c #3E1612",
"d.	c #A59A98",
"e.	c #C27672",
"f.	c #F8DAD7",
"g.	c #AA8E8C",
"h.	c #D6BEBA",
"i.	c #62322E",
"j.	c #200A09",
"k.	c #FEEAE6",
"l.	c #DACACA",
"m.	c #BAAEAD",
"n.	c #735655",
"o.	c #9E9290",
"p.	c #AA9A98",
"q.	c #BAA6A4",
"r.	c #440E08",
"s.	c #CEB6B4",
"t.	c #621A12",
"u.	c #86423A",
"v.	c #4B3633",
"w.	c #FAE6E5",
"x.	c #120605",
"y.	c #5E4E4E",
"z.	c #8E8282",
"A.	c #875752",
"B.	c #CAB2AE",
"C.	c #56221A",
"D.	c #D8AEA8",
"E.	c #D2AE96",
"F.	c #863E32",
"G.	c #887672",
"H.	c #836A66",
"I.	c #EEDEDD",
"J.	c #AE9E9B",
"K.	c #2E0602",
"L.	c #957671",
"M.	c #BA8A86",
"N.	c #B46C62",
"O.	c #E7D6D4",
"P.	c #C62E2A",
"Q.	c #B49A96",
"R.	c #F9DEDC",
"S.	c #A29292",
"T.	c #CE9890",
"U.	c #B6827E",
"V.	c #DEC2C0",
"W.	c #8E7E7E",
"X.	c #BFA6A2",
"Y.	c #F6E6E5",
"Z.	c #665A56",
"`.	c #7A4A46",
" +	c #422A26",
".+	c #CA765E",
"++	c #BA6656",
"@+	c #FEE6E4",
"#+	c #A69695",
"$+	c #D2BEBA",
"%+	c #CEAAA6",
"&+	c #1A0202",
"*+	c #AA8A86",
"=+	c #B6A6A5",
"-+	c #EED6D5",
";+	c #C2AEAB",
">+	c #3C2626",
",+	c #B0928E",
"'+	c #EEC6C2",
")+	c #998685",
"!+	c #C19A93",
"~+	c #F6E2DF",
"{+	c #A6827E",
"]+	c #EACECA",
"^+	c #8A6662",
"/+	c #EADEDC",
"(+	c #665656",
"_+	c #9E8A86",
":+	c #D6BABA",
"<+	c #270A09",
"[+	c #E2D6D2",
"}+	c #C6BABA",
"|+	c #3B2A27",
"1+	c #B6A2A0",
"2+	c #1A0602",
"3+	c #BEAEAD",
"4+	c #C6B2AE",
"5+	c #82261E",
"6+	c #8A4E4A",
"7+	c #9A4A3E",
"8+	c #D6B2AA",
"9+	c #9A827E",
"0+	c #62261E",
"a+	c #521E1A",
"b+	c #BA6252",
"c+	c #A2766A",
"d+	c #9E8E8D",
"e+	c #8E3E32",
"f+	c #0E0602",
"g+	c #DED2D2",
"h+	c #AEA6A2",
"i+	c #8A7E7C",
"j+	c #FAEAE6",
"k+	c #AE9693",
"l+	c #BEAAA7",
"m+	c #AE9A97",
"n+	c #CA7266",
"o+	c #AA9E9C",
"p+	c #1E0E0E",
"q+	c #2A1E1A",
"r+	c #E9CAC6",
"s+	c #C6AAA6",
"t+	c #F2D6D2",
"u+	c #261616",
"v+	c #4A3A3A",
"w+	c #B69E9A",
"x+	c #BEA29E",
"y+	c #A69290",
"z+	c #D2C6C4",
"A+	c #6E625E",
"B+	c #C69A92",
"C+	c #3C0E0A",
"D+	c #F2DEDC",
"E+	c #A0827E",
"F+	c #6E5A56",
"G+	c #AA9292",
"                                                              ",
"                                                              ",
"                          B &.O.O.O.&.3+                      ",
"                    D+Y.~+I.].I.]./+/+[+g+}+#+                ",
"                ~+w.Y.{.b b {.b {.b b ]./+[+o 1.*             ",
"              -+~+w.Y.Y.Y.Y.{.{.{.{.].I.O.g+z+m.o.v+          ",
"            -+b Y.w.Y.Y.Y.w.Y.~+b I.# [+l.$ }+- ~ A+y.        ",
"          U ~+w.w.w.@+w.w.Y.~+b # [+l.$ o - m.[ 9.& z.H       ",
"        m D+w.k.@+w.@+w.Y.b I.O.B z+o - - m.[ 9.9.h+& Z.u+    ",
"        t+Z @+@+@+@+w.~+6 O.l.V.}+[.3+m.[ [ 9.9.h+^.d.i++     ",
"      :+f.t @+@+@+Z 6 -+m !.$+[.4.3+3+_.=+=+9.S J.o+d.'.] 5   ",
"      r+R.@+t R.f.U m V.:+s.- 4.3+m._.q.=+9.S ^.o+o+d.& w q+  ",
"      x R.f.f.U r+V.:+s.4.4.;+3+X.q.=+=+S ^.J.o+d.d.& & @ q+  ",
"    !+x t+x '+3.9 I I 4.4.Y l+X._.q.=+S S J.o+o+p.d.& o.7 { . ",
"    !+2 '+3.8+D.v 8 v v s+X.X.X.=+1+1+s J.p.p.d.& & o.'.7 q+. ",
"    l D.9 D.-., 3 ;.f ,+x+X.X.5.5.1+s J.J.p.d.#+S.o.o.'.7 ; f+",
"    c+B+b.B+U.A.V  .~.#.=.0 5.w+w+s s m+m+P #+& o.'.'.C w O f+",
"    ! b., g : = r.C+~.J L.4 0 w+w+s m+P #+#+o.*.d+C z.1.A+} . ",
"    8.u N.F.M t.= a+`.A./.*+4 Q.h k+p.P y+y+o.C )+W.7 A+}.W . ",
"    +.^ +.<.L :.F.< e #.#.;.,+h k+P G+y+*._+)+W.w E (+}.5 . . ",
"    @.<..+y N b+7+u.6+/./.^+*.h k+G+*.*.C W.G.E (+| H ; x..   ",
"      N.q b.E...) A |.U.3 l =.,+=.*.k K G.%.X | H ,.{ 5 f+.   ",
"      T z >.n+n+N.g ! 3 7.!+,+*.{+9+G.H.X | H ,.{ p+x.6.. 6.  ",
"      P.% <.1 ..` M.$., 8 h k E+D H.X | H >+{ 5 W x.. . 6.    ",
"        5+> R n+u b.B+7.=.{+L.H.X a.v.|+0.5 j.2.. . . . 6.    ",
"          c : 6+! M.M.{+L.^+n.a.v.|+0.F W 2.6.. 6.6.. 6.      ",
"            0+a+i.#.^+/.n.a.v. +p F a 2+n 6.6.6.. 6.6.        ",
"              r.C+c.d ).). +p F j.&+2.6.6.6.6.. 6.6.          ",
"                ' / / <+<+<+a a 2+n n n n 6.6.6.n             ",
"                    / / a &+a &+&+n 2+W 2.n n                 ",
"                          &+&+n 2.n p+|+                      "};
