/* XPM */
static char * knob4_xpm[] = {
"31 31 256 2",
"  	c None",
". 	c #0E0202",
"+ 	c #422A2A",
"@ 	c #7A6A6A",
"# 	c #DACECE",
"$ 	c #BAAAAA",
"% 	c #B44240",
"& 	c #8B7E7E",
"* 	c #520606",
"= 	c #86322E",
"- 	c #BE7E7A",
"; 	c #9A8E8E",
"> 	c #2E1E1E",
", 	c #665656",
"' 	c #C26E6A",
") 	c #460606",
"! 	c #CEC6CA",
"~ 	c #8A4442",
"{ 	c #AEA2A2",
"] 	c #564A4A",
"^ 	c #251616",
"/ 	c #DCACAC",
"( 	c #BE8682",
"_ 	c #763636",
": 	c #AA8E8E",
"< 	c #A6706C",
"[ 	c #2A0606",
"} 	c #B67E7E",
"| 	c #F6D2D2",
"1 	c #CEBEBE",
"2 	c #C64642",
"3 	c #8E4A4A",
"4 	c #C2928E",
"5 	c #524242",
"6 	c #642A2A",
"7 	c #AA9696",
"8 	c #1E0202",
"9 	c #976D6D",
"0 	c #EACECE",
"a 	c #D69E9E",
"b 	c #E6C6C6",
"c 	c #BE9692",
"d 	c #937E7E",
"e 	c #D3AFAF",
"f 	c #B24A46",
"g 	c #865F5F",
"h 	c #821212",
"i 	c #BA524E",
"j 	c #DDB5B6",
"k 	c #BA9696",
"l 	c #C7B7B9",
"m 	c #9E9292",
"n 	c #562626",
"o 	c #A24E4E",
"p 	c #4A3B3B",
"q 	c #EAD6D7",
"r 	c #7A6E6E",
"s 	c #AA9E9E",
"t 	c #C09E9E",
"u 	c #221210",
"v 	c #DA423E",
"w 	c #160202",
"x 	c #948282",
"y 	c #DABABA",
"z 	c #917575",
"A 	c #746666",
"B 	c #5A2E2E",
"C 	c #CAAAAA",
"D 	c #BA5E5A",
"E 	c #170A0A",
"F 	c #D29A92",
"G 	c #503030",
"H 	c #B69695",
"I 	c #A68482",
"J 	c #6A1214",
"K 	c #705250",
"L 	c #200E0C",
"M 	c #F7DADA",
"N 	c #A29696",
"O 	c #A64642",
"P 	c #2C1212",
"Q 	c #DED2D2",
"R 	c #9E2E2A",
"S 	c #877A7A",
"T 	c #3A120E",
"U 	c #A07A78",
"V 	c #422626",
"W 	c #7A5C5C",
"X 	c #B2A2A2",
"Y 	c #EADADA",
"Z 	c #C3B2B2",
"` 	c #8A5A5E",
" .	c #ECC2C0",
"..	c #A6625E",
"+.	c #AA5652",
"@.	c #B28E8E",
"#.	c #923636",
"$.	c #521616",
"%.	c #C28282",
"&.	c #CAA5A2",
"*.	c #BE5A56",
"=.	c #D27A72",
"-.	c #7A4642",
";.	c #AE9E9E",
">.	c #CA665E",
",.	c #352626",
"'.	c #8A5E5E",
").	c #A67E7E",
"!.	c #5A3A36",
"~.	c #C0A2A4",
"{.	c #C3AAAA",
"].	c #DACACA",
"^.	c #321A18",
"/.	c #B29696",
"(.	c #B2827E",
"_.	c #988A8A",
":.	c #D8A6A8",
"<.	c #C63E3E",
"[.	c #BA7A76",
"}.	c #D4B8B8",
"|.	c #B47674",
"1.	c #3E1A1A",
"2.	c #B6A2A2",
"3.	c #E2D2D2",
"4.	c #EEDADA",
"5.	c #FEDEDD",
"6.	c #1E0A0A",
"7.	c #3A2020",
"8.	c #624646",
"9.	c #403232",
"0.	c #120202",
"a.	c #A38E8F",
"b.	c #563C3C",
"c.	c #CE8E8E",
"d.	c #D2807C",
"e.	c #F1C9C9",
"f.	c #E6BABA",
"g.	c #AA9A9B",
"h.	c #B28686",
"i.	c #614D4D",
"j.	c #926262",
"k.	c #E2D6D6",
"l.	c #B6A6A6",
"m.	c #C85C58",
"n.	c #B69E9E",
"o.	c #6A3E3E",
"p.	c #827676",
"q.	c #DFCECE",
"r.	c #BA9A9A",
"s.	c #AE5A52",
"t.	c #A69A9A",
"u.	c #2C0C0A",
"v.	c #605252",
"w.	c #B88E8A",
"x.	c #C6A4A4",
"y.	c #866A68",
"z.	c #A69292",
"A.	c #9B8685",
"B.	c #C57977",
"C.	c #491515",
"D.	c #DDC2C2",
"E.	c #120606",
"F.	c #EFD6D6",
"G.	c #D4BEBE",
"H.	c #6A5E5E",
"I.	c #CBB1B1",
"J.	c #F2D2D2",
"K.	c #923E3C",
"L.	c #7C3C3A",
"M.	c #F2DADB",
"N.	c #F6DEDE",
"O.	c #C0A6A6",
"P.	c #4A2E2E",
"Q.	c #E6B6B6",
"R.	c #CC9292",
"S.	c #4A3636",
"T.	c #CA9692",
"U.	c #622222",
"V.	c #965E5A",
"W.	c #BEAEAE",
"X.	c #9E8A8A",
"Y.	c #E6CECE",
"Z.	c #1A0202",
"`.	c #823A3A",
" +	c #271A1B",
".+	c #BE8E8E",
"++	c #AA7676",
"@+	c #1E0606",
"#+	c #967272",
"$+	c #9A5652",
"%+	c #CEA2A2",
"&+	c #563632",
"*+	c #A68A8A",
"=+	c #7A6262",
"-+	c #C4AEAF",
";+	c #D5C6C7",
">+	c #826E6E",
",+	c #FADEDD",
"'+	c #F2DEDE",
")+	c #E2CACA",
"!+	c #8E8282",
"~+	c #312222",
"{+	c #D4C2C2",
"]+	c #B68686",
"^+	c #9A7E7E",
"/+	c #CEBABA",
"(+	c #B29E9E",
"_+	c #B55955",
":+	c #B69A9A",
"<+	c #B29A9A",
"[+	c #6E5858",
"}+	c #320602",
"|+	c #DE9A9A",
"1+	c #BA8286",
"2+	c #AE9A9A",
"3+	c #BAA6A6",
"4+	c #260602",
"5+	c #9E8E8F",
"6+	c #554646",
"7+	c #EACAC9",
"8+	c #968686",
"9+	c #B19292",
"0+	c #906666",
"a+	c #A29292",
"b+	c #AE9695",
"c+	c #A69696",
"d+	c #2A1616",
"e+	c #C2564E",
"f+	c #C69E9E",
"g+	c #7A6666",
"h+	c #260E0A",
"i+	c #5A1616",
"j+	c #623636",
"k+	c #CE5E5A",
"l+	c #320A06",
"m+	c #665252",
"n+	c #96666A",
"o+	c #EAD2D2",
"p+	c #160606",
"q+	c #AE8A8A",
"r+	c #B69292",
"s+	c #B2A6A6",
"t+	c #BEAAAA",
"u+	c #BA9E9F",
"v+	c #D6CACA",
"w+	c #807272",
"x+	c #E6D6D6",
"y+	c #1A0E0E",
"z+	c #1A0606",
"A+	c #E6D2D4",
"B+	c #AA9291",
"C+	c #F7D6D3",
"D+	c #E3BEBE",
"E+	c #BAA2A2",
"F+	c #402E2E",
"G+	c #743A38",
"                                                              ",
"                                                              ",
"                          o+A+{+;+{+-+$                       ",
"                    M.'+4.Y x+3.q.Q ].;+;+X d                 ",
"                D.q.F.Y q q A+x+x+k.x+3.3.;+l s w+            ",
"              0 F.F.Y F.q Y Y q q x+3.3.Q Q # {+l.m+          ",
"            7+F.M.M.'+4.4.4.4.q q Y x+A+Q # v+{+l S ,         ",
"          7+M.N.N.N.M.N.M M.4.Y q A+3.# ;+{+/+l W.{ & ,.      ",
"        D+F.N.,+N.,+N.'+M.4.q A+q.;+D.1 l Z W.s+s+{ ; 5 ,.    ",
"        7+M 5.,+,+M F.J.J.Y.D.D.G./+Z Z W.$ s+s+;.{ t.& 6+    ",
"      j C+5.5.C+F.J.Y.)+D.G./+I.-+W.$ 3+s+l.X { ;.g.t.a+r  +  ",
"      D+| | J.e. .D+y e }.I.-+-+t+t+3+l.l.X { ;.g.s t.N p.>   ",
"      e.e. .D+y e e e C C C O.{.3+O.l.2.X (+;.s t.c+t.N & F+  ",
"    ( Q.Q./ / :.:.f+x.x.x.O.O.~.3+2.n.2.(+;.s g.c+N m m !+5 E ",
"    |.%+/ F 4 1+++9 U r+~.O.~.~.E+2.(+(+;.2+g.7 N a+m ; p.~+. ",
"    - |+c.|.3 U.$.C.B g r+t E+u+n.n.(+;.2+g.c+N N m 5+; p. +. ",
"    ' d.+.= J * ) C.j+` @.t u+u+n.<+<+7 7 7 c+a+a+; _._.p.,.E.",
"    _+i % R h J $.6 ` 9 I H u+n.<+<+b+2+7 z.a+a.5+_._.8+r  +. ",
"    i e+>.<.% #._ _ j.0+#+9+:+:+<+2+7 z.z.a.5+X.5+_.8+!+A y+. ",
"    *.>.R.! - o `.L.j.0+9 : H /.b+B+B+B+a+5+5+_.8+!+S w+6+y+. ",
"    v m.d.=.2 O 3 ` (.q+h.r+H 9+b+B+z.a.5+A.x & S w+A i. +.   ",
"      f *.k+m._+..< } 4 t H 9+9+: a.X.x d S w+g+, v.5 ~+E..   ",
"      #.K.s.B.B.|.} w.%+&./.a.X.I d S >+=+[+v.] p F+~+E . .   ",
"        ~ $+[.R.T.4 w.q+q+I ^+z y.=+[+i.6+p 9.,.> ^ E . .     ",
"        _ L.-.< ]+h.).U 9 y.W m+8.b.S.F+,.> d+u y+E.. . 0.    ",
"          U.n o.'.0+j.[+K 8.b.S.+ ~+^.P u 6.E.. . . . .       ",
"            C.T 1.P.j+G P.V 7.T d+h+6.Z.w 0.0.. . . 0.        ",
"              [ 4+u.u.d+P P u.E Z.w 0.0.0.0.. . . 0.          ",
"                [ 4+8 8 8 Z.Z.w w w w 0.0.0.0.w 6.            ",
"                    }+8 Z.w w w 0.w 0.0.0.0.w                 ",
"                          @+w w 0.0.0.0.                      "};
