/* XPM */
static char * knob7_xpm[] = {
"31 31 256 2",
"  	c None",
". 	c #0E0202",
"+ 	c #362626",
"@ 	c #665656",
"# 	c #9A8E8E",
"$ 	c #D2C2C2",
"% 	c #B82E3E",
"& 	c #C5B6B7",
"* 	c #C25C66",
"= 	c #5A0A0E",
"- 	c #962E36",
"; 	c #C68E92",
"> 	c #7A6E6E",
", 	c #B6AAAA",
"' 	c #440C10",
") 	c #5B4A4A",
"! 	c #2A1A1A",
"~ 	c #B68E92",
"{ 	c #78262A",
"] 	c #A87478",
"^ 	c #AC5C64",
"/ 	c #C26672",
"( 	c #877A7A",
"_ 	c #300E12",
": 	c #622A2E",
"< 	c #AA9E9E",
"[ 	c #EEC2C6",
"} 	c #D49298",
"| 	c #231617",
"1 	c #B69A9C",
"2 	c #544646",
"3 	c #9A5A62",
"4 	c #E7B6BA",
"5 	c #A69293",
"6 	c #514243",
"7 	c #E63A46",
"8 	c #240608",
"9 	c #C6A6A6",
"0 	c #9D767A",
"a 	c #7E4A4E",
"b 	c #5E262E",
"c 	c #961E26",
"d 	c #8A7E7E",
"e 	c #B63E46",
"f 	c #865C60",
"g 	c #DEA2AA",
"h 	c #DBB6B6",
"i 	c #C67282",
"j 	c #DFC2C3",
"k 	c #824246",
"l 	c #1B0E0E",
"m 	c #B6A2A3",
"n 	c #A67E7E",
"o 	c #9A8688",
"p 	c #3F2E2F",
"q 	c #1E0206",
"r 	c #6A383A",
"s 	c #A69697",
"t 	c #D1B6B9",
"u 	c #BE8488",
"v 	c #3E1216",
"w 	c #715256",
"x 	c #EACACE",
"y 	c #A27A7E",
"z 	c #6E5E5E",
"A 	c #561E22",
"B 	c #907478",
"C 	c #A44048",
"D 	c #DECACA",
"E 	c #928686",
"F 	c #1A0205",
"G 	c #B29699",
"H 	c #521216",
"I 	c #D3AAAD",
"J 	c #B64A5A",
"K 	c #BA7A82",
"L 	c #C2A2A4",
"M 	c #CE565E",
"N 	c #463232",
"O 	c #720E16",
"P 	c #DEA6AA",
"Q 	c #CEBABA",
"R 	c #776667",
"S 	c #A29696",
"T 	c #B6969A",
"U 	c #C8B2B4",
"V 	c #231215",
"W 	c #AA9698",
"X 	c #BAAEAE",
"Y 	c #B2868A",
"Z 	c #120202",
"` 	c #9E8E90",
" .	c #312224",
"..	c #926262",
"+.	c #CE5A6A",
"@.	c #DEAEB2",
"#.	c #501E22",
"$.	c #6A464A",
"%.	c #923A3E",
"&.	c #5E3434",
"*.	c #866E72",
"=.	c #664E52",
"-.	c #1A0A0C",
";.	c #6A1E22",
">.	c #928282",
",.	c #EFCED1",
"'.	c #341A1E",
").	c #BEA2A5",
"!.	c #9E9292",
"~.	c #BEAAAA",
"{.	c #D88E96",
"].	c #C29EA2",
"^.	c #D6C6C6",
"/.	c #4C2A2E",
"(.	c #C6BABA",
"_.	c #CA425A",
":.	c #5F5253",
"<.	c #7A323A",
"[.	c #CE868E",
"}.	c #D6BEBF",
"|.	c #B29E9F",
"1.	c #BA9A9B",
"2.	c #B28E92",
"3.	c #CE7A96",
"4.	c #AA9A9B",
"5.	c #150606",
"6.	c #826A6E",
"7.	c #E2BEC2",
"8.	c #DCBEBE",
"9.	c #E6C2C4",
"0.	c #EA464E",
"a.	c #A68A8E",
"b.	c #BA626A",
"c.	c #C24E62",
"d.	c #4A3A3A",
"e.	c #C28E96",
"f.	c #8E525A",
"g.	c #C6AEB2",
"h.	c #8C6266",
"i.	c #E6CACC",
"j.	c #AE444A",
"k.	c #DAC2C3",
"l.	c #4E3236",
"m.	c #BB9EA1",
"n.	c #B6A6A6",
"o.	c #301416",
"p.	c #968A8A",
"q.	c #611E22",
"r.	c #827676",
"s.	c #C2B0B2",
"t.	c #AE9094",
"u.	c #C47880",
"v.	c #9A8A8B",
"w.	c #3E1A1E",
"x.	c #D4626E",
"y.	c #160206",
"z.	c #766A6A",
"A.	c #A69A9A",
"B.	c #8E464E",
"C.	c #B99296",
"D.	c #EED2D2",
"E.	c #DFC6C9",
"F.	c #D2BEC0",
"G.	c #B2A2A2",
"H.	c #624E4E",
"I.	c #C68688",
"J.	c #A28A8A",
"K.	c #C2626E",
"L.	c #8E8282",
"M.	c #1E0A0E",
"N.	c #6A3E42",
"O.	c #EAD2D2",
"P.	c #A6464E",
"Q.	c #B2525E",
"R.	c #9A6A6E",
"S.	c #B29A9B",
"T.	c #A28E90",
"U.	c #BEB2B2",
"V.	c #F3D2D3",
"W.	c #BEA6A6",
"X.	c #A29293",
"Y.	c #7E6A6A",
"Z.	c #2E1E20",
"`.	c #230A0D",
" +	c #E6CECE",
".+	c #BE8E96",
"++	c #DAA6AA",
"@+	c #BA868A",
"#+	c #7E7273",
"$+	c #B69EA0",
"%+	c #C6AAAC",
"&+	c #8E5A5E",
"*+	c #AE9697",
"=+	c #AE9A9B",
"-+	c #351E1E",
";+	c #D6C2C3",
">+	c #AA8E8E",
",+	c #C67A8A",
"'+	c #CABABC",
")+	c #BAA2A3",
"!+	c #AE9E9E",
"~+	c #CAB6B6",
"{+	c #826E6E",
"]+	c #AE767E",
"^+	c #360E16",
"/+	c #6A2A2E",
"(+	c #5A464A",
"_+	c #564246",
":+	c #A2767A",
"<+	c #D6B6B6",
"[+	c #96767A",
"}+	c #968689",
"|+	c #CEB2B6",
"1+	c #BEAEAF",
"2+	c #BE9A9D",
"3+	c #EABEC2",
"4+	c #CEAEAE",
"5+	c #361216",
"6+	c #CA767E",
"7+	c #3A2A2C",
"8+	c #C2A6A8",
"9+	c #CEBEBE",
"0+	c #CABEBE",
"a+	c #AEA2A2",
"b+	c #DAC6C6",
"c+	c #D2566A",
"d+	c #963E4A",
"e+	c #463636",
"f+	c #AA9295",
"g+	c #EDC6C6",
"h+	c #1E1212",
"i+	c #EACECF",
"j+	c #716262",
"k+	c #E2CACC",
"l+	c #BA9699",
"m+	c #9E8A8E",
"n+	c #7A2A2E",
"o+	c #1E0608",
"p+	c #96666A",
"q+	c #E2B2B6",
"r+	c #522222",
"s+	c #8A7272",
"t+	c #6A5252",
"u+	c #E6C6C6",
"v+	c #B88A8E",
"w+	c #BAAAAA",
"x+	c #2E1A1E",
"y+	c #8E7E7E",
"z+	c #968283",
"A+	c #C2AAAA",
"B+	c #BAA6A6",
"C+	c #7A6A6B",
"D+	c #BA8E92",
"E+	c #9E8688",
"F+	c #4A3234",
"G+	c #CAAAAE",
"                                                              ",
"                                                              ",
"                          k.b+;+;+F.w+T.                      ",
"                    8.}.k.k.;+$ Q '+~+1+1+!+z+                ",
"                8.j E.;+;+;+}.9+9+Q Q ~+& U., s C+            ",
"              7.x  +k+E.E.E.b+;+}.$ 9+0+~+& & X ` R           ",
"            9.D.i+i+i+ +D k+k+b+^.^.$ $ 9+Q '+(.X ` j+        ",
"          3+,.V.V.V.O. + + +k+D E.b+k.$ $ 9+9+'+& X v.@       ",
"        @.,.,.V.,.,.,.i.i.k+k+E.b+b+;+;+$ 9+9+'+(.& , d +     ",
"        q+[ g+g+g+g+j j 8.k.8.}.}.Q Q ~+& s.s.U.X X , ` )     ",
"      I.4 4 q+q+h q+h <+<+t U U U g.s.A+1+w+n.m a+!+< S #+Z.  ",
"      {.g P ++++I I I G+G+%+%+%+A+~.B+n.m G.|.!+4.4.A.S (  .  ",
"      {.{.[.I.u @+Y D+2+9 G+8+W.W.B+)+m G.!+!+!+A.s S X.L.6   ",
"    / i Q.%.{ q.A r+&.h.l+8+8+).B+)+m G.|.!+< A.A.S X.!.v.> | ",
"    * * % c O = ' ' : h.T 8+8+).m.m $+|.|.4.W W s S !.# v.r.| ",
"    M c+_.% - ;.H #.f 0 2+m.m.m.m |.|.=+W 4.W S X.` ` # p.> ! ",
"  0.x.{.~+,+C { q.b p+y l+].m.1.1 S.|.=+*+s 5 X.!.` # p.p.z.| ",
"  7 M x.3.i C { q.: p+y l+1.1.$+1 =+*+W s s X.!.` # p.p.d :.l ",
"    j.e c.J d+<.: r p+n T 1.1 S.S.*+W f+5 X.T.` v.p.}+E > Z.. ",
"    C C K.* ^ 3 &+&+Y C.l+1 T G *+W W 5 X.T.# v.v.}+E L.z.| . ",
"      ^ u.,+K ]+:+y .+].1.G G G *+f+5 T.X.` ` p.}+E L.( :.h+  ",
"      B.f.u ; ; .+C.l+l+T G t.f+T.T.T.T.v.o }+}+E y+d R Z.Z   ",
"      k a ] v+D+D+2.2.a.a.>+E+J.E+o z+z+>.y+( ( ( r.z.2 -..   ",
"        r N.h.0 0 y 0 [+[+*.s+*.*.Y.Y.R R R j+z z :.e+h+.     ",
"        #.v /.$.w w w =.w =.=.H.) ) ) (+(+_+_+6 d. .-.. Z     ",
"          v 5+w./.l.l.l.F+F+N N F+p p p 7+7+7+ .h+5.. Z       ",
"            ^+_ _ o.-+-+-+'.'.x+'.o.| | | V -.-.. . .         ",
"              _ o+o+o+`.M.M.M.l l l -.o+5.. . . . .           ",
"                8 F F F F y.y.y.y.Z . . . . . . Z             ",
"                    8 F y.y.y.Z . Z Z Z . Z Z                 ",
"                          V y.Z . Z . Z                       "};
