/* XPM */
static char * knob5_xpm[] = {
"31 31 256 2",
"  	c None",
". 	c #0E0202",
"+ 	c #362A2A",
"@ 	c #7A666A",
"# 	c #D1C2C2",
"$ 	c #958686",
"% 	c #BA322E",
"& 	c #C3B2B1",
"* 	c #561612",
"= 	c #862A26",
"- 	c #C68682",
"; 	c #CE6656",
"> 	c #635555",
", 	c #A69A9A",
"' 	c #360606",
") 	c #2C1A1A",
"! 	c #BA666A",
"~ 	c #9E4642",
"{ 	c #DACECD",
"] 	c #682C28",
"^ 	c #BA868A",
"/ 	c #260206",
"( 	c #564646",
"_ 	c #AA423A",
": 	c #C39A97",
"< 	c #EECFCE",
"[ 	c #857675",
"} 	c #AA868A",
"| 	c #B6AAAA",
"1 	c #1F1212",
"2 	c #663E3A",
"3 	c #9A6A6A",
"4 	c #E0B2AE",
"5 	c #AA5A4E",
"6 	c #BA9A99",
"7 	c #9A8E8E",
"8 	c #200202",
"9 	c #DEAAA4",
"0 	c #361212",
"a 	c #7E4A46",
"b 	c #C2A19F",
"c 	c #4E3C3C",
"d 	c #E8C2C0",
"e 	c #CA765E",
"f 	c #AA9E9D",
"g 	c #A25656",
"h 	c #9C7C7C",
"i 	c #5C2C2C",
"j 	c #7A221A",
"k 	c #AA6E6A",
"l 	c #BA524E",
"m 	c #EED6D6",
"n 	c #D7B3B1",
"o 	c #EAD2D2",
"p 	c #B28A8C",
"q 	c #DAA6A2",
"r 	c #260E0E",
"s 	c #3A1E22",
"t 	c #86362A",
"u 	c #8E6A6C",
"v 	c #120202",
"w 	c #C5A6A6",
"x 	c #CDBEBE",
"y 	c #8A7E7E",
"z 	c #685A5A",
"A 	c #BC625A",
"B 	c #443232",
"C 	c #C27A72",
"D 	c #9E9292",
"E 	c #E2C7C5",
"F 	c #BCA6A5",
"G 	c #82524E",
"H 	c #B2767A",
"I 	c #1F0609",
"J 	c #1A0A0B",
"K 	c #B6A6A5",
"L 	c #BE7A7E",
"M 	c #AA9292",
"N 	c #472B2B",
"O 	c #962E26",
"P 	c #E3CECC",
"Q 	c #664C4C",
"R 	c #F2D6D5",
"S 	c #561E1E",
"T 	c #B69293",
"U 	c #4C1C1A",
"V 	c #A48A8C",
"W 	c #B39A9A",
"X 	c #D6CAC6",
"Y 	c #BA4E56",
"Z 	c #B29E9E",
"` 	c #725A5E",
" .	c #CCB2B0",
"..	c #D28A82",
"+.	c #CFAEAA",
"@.	c #F2DBD9",
"#.	c #745456",
"$.	c #7A6A6A",
"%.	c #6A221E",
"&.	c #1A0202",
"*.	c #D9BDBA",
"=.	c #E0BEBA",
"-.	c #D23A36",
";.	c #4E120E",
">.	c #DEC4C4",
",.	c #A29292",
"'.	c #C65E4E",
").	c #BCA2A1",
"!.	c #825E5A",
"~.	c #91797D",
"{.	c #D2827A",
"].	c #322626",
"^.	c #C3AEAE",
"/.	c #963E3E",
"(.	c #E5D6D2",
"_.	c #CAB6B6",
":.	c #7A3236",
"<.	c #966262",
"[.	c #826A6A",
"}.	c #9E8989",
"|.	c #2A1216",
"1.	c #1F0E11",
"2.	c #AA9696",
"3.	c #AE7A7A",
"4.	c #724242",
"5.	c #8E7E7E",
"6.	c #D2A29E",
"7.	c #CE969A",
"8.	c #A69696",
"9.	c #5E4242",
"0.	c #A38E8E",
"a.	c #E8C9C7",
"b.	c #160203",
"c.	c #310709",
"d.	c #C26E72",
"e.	c #F8DAD8",
"f.	c #B2A2A1",
"g.	c #B29696",
"h.	c #968A8A",
"i.	c #392627",
"j.	c #E2D2D0",
"k.	c #7E3E3E",
"l.	c #CC9A9E",
"m.	c #2A1E1E",
"n.	c #D8C2C0",
"o.	c #CE5A66",
"p.	c #B98E8E",
"q.	c #726262",
"r.	c #827171",
"s.	c #F6DEDB",
"t.	c #AE9A9A",
"u.	c #C65254",
"v.	c #4E3636",
"w.	c #522A2A",
"x.	c #724E52",
"y.	c #CE7676",
"z.	c #EAD6D5",
"A.	c #5E4E4E",
"B.	c #9B6E6E",
"C.	c #6E6262",
"D.	c #7E7272",
"E.	c #723232",
"F.	c #BCAEAE",
"G.	c #564242",
"H.	c #A28282",
"I.	c #A68282",
"J.	c #400E0A",
"K.	c #967276",
"L.	c #C2827E",
"M.	c #522622",
"N.	c #B89697",
"O.	c #402424",
"P.	c #E6D2D2",
"Q.	c #BB9E9D",
"R.	c #C26266",
"S.	c #621612",
"T.	c #922A2A",
"U.	c #D2B6B2",
"V.	c #968082",
"W.	c #EEC6C2",
"X.	c #7A6060",
"Y.	c #260A0A",
"Z.	c #AA4A4A",
"`.	c #6E464A",
" +	c #D6AEAA",
".+	c #120606",
"++	c #C3AAAA",
"@+	c #BE827A",
"#+	c #C27676",
"$+	c #221616",
"%+	c #BE9292",
"&+	c #DBCACA",
"*+	c #F3D2D1",
"=+	c #AEA2A2",
"-+	c #5E464A",
";+	c #2E1616",
">+	c #BBAAA8",
",+	c #FAD6D2",
"'+	c #8A7272",
")+	c #1F0A0B",
"!+	c #9A868A",
"~+	c #AA5A5E",
"{+	c #453637",
"]+	c #CCBAB8",
"^+	c #9C6163",
"/+	c #3D2B2B",
"(+	c #A69292",
"_+	c #CAAEAA",
":+	c #311F21",
"<+	c #D2C6C6",
"[+	c #C6B6B4",
"}+	c #E6AAA2",
"|+	c #563A3E",
"1+	c #AE7E82",
"2+	c #B6A2A2",
"3+	c #E3B6B2",
"4+	c #D6C6C6",
"5+	c #9E7272",
"6+	c #DECECE",
"7+	c #9E8E8E",
"8+	c #AA9A9A",
"9+	c #AE9E9D",
"0+	c #321A1E",
"a+	c #6E2A22",
"b+	c #B2463A",
"c+	c #8A7676",
"d+	c #B2868A",
"e+	c #A27A7A",
"f+	c #C25E52",
"g+	c #AE9192",
"h+	c #C24E4E",
"i+	c #D2B2B2",
"j+	c #AE9696",
"k+	c #7A3E3E",
"l+	c #D6968E",
"m+	c #FADEDB",
"n+	c #CA8286",
"o+	c #5A2626",
"p+	c #EEDAD7",
"q+	c #6A5E5E",
"r+	c #7C6E6E",
"s+	c #160606",
"t+	c #EADAD6",
"u+	c #9A8A8A",
"v+	c #918282",
"w+	c #CA6662",
"x+	c #762626",
"y+	c #CA625A",
"z+	c #826266",
"A+	c #D28286",
"B+	c #867A7A",
"C+	c #B69E9D",
"D+	c #574A4A",
"E+	c #160E0E",
"F+	c #1A0606",
"G+	c #261617",
"                                                              ",
"                                                              ",
"                          P j.6+_.F.& K                       ",
"                    E P.P.j.P 6+X 4+<+x x K v+                ",
"                a.P.P.(.j.j.j.6+6+6+6+{ 4+x F.D [             ",
"              E P.z.z.z.z.(.j.j.P 6+6+6+{ { <+]+| r.          ",
"            a.m p+p+m t+z.z.z.(.(.P.P 6+6+{ X 4+# f D+        ",
"          E R e.s.s.s.@.p+m z.z.P.j.j.6+&+4+<+# ]+F.$.{+      ",
"        =.R s.s.s.e.s.@.p+z.P.P 6+&+4+# x ]+[+F.F.| 7 > )     ",
"        < e.m+e.e.@.m o P P &+4+n.]+]+[+& >+| | =+9+8+y {+    ",
"      9 < ,+*+*+< a.E E *.*.U. .& ^.>+F | 2+f.=+=+f , 7+C.G+  ",
"      3+W.W.d >.=.*.n  . ._+^.^.++F >+K f.K =+9+8+, , 8.[ :+  ",
"      3+3+3+ +n  ++.+.+.++++++++F F K 2+Z Z 9+f , 8.8.D B+/+  ",
"    @+9 }+q 6.: p.p.%+6 w w w ).F 2+C+2+Z 9+8+8+, 8.D D $ D+E+",
"    - }+l+C k a w.M.2 u 6 b F ).).2+Z Z 9+t.2.8.8.D D 7 $ > 1 ",
"    #+..g t a+* J.J.i !.N.).Q.Q.C+C+Z t.j+8+8.(+D D 7 h.[ ].. ",
"    f+A b+O j S.;.* a B.%+Q.Q.6 W W W 8+2.8.8.,.,.7+7 h.D.$+. ",
"    f+; e '._ = %.] <.5+p N.6 W W W t.2.2.(+7+0.7 u+h.$ r+$+. ",
"    y+{.i+y+% T.%.E.<.B.I.%+6 W g.j+j+(+(+(+D 7+7 h.$ $ $.1 . ",
"    u.y...o.Y /.:.k+3 5+I.T g.N.j+M M M (+7+}.u+!+$ $ B+q+1 . ",
"    -.Y h+h+A ~+g 3 1+p.6 N.T g+g+(+0.0.0.7+!+v+5.y B+C.+ v   ",
"      ~ Z.R.d.L 3.H d+: w N.g+M (+0.V !+V.5.~.[ r.@ z {+J .   ",
"      ~ g #+n+7.l.l.: %+T g+V V H.v+~.[ r+$.q.z > D+{+E+. v   ",
"        k+k+^+^ %+p.p } H.h ~.'+[.X.` > A.( c {+B i.E+v .     ",
"        %.i k+3 e+e+K.u z+` #.Q -+G.v.B N + :+:+$+1.v . v     ",
"          U U M.`.#.Q `.9.|+v.N /+i.:+) G+1 1 J .+. . v       ",
"            ' c.0 s N O.O.s :+;+|.1 )+)+s+b.v . v . .         ",
"              / / I c.r r )+)+I F+&.b.v v . . . . v           ",
"                c.8 8 &.8 b.b.b.v b.v v v . v v v             ",
"                    8 8 &.&.b.v b.v v v v b.v                 ",
"                          I &.F+v v . v                       "};
