/* XPM */
static char * knob6_xpm[] = {
"31 31 256 2",
"  	c None",
". 	c #0E0202",
"+ 	c #3B2729",
"@ 	c #725E5E",
"# 	c #A29696",
"$ 	c #D6C6C7",
"% 	c #C22A2A",
"& 	c #760A16",
"* 	c #806E70",
"= 	c #CDBEC0",
"- 	c #A22E3E",
"; 	c #4E0A12",
"> 	c #DA6E6E",
", 	c #D89CA0",
"' 	c #C65E5E",
") 	c #C1B2B3",
"! 	c #867A7A",
"~ 	c #2F1E1E",
"{ 	c #72262E",
"] 	c #5E4E4E",
"^ 	c #B98285",
"/ 	c #C69A9E",
"( 	c #310D0D",
"_ 	c #AC666A",
": 	c #231617",
"< 	c #F2C6CC",
"[ 	c #918283",
"} 	c #B4A6A8",
"| 	c #4E4040",
"1 	c #B63C3C",
"2 	c #7A4646",
"3 	c #965E5E",
"4 	c #622A2E",
"5 	c #AA7276",
"6 	c #AE9697",
"7 	c #220202",
"8 	c #C2223A",
"9 	c #EEC6CA",
"0 	c #D6A2A6",
"a 	c #AE323A",
"b 	c #9A8E8E",
"c 	c #C2727A",
"d 	c #CE4A46",
"e 	c #9A464E",
"f 	c #5D3335",
"g 	c #1E1212",
"h 	c #C3A2A5",
"i 	c #9F7275",
"j 	c #B2A2A4",
"k 	c #E9C1C6",
"l 	c #D3AEB2",
"m 	c #8E5E62",
"n 	c #C08484",
"o 	c #DFC6CA",
"p 	c #1E060A",
"q 	c #723E3E",
"r 	c #AA8282",
"s 	c #3E3131",
"t 	c #A47C80",
"u 	c #BA9698",
"v 	c #B08686",
"w 	c #E64242",
"x 	c #905A5C",
"y 	c #5E0A16",
"z 	c #F2CACE",
"A 	c #220A0C",
"B 	c #1A0202",
"C 	c #E0BEC2",
"D 	c #E6B7BE",
"E 	c #AA9294",
"F 	c #AE9EA0",
"G 	c #A08688",
"H 	c #C3AEAF",
"I 	c #921E2E",
"J 	c #846062",
"K 	c #E6D2D2",
"L 	c #5E161E",
"M 	c #6E1E26",
"N 	c #D49094",
"O 	c #3A1212",
"P 	c #D4BABC",
"Q 	c #88262E",
"R 	c #462222",
"S 	c #716365",
"T 	c #DAC1C4",
"U 	c #9E7E7E",
"V 	c #DECACD",
"W 	c #AE9193",
"X 	c #EACACE",
"Y 	c #BE5860",
"Z 	c #DA5E5A",
"` 	c #57494A",
" .	c #462E2E",
"..	c #AA9E9F",
"+.	c #F2CED2",
"@.	c #D24E62",
"#.	c #745658",
"$.	c #907478",
"%.	c #A38E8F",
"&.	c #120202",
"*.	c #924E52",
"=.	c #928686",
"-.	c #461616",
";.	c #CAB2B6",
">.	c #E6CACA",
",.	c #66383C",
"'.	c #BA8A8E",
").	c #BAA6A9",
"!.	c #8A4242",
"~.	c #AA525E",
"{.	c #4A3232",
"].	c #BF8E91",
"^.	c #563E42",
"/.	c #766262",
"(.	c #72363A",
"_.	c #685A5A",
":.	c #C3AAAD",
"<.	c #ECCED0",
"[.	c #E2B2BA",
"}.	c #220E12",
"|.	c #391E1F",
"1.	c #D27E86",
"2.	c #947C7C",
"3.	c #D6C1C5",
"4.	c #864A4A",
"5.	c #B69698",
"6.	c #BEA2A5",
"7.	c #BB9E9F",
"8.	c #F2D2D6",
"9.	c #BCAAAD",
"0.	c #A69A9B",
"a.	c #B43644",
"b.	c #4A141A",
"c.	c #98666A",
"d.	c #BE7E86",
"e.	c #86323E",
"f.	c #CA5662",
"g.	c #D2B6BA",
"h.	c #C6BABA",
"i.	c #DACACB",
"j.	c #B86466",
"k.	c #887074",
"l.	c #140606",
"m.	c #C6627A",
"n.	c #968A8A",
"o.	c #826A6A",
"p.	c #682026",
"q.	c #AE9A9A",
"r.	c #1A0A0A",
"s.	c #A66A6E",
"t.	c #B69E9F",
"u.	c #B28E92",
"v.	c #766969",
"w.	c #CAA6A9",
"x.	c #E1CED0",
"y.	c #6A5252",
"z.	c #BA7676",
"A.	c #463636",
"B.	c #EED6D6",
"C.	c #CE969A",
"D.	c #1E0A0C",
"E.	c #FADADE",
"F.	c #D1C2C4",
"G.	c #CA5A72",
"H.	c #CCAEB2",
"I.	c #60484C",
"J.	c #9E9292",
"K.	c #A29293",
"L.	c #CEAAAA",
"M.	c #BE666A",
"N.	c #301A1C",
"O.	c #CDB6B9",
"P.	c #160203",
"Q.	c #8A6266",
"R.	c #DAC6C9",
"S.	c #52363A",
"T.	c #563A3A",
"U.	c #A88A8C",
"V.	c #8C7A7A",
"W.	c #2A1719",
"X.	c #BAA2A5",
"Y.	c #7A6666",
"Z.	c #9A8282",
"`.	c #A2423E",
" +	c #CA868E",
".+	c #F6D2DA",
"++	c #7E5E5E",
"@+	c #7A222A",
"#+	c #9E4E4E",
"$+	c #CA7E86",
"%+	c #C5B6B8",
"&+	c #1A0607",
"*+	c #978688",
"=+	c #DAAEB2",
"-+	c #E6C6CA",
";+	c #B88E90",
">+	c #A69697",
",+	c #665656",
"'+	c #663232",
")+	c #C3A6AA",
"!+	c #8A7676",
"~+	c #CE9EA2",
"{+	c #EAD2D3",
"]+	c #312223",
"^+	c #261A1A",
"/+	c #A6464E",
"(+	c #BB9A9C",
"_+	c #BEAEB0",
":+	c #B99295",
"<+	c #422A2E",
"[+	c #DDA6AD",
"}+	c #B29EA0",
"|+	c #5D4143",
"1+	c #EED2D6",
"2+	c #220607",
"3+	c #9F8A8D",
"4+	c #4A3A3B",
"5+	c #1E0E10",
"6+	c #8C7E7F",
"7+	c #2A0A0A",
"8+	c #52161E",
"9+	c #9E8E8F",
"0+	c #382222",
"a+	c #B69A9B",
"b+	c #F2D6D9",
"c+	c #CCBABA",
"d+	c #A69293",
"e+	c #AA9699",
"f+	c #AA9A9B",
"g+	c #9A8A8B",
"h+	c #B29A9C",
"i+	c #B29699",
"j+	c #DE9AA2",
"k+	c #CA5E66",
"l+	c #C6B2B2",
"m+	c #CA9EA2",
"n+	c #360E0E",
"o+	c #6A2E32",
"p+	c #B2767A",
"q+	c #DABABE",
"r+	c #9E6A6E",
"s+	c #D25A5A",
"t+	c #4E3636",
"u+	c #361A1A",
"v+	c #807272",
"w+	c #E6CED2",
"x+	c #8C6668",
"y+	c #241214",
"z+	c #F7D6DA",
"A+	c #C25E6A",
"B+	c #7C6A6D",
"C+	c #B6A2A3",
"D+	c #BEA6A9",
"E+	c #5F5253",
"F+	c #C59EA2",
"G+	c #A2767A",
"                                                              ",
"                                                              ",
"                          T V V 3.9.f+6                       ",
"                    g.T o i.R.R.$ = O.h._+f+3+                ",
"                C o i.V V V i.R.3.$ F.F.= %+9.K.B+            ",
"              o w+w+w+x.x.V V i.i.$ $ F.$ F.= ) 0.*           ",
"            9 <.{+1+1+<.K w+w+x.V i.i.$ i.$ F.F.h.} B+        ",
"          k 1+b+b+1+B.B.{+K w+K x.V i.i.$ $ F.= = %+# 4+      ",
"        C .+E.E.z+8.1+1+<.K V w+V R.$ F.F.= h.%+%+) ..E+y+    ",
"        < z+.++.<.<.<.X >.o o T 3.= O.O.) ) _+9.} j ..! ]+    ",
"      , < z 9 k C C C P g.g.O.;.H.H 9.9.).} } j ....f+=.4+5+  ",
"      C.[.[.[.=+=+l l l H.H.:.:.9.).D+).} C+F F ..f+0.J.S ]+  ",
"      j+[+[+[+0 / / F+w.)+L.)+)+D+).X.C+j F F q.f+>+# # 6+|   ",
"    $+j+N n d.p+c.x i u.h )+D+D+D+X.C+t.}+}+f+0.>+# K.J.=._.g ",
"    c 1.~.e.M L 8+-.4 Q.u h 6.7.t.t.}+}+q.f+f+>+>+K.9+9+n.v.: ",
"    Y A+a.I & y ; b.,.Q.:+F+7.7.7.t.}+q.f+e+e+d+J.J.b b =.S g ",
"    G.@.f.8 - @+p.4 x i :+7.7.t.t.h+h+q.q.>+>+K.J.9+b n.! s l.",
"  w s+> O.m.a.Q p.o+c.G+:+(+(+a+i+h+q.e+d+d+K.%.9+b n.=.* ^+. ",
"    d Z N f.a Q { '+r+t :+(+(+h+i+6 6 E >+%.J.3+3+*+*+=.v.: . ",
"    1 1 ' Y /+e *.3 ^ '.F+(+i+i+6 e+E d+%.9+3+b n.n.=.6+E+5+. ",
"    % `.j.M._ _ s.5 ;+F+w.(+i+W W d+d+%.%.b g+n.*+[ 6+* ]+.   ",
"      #+_ z.d.n ^ '.m+L.F+5.W W E %.3+g+*+*+2.2.V.! v+] 5+.   ",
"      !.4.x n ].;+;+;+:+u.U.3+G Z.Z.2.V.!+!+* v.S S ` ^+. &.  ",
"        (.2 i v v r r U $.$.$.k.o.Y./.@ ,+E+] ] ` 4+^+. .     ",
"        '+f ,.++x+Q.J ++++y.y.I.I.|+^.^.4+A.s s + ~ l.. &.    ",
"          -.n+R T.|+^.T.S.S. . .<++ + ]+~ ^+^+: : l.. .       ",
"            ( 7+7+u+|.|.|.u+N.W.y+y+}.}.5+D.r.&.. . &.        ",
"              7+2+2+2+2+A A p p p &+l.l.&.. . . . .           ",
"                ( 7 B B P.P.P.&.P.P.. &.. . . &.P.            ",
"                    7 B B &+P.P.&.&.&.&.&.&.B                 ",
"                          0+y+&.. &.&.&.                      "};
