/* XPM */
static char * knob19_xpm[] = {
"31 31 256 2",
"  	c None",
". 	c #060202",
"+ 	c #413233",
"@ 	c #675657",
"# 	c #817273",
"$ 	c #DC7274",
"% 	c #928686",
"& 	c #CE5256",
"* 	c #620A12",
"= 	c #D25E62",
"- 	c #C6868A",
"; 	c #92363A",
"> 	c #AA8686",
", 	c #4E0A0E",
"' 	c #BE5A62",
") 	c #C8969A",
"! 	c #2F2223",
"~ 	c #7E3A3A",
"{ 	c #B58286",
"] 	c #AA9A9A",
"^ 	c #4E3E3E",
"/ 	c #96565A",
"( 	c #271A1B",
"_ 	c #D5B2B2",
": 	c #9E7676",
"< 	c #7A6E6E",
"[ 	c #4A1216",
"} 	c #B69A9C",
"| 	c #1E1212",
"1 	c #9E9292",
"2 	c #C6A6A7",
"3 	c #5D4E4F",
"4 	c #867A7A",
"5 	c #835A5E",
"6 	c #C28686",
"7 	c #521616",
"8 	c #92222A",
"9 	c #6E6262",
"0 	c #BE868A",
"a 	c #DEA6A6",
"b 	c #1A0E0E",
"c 	c #9A868A",
"d 	c #B6A2A2",
"e 	c #6E363A",
"f 	c #6A121A",
"g 	c #BE4E4E",
"h 	c #561E22",
"i 	c #AA8E90",
"j 	c #DE9A9A",
"k 	c #624246",
"l 	c #947A7A",
"m 	c #CA8E92",
"n 	c #3E2A2A",
"o 	c #825256",
"p 	c #BA9292",
"q 	c #F25252",
"r 	c #96666A",
"s 	c #C69A9A",
"t 	c #564A4A",
"u 	c #6E2E32",
"v 	c #937679",
"w 	c #8A6A6A",
"x 	c #D69A9E",
"y 	c #D6A6A6",
"z 	c #9A8A8B",
"A 	c #BAA2A2",
"B 	c #785A5C",
"C 	c #E77E83",
"D 	c #EA5E62",
"E 	c #DAB2B6",
"F 	c #120204",
"G 	c #B66E72",
"H 	c #A68A8A",
"I 	c #A27A7A",
"J 	c #7E6266",
"K 	c #463A3A",
"L 	c #8A7E7E",
"M 	c #D2868A",
"N 	c #8E3E46",
"O 	c #4E4242",
"P 	c #C6AAAA",
"Q 	c #B2565A",
"R 	c #B69296",
"S 	c #654E50",
"T 	c #322626",
"U 	c #A28A8A",
"V 	c #BEA2A3",
"W 	c #957E81",
"X 	c #6A5E5E",
"Y 	c #BE9292",
"Z 	c #D66A72",
"` 	c #8E7272",
" .	c #D29EA2",
"..	c #7A1E26",
"+.	c #483232",
"@.	c #726666",
"#.	c #BEA6A6",
"$.	c #9A8E8E",
"%.	c #DE8E90",
"&.	c #C28E8E",
"*.	c #661A1A",
"=.	c #964646",
"-.	c #7E6E72",
";.	c #EA6E74",
">.	c #AC9292",
",.	c #C09A9C",
"'.	c #CEAAAE",
").	c #C69EA2",
"!.	c #331E1F",
"~.	c #5E2E32",
"{.	c #190A0B",
"].	c #EE7276",
"^.	c #AE9A9B",
"/.	c #826666",
"(.	c #E6B2B2",
"_.	c #C27A7A",
":.	c #7A3E42",
"<.	c #AC8282",
"[.	c #CA6A6E",
"}.	c #9A7E82",
"|.	c #574245",
"1.	c #A69696",
"2.	c #E6BEBE",
"3.	c #6E5656",
"4.	c #CEA2A5",
"5.	c #C69292",
"6.	c #962E32",
"7.	c #B29E9E",
"8.	c #D69696",
"9.	c #726266",
"0.	c #5E0E16",
"a.	c #AE767A",
"b.	c #E2868A",
"c.	c #826E6E",
"d.	c #251213",
"e.	c #827676",
"f.	c #968A8A",
"g.	c #B69E9F",
"h.	c #A69295",
"i.	c #D2A6AA",
"j.	c #6E4E4E",
"k.	c #503438",
"l.	c #776666",
"m.	c #B68A8E",
"n.	c #B29A9A",
"o.	c #5E4A4A",
"p.	c #8E5A5E",
"q.	c #8E8282",
"r.	c #655255",
"s.	c #BA9E9E",
"t.	c #120609",
"u.	c #C6A2A5",
"v.	c #9A6E72",
"w.	c #D6A2A4",
"x.	c #D6AEB0",
"y.	c #7E6A6E",
"z.	c #724646",
"A.	c #C2A2A4",
"B.	c #E6767E",
"C.	c #928284",
"D.	c #B65262",
"E.	c #561216",
"F.	c #7E4646",
"G.	c #0A0202",
"H.	c #3F2E2F",
"I.	c #524646",
"J.	c #9E8E8F",
"K.	c #867273",
"L.	c #8A7A7E",
"M.	c #4E3A3C",
"N.	c #725E5E",
"O.	c #3A2E2E",
"P.	c #C29696",
"Q.	c #6A2226",
"R.	c #AA9696",
"S.	c #221616",
"T.	c #968688",
"U.	c #563E3E",
"V.	c #462E2E",
"W.	c #9E8A8C",
"X.	c #D1AEB0",
"Y.	c #2B1E1E",
"Z.	c #BAA6A6",
"`.	c #57464A",
" +	c #796A6A",
".+	c #7A6262",
"++	c #8A6E6E",
"@+	c #A28E90",
"#+	c #9E8688",
"$+	c #362A2A",
"%+	c #493637",
"&+	c #E6A6AA",
"*+	c #AE9696",
"=+	c #685A5A",
"-+	c #E2B6B6",
";+	c #6F5A5E",
">+	c #CAAAAB",
",+	c #A67272",
"'+	c #664646",
")+	c #9A7A7A",
"!+	c #8A4E4E",
"~+	c #9E666A",
"{+	c #CE9A9A",
"]+	c #DA868A",
"^+	c #9E424E",
"/+	c #6A5252",
"(+	c #765E5E",
"_+	c #C2AAAA",
":+	c #CAAEAE",
"<+	c #CAA6A8",
"[+	c #8E7A7C",
"}+	c #621E26",
"|+	c #C27A86",
"1+	c #8B7678",
"2+	c #C2A6A7",
"3+	c #8E7E81",
"4+	c #160609",
"5+	c #CAA2A6",
"6+	c #AB8A8A",
"7+	c #5E5252",
"8+	c #E68286",
"9+	c #9A8283",
"0+	c #AA969A",
"a+	c #524242",
"b+	c #523E3E",
"c+	c #4A3A3B",
"d+	c #766264",
"e+	c #867678",
"f+	c #BA9696",
"g+	c #DAB6B6",
"h+	c #9E7E7E",
"i+	c #B6969A",
"j+	c #BE9698",
"k+	c #DE9296",
"l+	c #BE9E9E",
"m+	c #866E6E",
"n+	c #261617",
"o+	c #BA9EA2",
"p+	c #B29A9E",
"q+	c #BA9A9A",
"r+	c #A29292",
"s+	c #1E0E0F",
"t+	c #5A4A4C",
"u+	c #6E5E5E",
"v+	c #CA9EA2",
"w+	c #968282",
"x+	c #0E0202",
"y+	c #A28688",
"z+	c #3A2A2A",
"A+	c #F0525A",
"B+	c #BA5E66",
"C+	c #DA9E9E",
"D+	c #5E4646",
"E+	c #A68E92",
"F+	c #D2A2A2",
"G+	c #C29296",
"                                                              ",
"                                                              ",
"                          - 5.{ <.: 5 5                       ",
"                  q C b.k+&+(.4.P.<.w (+j.'+k                 ",
"              A+D ].C $ ]+j a F+5+R I w B S U.+.k.            ",
"            A+;.;.B.Z & [.M j  .v+,.6+v J 3.`.k.V.!.          ",
"            8+B.= i.|+B+D.G 5.F+4.).R h+++(+/+`.k.n V.        ",
"          %.%.$ g ' D.^+N / a.) <+u.f+H v /.@ '+a+%+%+n       ",
"        8.C+_.=.; 6.8 ..}+~ p.{ u.2 l+i h+w N.S |.^ %+z+d.    ",
"        w.(.6 ~ E.f * 0.}+e o r j+u.l+} y+1+.+@ t+b+M.+ !     ",
"      &.(.E ) !+7 , E.u r { m.j+).A.l+g.>.9+m+;+o.a+M.+.z+d.  ",
"      P.2.-+y ,+h [ :.0 ) s <+'.A.V V q+>.#+1+.+@ t+^ c+H.{.  ",
"      f+_ E x.Y z.~.r ) v+i.g+'.A.l+A g.^.E+W y.;+3 a+%+H.s+  ",
"    6+q+<+_ _ 5+: 5 <.5+x.X.2 A.l+o+g.} p+>.c 1+d+r.`.c+H.n+F ",
"    6+s.A.'._ X.A.f+'.g+'.u.V V o+q+g.p+^.R.W.[+y.=+3 ^ + Y.t.",
"    l y+*+#.>+:+>+2 <+2 A.A.l+o+o+g.p+p+^.R.@+C.# 9.S I.K ! 4+",
"    v 9+i } A.P :+_+2 2+V V o+g.g.7.n.*+R.1.r+z [+ +@ `.^ $+t.",
"    1+l #+>.g.2+_+2 #.V V o+g.g.p+p+0+0+R.h.@+W.3+# X r.a+T {.",
"    (+d+[+U R.s.#.2+#.A A g.g.p+^.^.0+1.h.h.J.$.C.4 @.@ O n+x+",
"    m+w [+w+U *+A #.V A g.g.7.^.^.R.R.h.r+J.J.W.T.L. +X I.| x+",
"      m+K.[+w+@+^.d d d g.p+p+*+*+1.h.@+r+$.z z T.3+# 9 I.s+  ",
"      N.;+# W c @+^.d d 7.^.] 0+1.h.r+r+W.W.f.T.% C.e.@.^ s+  ",
"      /+r.9.e+C.z h.] 7.7.] ] 1.1.r+J.$.$.z f.% q.q.# 3 S.F   ",
"        /+=+ +1+W z h.] ] ] 1.1.@+r+J.J.f.T.% C.q.4 @.K {.    ",
"        S o.r.l.e+q.z h.0+0+h.r+J.J.z c T.C.C.C.L @.! {.F     ",
"          + O.O u+e+C.z r+1.r+1 J.z f.f.% % q.L.-.O b x+      ",
"            !.+ a+9 e.% $.1 J.$.$.z T.% q.q.4 @.a+d.x+        ",
"              T Y.z+`. +3+z J.z T.T.% 3+L. +=+Y.b G.          ",
"                s+s+( O.`.9 e.e.# <  +X 7+! | G..             ",
"                    4+4+b | ( ! ( S.S.| | x+.                 ",
"                          F x+x+x+G.x+x+                      "};
