/* XPM */
static char * knob16_xpm[] = {
"31 31 256 2",
"  	c None",
". 	c #0A0202",
"+ 	c #3A2E2E",
"@ 	c #6A5E5E",
"# 	c #827676",
"$ 	c #CA767A",
"% 	c #CE565A",
"& 	c #6E161E",
"* 	c #9E8E8E",
"= 	c #E86670",
"- 	c #A2363A",
"; 	c #6A0A16",
"> 	c #C25E62",
", 	c #C69296",
"' 	c #4C3E3E",
") 	c #BE8E92",
"! 	c #322626",
"~ 	c #CA969C",
"{ 	c #BA7A7E",
"] 	c #965E66",
"^ 	c #4E1216",
"/ 	c #7E3642",
"( 	c #864246",
"_ 	c #261A1A",
": 	c #524646",
"< 	c #8A7E7F",
"[ 	c #D6B2B6",
"} 	c #8A5E66",
"| 	c #A98E90",
"1 	c #7A6E6E",
"2 	c #160A0A",
"3 	c #6A3236",
"4 	c #9E8284",
"5 	c #AE9A9A",
"6 	c #DE9A9E",
"7 	c #5A4E4E",
"8 	c #C69AA2",
"9 	c #8E8282",
"0 	c #BA969A",
"a 	c #AE2A42",
"b 	c #DAA2A4",
"c 	c #766A6B",
"d 	c #62262E",
"e 	c #CAAAAD",
"f 	c #625254",
"g 	c #9C7A7A",
"h 	c #928686",
"i 	c #BA9EA2",
"j 	c #7D5E62",
"k 	c #A24A52",
"l 	c #7A464E",
"m 	c #8E626A",
"n 	c #E27A82",
"o 	c #F64A4A",
"p 	c #B68E8E",
"q 	c #8A2232",
"r 	c #4A3236",
"s 	c #D69E9E",
"t 	c #6A3E42",
"u 	c #1A0E10",
"v 	c #A69296",
"w 	c #B26666",
"x 	c #AE3E46",
"y 	c #6A5A5C",
"z 	c #BAA2A5",
"A 	c #E28286",
"B 	c #8C5A5E",
"C 	c #C2565E",
"D 	c #92767A",
"E 	c #AE8686",
"F 	c #C26E76",
"G 	c #C69E9E",
"H 	c #967E7E",
"I 	c #725E60",
"J 	c #9E3A4A",
"K 	c #B29292",
"L 	c #866E6E",
"M 	c #D6868A",
"N 	c #160608",
"O 	c #96868A",
"P 	c #5A0E16",
"Q 	c #9E666A",
"R 	c #B69A9C",
"S 	c #7E2632",
"T 	c #765656",
"U 	c #EAB6B6",
"V 	c #664A4C",
"W 	c #5B4245",
"X 	c #221616",
"Y 	c #DEA2A2",
"Z 	c #D6767E",
"` 	c #C6A6AA",
" .	c #D5AAAE",
"..	c #463A3A",
"+.	c #5E161E",
"@.	c #968A8A",
"#.	c #6E5252",
"$.	c #DA626A",
"%.	c #9F8A8B",
"&.	c #A69696",
"*.	c #A29292",
"=.	c #EA727A",
"-.	c #562226",
";.	c #726266",
">.	c #CE9296",
",.	c #220E12",
"'.	c #926A6E",
").	c #7A6667",
"!.	c #D2929A",
"~.	c #86767A",
"{.	c #D6727E",
"].	c #826A6E",
"^.	c #120204",
"/.	c #3E2E2E",
"(.	c #DAAEB2",
"_.	c #BE4A66",
":.	c #C2A2A5",
"<.	c #322226",
"[.	c #DA9696",
"}.	c #928286",
"|.	c #9A6E72",
"1.	c #584648",
"2.	c #A48282",
"3.	c #7E6E6F",
"4.	c #C29EA0",
"5.	c #6A5255",
"6.	c #BE4656",
"7.	c #B28A8E",
"8.	c #CE9EA6",
"9.	c #8E6E72",
"0.	c #392A2C",
"a.	c #E2B2B6",
"b.	c #CEA6A8",
"c.	c #634E51",
"d.	c #B29E9F",
"e.	c #563A3E",
"f.	c #D3A6AA",
"g.	c #4B3A3C",
"h.	c #8A7A7D",
"i.	c #B29A9E",
"j.	c #962A32",
"k.	c #661222",
"l.	c #DE8A8A",
"m.	c #EA6E72",
"n.	c #625656",
"o.	c #1E1213",
"p.	c #B69E9E",
"q.	c #7E7272",
"r.	c #523E42",
"s.	c #E2A6A8",
"t.	c #46363A",
"u.	c #EA525E",
"v.	c #B69698",
"w.	c #DC7E84",
"x.	c #C2A6A9",
"y.	c #7A6A6D",
"z.	c #AE9699",
"A.	c #5E4A4B",
"B.	c #926E72",
"C.	c #AE9296",
"D.	c #927E82",
"E.	c #F2666E",
"F.	c #736667",
"G.	c #EE7A7E",
"H.	c #A68A8E",
"I.	c #6A363E",
"J.	c #B26E76",
"K.	c #E2BABA",
"L.	c #DE9296",
"M.	c #9A8688",
"N.	c #AE8E8F",
"O.	c #0E0202",
"P.	c #1B0A0D",
"Q.	c #8B7677",
"R.	c #BA868A",
"S.	c #6E6264",
"T.	c #6E5A5D",
"U.	c #120608",
"V.	c #C29696",
"W.	c #CAA6AB",
"X.	c #AA8686",
"Y.	c #766264",
"Z.	c #221214",
"`.	c #594A4C",
" +	c #BE9EA2",
".+	c #A28E92",
"++	c #7A6264",
"@+	c #937A7D",
"#+	c #D6AEB2",
"$+	c #BEA2A5",
"%+	c #F24A56",
"&+	c #8E7E7F",
"*+	c #6E5E61",
"=+	c #DEB6BE",
"-+	c #722E36",
";+	c #A27676",
">+	c #9A8A8A",
",+	c #AA9696",
"'+	c #462E32",
")+	c #3E2A2A",
"!+	c #4E4242",
"~+	c #A48688",
"{+	c #B6A2A2",
"]+	c #E0AAAC",
"^+	c #B88A90",
"/+	c #BEA6A6",
"(+	c #C6A2A6",
"_+	c #CEAAAD",
":+	c #1E0E0F",
"<+	c #AA9294",
"[+	c #826E70",
"}+	c #D2A2A7",
"|+	c #9A8A8E",
"1+	c #968284",
"2+	c #AA969A",
"3+	c #8B7272",
"4+	c #CAA2A6",
"5+	c #DAB6BA",
"6+	c #BD9A9D",
"7+	c #B29699",
"8+	c #6A5656",
"9+	c #CEA2A6",
"0+	c #8E7A7A",
"a+	c #665658",
"b+	c #7E6A6C",
"c+	c #BE929A",
"d+	c #B87E84",
"e+	c #9E868A",
"f+	c #DAA6AA",
"g+	c #867274",
"h+	c #5C1A22",
"i+	c #6E565A",
"j+	c #423234",
"k+	c #544242",
"l+	c #5E4E4F",
"m+	c #665253",
"n+	c #765E5E",
"o+	c #827275",
"p+	c #9E8E92",
"q+	c #AE9A9E",
"r+	c #B69EA2",
"s+	c #9A7E80",
"t+	c #26161A",
"u+	c #362224",
"v+	c #261216",
"w+	c #CA7A7E",
"x+	c #662A2E",
"y+	c #8A2632",
"z+	c #7E2A2E",
"A+	c #725A5E",
"B+	c #EABABA",
"C+	c #9A7272",
"D+	c #DA8E92",
"E+	c #927276",
"F+	c #EE4E56",
"G+	c #1A060A",
"                                                              ",
"                                                              ",
"                          V.E 2.g E+9.j                       ",
"                    [.]+B+K. +N.4 @+L n+n+5.e.                ",
"              u.w.D+s.U a.(.4+0 | 4 Q.].++T.A.m+i+            ",
"            %+=.w.l.6 s.f+ .b.(+0 | s+3+].++T.8+f r.          ",
"          o E.= % > w+[.}+ .f.W.4.v.H.H g+).Y.T.8+`.g.        ",
"        F+G.m.Z C x k J., }+_+b.` i C.e+@+L ).I y m+`.r       ",
"        $.= {.` _.- S / ] R.4+4+(+:.R | M.Q.].Y.I 8+f g.v+    ",
"        w.n F 6.a q k.+.3 } c+W.` /+i 5 | 1+~.b+;.y f 1.<.    ",
"      M L.$ - y+y+; P d l m c+` (+x. +r+2+%.D.g+b+;.y 7 j+,.  ",
"      >.Y w S & P P -+{ R.0 [ W.x.$+z r+i.<+M.&+o+c @ f !+t+  ",
"      s s { ( h+^ d d+}+8. .5+` :.$+z r+d.z..+O 0+[+F.y `.0.  ",
"    d+}+f+~ Q 3 -.B 8 8. .5+e :.z i r+r+q+q+2+* }.~.y.*+f t.P.",
"    ;+7.9+}+) B t |.G #+[ b.4. +i i r+d.q+2+2+.+M.D.# c @ !+u ",
"    C+X.G b.b.p '.7.b.5+_+$+$+i r+r+i.i.z.2+v *.p+}.h.3.S.: P.",
"    ;+H.K 8 (+(+6+(+W.` :.i i i R i.q+5 2+2+&.*.p+O 9 ~.c 7 u ",
"    3+g ~+C.6+:.` x.x.:. +i i r+i.q+z.2+,+*.p+p+* |+h < 3.`.u ",
"    j j 3+4 H.v.$+$+$+z i r+R d.i.5 2+v v *.p+|+@.M.h 9 1 + U.",
"    T #.A+L s+H.7+r+z i i r+d.q+5 2+<+v *.*.* p+|+h }.&+c t+O.",
"      #.#.++3+@+%.2+r+d.i.i.q+2+2+&.&.*.p+* >+@.@.O 9 < y Z.  ",
"      V W c.Y.3+@+e+| q+i.q+z.z.<+v .+.+* |+@.O 1+9 9 c <.O.  ",
"      W 1.A.T.++[+0+M..+,+2+,+&.v *.*.* |+M.O h }.9 < @ o.^.  ",
"        #.V c.T.Y.3.Q.}.>+v *.v *.*.|+|+>+@.O }.9 h.S.! N     ",
"        c.k+g.A.8+*+).g+&+>+p+* p+* |+@.O }.9 9 < ;.+ U..     ",
"          '+/.g.1.m+*+Y.3.Q.}.|+>+|+>+O }.h 9 h.S.+ U..       ",
"            )+0.j+r.7 a+;.3.Q.9 O O O h 9 < 1 @ 0.2 .         ",
"              u+:+o.! g.f @ c o+h.9 9 h.o+@ <.Z.U..           ",
"                P.^.:+Z.<...`.n.@ F.F.n.g._ O.O..             ",
"                    v+2 N N :+o.Z.o.X o.P.O.O.                ",
"                          O.O.. O.O.. O.                      "};
