/* XPM */
static char * knob48_xpm[] = {
"31 31 256 2",
"  	c None",
". 	c #170202",
"+ 	c #4A3A37",
"@ 	c #7E726E",
"# 	c #A79695",
"$ 	c #D2C6C5",
"% 	c #701210",
"& 	c #9A3A2A",
"* 	c #BEB2B0",
"= 	c #3E2E2E",
"- 	c #CA725E",
"; 	c #5C4E4C",
"> 	c #4E0E06",
", 	c #8E8280",
"' 	c #362622",
") 	c #B07268",
"! 	c #AFA2A1",
"~ 	c #3A0602",
"{ 	c #7E4E48",
"] 	c #EEE2E1",
"^ 	c #E6987A",
"/ 	c #863A2E",
"( 	c #A2726A",
"_ 	c #665A56",
": 	c #BA4E3E",
"< 	c #BA827A",
"[ 	c #C6BAB6",
"} 	c #2A1A18",
"| 	c #865E56",
"1 	c #E2DAD6",
"2 	c #CA5646",
"3 	c #E29A86",
"4 	c #381E16",
"5 	c #5A2E2A",
"6 	c #6A3A32",
"7 	c #9E726E",
"8 	c #9A1C16",
"9 	c #260602",
"0 	c #52261E",
"a 	c #B9AAA9",
"b 	c #9D8E8B",
"c 	c #DDD2D1",
"d 	c #9E5246",
"e 	c #CA867C",
"f 	c #4E423E",
"g 	c #95726D",
"h 	c #9E827E",
"i 	c #8E6E68",
"j 	c #796A69",
"k 	c #B29693",
"l 	c #56302A",
"m 	c #DEAE92",
"n 	c #2E1612",
"o 	c #9A6A62",
"p 	c #6A180E",
"q 	c #3E1A16",
"r 	c #9A2E26",
"s 	c #CEC2BE",
"t 	c #81625D",
"u 	c #8B7E7D",
"v 	c #6E5652",
"w 	c #2D120E",
"x 	c #DACECD",
"y 	c #4A0A02",
"z 	c #522222",
"A 	c #AE665A",
"B 	c #6A5C5A",
"C 	c #B29A96",
"D 	c #AE8A86",
"E 	c #94625C",
"F 	c #B6A29F",
"G 	c #4A2E2A",
"H 	c #D67666",
"I 	c #1D0A07",
"J 	c #71625F",
"K 	c #3A120A",
"L 	c #7C2216",
"M 	c #867A76",
"N 	c #9E8A87",
"O 	c #C27262",
"P 	c #663E36",
"Q 	c #967672",
"R 	c #E29272",
"S 	c #5B4644",
"T 	c #BEAAA7",
"U 	c #4A261E",
"V 	c #661A12",
"W 	c #A69A96",
"X 	c #624E4A",
"Y 	c #3E322E",
"Z 	c #2F0602",
"` 	c #A37A72",
" .	c #8A726E",
"..	c #C6B2B1",
"+.	c #B27A72",
"@.	c #CEBEBE",
"#.	c #441E18",
"$.	c #B6A6A5",
"%.	c #AA8E88",
"&.	c #D6CAC6",
"*.	c #D66652",
"=.	c #928280",
"-.	c #725A52",
";.	c #9B7A77",
">.	c #BEAEAC",
",.	c #420606",
"'.	c #816A65",
").	c #62423E",
"!.	c #561A12",
"~.	c #76463E",
"{.	c #988A88",
"].	c #C6B6B4",
"^.	c #B29E9B",
"/.	c #1F0602",
"(.	c #645652",
"_.	c #CE7E76",
":.	c #A6928E",
"<.	c #524642",
"[.	c #3A2A26",
"}.	c #BEA6A4",
"|.	c #B2928F",
"1.	c #523A36",
"2.	c #6A2E26",
"3.	c #360A07",
"4.	c #322220",
"5.	c #947E7A",
"6.	c #423633",
"7.	c #8E564A",
"8.	c #8A6864",
"9.	c #2E0A06",
"0.	c #A6827A",
"a.	c #AD9A97",
"b.	c #BA9E9E",
"c.	c #52120A",
"d.	c #885048",
"e.	c #D2826E",
"f.	c #766261",
"g.	c #CABEBB",
"h.	c #4A3632",
"i.	c #5A2A26",
"j.	c #D6867A",
"k.	c #6A4E4A",
"l.	c #775E5B",
"m.	c #988280",
"n.	c #9E6E66",
"o.	c #624642",
"p.	c #9E928F",
"q.	c #E2D6D5",
"r.	c #AE6E62",
"s.	c #761A12",
"t.	c #905E56",
"u.	c #A28A86",
"v.	c #AE9E9C",
"w.	c #AE9692",
"x.	c #A46658",
"y.	c #4A1A16",
"z.	c #7A524E",
"A.	c #BAA2A0",
"B.	c #4A3E3A",
"C.	c #C2AEAE",
"D.	c #220A04",
"E.	c #BAAEAD",
"F.	c #5D4A49",
"G.	c #D2C2C2",
"H.	c #463230",
"I.	c #280A04",
"J.	c #563632",
"K.	c #6A1E16",
"L.	c #A2362A",
"M.	c #C67A6E",
"N.	c #420E06",
"O.	c #3E0E0A",
"P.	c #D6C6C6",
"Q.	c #CABAB9",
"R.	c #AA928E",
"S.	c #CAB6B6",
"T.	c #968684",
"U.	c #827271",
"V.	c #522E2E",
"W.	c #370E07",
"X.	c #8A7A79",
"Y.	c #E8DADA",
"Z.	c #54423E",
"`.	c #AA7E7A",
" +	c #422A26",
".+	c #AA7266",
"++	c #4A1E1A",
"@+	c #BAA6A5",
"#+	c #560E0A",
"$+	c #D97E6D",
"%+	c #6A4642",
"&+	c #947A76",
"*+	c #966E66",
"=+	c #42140A",
"-+	c #BA7E78",
";+	c #B66A5A",
">+	c #AE928E",
",+	c #726664",
"'+	c #8D7673",
")+	c #9E7E7A",
"!+	c #786662",
"~+	c #B69E9B",
"{+	c #D2725A",
"]+	c #3E1E1A",
"^+	c #622E22",
"/+	c #A28E8E",
"(+	c #E2D2D2",
"_+	c #B69A98",
":+	c #DACACA",
"<+	c #7E463E",
"[+	c #6A5652",
"}+	c #C2B6B2",
"|+	c #220C0C",
"1+	c #C2AAAA",
"2+	c #463633",
"3+	c #9A8685",
"4+	c #1A0602",
"5+	c #564A46",
"6+	c #2E0E06",
"7+	c #A26A62",
"8+	c #DECECE",
"9+	c #C2B2B0",
"0+	c #F2E2E1",
"a+	c #A2827D",
"b+	c #A2928E",
"c+	c #B2A6A6",
"d+	c #4F2A25",
"e+	c #7A6E6E",
"f+	c #63524F",
"g+	c #A67E7A",
"h+	c #715E5A",
"i+	c #A68682",
"j+	c #86726E",
"k+	c #42322E",
"l+	c #5E5252",
"m+	c #362A26",
"n+	c #82524E",
"o+	c #A4766E",
"p+	c #9C766E",
"q+	c #480E06",
"r+	c #4A322E",
"s+	c #42221E",
"t+	c #523E3A",
"u+	c #6A524E",
"v+	c #5A120A",
"w+	c #684A44",
"x+	c #564645",
"y+	c #320A06",
"z+	c #A68A86",
"A+	c #8E7A76",
"B+	c #D6CACA",
"C+	c #422E2A",
"D+	c #2A0602",
"E+	c #B69696",
"F+	c #3E2A26",
"G+	c #4E3E3A",
"                                                              ",
"                                                              ",
"                          b+{.T.U.X.=.j+                      ",
"                    ].@.s a ! p.X.u T.U.f.J f.                ",
"                Y.] B+G.s ].a ! # b {.T.U.J h+x+r+            ",
"              Y.0+q.8+x P.@.}+E.c+v.# {.m.A+j S H.1.          ",
"            0+q.c x P.B+$ G.@.].>.a ^.# b T.X.h+x+G+G         ",
"          q.Y.c :+&.B+G.G.G.@.g.].>.$.v.# /+3+A+f.S F+4       ",
"        0+q.x x B+P.$ G.@.Q.Q.Q.S...C.a ~+w.b+u.&+J r+w w     ",
"        (+x x &.P.$ G.@.Q.Q.S...9+9+1+1+@+F k :.N &+u+n /.    ",
"      0+c x B+&.G.s @.@.Q.]...C.C.T }.}.@+F ~+k R.u. .r+I.D+  ",
"      c x B+P.$ $ s g.[ ]...9+C.1+T @+A.~+b._+_+k %.)+k.w 9   ",
"      &.B+&.$ s @.@.Q.Q.]...C.T }.}.A.b.~+_+k |.E+>+D i 4 D+  ",
"    8+x &.$ s @.@.[ [ ..9+>.T T @+b.~+~+%.;.&+)+i+D D Q 0 9.Z ",
"    ] x $ G.s g.Q.Q.}+..C.C.}.}.A.b._+|.8.d+s+l z.p+g+7 V.y+Z ",
"    Y.$ s s @.Q.].}+..C.>.a a F F _+E+h V.y+3.#.5 ~.E o 6 O.Z ",
"    s g.g.g.g.[ ].}+>.C.T @+@+A.~+C %.8.q 3.z n+<+~.d.d.2.y ~ ",
"    c+a E.* * 9+9+>.>.a }.A.F ~+~+E+a+l 6+=+o -+-+) A d V y ~ ",
"    , {.# ! c+a E.>.T a @+A.~+C C |.&+#.O.i.+.e _.e.$+2 L v+q+",
"    l+@ u T.p.W v.! ! F ! ^.^.C k R.Q z y.n+-+e.$+3 ^ *.r p #+",
"      _ ,+@ '+, 3+b+# a.v.C a.w.>+%.)+o.P | ) M.$+^ Y.{+L.s.8 ",
"      <.(._ ,+j @ u T.b %.# >+# >+%.u.7 | t.x.;+{+R m : 8 %   ",
"      G+<.5+l+_ h+!+e+X.u T.i+N z+z+i+g+o+n.x.r.O e.- & L %   ",
"        = B.f F.; (.-.J !+j+'+5.m.h h a+a+g+o+.+r.x./ V V     ",
"        = Y 6.B.f <.F.f+[+h+f.'.i '+&+;.;.` o+n.d.^+!.c.v+    ",
"          } m+6.+ + G+Z.x+F.f+v l.f.8.i g g *+| d+=+q+y       ",
"            k+k+6.6.2+h.1.t+Z.S w+u+v l.t | %+d+K W.=+        ",
"              4.' = Y k+k+2+1.t+Z.Z.F.o.F.).4 6+9.3.          ",
"                w } ' ' ' [.[.C+G G F+n w w D+D+y+            ",
"                    I I I I I I |+I D././.9 I.                ",
"                          4+. . 4+. . /.                      "};
