/* XPM */
static char * knob41_xpm[] = {
"31 31 256 2",
"  	c None",
". 	c #0A0202",
"+ 	c #382A2A",
"@ 	c #796A69",
"# 	c #A49695",
"$ 	c #DACECC",
"% 	c #660E0E",
"& 	c #B9AAA9",
"* 	c #9A3632",
"= 	c #DA665E",
"- 	c #4B0907",
"; 	c #5E5252",
"> 	c #CEC2C0",
", 	c #360704",
"' 	c #968685",
") 	c #AC6A66",
"! 	c #6E2E2A",
"~ 	c #2D1A19",
"{ 	c #564642",
"] 	c #C6BAB9",
"^ 	c #EBDAD9",
"/ 	c #2E0202",
"( 	c #513333",
"_ 	c #8A6A66",
": 	c #AD9E9E",
"< 	c #361E1E",
"[ 	c #866262",
"} 	c #917F7E",
"| 	c #1E1211",
"1 	c #4B1917",
"2 	c #CE524E",
"3 	c #901E1E",
"4 	c #B68686",
"5 	c #1E0202",
"6 	c #B2423E",
"7 	c #CC7672",
"8 	c #C2B6B5",
"9 	c #A67676",
"0 	c #6E524E",
"a 	c #C69E9A",
"b 	c #CBADAB",
"c 	c #867676",
"d 	c #513F3F",
"e 	c #F4E6E6",
"f 	c #E2BAAE",
"g 	c #A28986",
"h 	c #DCC2C1",
"i 	c #C07A78",
"j 	c #6E4E4E",
"k 	c #B69695",
"l 	c #CA8E8E",
"m 	c #A64E46",
"n 	c #3E1614",
"o 	c #966662",
"p 	c #6D5B5A",
"q 	c #BEB2B1",
"r 	c #320602",
"s 	c #B89E9D",
"t 	c #200E0E",
"u 	c #7A1612",
"v 	c #1A0202",
"w 	c #473636",
"x 	c #823C34",
"y 	c #C2564E",
"z 	c #593332",
"A 	c #DA766A",
"B 	c #E1D2D1",
"C 	c #4B1E1B",
"D 	c #7D5B57",
"E 	c #BA7C78",
"F 	c #C3AAA8",
"G 	c #AA9695",
"H 	c #A2908C",
"I 	c #917775",
"J 	c #B6A2A1",
"K 	c #D2BAB7",
"L 	c #674746",
"M 	c #968282",
"N 	c #563E3A",
"O 	c #D9C6C6",
"P 	c #AC7A78",
"Q 	c #622622",
"R 	c #310D0D",
"S 	c #EEE2DF",
"T 	c #492F2F",
"U 	c #460C08",
"V 	c #9A6262",
"W 	c #92423E",
"X 	c #6A1A16",
"Y 	c #620A06",
"Z 	c #817575",
"` 	c #B63E3A",
" .	c #DFC6C3",
"..	c #0E0202",
"+.	c #3A221E",
"@.	c #DC887A",
"#.	c #967A79",
"$.	c #A6221E",
"%.	c #662A22",
"&.	c #200A0A",
"*.	c #361212",
"=.	c #120202",
"-.	c #BEA2A0",
";.	c #623737",
">.	c #322626",
",.	c #B2928E",
"'.	c #2A1616",
").	c #1A0A09",
"!.	c #764A4A",
"~.	c #CABAB9",
"{.	c #B47E7A",
"].	c #DE625E",
"^.	c #726262",
"/.	c #C77F7D",
"(.	c #9E928E",
"_.	c #CEB6B2",
":.	c #7E5656",
"<.	c #966E6E",
"[.	c #B2A2A2",
"}.	c #DECECD",
"|.	c #CABEBD",
"1.	c #AE5E56",
"2.	c #A6908C",
"3.	c #B29694",
"4.	c #CA726E",
"5.	c #86726E",
"6.	c #7E221E",
"7.	c #120605",
"8.	c #56201C",
"9.	c #955D59",
"0.	c #D67A72",
"a.	c #E6D2D2",
"b.	c #BAAEAC",
"c.	c #B6A6A6",
"d.	c #A6817D",
"e.	c #5A1612",
"f.	c #CAB6B5",
"g.	c #C6B2B0",
"h.	c #9A8282",
"i.	c #2F1E1E",
"j.	c #564A4A",
"k.	c #4C2622",
"l.	c #420602",
"m.	c #DA827A",
"n.	c #5A4242",
"o.	c #9A6A66",
"p.	c #BA6A62",
"q.	c #EADEDA",
"r.	c #624E4A",
"s.	c #422A2A",
"t.	c #C29A9A",
"u.	c #D2C6C5",
"v.	c #A88684",
"w.	c #9D7672",
"x.	c #360E0A",
"y.	c #C2AEAC",
"z.	c #441E1A",
"A.	c #540808",
"B.	c #230202",
"C.	c #766262",
"D.	c #C5A6A4",
"E.	c #D6B2B2",
"F.	c #761A1A",
"G.	c #160202",
"H.	c #E6CECD",
"I.	c #927270",
"J.	c #4A3E3E",
"K.	c #D6CAC6",
"L.	c #A16E6D",
"M.	c #3E2626",
"N.	c #9E8886",
"O.	c #A17E7D",
"P.	c #665A56",
"Q.	c #362624",
"R.	c #BE827E",
"S.	c #AC9A99",
"T.	c #806C6C",
"U.	c #BEAAA9",
"V.	c #AB8E8B",
"W.	c #C28682",
"X.	c #BE9292",
"Y.	c #8A221E",
"Z.	c #F8EAE9",
"`.	c #1A0606",
" +	c #DFCAC9",
".+	c #CEBEBD",
"++	c #DABABA",
"@+	c #6E1612",
"#+	c #CEB2AE",
"$+	c #2A1212",
"%+	c #8A4A46",
"&+	c #8E6262",
"*+	c #423232",
"=+	c #76221E",
"-+	c #613E3E",
";+	c #B29A99",
">+	c #241210",
",+	c #B29E9D",
"'+	c #C6B6B5",
")+	c #AB817D",
"!+	c #E6D6D5",
"~+	c #3E0606",
"{+	c #C2B2B1",
"]+	c #BAA6A4",
"^+	c #6A3632",
"/+	c #EFDEDD",
"(+	c #DACACA",
"_+	c #AD9291",
":+	c #BEA6A3",
"<+	c #745352",
"[+	c #E2C2B6",
"}+	c #260E0E",
"|+	c #5C4D4D",
"1+	c #916B6B",
"2+	c #522222",
"3+	c #CE7E7A",
"4+	c #E2D6D6",
"5+	c #240606",
"6+	c #665452",
"7+	c #AE7676",
"8+	c #461A16",
"9+	c #321616",
"0+	c #7E6262",
"a+	c #BEAEAD",
"b+	c #3B2E2E",
"c+	c #988A8A",
"d+	c #B69A9A",
"e+	c #D4BEBE",
"f+	c #B2A6A6",
"g+	c #30221E",
"h+	c #AA8A87",
"i+	c #9E7A7A",
"j+	c #A27272",
"k+	c #A28280",
"l+	c #62423E",
"m+	c #BAA2A0",
"n+	c #E2CECD",
"o+	c #EAD6D3",
"p+	c #D2C2C1",
"q+	c #5E4646",
"r+	c #825A5A",
"s+	c #F2E2E2",
"t+	c #E2867E",
"u+	c #260A0A",
"v+	c #D27266",
"w+	c #160603",
"x+	c #E27E72",
"y+	c #6A4E4A",
"z+	c #C6AEAD",
"A+	c #442220",
"B+	c #DABEBE",
"C+	c #221616",
"D+	c #AE9695",
"E+	c #A69A9A",
"F+	c #1E0606",
"G+	c #CEBAB8",
"                                                              ",
"                                                              ",
"                          U.]+G M h.g #.                      ",
"                    f.'+'+~..+y.G G G N.#.0+L                 ",
"                {+.+O (+}.(+ +O e+K _.z+-.I L l+;.            ",
"              O }.4+4+!+B n+B n+}. + .h e+D.I j l+;.          ",
"            }.!+^ /+q./+^ !+!+a.n+ + +[+h ++D.O.<+z 1         ",
"          n+q.e e s+s+/+/+^ o+a.H. + .h ++E.b a )+!.1 U       ",
"        $ S Z.Z.Z.s+s+/+^ a.H. + .B+K #+b a t.X.4 o.^+U -     ",
"        ^ e Z.Z./+q.!+n+ +O e+K g.b D.k v.d.w.o 9.9.%+e.A.    ",
"      !+S q.^ 4+}.(+O e+K ~.#+z+F D.3.<+k.z.2+8.Q x W F.% F.  ",
"      s+B }.K.K.p+> |.~.'+g.y.y.F -.h+z R , 1 Q x m y ` Y.u   ",
"      4+$ K.u.p+.+.+~.'+g.g.F D.:+m+V.-+*.8+9.) p.4.@.v+` 3 $.",
"    c.u.K.u.> > |.~.'+'+z+y.U.U.:+s _+D n 1 o.7+7 @.[+}.l * @+",
"    |.> u.p+.+.+] f.g.{+y.y.:+m+-.s k I.z.C ) E /.m.x+f ].3 Y ",
"    B K.> > .+~.f.8 {+{+U.U.]+m+s d+k i+A+k.P W./.0.].m.2 6.A.",
"    ^ K.> |.] ] '+8 a+a+& ]+]+J s ;+3.O.z ;.I.{.i 4.7 3+1.X - ",
"    |.|.|.|.~.8 {+y.a+U.:+]+J s d+d+,.v.:.r+j+)+E /.i ) ! - l.",
"    # 8 |.] '+8 q a+& & c.J ,+,+3.D+_+V.k+d.)+{.P 7+7+9.8.~+, ",
"    ' q ] 8 8 {+a+a+& c.c.J ,+;+S.D+_+V.h+v.d.O.9 j+L.&+2+, / ",
"      f+8 8 q q b.& c.J ,+,+S.D+G _+H v.N.O.i+w.<.1+1+:.n r   ",
"      @ [.q b.& & & c.[.: S.G 2.g ' M #.I.1+_ [ r+:.<+;.R /   ",
"      p : b.& [.[.: S.# H c+' } I T.T.C.D 0 y+L L ;.( 9+B./   ",
"        c+# E+E+c+' ' I c @ @ C.p 6+r.|+n.N ( ( s.M.}+B.B.    ",
"        w P.Z c Z ^.^.P.6+|+q+n.N w ( b+s.M.< < n u+5 5 B.    ",
"          J.j.; |+j.{ J.w *+*++ Q.+.~ ~ ~ '.$+}+F+v v B.      ",
"            i.+ b+b++ >.g+~ ~ '.>+>+}+&.&.F+F+v v v 5         ",
"              ).| C+C+| t t t ).w+`.w+`.`.G.G.G.G.v           ",
"                =.7.7.7.7.7.7.7.=.G.G.=.G.=.=.G.5             ",
"                    ..........=.......=.=.G.v                 ",
"                          ....=.=.=....                       "};
