/* XPM */
static char * knob44_xpm[] = {
"31 31 256 2",
"  	c None",
". 	c #110203",
"+ 	c #3D2E2F",
"@ 	c #766A6A",
"# 	c #9A8C8C",
"$ 	c #BEB2B2",
"% 	c #B63242",
"& 	c #620A16",
"* 	c #7C3436",
"= 	c #42040C",
"- 	c #DED2D2",
"; 	c #CC727C",
"> 	c #B19A9C",
", 	c #2E1E1F",
"' 	c #AC6A70",
") 	c #D6CACA",
"! 	c #5E5252",
"~ 	c #863E3E",
"{ 	c #36020A",
"] 	c #CEC2C2",
"^ 	c #663E42",
"/ 	c #B6A6A6",
"( 	c #986A6E",
"_ 	c #261616",
": 	c #461212",
"< 	c #7A4242",
"[ 	c #A64E4A",
"} 	c #9A262E",
"| 	c #E28A92",
"1 	c #8E7676",
"2 	c #2B020A",
"3 	c #584646",
"4 	c #CE4E4E",
"5 	c #211213",
"6 	c #5E2A2A",
"7 	c #CABEBF",
"8 	c #AA8A8B",
"9 	c #845258",
"0 	c #987679",
"a 	c #965E6A",
"b 	c #4A2626",
"c 	c #514242",
"d 	c #AA868A",
"e 	c #82222E",
"f 	c #D2BABA",
"g 	c #1E0E11",
"h 	c #C8A6A6",
"i 	c #EEE2E2",
"j 	c #523236",
"k 	c #C29E9E",
"l 	c #B26E76",
"m 	c #BA6272",
"n 	c #230206",
"o 	c #5A1612",
"p 	c #A08686",
"q 	c #3E1818",
"r 	c #76565A",
"s 	c #C2B6B6",
"t 	c #EADEDE",
"u 	c #D25662",
"v 	c #826E6E",
"w 	c #865A5A",
"x 	c #B8AAAC",
"y 	c #C07E84",
"z 	c #AE9295",
"A 	c #B2A2A2",
"B 	c #46020A",
"C 	c #A59696",
"D 	c #DA7E72",
"E 	c #4C3E40",
"F 	c #9A626A",
"G 	c #2A1014",
"H 	c #9E767A",
"I 	c #4A2024",
"J 	c #9E6C6E",
"K 	c #392A2A",
"L 	c #360E0E",
"M 	c #7E1A26",
"N 	c #765A5A",
"O 	c #664246",
"P 	c #DA6E82",
"Q 	c #331E21",
"R 	c #1E0206",
"S 	c #CAB6B8",
"T 	c #4A3236",
"U 	c #B69A9C",
"V 	c #CE6672",
"W 	c #825E5E",
"X 	c #A48286",
"Y 	c #92363A",
"Z 	c #D6C2C4",
"` 	c #BA8C8C",
" .	c #BEAAAC",
"..	c #520E0A",
"+.	c #CCB2B3",
"@.	c #EADADB",
"#.	c #857679",
"$.	c #C27A82",
"%.	c #E6829E",
"&.	c #B6A2A4",
"*.	c #B79292",
"=.	c #DA5A66",
"-.	c #695A5B",
";.	c #160204",
">.	c #9E8A8A",
",.	c #A69294",
"'.	c #B66A6E",
").	c #C2A6A9",
"!.	c #C7AAAA",
"~.	c #6E4A4E",
"{.	c #431A1E",
"].	c #DCCACC",
"^.	c #D4BEBE",
"/.	c #CABABB",
"(.	c #1A0A0E",
"_.	c #3E2226",
":.	c #9A3E3E",
"<.	c #BEAEAF",
"[.	c #7A6666",
"}.	c #E2BAD6",
"|.	c #A37E82",
"1.	c #877A7A",
"2.	c #927272",
"3.	c #D2766E",
"4.	c #BEA2A5",
"5.	c #420E0A",
"6.	c #DA7A92",
"7.	c #DE626E",
"8.	c #E2D2D2",
"9.	c #5E3A42",
"0.	c #722622",
"a.	c #624646",
"b.	c #682828",
"c.	c #B69EA0",
"d.	c #D2C6C6",
"e.	c #C2B2B4",
"f.	c #6E5252",
"g.	c #922A22",
"h.	c #A6767C",
"i.	c #C67282",
"j.	c #6A4646",
"k.	c #423636",
"l.	c #AC7278",
"m.	c #3C0A08",
"n.	c #A47276",
"o.	c #B68E8E",
"p.	c #DACECF",
"q.	c #180607",
"r.	c #36262A",
"s.	c #BEA6A8",
"t.	c #4E120E",
"u.	c #561A16",
"v.	c #D6C6C9",
"w.	c #24060A",
"x.	c #865E62",
"y.	c #826A6A",
"z.	c #7A5E5E",
"A.	c #4A1A1D",
"B.	c #422E32",
"C.	c #C6BABA",
"D.	c #A66A72",
"E.	c #A68A8C",
"F.	c #DECECE",
"G.	c #660E0A",
"H.	c #8C6468",
"I.	c #AA9696",
"J.	c #C7AEB0",
"K.	c #E2D6D6",
"L.	c #D66E76",
"M.	c #A26666",
"N.	c #CA7A82",
"O.	c #A62A26",
"P.	c #52020E",
"Q.	c #B19EA1",
"R.	c #BB9EA1",
"S.	c #32060C",
"T.	c #230E11",
"U.	c #321016",
"V.	c #3A2226",
"W.	c #CEAEAE",
"X.	c #927E7E",
"Y.	c #CEBABC",
"Z.	c #2E161A",
"`.	c #C6B2B4",
" +	c #B69698",
".+	c #561E23",
"++	c #5A3236",
"@+	c #1A0205",
"#+	c #C2AEB0",
"$+	c #9A6E76",
"%+	c #C2AAAC",
"&+	c #BE6C70",
"*+	c #AD8E91",
"=+	c #362225",
"-+	c #7A3642",
";+	c #E6667E",
">+	c #5E4A4A",
",+	c #B09698",
"'+	c #D2C2C3",
")+	c #3E0E0E",
"!+	c #CEB6B6",
"~+	c #967A7C",
"{+	c #6C5E5E",
"]+	c #522226",
"^+	c #CEBEBF",
"/+	c #DAC6C7",
"(+	c #560A12",
"_+	c #C3A2A2",
":+	c #A58E8F",
"<+	c #2A1619",
"[+	c #927A7E",
"}+	c #6E3E42",
"|+	c #261216",
"1+	c #4E2A2E",
"2+	c #F6E6E6",
"3+	c #A68686",
"4+	c #7E565A",
"5+	c #E27276",
"6+	c #8A7272",
"7+	c #BAA2A3",
"8+	c #6E2A26",
"9+	c #926666",
"0+	c #46161E",
"a+	c #AC6E76",
"b+	c #36060A",
"c+	c #4E3636",
"d+	c #A67A7E",
"e+	c #443234",
"f+	c #BA9A9D",
"g+	c #E6D6D7",
"h+	c #8E7A7D",
"i+	c #BAAEAE",
"j+	c #745E61",
"k+	c #2A1A1A",
"l+	c #BE6E7A",
"m+	c #A66672",
"n+	c #BAA6A8",
"o+	c #C6B6B8",
"p+	c #431617",
"q+	c #9F7A7E",
"r+	c #7F6266",
"s+	c #634A4C",
"t+	c #A56E72",
"u+	c #B29295",
"v+	c #52363A",
"w+	c #8A7E7E",
"x+	c #6A4A4E",
"y+	c #866266",
"z+	c #9A7276",
"A+	c #570E13",
"B+	c #EEDEDE",
"C+	c #482A2C",
"D+	c #260A0E",
"E+	c #7A6264",
"F+	c #68120E",
"G+	c #3C1214",
"                                                              ",
"                                                              ",
"                          n+Q.,.:+p X.y.                      ",
"                     ./ x e.`.i+A > >.v [.y.r                 ",
"                Y.^+^+^./.7 /.`.<.x c.p 1 1 j+f.O             ",
"              F.K.F.F.].v.'+^+/.S +.#+n+c.,.2.j+a.b           ",
"            8.t B+@.K.8.F.].].Z ^.Y.!++.J.s.U :+r C+q         ",
"          g+B+B+@.@.@.g+F.F.].v.Z '+Y.!++.!.!._+8 a.q G+      ",
"        F.K.- - F.p.F.F.]./+Z ^.^.^.f !+!+W.!.h k H ++L )+    ",
"        B+- p.) ) v.Z ^.^.f Y.!++.J.!.!.h )._+k k o.w q b+    ",
"      ].F.].].d.'+] ^+/.S +.`.J.!. .4.4.f+*.*.` ` ` t+6 m.m.  ",
"      B+- ) d.'+'+Y.7 S o+`.e.%+ .4.k u+2.W x.( J t+M.< t.m.  ",
"      B+p.v.d.] ^+Y./.S e.J.<.).s.7+R.X 1+G+q A..+b.* ~ u.t.  ",
"    2+- ) d.'+^+^+C.S e.J. .).s.7+k f+|.{.S.: .+b.* Y :.0.o ..",
"    B+p.'+] ^+/./.o+`.e.#+ .s.7+R.U  +q+{.p+9 D.'.&+4 4 [ 0.A+",
"    ].d.d.^+^+/.o+o+e.#+ . .n+R.c.U ,+q+{.p+J y i.L.| 5+3.g.G.",
"    ^+^+] 7 /./.e.`.<.#+n+n+7+R.c. +u+0 {.A.D.y ; 7.%.F.D O.F+",
"    Q.C.7 /.C.s `.<.<.x s.7+&.U  +,+o.z+I ]+t+y i.=.;+}.u } G.",
"    w+<.7 C.o+s e.<. .n+&.&.Q.>  +,+*+H ^ }+F l '.V P 6.% M A+",
"    p $ s e.$ <.<.x n+/ &.c.c.,+,+*+*+X 9+H.D.' '.l+l+m e & (+",
"      A i+x x / / A A A Q.> > ,.z 8 8 3+|.d+d+l.a+l.m+* (+P.  ",
"      1.# C C C ,.,.C ,.,.:+:+:+:+E.3+X |.q+h.H n.t+a u.= B   ",
"      -.@ 6+#.1.1.1 h+h+X.X.[+[+[+[+0 0 0 0 z+z+$+( 9 q { =   ",
"        c ! ! -.-.{+{+{+{+{+E+E+E+r+r+r+r+r+y+x.x.r I S.{     ",
"        K k.E E E c c 3 3 c 3 a.a.>+s+x+x+x+f.~.j.9.U.2 {     ",
"          =+r.K K K B.K B.B.B.e+e+e+j c+v+v+j j C+U.n S.      ",
"            5 _ k+, , Q Q Q =+=+V.=+V.V._.V.q G D+n 2         ",
"              q.(.g 5 5 _ _ _ <+<+<+<+Z.<+|+(.R R n           ",
"                . q.q.(.g T.5 5 T.T.(.R @+@+;.@+n             ",
"                    . . q.(.T.T.q.;.;.. @+@+n                 ",
"                          . . . . . ;.;.                      "};
