/* XPM */
static char * knob46_xpm[] = {
"31 31 256 2",
"  	c None",
". 	c #120202",
"+ 	c #483636",
"@ 	c #7A6A6A",
"# 	c #9E9292",
"$ 	c #D2C6C6",
"% 	c #BE424A",
"& 	c #6C1018",
"* 	c #B5A6A6",
"= 	c #372626",
"- 	c #9A4242",
"; 	c #DE6E72",
"> 	c #52060A",
", 	c #6D5A5A",
"' 	c #AE7676",
") 	c #2E1E1E",
"! 	c #CEBEBE",
"~ 	c #968686",
"{ 	c #390207",
"] 	c #7E3A3A",
"^ 	c #BEAEAD",
"/ 	c #926E6E",
"( 	c #F0E2E1",
"_ 	c #BE9A9A",
": 	c #2C1A1A",
"< 	c #634E51",
"[ 	c #9A4646",
"} 	c #967676",
"| 	c #9E1A1A",
"1 	c #AE9E9E",
"2 	c #361616",
"3 	c #310206",
"4 	c #B27E7E",
"5 	c #E6D6D6",
"6 	c #562622",
"7 	c #5A3A3E",
"8 	c #964A46",
"9 	c #D26262",
"0 	c #C6B6B6",
"a 	c #4D1D1D",
"b 	c #AC9292",
"c 	c #AE4A52",
"d 	c #2A0206",
"e 	c #8F5759",
"f 	c #863E42",
"g 	c #DED2D2",
"h 	c #6A2A2A",
"i 	c #826266",
"j 	c #8A7A7A",
"k 	c #AE8686",
"l 	c #4E2A2A",
"m 	c #E69EA2",
"n 	c #5C3E42",
"o 	c #220E12",
"p 	c #9A7678",
"q 	c #462022",
"r 	c #CE5A5A",
"s 	c #86222A",
"t 	c #BA5262",
"u 	c #764646",
"v 	c #8E6062",
"w 	c #9A8A8A",
"x 	c #524242",
"y 	c #9A7272",
"z 	c #9D8282",
"A 	c #AA666A",
"B 	c #DACECE",
"C 	c #3A2E2E",
"D 	c #390F11",
"E 	c #230206",
"F 	c #6D4649",
"G 	c #B69292",
"H 	c #DEBABE",
"I 	c #BAA6A6",
"J 	c #2A0E12",
"K 	c #422224",
"L 	c #9E8A8A",
"M 	c #B66E72",
"N 	c #62161C",
"O 	c #765C5E",
"P 	c #B29E9E",
"Q 	c #864E4E",
"R 	c #D07678",
"S 	c #9E3236",
"T 	c #460206",
"U 	c #5B4345",
"V 	c #BA5A66",
"W 	c #C68282",
"X 	c #92666A",
"Y 	c #AA9A9A",
"Z 	c #724E4E",
"` 	c #821A22",
" .	c #7E6E6E",
"..	c #C2A6A6",
"+.	c #C6AEAE",
"@.	c #462A2E",
"#.	c #160202",
"$.	c #411616",
"%.	c #7C6262",
"&.	c #A25A62",
"*.	c #9E7276",
"=.	c #9F7A7B",
"-.	c #A38E8E",
";.	c #B79696",
">.	c #CAB6B6",
",.	c #CEC2C2",
"'.	c #1E0A0A",
").	c #CA6E70",
"!.	c #563C40",
"~.	c #DACACA",
"{.	c #40262A",
"].	c #827676",
"^.	c #52161A",
"/.	c #360A0A",
"(.	c #685656",
"_.	c #BA7A7A",
":.	c #320606",
"<.	c #620A0E",
"[.	c #5A2A2A",
"}.	c #BAAAAA",
"|.	c #5B4A4A",
"1.	c #A78687",
"2.	c #82565A",
"3.	c #683A3C",
"4.	c #B2A29E",
"5.	c #E67286",
"6.	c #A26A72",
"7.	c #965E5E",
"8.	c #C2B2B2",
"9.	c #D6CACA",
"0.	c #CABABA",
"a.	c #927A7A",
"b.	c #70181E",
"c.	c #DE7A7E",
"d.	c #4C3A3A",
"e.	c #715E5E",
"f.	c #582020",
"g.	c #B2666E",
"h.	c #3E3030",
"i.	c #BE9E9E",
"j.	c #96262E",
"k.	c #C6B2B2",
"l.	c #6E4E52",
"m.	c #7A2E36",
"n.	c #664A4E",
"o.	c #1B0607",
"p.	c #B19697",
"q.	c #A37677",
"r.	c #A87C7C",
"s.	c #321E1E",
"t.	c #A56F73",
"u.	c #AE8E8E",
"v.	c #4A3132",
"w.	c #9E6266",
"x.	c #B6A2A2",
"y.	c #856A6B",
"z.	c #DE5E6A",
"A.	c #9A5A56",
"B.	c #1E0205",
"C.	c #B69A9B",
"D.	c #867272",
"E.	c #2A0A0A",
"F.	c #564A4A",
"G.	c #735356",
"H.	c #A38282",
"I.	c #AE9A9A",
"J.	c #2A161A",
"K.	c #5A3232",
"L.	c #B69E9E",
"M.	c #442E30",
"N.	c #A69696",
"O.	c #5A0810",
"P.	c #B68E8E",
"Q.	c #D2BEBE",
"R.	c #C47C7C",
"S.	c #7A161A",
"T.	c #BC626A",
"U.	c #A28A8A",
"V.	c #C6BABA",
"W.	c #D6C6C5",
"X.	c #321A1E",
"Y.	c #624648",
"Z.	c #AA8E90",
"`.	c #DE7272",
" +	c #8E666A",
".+	c #86565E",
"++	c #928282",
"@+	c #DE6672",
"#+	c #392A2A",
"$+	c #BEA6A6",
"%+	c #8B7172",
"&+	c #C2AEAE",
"*+	c #6A4E4E",
"=+	c #BEAAA9",
"-+	c #624A4A",
";+	c #A98A8B",
">+	c #BFA2A2",
",+	c #523232",
"'+	c #431A1A",
")+	c #A27E7F",
"!+	c #D2C2C2",
"~+	c #DA7E8E",
"{+	c #F6E6E6",
"]+	c #E7DAD9",
"^+	c #A49292",
"/+	c #B29292",
"(+	c #CEBABB",
"_+	c #523A3E",
":+	c #896566",
"<+	c #BAA2A1",
"[+	c #7A565A",
"}+	c #443233",
"|+	c #7E5A5A",
"1+	c #3E0A12",
"2+	c #AA6A70",
"3+	c #DECECE",
"4+	c #B6AAAA",
"5+	c #2A0607",
"6+	c #24060A",
"7+	c #412A2E",
"8+	c #726264",
"9+	c #E2D2D2",
"0+	c #CE5C66",
"a+	c #BA9E9E",
"b+	c #4E363A",
"c+	c #A2424A",
"d+	c #E66A66",
"e+	c #3E0206",
"f+	c #8E1E2A",
"g+	c #5A1A1A",
"h+	c #6E5656",
"i+	c #AA6E6E",
"j+	c #B29A9A",
"k+	c #62322E",
"l+	c #221212",
"m+	c #564646",
"n+	c #C3AAAA",
"o+	c #7C6668",
"p+	c #4C3E3E",
"q+	c #8E7E7E",
"r+	c #322222",
"s+	c #2E2222",
"t+	c #3A060A",
"u+	c #AEA2A2",
"v+	c #45060A",
"w+	c #937E80",
"x+	c #8E7A7A",
"y+	c #1A0205",
"z+	c #625252",
"A+	c #310A0A",
"B+	c #9D6669",
"C+	c #BA9A9A",
"D+	c #362224",
"E+	c #520A10",
"F+	c #927276",
"G+	c #361A1C",
"                                                              ",
"                                                              ",
"                          N.~ -.^+w+D.D.                      ",
"                    8.=+8.}.^+1 1 w w+].%+, U                 ",
"                W.~.B ! V.0 }.}.* I.N.^+z e.|.h+*+            ",
"              5 ( ]+3+9.!+! V.8.^ * x.I.^+} %.e.Y.,+          ",
"            ( 5 5 5 3+3+~.W.! 0.k.&+}.x.1 ^+U.a.-+v.K         ",
"          ( ( 5 3+B ~.~.9.W.W.Q.! k.+.n+$+<+p.;+y.Y.G+5+      ",
"        W.g g 9.W.9.!+!+!+Q.Q.Q.(+>.0 +.n+$+a+j+;+y.M.E.A+    ",
"        ]+g ~.9.9.!+,.! (+>.>.k.k.+.+.+.n+n+$+i.;.H.Z 2 :.    ",
"      ( ]+B ~.$ $ Q.! 0.0.k.k.+.&+..$+$+>+i.i.i._ G =.K.E.:.  ",
"      3+B 9.$ !+,.! (+0.k.k.k.&+=+I >+i.C.p.G P.P.P.k 2.D 3   ",
"      ~.9.W.$ !+! 0.0.>.k.+.n+..$+<+a+C+;+/ / y q.r.4 B+$.{   ",
"    ( 3+W.$ !+! ! 0.0 0 8.^ =+$+>+a+L.u.|+q '+a k+Q 6.7.f.t+{ ",
"    3+9.$ ,.! 0.0.0 8.+.n+=+I <+<+C+C.)+l A+A+'+f.h ] f g+v+e+",
"    V.,.!+! ! 0.0 k.k.^ ^ =+$+<+C+C.G p '+:.f.A.A.[ - - b.E+v+",
"    3+$ ,.! V.V.0 8.&+=+$+I <+L.a+p.u.:+$.$..+_.R.).9 r S & > ",
"    g ! ! 0 V.0 8.^ =+=+I x.L.L.p.;.1.Y.D a i+W R R d+c.% ` O.",
"    w 4+0 8.8.8.8.^ }.I <+x.L.j+p./+H.F $.[.i+W R ; m H t f+N ",
"    q+N.1 * * * * }.I * x.L.j+j+p.u.1.|+3.u B+M ).@+; ~+c s & ",
"      j ++w # N.N.Y j+I.I.j+p.p.b u.;+=.v v w.A T.r z.r j.S.| ",
"      F.8+ .].j q+~ w -.-.^+^+Z.-.;+;+H.)+t.t.2+g.T.V c+b.<.  ",
"      + F.z+(.e.8+o+ .D.x+w+w+z z H.H.)+)+=.t.i+A &.m.N E+O.  ",
"        h.d.m+F.F.z+z+, e.%.@ y.%+%+F+y p *.*.6.6..+^.v+v+    ",
"        #+= C + d.p+x m+|.-+*+z+h+O %.i :+:+ + +.+3.1+{ v+    ",
"          l+) #+#+C C }++ d._+U U Y.n.l.G.[+[+u '+/.3 {       ",
"            : : r+= D+= 7+#+7+M.v.b+_+7 7 n 7 q 5+E {         ",
"              '.l+: r+s.s.D+D+= 7+7+7+7+{.G+E.6+E 3           ",
"                o J.: ) ) ) : : X.G+2 J 6+o.B.E E             ",
"                    o.o.'.o o.y+o.o.o.o.y+E E                 ",
"                          . . . . . . y+                      "};
