/* XPM */
static char * knob49_xpm[] = {
"31 31 256 2",
"  	c None",
". 	c #160202",
"+ 	c #4E423F",
"@ 	c #897A76",
"# 	c #C2B6B2",
"$ 	c #C65646",
"% 	c #9E928F",
"& 	c #6E1212",
"* 	c #41322F",
"= 	c #8A5246",
"- 	c #796A67",
"; 	c #501208",
"> 	c #D27E68",
", 	c #DED2CF",
"' 	c #B6AAA6",
") 	c #39221F",
"! 	c #AE7A6E",
"~ 	c #6A5E5A",
"{ 	c #E69666",
"] 	c #CAC2BE",
"^ 	c #300602",
"/ 	c #824642",
"( 	c #8A625E",
"_ 	c #A29A96",
": 	c #9A7A72",
"< 	c #5A4E4A",
"[ 	c #311E1B",
"} 	c #A20E0E",
"| 	c #DA6E5A",
"1 	c #9D827B",
"2 	c #8C6A66",
"3 	c #5E3226",
"4 	c #8A2E24",
"5 	c #B2A6A2",
"6 	c #4E2A22",
"7 	c #CEC6C2",
"8 	c #96665E",
"9 	c #2E1A16",
"0 	c #958A86",
"a 	c #EFE2DF",
"b 	c #DEB2AA",
"c 	c #AA6A5E",
"d 	c #430E06",
"e 	c #6E463E",
"f 	c #AE9A97",
"g 	c #220E0A",
"h 	c #AA322E",
"i 	c #4B3A39",
"j 	c #BAB2AE",
"k 	c #966E66",
"l 	c #CC725C",
"m 	c #AD928C",
"n 	c #AA867E",
"o 	c #1A0202",
"p 	c #AE9E98",
"q 	c #58322C",
"r 	c #665A58",
"s 	c #56160A",
"t 	c #827672",
"u 	c #D6CECA",
"v 	c #7A5E5A",
"w 	c #CABEBA",
"x 	c #C27E6E",
"y 	c #6C4E44",
"z 	c #362622",
"A 	c #958683",
"B 	c #A2523A",
"C 	c #72524E",
"D 	c #9D8A85",
"E 	c #310E07",
"F 	c #5E4642",
"G 	c #220202",
"H 	c #6E2616",
"I 	c #B29E99",
"J 	c #A66256",
"K 	c #7A6E6A",
"L 	c #AE8E86",
"M 	c #967E7A",
"N 	c #E6DAD8",
"O 	c #725A56",
"P 	c #821A16",
"Q 	c #3D1E13",
"R 	c #46261E",
"S 	c #8A7470",
"T 	c #A6726A",
"U 	c #B06C60",
"V 	c #48221C",
"W 	c #D2CAC6",
"X 	c #BA7662",
"Y 	c #602218",
"Z 	c #BAAEAB",
"` 	c #594A49",
" .	c #927A76",
"..	c #866A62",
"+.	c #3E0A04",
"@.	c #E6A68A",
"#.	c #C6BAB6",
"$.	c #A58A83",
"%.	c #B2A29E",
"&.	c #9E7A72",
"*.	c #D88466",
"=.	c #C28272",
"-.	c #A6665E",
";.	c #86382A",
">.	c #3A1A0E",
",.	c #47322E",
"'.	c #BEB2AE",
").	c #625652",
"!.	c #654E4A",
"~.	c #C46254",
"{.	c #4E1E1A",
"].	c #1E0A09",
"^.	c #6A5250",
"/.	c #E27A5A",
"(.	c #5E1A0E",
"_.	c #BAA6A1",
":.	c #A28682",
"<.	c #3A100E",
"[.	c #82625A",
"}.	c #5E261E",
"|.	c #BC6858",
"1.	c #A5928E",
"2.	c #9A726A",
"3.	c #C6B2B0",
"4.	c #AA8A85",
"5.	c #816E6A",
"6.	c #764A3E",
"7.	c #2A0602",
"8.	c #8E827E",
"9.	c #BAA29E",
"0.	c #A67A74",
"a.	c #8A7E7A",
"b.	c #261612",
"c.	c #BEAEAA",
"d.	c #BEAAA5",
"e.	c #AA9692",
"f.	c #7A625E",
"g.	c #422E2C",
"h.	c #7D5247",
"i.	c #56423E",
"j.	c #955E52",
"k.	c #CE8676",
"l.	c #421A0E",
"m.	c #360602",
"n.	c #523C38",
"o.	c #E1D6D3",
"p.	c #6C1A14",
"q.	c #E27656",
"r.	c #C48A7A",
"s.	c #7E726E",
"t.	c #826A66",
"u.	c #9E6A62",
"v.	c #4E3636",
"w.	c #A29692",
"x.	c #615250",
"y.	c #B29A93",
"z.	c #4A3E3C",
"A.	c #CABAB7",
"B.	c #473632",
"C.	c #AA8E87",
"D.	c #725E5B",
"E.	c #92746E",
"F.	c #E29E72",
"G.	c #623A2E",
"H.	c #31120D",
"I.	c #220A06",
"J.	c #6A5652",
"K.	c #5A2E26",
"L.	c #CEBEBB",
"M.	c #6E6260",
"N.	c #A89A96",
"O.	c #4A0E06",
"P.	c #A25448",
"Q.	c #8E7E7B",
"R.	c #D2C2C0",
"S.	c #A58E89",
"T.	c #C2B2AE",
"U.	c #AE9690",
"V.	c #524644",
"W.	c #9C8E8A",
"X.	c #DA7A62",
"Y.	c #66362E",
"Z.	c #661C12",
"`.	c #9C8682",
" +	c #AEA29F",
".+	c #A57E76",
"++	c #C6B6B2",
"@+	c #DACECD",
"#+	c #B69E98",
"$+	c #3E221A",
"%+	c #361E16",
"&+	c #E26E56",
"*+	c #9E6E5E",
"=+	c #3E2A26",
"-+	c #260602",
";+	c #762216",
">+	c #7A5A52",
",+	c #421E12",
"'+	c #B66A5A",
")+	c #662216",
"!+	c #665252",
"~+	c #361206",
"{+	c #320A04",
"]+	c #8C6E6A",
"^+	c #A47672",
"/+	c #AA9E9A",
"(+	c #C2AEAA",
"_+	c #927E7A",
":+	c #D6CACA",
"<+	c #968E8A",
"[+	c #B6A29C",
"}+	c #F2E6E2",
"|+	c #5E4A46",
"1+	c #E2D2D2",
"2+	c #B6A6A1",
"3+	c #423632",
"4+	c #1E0606",
"5+	c #3A2A29",
"6+	c #816662",
"7+	c #9B7671",
"8+	c #2A0A06",
"9+	c #8A827E",
"0+	c #796662",
"a+	c #926256",
"b+	c #4E3E3B",
"c+	c #260E0A",
"d+	c #82726E",
"e+	c #B29692",
"f+	c #8E564A",
"g+	c #52160A",
"h+	c #966A62",
"i+	c #56362E",
"j+	c #220602",
"k+	c #9E7E7A",
"l+	c #564642",
"m+	c #380A02",
"n+	c #524240",
"o+	c #6A5A56",
"p+	c #867672",
"q+	c #7E524E",
"r+	c #BAAAA6",
"s+	c #CEC2BE",
"t+	c #D2C6C3",
"u+	c #D6CAC6",
"v+	c #6E524C",
"w+	c #BEA6A2",
"x+	c #A6867E",
"y+	c #462E2A",
"z+	c #A69694",
"A+	c #B69A96",
"B+	c #72625E",
"C+	c #361A16",
"D+	c #9A7E7A",
"E+	c #522E26",
"F+	c #6A4A46",
"G+	c #96827E",
"                                                              ",
"                                                              ",
"                          %.W.8.a.K - @                       ",
"                    R.u+u+#. +% A 5.K p+5.o+J.                ",
"                1+a , u 7 #.Z 5 w.0 A a.s.~ ).x.|+            ",
"              a o., @+:+t+7 #.Z 5 N.% A a.5.B+).,.)           ",
"            o.o., :+u+u+t+s+s+#.'.%./+S.A Q.p+0+z.5+y+        ",
"          }+N , u u u+t+R.s+w w ++'.%.N.% A _+t !+b+g.)       ",
"        a o., @+u+u+t+s+L.L.A.++++T.c.[+f 1.`.8.5.J.,.9 %+    ",
"        o., u u+u+t+R.s+L.w ++++T.T.(+d.[+f 1.:.M 5.|+%+I.    ",
"      }+, @+:+:+t+7 L.w A.#.# T.T.c.c.d._.[+f 1.`.: 0+v.g -+  ",
"      1+@+u u+t+s+s+L.w #.++3.T.d.d._.2+[+#+I U.m D  .!.H.j+  ",
"      u :+:+t+t+L.w A.++++# (+(+r+_.9._.9.A+y.U.m C.:.6+C+-+  ",
"    o.:+u+W s+L.s+w #.++T.(+c.r+d._.9.#+y.S.$.L m L 4.E.Q I.H.",
"    N :+7 t+s+w A.#.++3.T.c.d._.9.[+#+e+1 F+y [.k+n n 7+q 8+7.",
"    u+] L.w ] w #.#.# T.c.d.r+_.9.#+A+S.y >.>.6 e k .+k q E 8+",
"    Z j # ++#.#.++T.'.c.c.d._.[+9.#+m ]+R E l.K.Y.6.a+8 Y.<.^ ",
"    0 w. +' Z '.'.T.c.c.r+2+[+[+I e+k+i+E l.h.*+f+= f+f+}.d m+",
"    s.9+<+w./+2+' Z r+_._._.[+#+y.m 2 >.E K.! r.x X '+P.Z.d +.",
"    x.0+t a.0 w./+%.2+2+[+I #+y.y.C.>+,+V u.=.k.> *.X.|.;+; +.",
"      ).M.K s.Q.A W.z+N.I p y.U.U.S.( K.G.*+=.> q.{ { l 4 p.  ",
"      < x.r M.- p+Q.A S.1.U.e.U.C.C.M h.6.j.U l q.@.b |.4 p.  ",
"      * + < x.r M.0+s.@ 8.D S.S.C.4.$.k+h+a+J |.| &+> h P &   ",
"        i + V.< x.r D.0+5.S  .1 1 :..+.+^+*+-.'+~.$ B ;.& }   ",
"        5+* b+V.l+` !.J.D.0+5.S  .D+.+.+0.0.T -.B 4 H }.)+    ",
"          B.i b++ n+l+` !+J.O f.6+]+E.7+7+T u./ Y g+g+(.      ",
"            * B.z.z.b+b+i.` !.J.O v 6+2 2 ( q+{.m+d ;         ",
"              ) 5+B.B.B.i n.i.F |+!+v+v+F+,+<.^ m.d           ",
"                b.[ [ z g.g.,.B.v.n.y+C+H.-+7.^ m.            ",
"                    4+4+].].].I.c+I.j+j+G G ^                 ",
"                          . . . 4+4+o G                       "};
