/* XPM */
static char * knob14_xpm[] = {
"31 31 256 2",
"  	c None",
". 	c #090202",
"+ 	c #362A2A",
"@ 	c #665658",
"# 	c #827676",
"$ 	c #CA767A",
"% 	c #928686",
"& 	c #A63636",
"* 	c #6E1A1A",
"= 	c #F2565E",
"- 	c #AE868A",
"; 	c #C88E92",
"> 	c #601210",
", 	c #9E2E2E",
"' 	c #D25662",
") 	c #9A6A6A",
"! 	c #C99E9E",
"~ 	c #520E12",
"{ 	c #6E2A2A",
"] 	c #524646",
"^ 	c #2A1A1A",
"/ 	c #B29E9E",
"( 	c #BE7676",
"_ 	c #6E6262",
": 	c #DAB6B6",
"< 	c #EA9E9E",
"[ 	c #AA7676",
"} 	c #1E1212",
"| 	c #C08E8E",
"1 	c #463636",
"2 	c #826262",
"3 	c #6E3232",
"4 	c #9E928E",
"5 	c #F2525E",
"6 	c #DAA2A2",
"7 	c #A69292",
"8 	c #E68A82",
"9 	c #8E8282",
"0 	c #9E7A7A",
"a 	c #C6A6A5",
"b 	c #BA9292",
"c 	c #160A0A",
"d 	c #7A3E3E",
"e 	c #9A8685",
"f 	c #BA9E9E",
"g 	c #864E4E",
"h 	c #662E2E",
"i 	c #825A5A",
"j 	c #7A6E6E",
"k 	c #EA8686",
"l 	c #836A6A",
"m 	c #B29292",
"n 	c #4E4242",
"o 	c #8C2628",
"p 	c #967676",
"q 	c #D6AAAE",
"r 	c #362626",
"s 	c #BEA6A6",
"t 	c #9A8A8A",
"u 	c #B24E4A",
"v 	c #561212",
"w 	c #A69695",
"x 	c #E6CECA",
"y 	c #DA6666",
"z 	c #624E4E",
"A 	c #8A4E4E",
"B 	c #8A7E7E",
"C 	c #CAA6A7",
"D 	c #765656",
"E 	c #6A5252",
"F 	c #E6A6AA",
"G 	c #DEAAAE",
"H 	c #D69292",
"I 	c #766A6A",
"J 	c #926A66",
"K 	c #B25E5E",
"L 	c #A26A6A",
"M 	c #664646",
"N 	c #DA8682",
"O 	c #621E1E",
"P 	c #3E2626",
"Q 	c #BE3636",
"R 	c #D69EA2",
"S 	c #A2424A",
"T 	c #764646",
"U 	c #AA9696",
"V 	c #0E0202",
"W 	c #A28A8A",
"X 	c #C29E9E",
"Y 	c #C29696",
"Z 	c #827272",
"` 	c #B48E8E",
" .	c #7B6263",
"..	c #563A3A",
"+.	c #2E2222",
"@.	c #442A2A",
"#.	c #AA9A99",
"$.	c #561E22",
"%.	c #867676",
"&.	c #665A5A",
"*.	c #CAAAAA",
"=.	c #BAA2A2",
"-.	c #9A8E8E",
";.	c #C69A9A",
">.	c #CE666A",
",.	c #5C4242",
"'.	c #2A1212",
").	c #E2BABE",
"!.	c #503E3E",
"~.	c #6E5252",
"{.	c #EE665A",
"].	c #EA8E92",
"^.	c #E6AAAA",
"/.	c #220E0E",
"(.	c #8E6262",
"_.	c #A67272",
":.	c #82524E",
"<.	c #160202",
"[.	c #968A86",
"}.	c #3A2E2E",
"|.	c #A04E50",
"1.	c #EA727A",
"2.	c #B29698",
"3.	c #8A7677",
"4.	c #D28E92",
"5.	c #CEAAAC",
"6.	c #A67A7A",
"7.	c #D2A2A2",
"8.	c #BA9696",
"9.	c #4A3232",
"0.	c #B27E7E",
"a.	c #D57673",
"b.	c #AE9292",
"c.	c #5A4646",
"d.	c #8E7272",
"e.	c #C28282",
"f.	c #927A7A",
"g.	c #DAAEB2",
"h.	c #6E5A5E",
"i.	c #A68E8F",
"j.	c #B29A9A",
"k.	c #735E5E",
"l.	c #8A7A7A",
"m.	c #523A3A",
"n.	c #321A1A",
"o.	c #B26E70",
"p.	c #CE9E9E",
"q.	c #120202",
"r.	c #C69696",
"s.	c #B6A2A1",
"t.	c #1B0E0E",
"u.	c #D2AEAF",
"v.	c #AE8282",
"w.	c #E29696",
"x.	c #E4B2B4",
"y.	c #231616",
"z.	c #EEB6B6",
"A.	c #968686",
"B.	c #7A2E2E",
"C.	c #A28686",
"D.	c #EE9692",
"E.	c #B69E9E",
"F.	c #8A6E6E",
"G.	c #4D3A3B",
"H.	c #736665",
"I.	c #928282",
"J.	c #422E2E",
"K.	c #CA7E7E",
"L.	c #D25E5E",
"M.	c #826E6F",
"N.	c #D6B2B2",
"O.	c #5F5252",
"P.	c #DE9A9E",
"Q.	c #EABEBE",
"R.	c #BE9EA0",
"S.	c #867272",
"T.	c #9E8E8E",
"U.	c #3E3232",
"V.	c #AE8E92",
"W.	c #A27A7A",
"X.	c #D2A6AA",
"Y.	c #AE9696",
"Z.	c #BEA2A2",
"`.	c #665252",
" +	c #C6A2A2",
".+	c #6A5E5E",
"++	c #A28E8E",
"@+	c #6E5656",
"#+	c #7A5A5A",
"$+	c #5B4A4A",
"%+	c #DAB2B4",
"&+	c #761A16",
"*+	c #AE7E7E",
"=+	c #AE9A9A",
"-+	c #C19A99",
";+	c #7A6666",
">+	c #9E8686",
",+	c #8E7E7E",
"'+	c #C2A6A6",
")+	c #7A6A6A",
"!+	c #A29292",
"~+	c #1A0A09",
"{+	c #92262A",
"]+	c #9E8A8A",
"^+	c #8E7672",
"/+	c #D2AAAB",
"(+	c #BA7E7E",
"_+	c #601614",
":+	c #2C1E1E",
"<+	c #C6AAAA",
"[+	c #7E7272",
"}+	c #927E7F",
"|+	c #6E5E5E",
"1+	c #120606",
"2+	c #524242",
"3+	c #C2A2A2",
"4+	c #867A7A",
"5+	c #BC3640",
"6+	c #7E6E6E",
"7+	c #6A5A5A",
"8+	c #C6A6AA",
"9+	c #9A7E7E",
"0+	c #322626",
"a+	c #B69A9A",
"b+	c #967E80",
"c+	c #726262",
"d+	c #C69292",
"e+	c #DAA6A8",
"f+	c #644A4A",
"g+	c #7A4A4A",
"h+	c #160606",
"i+	c #321E1E",
"j+	c #8E7A7A",
"k+	c #6A5656",
"l+	c #423232",
"m+	c #DEB2B6",
"n+	c #E8868E",
"o+	c #8E767A",
"p+	c #EAA2A2",
"q+	c #826666",
"r+	c #825E5E",
"s+	c #D6AEAE",
"t+	c #926E6E",
"u+	c #5E2222",
"v+	c #D6A2A2",
"w+	c #563E3E",
"x+	c #2A1616",
"y+	c #926666",
"z+	c #D29292",
"A+	c #CEA2A2",
"B+	c #761E1E",
"C+	c #4A3636",
"D+	c #8A7272",
"E+	c #968A8A",
"F+	c #866E6E",
"G+	c #CEA6A6",
"                                                              ",
"                                                              ",
"                          - m V.9+F.D+l                       ",
"                    e+m+/+R.a+7 >+f.^+l  .M.F+                ",
"                P.x.Q.).N.C R.2.i.e b+3.S.S.M.h.z             ",
"              w.^.z.x.m+%+5.8+Z.2.W >+}+o+S.Z )+h.`.          ",
"          = ].< < F G g.g.u.5.8+R.Y.V.e b+3.S.[+)+|+G.        ",
"        5 1.n+>.$ 4.P.X.q u.5.*.s f =+i.e }+3.F+)+c+z C+      ",
"        k k ' 5+S |.o.d+p.X.5.5.8+3+E.Y.7 e ,+l.[+)+.+2+i+    ",
"      {.D.x ; 5+{+* { g+*+-+C 8+'+<+s s.U 7 e }+3.6+)+&.U.    ",
"      a.n+L.e.K o > ~ $.T W.X 8+3+s Z.=.j.=+++t ,+Z 6+c+n y.  ",
"      a.y Q u , B+> u+T (.|  +'+'+Z.s =.s.=+U ++A.,+%.6+@ ^   ",
"      N a.& o &+> O _.| Y u.C 3+Z.=.=.E.E./ #.U T.A.,+%.c+l+  ",
"    ( z+$ |.B._+~ d | ! 5.: <+Z.Z.f E./ / =+=+#.w t % B j ] t.",
"    (+e+r.o.A 3 h [ r.G+N.C 3+Z.=.=.E./ / #.w w w 4 t % 4+&.} ",
"    0.v+v+d+) g g+*+ +q 5.3+=.f f / / =+U #.U !+!+++-.t 9 c+} ",
"    y+6.r.A+-+W.J | *.u.'+Z.f E.a+j.=+=+U w w !+4 ]+t E+9 .+} ",
"    (.t+` ;.! -+8.a 5.'+R.R.f a+E.j.=+U U 7 !+T.T.-.E+A.B O.t.",
"    i 2 9+V.8.R.X 3+3+R.f E.E.j.=+Y.Y.w 7 ++!+-.t A.A.% 6++.V ",
"    i D (.d.C.b.a+f f f E.E.j.j.=+U w 7 !+4 -.]+t E+% I.I y.V ",
"      D ~. .d.9+W V.j.a+a+j.=+Y.U U 7 !+++]+-.E+A.% % B .+y.  ",
"      M w+f+k.l d.I.W U Y.=+U U U 7 !+T.T.T.A.A.A.I.,+[+1 h+  ",
"      ,.....f+D k.l ^+e i.7 w 7 !+7 !+-.t t E+% I.9 4+&.y..   ",
"        J.@.C+$+k+k.;+S.j+>+W !+++T.]+]+t E+I.I.9 4+|+:+1+    ",
"        @.@.C+!.c.z `.h.H.Z j+A.t t t A.A.A.9 B 4+H.}.1+.     ",
"          ,.C+J.C+w+c.z E k.)+Z j+I.A.A.% 9 9 4+$+}.c .       ",
"            P ^ :+J.!.2+$+O.7+c+j # B ,+I.l.j &.^ 1+.         ",
"              '.} ^ r U.G.!.$+O.k+_ )+[+I .++.} V V           ",
"                i+t.~+~+} :+U.G.!.n 2+n :+} V V V             ",
"                    <.V q.1+h+c c ~+t.c q.q.q.                ",
"                          q.V V V V V V                       "};
