/* XPM */
static char * knob29_xpm[] = {
"31 31 256 2",
"  	c None",
". 	c #0E0202",
"+ 	c #3B2A2A",
"@ 	c #786868",
"# 	c #D6C6C6",
"$ 	c #938686",
"% 	c #B6323A",
"& 	c #C3B2B2",
"* 	c #8A2E32",
"= 	c #4E060A",
"- 	c #C66864",
"; 	c #CA867E",
"> 	c #655251",
", 	c #460A0A",
"' 	c #AEA2A2",
") 	c #862E2E",
"! 	c #2C1E1D",
"~ 	c #B26E6E",
"{ 	c #C49694",
"] 	c #AE8684",
"^ 	c #584646",
"/ 	c #DFCECF",
"( 	c #2E0602",
"_ 	c #8D7E7E",
": 	c #662E2A",
"< 	c #A89293",
"[ 	c #1E1212",
"} 	c #B64A46",
"| 	c #BFA2A3",
"1 	c #966666",
"2 	c #A23236",
"3 	c #E2D6D6",
"4 	c #E2B6B6",
"5 	c #4C3A3A",
"6 	c #260202",
"7 	c #B69694",
"8 	c #8A4844",
"9 	c #F4D6D6",
"0 	c #7E5252",
"a 	c #DEBABC",
"b 	c #D2A2A2",
"c 	c #421616",
"d 	c #CA766E",
"e 	c #72423E",
"f 	c #1A0E0E",
"g 	c #AE5E5E",
"h 	c #A69A9A",
"i 	c #CEBEBE",
"j 	c #9E9292",
"k 	c #A37E7E",
"l 	c #837676",
"m 	c #5E1216",
"n 	c #8E6262",
"o 	c #562A2E",
"p 	c #8A6666",
"q 	c #BE6266",
"r 	c #1B0202",
"s 	c #360A06",
"t 	c #D58F8B",
"u 	c #7A5A5A",
"v 	c #CCB2B2",
"w 	c #7A161A",
"x 	c #B47670",
"y 	c #BEAAAB",
"z 	c #BAAEAE",
"A 	c #6A5E5E",
"B 	c #F5D1D1",
"C 	c #D49C9C",
"D 	c #EEC6C8",
"E 	c #6C4C4A",
"F 	c #582422",
"G 	c #DA322A",
"H 	c #B69E9D",
"I 	c #A25252",
"J 	c #F2DEDF",
"K 	c #AE9A9A",
"L 	c #3E2E2E",
"M 	c #EEDEDE",
"N 	c #B9AAAA",
"O 	c #624242",
"P 	c #160202",
"Q 	c #B68A88",
"R 	c #5C3C3A",
"S 	c #DE625E",
"T 	c #CBAAAA",
"U 	c #844A4A",
"V 	c #B2827E",
"W 	c #98706E",
"X 	c #7E7171",
"Y 	c #9C8684",
"Z 	c #CE4E4A",
"` 	c #D66E6E",
" .	c #2A1212",
"..	c #3D2121",
"+.	c #BAA2A2",
"@.	c #CE9C9E",
"#.	c #AF9292",
"$.	c #FCDEE0",
"%.	c #9E8282",
"&.	c #7E6262",
"*.	c #160A07",
"=.	c #725858",
"-.	c #CCA6A4",
";.	c #E7CECF",
">.	c #E4CACC",
",.	c #AA6E6A",
"'.	c #D2B2B2",
").	c #EED6D8",
"!.	c #4B3535",
"~.	c #9B8A8B",
"{.	c #644848",
"].	c #6E2622",
"^.	c #260606",
"/.	c #907070",
"(.	c #C08C8A",
"_.	c #7A3A3A",
":.	c #342624",
"<.	c #563E3E",
"[.	c #B6A6A6",
"}.	c #695A5A",
"|.	c #A78D8D",
"1.	c #927A76",
"2.	c #D97D75",
"3.	c #482624",
"4.	c #C09A9A",
"5.	c #DCC2C4",
"6.	c #9A7A7A",
"7.	c #846664",
"8.	c #341E1E",
"9.	c #120202",
"0.	c #C6B6B7",
"a.	c #4A3E3E",
"b.	c #1B0604",
"c.	c #AE9E9F",
"d.	c #2B1617",
"e.	c #564A4A",
"f.	c #B18E8D",
"g.	c #AA5A56",
"h.	c #E9BFC2",
"i.	c #C6ADAE",
"j.	c #968282",
"k.	c #CE928E",
"l.	c #661E22",
"m.	c #A28B8B",
"n.	c #62363A",
"o.	c #C05252",
"p.	c #CEBABA",
"q.	c #D6C1C3",
"r.	c #DEC6C6",
"s.	c #A69695",
"t.	c #B2A2A3",
"u.	c #CA9E9E",
"v.	c #AA9E9E",
"w.	c #A29695",
"x.	c #423232",
"y.	c #261616",
"z.	c #DEAAAA",
"A.	c #CA605A",
"B.	c #B69A9A",
"C.	c #EADADB",
"D.	c #D5B6B7",
"E.	c #230A08",
"F.	c #9A8E8D",
"G.	c #8E8282",
"H.	c #BFAEAE",
"I.	c #524242",
"J.	c #DE927E",
"K.	c #A07272",
"L.	c #160606",
"M.	c #EED0D4",
"N.	c #5E4E4F",
"O.	c #C6A6A6",
"P.	c #BE7672",
"Q.	c #843A38",
"R.	c #F6E2E2",
"S.	c #C24A4A",
"T.	c #6A1216",
"U.	c #6E3632",
"V.	c #BEA6A7",
"W.	c #FADADA",
"X.	c #8A7674",
"Y.	c #AA504C",
"Z.	c #724A4A",
"`.	c #D2C2C1",
" +	c #7A6262",
".+	c #9A7676",
"++	c #3E2626",
"@+	c #FBE2E2",
"#+	c #C69292",
"$+	c #D2827E",
"%+	c #120604",
"&+	c #BA7E7D",
"*+	c #E6D6D6",
"=+	c #321A1A",
"-+	c #B6A2A3",
";+	c #635656",
">+	c #BAA6A6",
",+	c #AF9696",
"'+	c #C19E9F",
")+	c #DCCACA",
"!+	c #836F6F",
"~+	c #926662",
"{+	c #705E5E",
"]+	c #B29E9F",
"^+	c #AA9696",
"/+	c #B78282",
"(+	c #422A2A",
"_+	c #BA9292",
":+	c #F6DEE0",
"<+	c #6A5656",
"[+	c #EEDADB",
"}+	c #1C0A08",
"|+	c #D6BABE",
"1+	c #240E0E",
"2+	c #CE666A",
"3+	c #865452",
"4+	c #AA9A9A",
"5+	c #462E2E",
"6+	c #968A8A",
"7+	c #A68282",
"8+	c #CDB6B6",
"9+	c #CAAEB0",
"0+	c #C6BABA",
"a+	c #2A1A1A",
"b+	c #A29292",
"c+	c #EAD6D7",
"d+	c #9E8E8E",
"e+	c #7E6A6A",
"f+	c #36060A",
"g+	c #927E7A",
"h+	c #6E2E32",
"i+	c #523A3A",
"j+	c #5E2A2E",
"k+	c #C2AAAB",
"l+	c #B29A99",
"m+	c #DE6E66",
"n+	c #321212",
"o+	c #C68E8A",
"p+	c #F4DADC",
"q+	c #BA8E8C",
"r+	c #864E50",
"s+	c #342222",
"t+	c #726262",
"u+	c #BA9E9E",
"v+	c #C2A6A6",
"w+	c #D67E7E",
"x+	c #BA9697",
"y+	c #DA8E8A",
"z+	c #423636",
"A+	c #221212",
"B+	c #1E0E0D",
"C+	c #E2D2D2",
"D+	c #E6D2D2",
"E+	c #916A6A",
"F+	c #480E12",
"G+	c #D4A6A6",
"                                                              ",
"                                                              ",
"                          &+/+~ g.- A.S.G                     ",
"                    u.G+G+b C x I ` S Z S.o.Y.                ",
"                T '.|+D h.z.&+Q.) o.2.t 2.A.Y.Q.].            ",
"              D.5.D B B h.{ 8 m w % 2+q.J.m+d 8 : U.          ",
"            D.5.9 $.W.B 4 /+F = T.2 q ; w+2.t ~ r+e F         ",
"          D.r.).$.$.W.D b 0 , = l.) I } - $+t o+V ~+3.s       ",
"        |+5.;.J @+$.B 5.{ o f+F+h+_.8 g P.t { q+Q W n.n+(     ",
"        5.)+[+$.$.W.M.a B.n.c o r+U U ,.&+C k.q+] /.E 8.^.    ",
"      8+)+c+J R.@+p+>.'.'+7.Z.0 n ~+K.V /+b { Q k n {.(+E.6   ",
"      p.;.[+J :+:+D+h.'.T x+7+E+E+E+K.q+4.4.q+|.W u R ..E.b.  ",
"      `.D+[+:+R.p+/ |+9+T | u.7 f.k k 4.b 7 q+Y E+> !.c E.b.  ",
"    k+# c+J J :+).r.8+9+k+k+V.'+'+,+_+x+x+7 |.6.&.O (+a+E.r r ",
"    H i *+M J J D+q.& T O.v+V.+.'+H B.7 _+f.|./.=.i+..1+r P P ",
"    ' `.*+M J ).)+|+i.k+y V.+.+.H B.7 ,+#.|.%.7.{.(+d.E.P P P ",
"    -+# c+M M c+q.8+H.k+V.V.u+u+u+]+l+,+#.m.1.u I.++ .b.P P P ",
"    h i *+[+C./ i H.y >+>+-+-+t.]+l+,+< < %.!+E !.8.1+P P 9.9.",
"    b+i 3 C.D+# 8+H.y >+>+-+H l+K K ,+< ~.g+@ O + d.b.9.P 9.9.",
"    d+H.3 C.C+i & N >+[.-+-+]+c.K ^+s.|.~.!+<+5 s+A+L.9.9.9.. ",
"      b+)+3 )+0.H.N >+t.t.c.c.K ,+^+b+m.j.e+{.x.=+}+P 9.9.9.  ",
"      _ 0+/ `.& N [.t.[.c.c.K ^+s.< b+~.X.{+I.+ y.L.. . . 9.  ",
"      {+_ 0.0+N N [.t.t.c.4+4+h w.b+~.$ !+;+z+! A+P 9.9.. .   ",
"        t+v.z N [.[.' c.c.4+h < b+d+~.1.t+^ + a+*.. 9.9.9.    ",
"        }.X j ' ' ' c.v.4+s.w.b+b+d+$ X ;+a.:.A+9.. . . 9.    ",
"          L N.$ v.v.v.h h w.w.j d+6+_ @ N.x.=+}+9.. . 9.      ",
"            :.^ _ w.4+h w.b+b+F.F.$ l t+I.+ y.*.. . 9.        ",
"              y.5 l F.j w.j F.~.$ j.X N.x.! f . . 9.          ",
"                a+x.;+l _ $ G.j._ X A a.a+%+. . 9.            ",
"                    [ ! 5 ;+e.;+;+a.L [ 9.. 9.                ",
"                          [ *.[ f *.%+.                       "};
