/* XPM */
static char * knob42_xpm[] = {
"31 31 256 2",
"  	c None",
". 	c #0E0202",
"+ 	c #3C2B28",
"@ 	c #766262",
"# 	c #9D8B8B",
"$ 	c #D2C6C5",
"% 	c #6A080C",
"& 	c #AEA2A1",
"* 	c #A22E32",
"= 	c #D2625A",
"- 	c #460606",
"; 	c #822E22",
"> 	c #C2B6B2",
", 	c #AC6A64",
"' 	c #60504C",
") 	c #3A0606",
"! 	c #F1E2E2",
"~ 	c #2D1E1D",
"{ 	c #7E6E6A",
"] 	c #824242",
"^ 	c #6A2E2A",
"/ 	c #EBDAD9",
"( 	c #291615",
"_ 	c #C29692",
": 	c #9E0E12",
"< 	c #CAA6A2",
"[ 	c #94716E",
"} 	c #B6AAA6",
"| 	c #2B0703",
"1 	c #460A0A",
"2 	c #4A3E3A",
"3 	c #A09292",
"4 	c #36221E",
"5 	c #967A76",
"6 	c #AA7672",
"7 	c #E5D6D5",
"8 	c #1E1211",
"9 	c #CE8072",
"0 	c #A36A6A",
"a 	c #D6B6B6",
"b 	c #AA4A46",
"c 	c #AE928E",
"d 	c #471A19",
"e 	c #CEC2C0",
"f 	c #96262A",
"g 	c #DED2CF",
"h 	c #864646",
"i 	c #1E0602",
"j 	c #462E2A",
"k 	c #6E322A",
"l 	c #361E1A",
"m 	c #621E1A",
"n 	c #724A46",
"o 	c #BAA2A1",
"p 	c #D2464A",
"q 	c #867676",
"r 	c #C66E6A",
"s 	c #C6BAB9",
"t 	c #AA827E",
"u 	c #AE9B9B",
"v 	c #DCC6C5",
"w 	c #4A2620",
"x 	c #9A362E",
"y 	c #160A06",
"z 	c #928686",
"A 	c #E26A5A",
"B 	c #6C3A3A",
"C 	c #965E5A",
"D 	c #675A57",
"E 	c #BEB2B1",
"F 	c #B28E8A",
"G 	c #96625A",
"H 	c #725E5E",
"I 	c #4A322E",
"J 	c #E6AE8E",
"K 	c #E28A7A",
"L 	c #5E1A1A",
"M 	c #783E3E",
"N 	c #DACAC9",
"O 	c #C6ADAD",
"P 	c #C85A5A",
"Q 	c #A07A78",
"R 	c #CFBAB9",
"S 	c #361612",
"T 	c #624542",
"U 	c #9E6E6A",
"V 	c #53413F",
"W 	c #4A221E",
"X 	c #1F0E0D",
"Y 	c #8E827E",
"Z 	c #DABABA",
"` 	c #AE7A76",
" .	c #423230",
"..	c #160202",
"+.	c #7A1212",
"@.	c #BA9A97",
"#.	c #E27E6A",
"$.	c #AB8D8A",
"%.	c #BA8078",
"&.	c #A99B9A",
"*.	c #2A120E",
"=.	c #C2AAA9",
"-.	c #968682",
";.	c #6E4E4E",
">.	c #C6A4A4",
",.	c #5A160E",
"'.	c #CBB6B6",
").	c #CEAAAA",
"!.	c #9B7E7B",
"~.	c #DE7662",
"{.	c #563432",
"].	c #765652",
"^.	c #B27A76",
"/.	c #A61E22",
"(.	c #D47062",
"_.	c #BE6662",
":.	c #8A3E3A",
"<.	c #DA565E",
"[.	c #867A7A",
"}.	c #DECACA",
"|.	c #C67A72",
"1.	c #7D6362",
"2.	c #A68682",
"3.	c #463A36",
"4.	c #5A4A46",
"5.	c #A37E7D",
"6.	c #BEA2A2",
"7.	c #C2B2B1",
"8.	c #B5A2A0",
"9.	c #322622",
"0.	c #7A5A56",
"a.	c #5D4341",
"b.	c #D6CAC7",
"c.	c #BDAEAD",
"d.	c #160605",
"e.	c #D8C2C0",
"f.	c #562626",
"g.	c #E28686",
"h.	c #6B4543",
"i.	c #360A06",
"j.	c #F6EAE6",
"k.	c #B49A98",
"l.	c #CEBEBE",
"m.	c #420E06",
"n.	c #56060A",
"o.	c #A89391",
"p.	c #C2766E",
"q.	c #625654",
"r.	c #B08684",
"s.	c #260602",
"t.	c #CAAEAE",
"u.	c #4F3633",
"v.	c #997675",
"w.	c #827272",
"x.	c #B29292",
"y.	c #421A16",
"z.	c #ECDEDD",
"A.	c #CABEBE",
"B.	c #522C2C",
"C.	c #1E0A09",
"D.	c #B29E9C",
"E.	c #866A6A",
"F.	c #A0726E",
"G.	c #6E5656",
"H.	c #A38B87",
"I.	c #B6A6A5",
"J.	c #261210",
"K.	c #948280",
"L.	c #C2AEAD",
"M.	c #321A16",
"N.	c #E3D2D1",
"O.	c #3C0A08",
"P.	c #4E1610",
"Q.	c #DC665C",
"R.	c #8A3232",
"S.	c #681412",
"T.	c #DECECD",
"U.	c #BEA6A4",
"V.	c #BAAAAA",
"W.	c #421616",
"X.	c #82564E",
"Y.	c #F4E6E5",
"Z.	c #BAA6A5",
"`.	c #D2B6B6",
" +	c #CABABA",
".+	c #620E0E",
"++	c #C69E9E",
"@+	c #4A1212",
"#+	c #6A261E",
"$+	c #923E3E",
"%+	c #926A66",
"&+	c #BA9E9D",
"*+	c #BE867E",
"=+	c #664A46",
"-+	c #8D7A77",
";+	c #260E0A",
">+	c #D2B2AE",
",+	c #2A1A19",
"'+	c #DACECD",
")+	c #826665",
"!+	c #D6C6C5",
"~+	c #320A02",
"{+	c #BA7672",
"]+	c #D2C2C2",
"^+	c #9E8683",
"/+	c #4C3A38",
"(+	c #8D7E7D",
"_+	c #6E5A5A",
":+	c #3E2622",
"<+	c #B07E7C",
"[+	c #501E1A",
"}+	c #805D5A",
"|+	c #A67272",
"1+	c #8D7675",
"2+	c #C6B2B1",
"3+	c #AE9694",
"4+	c #B49695",
"5+	c #3C0E09",
"6+	c #CE7266",
"7+	c #8A6E6E",
"8+	c #1A0A08",
"9+	c #1A0603",
"0+	c #E2CECC",
"a+	c #2E2220",
"b+	c #6A5E5E",
"c+	c #9E827E",
"d+	c #A48280",
"e+	c #CBB2B1",
"f+	c #D2BEBD",
"g+	c #1A0202",
"h+	c #BEAAA9",
"i+	c #C6B6B5",
"j+	c #C2A6A5",
"k+	c #4E0606",
"l+	c #B26A5E",
"m+	c #664E4A",
"n+	c #4E0E0A",
"o+	c #BA8A86",
"p+	c #32120E",
"q+	c #523A3A",
"r+	c #120602",
"s+	c #A29694",
"t+	c #3A2622",
"u+	c #423634",
"v+	c #6A5250",
"w+	c #A07672",
"x+	c #BA7A74",
"y+	c #B08280",
"z+	c #50221E",
"A+	c #120202",
"B+	c #220602",
"C+	c #B69E9D",
"D+	c #D8BEBD",
"E+	c #1A0E0E",
"F+	c #7E322E",
"G+	c #DE7A6E",
"                                                              ",
"                                                              ",
"                          8.8.D.o.-+1+c+                      ",
"                    '.l. + + +'.c.^+K.^+7+)+}+                ",
"                '.i+l.!+!+v !+e.f+e+L.h+c+1+1.a.B.            ",
"              !+N g g 0+T.N N v v e.D+`.2+6.5 ;.{.B.          ",
"            0+/ / / / 7 7 N.N.T.}.v e.D+D+Z >.!.n {.z+        ",
"          N.Y.Y.Y.! z.z./ N.N.0+0+v e.D+Z >+>+++5.h.W.)       ",
"        N.! j.Y.! z./ 7 7 0+0+v v D+Z `.>+).< ++_ F.f.O.1     ",
"        ! ! z.z.7 N.0+}.v e.Z '.e+e+=.6.4+F r.y+<+U M m.-     ",
"      N.7 g '+'+N !+]+l. +i+'.O =.j+6.F }+h.B B ] h ] ,.k+n.  ",
"      / '+b.!+$ e l.R '.'.2+L.L.j+j+@.v.w 5+p+P.L F+$+R..+.+  ",
"      '+b.b.]+]+l.A. +2+2+O =.=.6.6.@.[ y.) d ^ :.b P = * +.: ",
"    l.$ b.$ e l.A. +'.i+O L.=.6.6.&+4+v.y.d C , _.= Q.g.p f % ",
"    N $ $ $ e l.i+i+2+7.c.h+V.U.&+&+4+w+d d |+{+r Q.K 0+<./.% ",
"    !+$ e l.A. + +i+7.L.L.h+6.o &+@.4+5 d d 0 {+r (.A J ~.x S.",
"    ]+e e A.s s > 7.7.h+V.Z.8.o C+4+x.Q W f.0 ^.p.(.G+#.(.; ,.",
"    e e A. + +> 2+7.h+h+Z.I.&+k.4+4+x.!.h.n U ^.{+x+9 |., #+n+",
"     +A.A.s i+> E c.V.Z.o 8.8.C+k.4+x.$.[ v.r.o+%.%.%., ^ @+5+",
"    c.E > > 7.c.c.c.V.Z.8.8.k.u 3+c $.$.2.t y+<+y+<+6 G z+5+O.",
"      3 c.> E c.V.Z.I.I.D.D.u 3+3+o.$.H.2.d+!.Q w+w+U X.d O.  ",
"      (+} c.c.V.I.8.& D.u &.o.3 # ^+^+!.5 v.v.[ [ %+}+w ;+~+  ",
"      (+s+& & &.&.3 # # # K.K.(+-+w.[ E.E.1.1.}+0.].B p+| i.  ",
"        D (+z Y [.[.q w.{ { 1.H _+G.v+v+=+=+T a.a.I M.B+|     ",
"        V q.b+b+D D ' ' 4.4.V V V /+/+u.u+I j j :+;+s.i |     ",
"          9.u+2 2 3.3.u+ .+ j + t++ 4 t+l l l M.| i g+s.      ",
"            ( ~ a+9.a+a+a+~ ~ ,+( ,+( ( ( J.X C.9+i B+        ",
"              8+E+X 8 X E+X E+X X C.8+C.8+9+g+d.g+g+          ",
"                A+A+y y r+d.y d.d.9+d...A+....g+i             ",
"                    A+A+A+d.9+8+d.. A+A+....g+                ",
"                          A+A+A+A+. A+.                       "};
