/* XPM */
static char * knob40_xpm[] = {
"31 31 256 2",
"  	c None",
". 	c #0A0202",
"+ 	c #3C2C2C",
"@ 	c #786A6A",
"# 	c #A69A9A",
"$ 	c #E9D6D5",
"% 	c #660E0E",
"& 	c #B24646",
"* 	c #CEC2C1",
"= 	c #4B0D0E",
"- 	c #863432",
"; 	c #C96F6A",
"> 	c #968A8A",
", 	c #B6AAAA",
"' 	c #665757",
") 	c #3A0A0A",
"! 	c #A26A68",
"~ 	c #2B1F1F",
"{ 	c #4A3A3A",
"] 	c #8A3A36",
"^ 	c #2C0202",
"/ 	c #BEB2B2",
"( 	c #987675",
"_ 	c #8E4E4A",
": 	c #563C3C",
"< 	c #241616",
"[ 	c #722E2A",
"} 	c #F9EAE9",
"| 	c #B47676",
"1 	c #DAB6B6",
"2 	c #9E0E0A",
"3 	c #DA8A7E",
"4 	c #DBC2C2",
"5 	c #240202",
"6 	c #3E1212",
"7 	c #BE9E9E",
"8 	c #BA8A8A",
"9 	c #928585",
"0 	c #2C1616",
"a 	c #521212",
"b 	c #CABEBD",
"c 	c #DA564E",
"d 	c #F2E6E6",
"e 	c #584848",
"f 	c #967E7E",
"g 	c #9A5652",
"h 	c #DBCACA",
"i 	c #1A0202",
"j 	c #B6A6A5",
"k 	c #D3B3B2",
"l 	c #582C28",
"m 	c #B66C6C",
"n 	c #760E06",
"o 	c #AE4642",
"p 	c #907E7E",
"q 	c #825656",
"r 	c #6E4947",
"s 	c #B45C58",
"t 	c #C6AAAA",
"u 	c #A28E8C",
"v 	c #3A1E1E",
"w 	c #C2B6B6",
"x 	c #E26E72",
"y 	c #866A6A",
"z 	c #E8DAD8",
"A 	c #2A1010",
"B 	c #B39A98",
"C 	c #250D0D",
"D 	c #A47E7C",
"E 	c #6A5E5E",
"F 	c #5E3A3A",
"G 	c #722222",
"H 	c #825A5A",
"I 	c #E5CAC9",
"J 	c #1E0E0E",
"K 	c #A62E26",
"L 	c #482A2A",
"M 	c #A97776",
"N 	c #4A1A1A",
"O 	c #6E5A5A",
"P 	c #A86A6C",
"Q 	c #C67E7E",
"R 	c #A78E8D",
"S 	c #600E0A",
"T 	c #7E6E6A",
"U 	c #5D1D1B",
"V 	c #0E0202",
"W 	c #B29E9D",
"X 	c #9A8A8A",
"Y 	c #821612",
"Z 	c #C85854",
"` 	c #8A6E6E",
" .	c #BEAAA9",
"..	c #F1E2E0",
"+.	c #CBB6B6",
"@.	c #120202",
"#.	c #1C0A09",
"$.	c #7E4A4A",
"%.	c #9A6666",
"&.	c #E3CECE",
"*.	c #966666",
"=.	c #684241",
"-.	c #160A06",
";.	c #821A16",
">.	c #BEA2A2",
",.	c #BA8E8E",
"'.	c #3C2222",
").	c #A69494",
"!.	c #D66A62",
"~.	c #4A3434",
"{.	c #A48280",
"].	c #C2B2B1",
"^.	c #D66666",
"/.	c #C29292",
"(.	c #EEDAD9",
"_.	c #645252",
":.	c #BA9E9D",
"<.	c #A28A8A",
"[.	c #D6CACA",
"}.	c #AE8282",
"|.	c #C27676",
"1.	c #806666",
"2.	c #86221E",
"3.	c #C7A5A2",
"4.	c #924A4A",
"5.	c #2A0A0A",
"6.	c #6E5E5A",
"7.	c #6E5050",
"8.	c #D3BEBD",
"9.	c #423332",
"0.	c #D3C2C1",
"a.	c #4A2222",
"b.	c #4B3E3D",
"c.	c #D07476",
"d.	c #967272",
"e.	c #362626",
"f.	c #150605",
"g.	c #EAD1D1",
"h.	c #B47E7C",
"i.	c #DDCECD",
"j.	c #3E0606",
"k.	c #BA665E",
"l.	c #C2625A",
"m.	c #36100E",
"n.	c #661A1A",
"o.	c #A61A12",
"p.	c #7A2622",
"q.	c #664A4A",
"r.	c #B2A2A2",
"s.	c #BEAEAD",
"t.	c #B29292",
"u.	c #160202",
"v.	c #C6BAB9",
"w.	c #A6726E",
"x.	c #847674",
"y.	c #D2C6C5",
"z.	c #C6B2B1",
"A.	c #D2AAAA",
"B.	c #A27A7A",
"C.	c #704040",
"D.	c #8A7676",
"E.	c #9A6E6E",
"F.	c #746363",
"G.	c #231212",
"H.	c #CABAB9",
"I.	c #9D8585",
"J.	c #E2D2D0",
"K.	c #360202",
"L.	c #CA9E9E",
"M.	c #785655",
"N.	c #7A4E4A",
"O.	c #AB9290",
"P.	c #BAAEAE",
"Q.	c #DABBB7",
"R.	c #1C0606",
"S.	c #E2C6C6",
"T.	c #C6767A",
"U.	c #D6BABA",
"V.	c #6E3634",
"W.	c #DC7672",
"X.	c #886462",
"Y.	c #E2BAB2",
"Z.	c #431B1A",
"`.	c #785E5C",
" +	c #EEDEDD",
".+	c #E26262",
"++	c #B27272",
"@+	c #AC9694",
"#+	c #BEA6A5",
"$+	c #AD9A9A",
"%+	c #520E0E",
"&+	c #523030",
"*+	c #BA9692",
"=+	c #5E4E4E",
"-+	c #BA7272",
";+	c #5E4242",
">+	c #BAA2A1",
",+	c #BE7E7E",
"'+	c #4E2622",
")+	c #460E0E",
"!+	c #A98A89",
"~+	c #AD9E9D",
"{+	c #512120",
"]+	c #917574",
"^+	c #E08E8C",
"/+	c #CEBEBD",
"(+	c #FCEEEC",
"_+	c #DBC6C6",
":+	c #2F1A1A",
"<+	c #EADEDE",
"[+	c #B49695",
"}+	c #321E1E",
"|+	c #C6B6B5",
"1+	c #AE8E8A",
"2+	c #A1716F",
"3+	c #987A7A",
"4+	c #A09291",
"5+	c #523A36",
"6+	c #46120E",
"7+	c #BAA6A5",
"8+	c #A26666",
"9+	c #D6C6C4",
"0+	c #A58683",
"a+	c #4E4240",
"b+	c #B69E9C",
"c+	c #BAAAA9",
"d+	c #1E0202",
"e+	c #C2AEAE",
"f+	c #CEBAB9",
"g+	c #422E2E",
"h+	c #BA7672",
"i+	c #321616",
"j+	c #5E4A46",
"k+	c #5E2E2A",
"l+	c #8E6A6A",
"m+	c #AA7E7A",
"n+	c #4E2A2A",
"o+	c #866E6E",
"p+	c #C2AAAA",
"q+	c #864A4E",
"r+	c #8E221E",
"s+	c #320A06",
"t+	c #460A0A",
"u+	c #B6A2A2",
"v+	c #C2A6A5",
"w+	c #261A18",
"x+	c #3E2626",
"y+	c #DED2D2",
"z+	c #E6D2CF",
"A+	c #D66E6E",
"B+	c #E2BEBE",
"C+	c #CAB2B2",
"D+	c #F2DEDE",
"E+	c #C6AEAD",
"F+	c #AD8685",
"G+	c #F6E6E5",
"                                                              ",
"                                                              ",
"                          #+B <.O.R 3+(                       ",
"                    z.z.f+/+].b+>+u+u I.]+M.=.                ",
"                0._+i.i.&.&.h _+4 4 U.k [+y 7.r C.            ",
"              H.9+y+z z z z $ z+z+&.&.I Q.3.` M.r {+          ",
"            &.$ z z D+(.(. +(.$ g.g.I S.B+1 3.m+q {+t+        ",
"          &.z d G+} ......(.$ g.g.I 4 Q.k A.L./.w.V.= =       ",
"        h ..} (+G+} G+D+D+(.g._+Q.U.C+3.*+F+m+w.%._ U %+S     ",
"        z G+(+} G+..(.$ I _+8.f+C+t 7 d.r '+{+U [ - - G % 2   ",
"      J.d } d ..z $ h 9+8.f+C+E+t 3.!+&+6 ) 6+U - o Z & Y n   ",
"      d ..<+$ i._+0./+H.C+C+E+t v+>+F+Z.s+N V.g k.^.W.c K Y   ",
"      <+y+i.y.0./+/++.|+z.E+e+p+>.7 {.a.6+$.8+m ; 3 1 1 s r+o.",
"    0.[.[.y.* /+b H.|+z.e+e+#+>.>.:.1+F 6 k+P -+; W.^+^+l.2.S ",
"    +.* 0.0.* /+H.+.|+z.s.e+ .>.:.B [+X.6 a.! ++; ^..+x Z p.%+",
"    , * y.* b H.|+w ].s.p+#+>.>+:.:.t.3+'+l ! h+|.c.!.c.s n.t+",
"    9+y.* b v.v.|+].e+s.c+c+>+b+B B t.{.r N.2+| ,+Q T.m 4.a j.",
"    i.* b H.H.|+].].s.c+7+u+u+b+B [+[+!+( B.,.,.h.M ++P $.)+K.",
"    4+w b v.w w s.s. .c+7+u+u+b+B t.t.!+!+F+F+m+M w.w.%.C.) ^ ",
"    x.P.|+w w e+/ P.c+j u+r.B $+@+@+1+R F+{.D B.2+E.*.q Z.^ K.",
"      w w w / s.c+, 7+j u+W B @+O.).!+I.I.3+d.` X.H M.C.m.5   ",
"      $+, / / s.P.j r.r.~+$+).).u {.p ]+o+1.H M.q.;+F L 5.^   ",
"      ' 9 , , c+j j ~+$+).u I.p D.o+1.M.7.=+: : &+L Z.5.d+^   ",
"        F.# , r.~+).4+9 9 x.@ F.6.=+j+a+5+&+L x+'.i+#.d+5     ",
"        6.9 4+4+> p x.@ F.' q.;+b.~.g+e.v }+i+A A R.d+i 5     ",
"          { ' @ F.' _.j+b.~.9.+ '.}+:+0 G.#.R.R.i i u.d+      ",
"            9.a+a+b.9.g+e.~ w+< G.#.#.R.R.i i u.u.u.d+        ",
"              J w+~ ~ w+< G.#.-.f.f.u.@.@.@.@.u.u.i           ",
"                @.f.f.-.f.f.V V @.V @.@.u.@.@.u.i             ",
"                    V V V V @.@.V @.@.@.@.u.u.                ",
"                          V V @.V V . .                       "};
