/* XPM */
static char * knob0_xpm[] = {
"31 31 256 2",
"  	c None",
". 	c #0E0202",
"+ 	c #3D2F2E",
"@ 	c #8D817F",
"# 	c #F1E2E0",
"$ 	c #DCCAC6",
"% 	c #9A322E",
"& 	c #BAAEAC",
"* 	c #721A12",
"= 	c #726864",
"- 	c #998E8B",
"; 	c #4E0E0A",
"> 	c #62322E",
", 	c #302222",
"' 	c #C6928A",
") 	c #9E564C",
"! 	c #B2A6A5",
"~ 	c #3C0604",
"{ 	c #66423E",
"] 	c #BA8276",
"^ 	c #251A16",
"/ 	c #A69A97",
"( 	c #DAB2AA",
"_ 	c #96463E",
": 	c #C66256",
"< 	c #B2221E",
"[ 	c #230602",
"} 	c #625652",
"| 	c #CEC2C0",
"1 	c #AA7E76",
"2 	c #A65E5A",
"3 	c #554746",
"4 	c #B88E88",
"5 	c #E6CAC6",
"6 	c #1D120E",
"7 	c #A24A42",
"8 	c #FAEEEB",
"9 	c #886864",
"0 	c #D6AEAA",
"a 	c #BC9E98",
"b 	c #C2A29E",
"c 	c #824A42",
"d 	c #E6D2CE",
"e 	c #1B0202",
"f 	c #BA6252",
"g 	c #6E362E",
"h 	c #EED2D0",
"i 	c #AC8E88",
"j 	c #AE9A97",
"k 	c #7E5B57",
"l 	c #483632",
"m 	c #A67E7A",
"n 	c #C6BAB7",
"o 	c #A66662",
"p 	c #B6423E",
"q 	c #F6E2E2",
"r 	c #897975",
"s 	c #3A0A06",
"t 	c #8E4E46",
"u 	c #4A201C",
"v 	c #240A08",
"w 	c #604A48",
"x 	c #BEAEAC",
"y 	c #F6EAE9",
"z 	c #C67256",
"A 	c #DCBAB4",
"B 	c #1C0A07",
"C 	c #813B33",
"D 	c #AE9E9B",
"E 	c #EEDDDB",
"F 	c #827876",
"G 	c #D4AAA2",
"H 	c #4E322E",
"I 	c #9E6E6A",
"J 	c #BAA6A3",
"K 	c #B0766E",
"L 	c #978A87",
"M 	c #381816",
"N 	c #A65046",
"O 	c #74504A",
"P 	c #160202",
"Q 	c #D29E7E",
"R 	c #BA5642",
"S 	c #9E7E7A",
"T 	c #661A16",
"U 	c #BE463E",
"V 	c #C4B6B3",
"W 	c #925C54",
"X 	c #A89290",
"Y 	c #6A1E1A",
"Z 	c #3E2A26",
"` 	c #DABEBE",
" .	c #725A56",
"..	c #CAB1AE",
"+.	c #CFB5B2",
"@.	c #561E1A",
"#.	c #221312",
"$.	c #E8DAD6",
"%.	c #FADAD6",
"&.	c #4C3E3A",
"*.	c #CEA9A5",
"=.	c #D2866A",
"-.	c #645252",
";.	c #A29692",
">.	c #AE827A",
",.	c #B69E9A",
"'.	c #7C6A66",
").	c #FDE2DF",
"!.	c #92362A",
"~.	c #B64A3E",
"{.	c #8E7672",
"].	c #AAA29E",
"^.	c #6D615F",
"/.	c #9A7872",
"(.	c #7C2A1C",
"_.	c #C29C98",
":.	c #392A27",
"<.	c #A2827A",
"[.	c #B66E64",
"}.	c #FAEAE9",
"|.	c #B6928E",
"1.	c #C2A6A2",
"2.	c #CFBBBA",
"3.	c #AE928E",
"4.	c #A08E8B",
"5.	c #946C68",
"6.	c #A69E9A",
"7.	c #B5857D",
"8.	c #120202",
"9.	c #160A0A",
"0.	c #543A38",
"a.	c #E8C6C2",
"b.	c #C69A92",
"c.	c #DCCECA",
"d.	c #5A4E4C",
"e.	c #907A78",
"f.	c #BE948E",
"g.	c #CA6E62",
"h.	c #AEA2A0",
"i.	c #C6B1AD",
"j.	c #D69E9A",
"k.	c #6E4642",
"l.	c #1A0603",
"m.	c #120603",
"n.	c #B6AAA7",
"o.	c #928684",
"p.	c #807270",
"q.	c #F6DAD8",
"r.	c #95817E",
"s.	c #BAAAA8",
"t.	c #BEB2AE",
"u.	c #C67E72",
"v.	c #2C0602",
"w.	c #8A5A52",
"x.	c #4A160E",
"y.	c #32120E",
"z.	c #A69694",
"A.	c #B05040",
"B.	c #8A4E46",
"C.	c #C26662",
"D.	c #3E0E06",
"E.	c #AE8682",
"F.	c #2B1D19",
"G.	c #B69A96",
"H.	c #FEEEEA",
"I.	c #9D8582",
"J.	c #DEC6C2",
"K.	c #A58985",
"L.	c #C5857D",
"M.	c #9A3A32",
"N.	c #9A5242",
"O.	c #7E524E",
"P.	c #726262",
"Q.	c #5A261E",
"R.	c #FAE6E4",
"S.	c #9E928F",
"T.	c #38221E",
"U.	c #6C504C",
"V.	c #D4C2BE",
"W.	c #FEEAE6",
"X.	c #2A1410",
"Y.	c #8A362A",
"Z.	c #53150E",
"`.	c #6C5A58",
" +	c #BE2622",
".+	c #D27A5A",
"++	c #AA6E66",
"@+	c #F2E6E4",
"#+	c #FEE6E5",
"$+	c #B2524E",
"%+	c #8A6E6A",
"&+	c #1B0E0B",
"*+	c #321E1A",
"=+	c #160602",
"-+	c #92625E",
";+	c #B28A82",
">+	c #F6D6D2",
",+	c #CAAAA6",
"'+	c #826E6E",
")+	c #B6A6A4",
"!+	c #CB9A92",
"~+	c #BBA29D",
"{+	c #B6A2A0",
"]+	c #EAD2CE",
"^+	c #2A0E0E",
"/+	c #AA9A98",
"(+	c #EDCDCA",
"_+	c #D6B6AE",
":+	c #95726E",
"<+	c #B2A2A0",
"[+	c #F0D6D3",
"}+	c #F6E6E6",
"|+	c #C4AAA7",
"1+	c #F5DEDD",
"2+	c #6E423A",
"3+	c #CE6656",
"4+	c #E2C0BA",
"5+	c #A2766E",
"6+	c #1E0603",
"7+	c #DED2CF",
"8+	c #CC9E96",
"9+	c #FEEEEE",
"0+	c #422E2A",
"a+	c #5A4642",
"b+	c #664A46",
"c+	c #C2AEAB",
"d+	c #562E2A",
"e+	c #462A26",
"f+	c #5E1E12",
"g+	c #BEAAA7",
"h+	c #AA9693",
"i+	c #B6523E",
"j+	c #A23A32",
"k+	c #A2524A",
"l+	c #7A625E",
"m+	c #240E0A",
"n+	c #EADEDC",
"o+	c #4E4240",
"p+	c #7A6E6C",
"q+	c #AE9692",
"r+	c #AA8A84",
"s+	c #D6C6C4",
"t+	c #B29E9B",
"u+	c #BEA6A2",
"v+	c #A2928F",
"w+	c #3C1210",
"x+	c #D69E8A",
"y+	c #B49692",
"z+	c #AA9E9C",
"A+	c #C2B2AF",
"B+	c #1E1612",
"C+	c #E3D6D2",
"D+	c #CABEBA",
"E+	c #FBDEDB",
"F+	c #B29A98",
"G+	c #FEEAEA",
"                                                              ",
"                                                              ",
"                          E @+}+@+# C+V                       ",
"                    R.}.}.}.y 8 }.8 @+E 7+/ r                 ",
"                q }.H.8 }.H.8 8 8 y y # c.n ].^.-.            ",
"              R.H.H.}.}.8 9+9+9+y @+$.c.s+n & z+- `.          ",
"            R.}.H.H.9+9+H.H.8 }+# $.c.D+V t.& & ! o.o+        ",
"          [+R.G+G+G+H.H.8 }.@+# 7+s+n V t.& & n.n.6.= :.      ",
"        [+# }.W.H.W.G+G+R.q C+c.| n A+& & n.! ! ! h.- 3 6     ",
"        1+W.W.W.W.G+W.R.# d $ 2.V A+x x n.n.n.! h.h.6.r F.    ",
"      (+q #+W.W.W.W.q $.d s+2.+.t.x s.s.s.)+! h.].z+6.@ , m.  ",
"      1+).#+#+#+).1+[+J.` +.i.c+g+& s.n.! <+h.h.D 6./ L o+B   ",
"      E+#+#+#+).q.(+J.2.V i.c+c+g+s.J {+! <+h.z+/+/ / ;.p+^   ",
"    *.q.).).E+[+5 V.+...,+c+g+s.J J {+)+<+h./+/+/ ;.S.- F ^ . ",
"    ,+[+E+>+h J.A ....|+|+|+u+u+J )+<+t+D D /+z.;.;.S.- '+B+. ",
"    _.(+>+(+4+_+*._._.1.b ~+~+~+{+,.t+D j /+/ z.;.S.L @ = B+. ",
"    ;+4+a._+0 *.|.:+:+r+G.b ~+a {+t+t+D /+h+z.v+- L @ '.w &+. ",
"    m G 0 G 8+1 2+u u { :+y+,.,.F+F+j h+h+v+S.4.o.F ^.d.+ 9.. ",
"    W 5+!+!+K g x.D.w+d+O m y+G.G.q+q+h+z.v+L r.p.^.3 + 6 . . ",
"    B.W L.K C f+Z.Z.Q.2+k.k I.y+q+q+h+4.4.I.e.'.} l :.B+m.. . ",
"      2 [.k+Y.(.(.C c w.O.O 9 i 3.3.X K.r.F P.w l , B+m.. .   ",
"      k+N A.A.R A.N.B.W I 9 /.K.3.4.K.r.p. .o++ F.&+=+. . 8.  ",
"      _ 7 3+=.Q g.~.) ++7.;+|.i r+I.e.9 -.&.:.X.&+8.. . . 8.  ",
"      U 7 C.j.Q .+f [.] 4 f._.i <.%+l+w l *+#.9.8.. 8.. 8.    ",
"        j+p : 3+C.u.L.' b._.r+S p. .a+0+*+m+=+m.8.8.8.8.B     ",
"         +% !.!.R u.!+8+f.E./.9 U.0.Z X.B P P P 8.. . m.      ",
"          < * T C 2 >.>.m :+k a+H T.X.6+P 8.8.8.8.8.P         ",
"              Y Z.@.> O.k U.0.e+M m+6+P =+=+P 8.8.P           ",
"                ; ~ s w+w+y.^+m+[ e l.e P 8.=+P B             ",
"                    ~ v.v.[ [ e l.=+e P e l.6+                ",
"                          e e e e e P P                       "};
