/* XPM */
static char * knob11_xpm[] = {
"31 31 256 2",
"  	c None",
". 	c #0A0202",
"+ 	c #332223",
"@ 	c #5A4A4E",
"# 	c #796A6B",
"$ 	c #9A8E8E",
"% 	c #DE8E92",
"& 	c #CE5E62",
"* 	c #AA4252",
"= 	c #62161E",
"- 	c #D07E82",
"; 	c #C29296",
"> 	c #C25256",
", 	c #82262E",
"' 	c #56161E",
") 	c #C66E76",
"! 	c #B2A2A3",
"~ 	c #9E6266",
"{ 	c #62262A",
"] 	c #827676",
"^ 	c #B69296",
"/ 	c #221616",
"( 	c #D2AAAC",
"_ 	c #3F3232",
": 	c #C29A9E",
"< 	c #925256",
"[ 	c #A27E82",
"} 	c #AE9E9F",
"| 	c #2A1212",
"1 	c #8E8283",
"2 	c #D6BABA",
"3 	c #6A5E5E",
"4 	c #AA8E8E",
"5 	c #C2A6A6",
"6 	c #1E1212",
"7 	c #F6464A",
"8 	c #9E6A6E",
"9 	c #684448",
"0 	c #563C40",
"a 	c #A61E26",
"b 	c #562426",
"c 	c #1E0E0E",
"d 	c #B69696",
"e 	c #E8B2B6",
"f 	c #724A4A",
"g 	c #D4AEB2",
"h 	c #8A3E42",
"i 	c #CAB2B2",
"j 	c #967A7A",
"k 	c #B29296",
"l 	c #BE767A",
"m 	c #968282",
"n 	c #1A0E0F",
"o 	c #5E5252",
"p 	c #A69697",
"q 	c #E88086",
"r 	c #524646",
"s 	c #EEC2C2",
"t 	c #BAA2A4",
"u 	c #1A0607",
"v 	c #726064",
"w 	c #422C2E",
"x 	c #8C6E70",
"y 	c #CAA6AA",
"z 	c #EA525A",
"A 	c #361A1A",
"B 	c #EE5A5E",
"C 	c #655657",
"D 	c #927676",
"E 	c #7C4044",
"F 	c #B69A9E",
"G 	c #E2B4B6",
"H 	c #4A1216",
"I 	c #4D3637",
"J 	c #AA9696",
"K 	c #9E363A",
"L 	c #A29696",
"M 	c #3D2A2E",
"N 	c #C6848E",
"O 	c #7E2A32",
"P 	c #BDAAAB",
"Q 	c #968689",
"R 	c #965E62",
"S 	c #BA666E",
"T 	c #7A4E52",
"U 	c #160202",
"V 	c #A28A8A",
"W 	c #564242",
"X 	c #9E9292",
"Y 	c #D6A2A6",
"Z 	c #D5B2B4",
"` 	c #C49EA2",
" .	c #AA9A9C",
"..	c #6E5256",
"+.	c #7A0E16",
"@.	c #C2AEAE",
"#.	c #CAAEB0",
"$.	c #D29A9A",
"%.	c #E6C0C0",
"&.	c #2A1619",
"*.	c #9E8E8E",
"=.	c #B47E84",
"-.	c #DE5E66",
";.	c #883036",
">.	c #7A525A",
",.	c #9A868A",
"'.	c #0E0202",
").	c #9E4652",
"!.	c #7A5E5E",
"~.	c #8A7E7E",
"{.	c #847072",
"].	c #BAA6A7",
"^.	c #BA9A9A",
"/.	c #2E1E20",
"(.	c #DAAAAE",
"_.	c #CE868A",
":.	c #32181C",
"<.	c #928686",
"[.	c #7E7272",
"}.	c #A6868A",
"|.	c #503E40",
"1.	c #4E2E32",
"2.	c #E28A8A",
"3.	c #DEB6BA",
"4.	c #DABABA",
"5.	c #6E565A",
"6.	c #922632",
"7.	c #E29EA2",
"8.	c #120202",
"9.	c #8E7A7A",
"0.	c #BE5A5E",
"a.	c #463637",
"b.	c #B29A9D",
"c.	c #7A6262",
"d.	c #221215",
"e.	c #CC9096",
"f.	c #AE7E84",
"g.	c #968A8A",
"h.	c #CE7A96",
"i.	c #5E4243",
"j.	c #160608",
"k.	c #A28E92",
"l.	c #867A7A",
"m.	c #C2AAAC",
"n.	c #9E7072",
"o.	c #D3B6B7",
"p.	c #DE646C",
"q.	c #8A5A5E",
"r.	c #B69EA0",
"s.	c #725A5A",
"t.	c #DCAEB0",
"u.	c #DFBABD",
"v.	c #AE9698",
"w.	c #A69A9A",
"x.	c #CAAAAB",
"y.	c #9A8A8B",
"z.	c #644A4C",
"A.	c #A8666E",
"B.	c #6E1E2A",
"C.	c #AE9292",
"D.	c #AE8A8E",
"E.	c #E2A2A2",
"F.	c #AE9A9B",
"G.	c #CA5A62",
"H.	c #CAA2A6",
"I.	c #5E3E42",
"J.	c #7E6468",
"K.	c #AE4656",
"L.	c #5E1A22",
"M.	c #E6B6B6",
"N.	c #726666",
"O.	c #7E464A",
"P.	c #8E666A",
"Q.	c #261A1A",
"R.	c #B6A6A6",
"S.	c #120606",
"T.	c #BD8E95",
"U.	c #B29E9E",
"V.	c #BEA6A7",
"W.	c #352626",
"X.	c #220A0E",
"Y.	c #B6A2A3",
"Z.	c #BD9699",
"`.	c #CEB6B6",
" +	c #A29292",
".+	c #5E1216",
"++	c #CA9A9E",
"@+	c #624E52",
"#+	c #3E2E31",
"$+	c #C3A2A5",
"%+	c #DFBEBF",
"&+	c #BD9296",
"*+	c #BA828A",
"=+	c #2E1A1A",
"-+	c #463232",
";+	c #9E7A7E",
">+	c #E1AAAA",
",+	c #635253",
"'+	c #9E8284",
")+	c #4A2E32",
"!+	c #A67276",
"~+	c #E6666E",
"{+	c #7A6E6E",
"]+	c #1A0A0C",
"^+	c #4C3A3C",
"/+	c #BEA2A5",
"(+	c #BE9EA2",
"_+	c #9E8A8E",
":+	c #928286",
"<+	c #B23E4A",
"[+	c #C6565E",
"}+	c #6E464A",
"|+	c #EEAEAE",
"1+	c #DA969E",
"2+	c #D6828E",
"3+	c #AE868A",
"4+	c #C6AAAE",
"5+	c #925A62",
"6+	c #7A5A5E",
"7+	c #3A262A",
"8+	c #A69295",
"9+	c #B48288",
"0+	c #BA9EA2",
"a+	c #8E7E81",
"b+	c #AC8286",
"c+	c #160A0A",
"d+	c #CEB2B3",
"e+	c #564648",
"f+	c #BE5262",
"g+	c #C26E82",
"h+	c #6B5A5D",
"i+	c #261213",
"j+	c #CEAAAD",
"k+	c #665A5A",
"l+	c #463A3E",
"m+	c #776666",
"n+	c #927E7E",
"o+	c #8A7A7C",
"p+	c #C4969E",
"q+	c #987E80",
"r+	c #EEC6CA",
"s+	c #8A7276",
"t+	c #381E22",
"u+	c #260E0E",
"v+	c #5E161A",
"w+	c #AA969A",
"x+	c #867678",
"y+	c #C6AEAF",
"z+	c #CEAEAF",
"A+	c #5A4649",
"B+	c #120206",
"C+	c #C6A6A8",
"D+	c #CEA6AA",
"E+	c #2A1A1C",
"F+	c #AA9292",
"G+	c #662A32",
"                                                              ",
"                                                              ",
"                          k r.F+q+v.J n+                      ",
"                    j+Z z+V.0+b.J  .J k.*.n+s+                ",
"                t.u.%+`.#.m.V.r.F b.v.F+k.$ Q # @+            ",
"              M.r+%.%+4.o.d+4+m.].U. .J p k._+o+# m+          ",
"            >+s s %+%+u.4.2 i y+m.V.! F. . +k.y.:+l.,+        ",
"          7.e e G G 3.3.3.o.o.d+i @.V.].U.} p  +*.:+m+A+      ",
"        % 7.|+E.>+(.g Z Z Z o.o.d+i @.P ].!  .p p $ 1 h+W.    ",
"      z 2.- - _._.$.Y D+( z+z+#.i i y+y+P ].Y.}  .p *.l.|.    ",
"      -.q > K ;.h ~ =.&+` y x.4+m.m.P P P P P ! }  .L g.3 E+  ",
"    7 ~+p.0.a +..+' b O.[ $+4+5 5 V.V.t R.R.Y.! ! }  .L ] #+  ",
"    B q ( T.<+;.v+H b f b+` C+5 /+t ].Y.U.! }  .} }  .p <.r   ",
"    G.p.h.g+<+, .+b n.3+y C+$+V.t t r.r.U.} }  .w.w.L L y.k+d.",
"    0.[+f+K.6.B.L.E 9+Z.Z 4+` /+t Y.U.U.F. . .p  + + +X Q 3 6 ",
"    ) 2+S )., = { 9+T.p+j+$+t 0+r.r.U.F.F.J p p  +X $ g.1 r c+",
"    l 1+*+A.< E E T.p+D+$+(+0+0+F b.U. . .J p  + +*.$ g.a+o n ",
"    A.=.e.=.!+R q.T.$+g $+(+0+F b.b.w+v.F+ + + +$ y.g.<.1 C c ",
"    ~ b+: p+T.f.n.Z.j+y (+r.F b.b.v.J p p  +*.*.*.y.g.<.] _ S.",
"    R P.9+p+: Z.&+: ` (+F ^.b.b.v.v.8+8+k.*.*.y.Q Q <.1 # Q.. ",
"      }+>.;+D.k ^ d d ^.F F b.F.J J p 8+k.*._+y.g.:+1 ~.k+6   ",
"      9 I.6+x D '+}.4 F+v.v.F+F+J 8+k.*.*.y.g.Q :+<.~.v W.S.  ",
"      9 I.I...6+c.x D j m V k.k.k.k.k.*._+y.g.<.:+1 [._ j..   ",
"        i.1.0 i.@+..5.c.J.s+9.n+Q ,.g.Q Q Q :+:+~.] @+6 '.    ",
"        1.t+A 7+I I.i.z.@+5.!.c.{.s+o+a+a+1 1 1 l.3 Q.'.'.    ",
"          A u+&.t+M _ I |.|.@ @+,+h+v # [.] x+{+3 /.'.'.      ",
"            :.X.c &.+ W.#+w a.^+W r @ ,+C h+,+l+Q.S.'.        ",
"              u+u+u+i+=+=++ + W.M #+_ a.a.M / c+. '.          ",
"                )+&.u j.j.c ]+n d.6 c n c+S.'.8.8.            ",
"                    U U 8.8.'.8.S.B+'.'.B+'.'.                ",
"                          8.'.'.'.'.'.'.                      "};
