/* XPM */
static char * knob37_xpm[] = {
"31 31 256 2",
"  	c None",
". 	c #0E0202",
"+ 	c #423232",
"@ 	c #7E726E",
"# 	c #DFCECC",
"$ 	c #A09292",
"% 	c #7A0E0E",
"& 	c #A6423E",
"* 	c #C2B6B4",
"= 	c #46120E",
"- 	c #6E5E5C",
"; 	c #C67A6A",
"> 	c #362622",
", 	c #7E3428",
"' 	c #AAA29E",
") 	c #360A06",
"! 	c #9E7A72",
"~ 	c #E9DAD9",
"{ 	c #2A1A16",
"] 	c #635351",
"^ 	c #DEA67E",
"/ 	c #6E3830",
"( 	c #9E7E7B",
"_ 	c #270A03",
": 	c #C69288",
"< 	c #E0BAB6",
"[ 	c #88403E",
"} 	c #F2E6E5",
"| 	c #BEB2B0",
"1 	c #AE1212",
"2 	c #CEC6C2",
"3 	c #948684",
"4 	c #AE4642",
"5 	c #7F615D",
"6 	c #5A4644",
"7 	c #1E0602",
"8 	c #B8847C",
"9 	c #B4928E",
"0 	c #BAAEAC",
"a 	c #52160E",
"b 	c #BE5E52",
"c 	c #CA8A82",
"d 	c #7E4E4A",
"e 	c #A28E8C",
"f 	c #5A3630",
"g 	c #BDA2A0",
"h 	c #9A1A1A",
"i 	c #D6BEBA",
"j 	c #8E726E",
"k 	c #A66A62",
"l 	c #46160E",
"m 	c #120202",
"n 	c #3A1A12",
"o 	c #70241E",
"p 	c #8E6662",
"q 	c #BE7466",
"r 	c #1A0E0B",
"s 	c #D1C2C2",
"t 	c #A99A98",
"u 	c #5A1A12",
"v 	c #221614",
"w 	c #8E827E",
"x 	c #FEF2EE",
"y 	c #9A4646",
"z 	c #7B6D6B",
"A 	c #B29A96",
"B 	c #A23A32",
"C 	c #784C42",
"D 	c #765450",
"E 	c #F6DAD6",
"F 	c #F2D2D2",
"G 	c #D2A6A6",
"H 	c #CABEBD",
"I 	c #4A3430",
"J 	c #FAEAE9",
"K 	c #82221A",
"L 	c #964A42",
"M 	c #B1837B",
"N 	c #E2C2C2",
"O 	c #1A0A09",
"P 	c #46221E",
"Q 	c #4D3B39",
"R 	c #CE7E6E",
"S 	c #221210",
"T 	c #642822",
"U 	c #CE564E",
"V 	c #B2A6A4",
"W 	c #1A0602",
"X 	c #BAA6A4",
"Y 	c #D6827A",
"Z 	c #261612",
"` 	c #CCB6B6",
" .	c #F0E2E0",
"..	c #A6938F",
"+.	c #95726E",
"@.	c #A62616",
"#.	c #AE7266",
"$.	c #DE9E82",
"%.	c #CE7A66",
"&.	c #C3AEAC",
"*.	c #B08E8A",
"=.	c #E1D2D0",
"-.	c #865652",
";.	c #CAB2AE",
">.	c #C29490",
",.	c #A58683",
"'.	c #B98E87",
").	c #3C221C",
"!.	c #DEB2AA",
"~.	c #6E524E",
"{.	c #C2A6A3",
"].	c #8A6A66",
"^.	c #BE9A9A",
"/.	c #362C28",
"(.	c #756765",
"_.	c #220E0A",
":.	c #C6B2B0",
"<.	c #311E1B",
"[.	c #27110E",
"}.	c #987975",
"|.	c #E28A66",
"1.	c #5C403A",
"2.	c #120605",
"3.	c #D28E86",
"4.	c #B99A97",
"5.	c #675A57",
"6.	c #7E5A56",
"7.	c #624844",
"8.	c #EECAC6",
"9.	c #FAEEEB",
"0.	c #F0DAD8",
"a.	c #FBE6E5",
"b.	c #E8D2CE",
"c.	c #70403E",
"d.	c #6E2C26",
"e.	c #D2C6C6",
"f.	c #AEA2A2",
"g.	c #B2726A",
"h.	c #54423E",
"i.	c #895E5A",
"j.	c #462E2A",
"k.	c #927E7A",
"l.	c #DA5E42",
"m.	c #B6AAA8",
"n.	c #F6DEDA",
"o.	c #64201A",
"p.	c #DC8C7A",
"q.	c #DE765E",
"r.	c #EACECA",
"s.	c #621616",
"t.	c #D2AAA6",
"u.	c #C6BAB9",
"v.	c #AA9E9D",
"w.	c #AD928E",
"x.	c #BAAAA8",
"y.	c #543430",
"z.	c #D0B2B1",
"A.	c #160202",
"B.	c #320A02",
"C.	c #663A32",
"D.	c #925A56",
"E.	c #32120E",
"F.	c #928A86",
"G.	c #8B7A79",
"H.	c #CABABA",
"I.	c #867A7A",
"J.	c #5E4E4A",
"K.	c #A88A86",
"L.	c #B2A29F",
"M.	c #3E3632",
"N.	c #DFC9C5",
"O.	c #A67A72",
"P.	c #A67E7A",
"Q.	c #3C100A",
"R.	c #956D67",
"S.	c #C46658",
"T.	c #725A56",
"U.	c #3E2A26",
"V.	c #76625E",
"W.	c #563A3A",
"X.	c #C28E86",
"Y.	c #D6C6C4",
"Z.	c #402622",
"`.	c #C2867E",
" +	c #C27676",
".+	c #DA7272",
"++	c #1F0A07",
"@+	c #FEEAE9",
"#+	c #CFBEBD",
"$+	c #AE9A98",
"%+	c #B89E9B",
"&+	c #BEAEAD",
"*+	c #7A5A52",
"=+	c #5E2E2A",
"-+	c #B67A6E",
";+	c #C3AAA7",
">+	c #AD9693",
",+	c #A98E8A",
"'+	c #857572",
")+	c #E6CECA",
"!+	c #6A5652",
"~+	c #411913",
"{+	c #D9CAC8",
"]+	c #F6E2E0",
"^+	c #321A16",
"/+	c #B6A6A5",
"(+	c #463937",
"_+	c #2F221F",
":+	c #D26252",
"<+	c #988B87",
"[+	c #B29E9B",
"}+	c #F0DEDE",
"|+	c #D6B2AE",
"1+	c #C6B6B5",
"2+	c #826A66",
"3+	c #E6C6C6",
"4+	c #AD7771",
"5+	c #EADEDA",
"6+	c #B49693",
"7+	c #E2D6D4",
"8+	c #86322E",
"9+	c #CE9286",
"0+	c #4E2620",
"a+	c #9A8080",
"b+	c #C2B2B0",
"c+	c #A0827E",
"d+	c #564A47",
"e+	c #D9C2BF",
"f+	c #E9D6D3",
"g+	c #FEEEED",
"h+	c #AE423A",
"i+	c #4E120E",
"j+	c #220602",
"k+	c #AE665A",
"l+	c #762626",
"m+	c #8A1E1E",
"n+	c #2E1612",
"o+	c #9A726E",
"p+	c #AA867E",
"q+	c #42221E",
"r+	c #160603",
"s+	c #763E3A",
"t+	c #6A221E",
"u+	c #E28E76",
"v+	c #42120A",
"w+	c #A29694",
"x+	c #6C6260",
"y+	c #EED6D4",
"z+	c #F6E6E5",
"A+	c #BEA6A3",
"B+	c #AE9E9E",
"C+	c #BEAAA9",
"D+	c #CEBAB9",
"E+	c #B6A2A0",
"F+	c #FAE2DF",
"G+	c #3C2E2A",
"                                                              ",
"                                                              ",
"                          {.%+6+*.( +.p                       ",
"                    ` :.:.D+D+#+` %+K.}.R.i.s+                ",
"                e+{+N.)+f+y+y+y+y+8.N z.9 o+c./ d.            ",
"              N.=.y+ . .n.]+F+n.E y+8.< G '.-./ o.s.          ",
"            # ~ } a.J J a.F+F+E F 3+< G >.4+D.[ l+l+[         ",
"          {+=. .z+J @+a.a.F+E b.N z.^.P.d T t+8+& 4 & m+1     ",
"        N.~ } g+g+@+@+J ]+0.)+e+` 6+C 0+l = t+B U Y  +h %     ",
"        =.} g+g+g+J J n.f+Y.< z.{.+.q+) = T L S.q.|+.+h+K @.  ",
"      {+}+9.x g+g+]+~ # Y.D+:.;+g }.q+Q.C.D.#.S.l.$.^ q , o.  ",
"      ~ J g+9.J  .f+N.i ` ;.&.;+{.,.y.~+C k k+b :+p.|.%., u   ",
"      J x 9.} ~ =.e.#+` :.:.&.;+g 9 D ~+=+#.#.q %.Y p.; d.a   ",
"    H } J  .7+{+s H.1+:.:.;+{.g g 4.( =+P R.-+`.3.9+9+-+/ v+Q.",
"    {+5+~ =.e.#+H.` * b+&.&.;+A+%+4.w.5 =+5 M X.: X.8 O.C l B.",
"    2 =.{+s #+u.u.* :.&.&+X g g %+%+6+c+5 R.'.>.'.8 M O.i.~+j+",
"    1+2 s H H 1+1+b+&+&+C+x.E+g %+4.4.w.,.p+*.K.p+P.! +.D n _ ",
"    0 u.H H u.* b+b+&+C+x.E+g L.A $+>+w.w.,+K.,.! +.p 6.1.E.j+",
"    I.0 u.u.u.* | | x.x./+/+%+[+[+6+>+w.,+K.c+}.].V.~.1.)._ j+",
"    '+0 u.1+b+b+&+x.0 /+/+L.L.B+$+>+..K.,.k.j V.D 1.y.U._.7 7 ",
"      | * * | | &+m./+/+V B+[+t t ..e a+G.2+T.7.1.j.).E.j+j+  ",
"      k.m.* | 0 0 m.m.V [+[+t >+..3 G.@ 5 J.1.+ > <._.++W 7   ",
"      - w+0 0 m./+V L.f.' v.w+e 3 '+5 ] 6 I U.^+[._.W W A.j+  ",
"        z v.m.m.m.V L.v.>+..3 I.2+T.d+Q U.<.[._.W A.A.A.W     ",
"        ] F.v.V V f.v.w+<+w z - J.Q G+_+{ _.W A.W r+A.A.7     ",
"          d+z $ v.v.$ 3 '+(.] h.+ > { S O r+m A.m A.r+W       ",
"            Q x+3 F.I.(.5.d+M.> <.S O m m m m m m m A.        ",
"              (+] - 5.J.(+G+_+v O 2.m m . m . m m m           ",
"                { /.+ /._+v r 2.. . . m m m m m .             ",
"                    r O 2.2.. . . . . . m m .                 ",
"                          . . . . . . .                       "};
