/* XPM */
static char * knob24_xpm[] = {
"31 31 256 2",
"  	c None",
". 	c #0E0202",
"+ 	c #322626",
"@ 	c #665252",
"# 	c #857677",
"$ 	c #C2B2B2",
"% 	c #CA7676",
"& 	c #D25E5E",
"* 	c #AC3C44",
"= 	c #968A8A",
"- 	c #520A0E",
"; 	c #B6565E",
"> 	c #80282E",
", 	c #C28E92",
"' 	c #AEA2A2",
") 	c #271A1A",
"! 	c #524646",
"~ 	c #9A5252",
"{ 	c #C29A9E",
"] 	c #6A262A",
"^ 	c #440C0C",
"/ 	c #A68E8E",
"( 	c #E4B6B6",
"_ 	c #925256",
": 	c #221616",
"< 	c #766A6A",
"[ 	c #5E2626",
"} 	c #1D1213",
"| 	c #A69293",
"1 	c #BEA2A2",
"2 	c #AE8284",
"3 	c #DCBABA",
"4 	c #AA7A7A",
"5 	c #BA969A",
"6 	c #462E2F",
"7 	c #984E4E",
"8 	c #D5AAAB",
"9 	c #665A5A",
"0 	c #EA3636",
"a 	c #8E8282",
"b 	c #D2BEBE",
"c 	c #A25A5E",
"d 	c #1A0E0E",
"e 	c #B26E76",
"f 	c #E4BABA",
"g 	c #865C60",
"h 	c #622A2A",
"i 	c #E67A76",
"j 	c #966262",
"k 	c #BEAEAE",
"l 	c #CE7276",
"m 	c #7A4A4A",
"n 	c #862226",
"o 	c #A69A9A",
"p 	c #DE8686",
"q 	c #3E1A1A",
"r 	c #E2BEBE",
"s 	c #562A2A",
"t 	c #CBB2B2",
"u 	c #1E0202",
"v 	c #D69E9C",
"w 	c #C9A2A5",
"x 	c #762A2A",
"y 	c #4A3E3E",
"z 	c #6A5E5E",
"A 	c #5A3E40",
"B 	c #9E9292",
"C 	c #D08E92",
"D 	c #8A7A7B",
"E 	c #9A6262",
"F 	c #725252",
"G 	c #A23A3A",
"H 	c #2E1216",
"I 	c #724646",
"J 	c #120A0A",
"K 	c #AA9A9A",
"L 	c #8E6A6A",
"M 	c #E2C2C2",
"N 	c #341A1C",
"O 	c #EE5A52",
"P 	c #463A3A",
"Q 	c #BAAAAA",
"R 	c #663232",
"S 	c #BE9699",
"T 	c #966666",
"U 	c #DE6A66",
"V 	c #C63A3E",
"W 	c #1A0205",
"X 	c #B38A8A",
"Y 	c #422626",
"Z 	c #A28E90",
"` 	c #BA5E5E",
" .	c #CE9A98",
"..	c #AE9A9A",
"+.	c #BEA6A6",
"@.	c #756668",
"#.	c #CAB6B6",
"$.	c #96767A",
"%.	c #EEC6C6",
"&.	c #621212",
"*.	c #AF9699",
"=.	c #B2A2A2",
"-.	c #3E3232",
";.	c #5B4A4B",
">.	c #765A5D",
",.	c #DDBEC1",
"'.	c #9A6A6A",
").	c #7A3E3E",
"!.	c #C6A6A6",
"~.	c #CE7A7E",
"{.	c #8E3636",
"].	c #BAA2A3",
"^.	c #B69A9C",
"/.	c #311E1E",
"(.	c #7F7272",
"_.	c #9A8484",
":.	c #271213",
"<.	c #C4707A",
"[.	c #966E6E",
"}.	c #9A8E8E",
"|.	c #CAAEAE",
"1.	c #664646",
"2.	c #6E6262",
"3.	c #EACECE",
"4.	c #CA5262",
"5.	c #CEB6B6",
"6.	c #4A1616",
"7.	c #8E7E7F",
"8.	c #120202",
"9.	c #AE9E9E",
"0.	c #C59698",
"a.	c #4E3232",
"b.	c #120606",
"c.	c #D29292",
"d.	c #AA8282",
"e.	c #825252",
"f.	c #B2464A",
"g.	c #8E6666",
"h.	c #D2C6C6",
"i.	c #928282",
"j.	c #C69A9B",
"k.	c #563A3E",
"l.	c #CEA6A8",
"m.	c #B69E9E",
"n.	c #A69696",
"o.	c #AE8A8E",
"p.	c #3E2626",
"q.	c #DAC2C2",
"r.	c #9A8A8A",
"s.	c #2E2222",
"t.	c #D65A5E",
"u.	c #C5B6B6",
"v.	c #703838",
"w.	c #755E5E",
"x.	c #423636",
"y.	c #A66E70",
"z.	c #E8CACA",
"A.	c #5A4E4E",
"B.	c #CEBABA",
"C.	c #601A1E",
"D.	c #D88284",
"E.	c #CA5A5A",
"F.	c #B6A6A6",
"G.	c #2A1616",
"H.	c #BAA6A6",
"I.	c #DEAAAA",
"J.	c #928686",
"K.	c #221212",
"L.	c #DA6E72",
"M.	c #4A2226",
"N.	c #BEAAAA",
"O.	c #AA9E9E",
"P.	c #C3AEAE",
"Q.	c #AA9697",
"R.	c #C67E7E",
"S.	c #867272",
"T.	c #E66262",
"U.	c #663A3A",
"V.	c #C9AAAA",
"W.	c #DA5E5A",
"X.	c #766264",
"Y.	c #1E0E0F",
"Z.	c #B6A2A2",
"`.	c #5A4243",
" +	c #A29292",
".+	c #463233",
"++	c #361E21",
"@+	c #7E6A6E",
"#+	c #190A0B",
"$+	c #9E8E8E",
"%+	c #D296A2",
"&+	c #BE9E9E",
"*+	c #D6C2C2",
"=+	c #322224",
"-+	c #968688",
";+	c #B29A9B",
">+	c #CABABA",
",+	c #CA8A8A",
"'+	c #D2B2B2",
")+	c #BA8A8A",
"!+	c #5A4646",
"~+	c #EE7A7A",
"{+	c #623E3E",
"]+	c #DE5858",
"^+	c #C6B2B2",
"/+	c #2A1E1E",
"(+	c #1A0606",
"_+	c #BA9E9E",
":+	c #9E8A8B",
"<+	c #A2525A",
"[+	c #4A0A0E",
"}+	c #7A5656",
"|+	c #361216",
"1+	c #927E7E",
"2+	c #B29E9E",
"3+	c #CA969A",
"4+	c #DEC2C3",
"5+	c #66161A",
"6+	c #220E0E",
"7+	c #C29EA1",
"8+	c #CEAAAC",
"9+	c #E3C6C7",
"0+	c #927A7B",
"a+	c #D6BEBF",
"b+	c #160608",
"c+	c #463636",
"d+	c #5E4E4F",
"e+	c #AD8E91",
"f+	c #CA5A66",
"g+	c #867A7A",
"h+	c #8A7E7E",
"i+	c #261616",
"j+	c #967A7A",
"k+	c #D6AEB2",
"l+	c #EECACA",
"m+	c #957275",
"n+	c #C69EA2",
"o+	c #DAC6C6",
"p+	c #C2A2A2",
"q+	c #BA9A9E",
"r+	c #D2BABE",
"s+	c #362224",
"t+	c #362A2A",
"u+	c #665658",
"v+	c #200606",
"w+	c #765658",
"x+	c #442A2C",
"y+	c #D09698",
"z+	c #AA8686",
"A+	c #3A2A2A",
"B+	c #A27272",
"C+	c #C88E92",
"D+	c #AA9296",
"E+	c #D2B6B7",
"F+	c #C2AAAA",
"G+	c #C2A6A6",
"                                                              ",
"                            0                                 ",
"                        O U ]+& E.` 7 7                       ",
"                    % p ~+~+i ]+t.l c E y.e.m                 ",
"                y+c.R.D.T.W.h.%+L.D.,+C+)+g.}+{+M.            ",
"              v I.v ~ {.f.V <.4.f+% C y+0.d.L 1.Y q           ",
"            8 ( ( y+).5+n G * G ; <.C 3+0.z+[.F a.N |+        ",
"          8 3 %.( 0.R [+&.x n > <+e C+3+0.X m+F k.Y H v+      ",
"        !.3 z.l+f 0.R [+[+C.C.] _ y., 0.5 o.m+w+A x+G.v+u     ",
"        V.M 3.l+r j.R ^ 6.[ h v.j 4 j.{ S o.$.>.A x+++6+W     ",
"      &+|.M 9+%.r !.g M.I L '.B+X 0.8 n+5 e+$.>.`.x+N 6+W W   ",
"      &+5.,.9+9+,.8 d.g.[.2 d.d.S l.k+&+S D+j+>.A 6 ++:.(+8.  ",
"      ;+5.4+9+9+,.t w _+w 8+w { { &+7+_+5 e+$.w.`.6 ++:.6+v+  ",
"    ^.].#.a+4+9+,.E+|.!.V.V.w &+&+&+q+^.;+/ 0+>.`.6 /.G.6+(+8.",
"    ].P.#.r+q.o+4+5.|.V.G+G+p+1 q+_+q+*.*./ D w.! .+/.i+K.Y.8.",
"    *.N.t B.a+o+a+t P.F++.1 1 _+m.^.;+^.*./ j+w.!+.+s+:.K.K.b.",
"    Z =.^+5.a+q.,.t F+F++.]._+_+m.;+;+*.D+Z 1+X.!+.+s+i+6+Y.8.",
"    :+*.N.u.B.*+b ^+F++.H.].Z.m.;+;+*.Q.D+Z 0+X.;..+=+i+Y.b+. ",
"    _. +Q ^+#.b b ^+N.H.Z.Z.2+;+..Q.*.n.| $+1+X.;..+=+i+Y.8.. ",
"    -+:+2+k #.>+>+P.H.].Z.2+2+9.....n.| Z :+7.X.;.c+=+i+#+8.8.",
"      @+i.F.u.B.>+$ H.F.Z.2+..*.Q.Q.| Z $+-+7.@.A.c+=+i+b+8.  ",
"      @.D =.$ u.>+$ Q Z.2+9...K n. + + +:+r.7.< ;.x.+ : b..   ",
"      (.# n.k u.u.k F.' 9.K K n.n. +$+$+:+-+D @.d+c+=+} 8.8.  ",
"        w.(.' $ ^+k =.9.K K n.|  +Z $+}.= -+7.< d+P s.b+.     ",
"        @ z $+Q $ k ' O.K n.n. +B $+r.-+-+i.D @.A..+} . 8.    ",
"          d+u+J.F.Q ' K o n.B B $+r.r.r.J.a g+< A.t+#+8.      ",
"            A+! # n.K n.n.n.$+}.}.= -+-+i.7.(.9 y d 8.        ",
"              N -.z a = B B B }.= J.J.h+(.< 9 /+#+8.          ",
"                } i+t+;.@+# g+J.J.h+# @.-.i+} . .             ",
"                    b+d ) ) x.2.< 9 y /+#+. .                 ",
"                          . b.} } d J .                       "};
