/* XPM */
static char * knob31_xpm[] = {
"31 31 256 2",
"  	c None",
". 	c #0A0202",
"+ 	c #443333",
"@ 	c #807070",
"# 	c #DED2D2",
"$ 	c #B6AAAA",
"% 	c #D2363E",
"& 	c #621616",
"* 	c #918282",
"= 	c #983442",
"- 	c #420606",
"; 	c #342626",
"> 	c #BE8286",
", 	c #625656",
"' 	c #D4C6C6",
") 	c #9E9292",
"! 	c #C6767E",
"~ 	c #36020A",
"{ 	c #8A3434",
"] 	c #221616",
"^ 	c #DDB2B5",
"/ 	c #AE6E6E",
"( 	c #925A5E",
"_ 	c #AEA2A2",
": 	c #BE9191",
"< 	c #4A3E3E",
"[ 	c #CA2E36",
"} 	c #260206",
"| 	c #CE525A",
"1 	c #B2868A",
"2 	c #EBDADA",
"3 	c #CEBEBE",
"4 	c #AC9292",
"5 	c #AA6E76",
"6 	c #221212",
"7 	c #BF9A9C",
"8 	c #CEB2B2",
"9 	c #723E42",
"0 	c #422626",
"a 	c #86565A",
"b 	c #924C4C",
"c 	c #3C0C10",
"d 	c #1F0205",
"e 	c #AE8286",
"f 	c #F1DEDE",
"g 	c #623A3A",
"h 	c #814F51",
"i 	c #C2B6B6",
"j 	c #AA9A9B",
"k 	c #EACCCE",
"l 	c #5A4E4E",
"m 	c #9D7576",
"n 	c #88282C",
"o 	c #321216",
"p 	c #520A16",
"q 	c #AE3642",
"r 	c #D29A9A",
"s 	c #160202",
"t 	c #827676",
"u 	c #B79A9A",
"v 	c #C3AAAB",
"w 	c #7A6A6A",
"x 	c #624044",
"y 	c #AA4C4E",
"z 	c #C0A2A3",
"A 	c #BE3A42",
"B 	c #DABBBD",
"C 	c #1A0E0E",
"D 	c #FBDEDF",
"E 	c #9E8686",
"F 	c #421616",
"G 	c #2C0E12",
"H 	c #C6666A",
"I 	c #7E6A6A",
"J 	c #543638",
"K 	c #7A4646",
"L 	c #A66666",
"M 	c #946E70",
"N 	c #F8E2E2",
"O 	c #DE8A96",
"P 	c #7A5A5E",
"Q 	c #928686",
"R 	c #BC4450",
"S 	c #B69292",
"T 	c #DDC6C6",
"U 	c #724A4A",
"V 	c #D68E96",
"W 	c #321616",
"X 	c #A27272",
"Y 	c #F4D6D6",
"Z 	c #B2A3A4",
"` 	c #210A0D",
" .	c #AA4246",
"..	c #CA9E9E",
"+.	c #A59697",
"@.	c #695B5B",
"#.	c #EAC0C0",
"$.	c #B27E7E",
"%.	c #534242",
"&.	c #FEE2E2",
"*.	c #F7DADB",
"=.	c #D86070",
"-.	c #8E4242",
";.	c #D47276",
">.	c #C4B2B2",
",.	c #DDCACA",
"'.	c #B09A9B",
").	c #1A0A0A",
"!.	c #966A6E",
"~.	c #B88A8A",
"{.	c #CEB8BA",
"].	c #361A1E",
"^.	c #4B1D1E",
"/.	c #C04A4C",
"(.	c #BAAEAE",
"_.	c #721A2A",
":.	c #8F7979",
"<.	c #AA8686",
"[.	c #A27D7F",
"}.	c #D67E8A",
"|.	c #E6D2D2",
"1.	c #B7A2A2",
"2.	c #CE9296",
"3.	c #584748",
"4.	c #0E0202",
"5.	c #9F8A8A",
"6.	c #CE9A9A",
"7.	c #2E1E1E",
"8.	c #DCC2C2",
"9.	c #4E3434",
"0.	c #6A5252",
"a.	c #C1A6A7",
"b.	c #362A2A",
"c.	c #BE7676",
"d.	c #170607",
"e.	c #120202",
"f.	c #803A40",
"g.	c #B29595",
"h.	c #B0545C",
"i.	c #998A8A",
"j.	c #DA5A72",
"k.	c #3E2024",
"l.	c #9A7E7E",
"m.	c #664A4E",
"n.	c #D4A4A4",
"o.	c #C7898E",
"p.	c #AE9E9F",
"q.	c #E6CCCC",
"r.	c #B6A6A7",
"s.	c #723236",
"t.	c #745254",
"u.	c #CCA6A8",
"v.	c #706262",
"w.	c #F6E6E6",
"x.	c #CAAEAE",
"y.	c #A39293",
"z.	c #5E3E42",
"A.	c #52161E",
"B.	c #826666",
"C.	c #ECD2D4",
"D.	c #2E0A0E",
"E.	c #B89E9F",
"F.	c #C6A1A1",
"G.	c #B17676",
"H.	c #887A7A",
"I.	c #BAAAAB",
"J.	c #AE8A8A",
"K.	c #F2DADE",
"L.	c #D3595F",
"M.	c #835D5F",
"N.	c #4E1216",
"O.	c #332122",
"P.	c #281618",
"Q.	c #5E1E1E",
"R.	c #AC9696",
"S.	c #C4AEAE",
"T.	c #877171",
"U.	c #705E5E",
"V.	c #DE6682",
"W.	c #C44448",
"X.	c #D5BEBE",
"Y.	c #F1CECF",
"Z.	c #604E4E",
"`.	c #9A8282",
" +	c #6C5656",
".+	c #A69A9A",
"++	c #1A0203",
"@+	c #86464A",
"#+	c #FAE6E7",
"$+	c #A08E8E",
"%+	c #FEE6E7",
"&+	c #2E0206",
"*+	c #D6B8BA",
"=+	c #92626A",
"-+	c #422E2E",
";+	c #B63E3E",
">+	c #563A3E",
",+	c #7A6262",
"'+	c #8E7E7E",
")+	c #4E3A3E",
"!+	c #120606",
"~+	c #561E26",
"{+	c #8A6A6E",
"]+	c #C7B6B6",
"^+	c #3C2A2A",
"/+	c #F1E2E2",
"(+	c #DFCECE",
"_+	c #AA9E9E",
":+	c #C69292",
"<+	c #AA7E82",
"[+	c #1F0E0E",
"}+	c #9A8E8E",
"|+	c #CABABA",
"1+	c #C6A6AA",
"2+	c #8A7E7E",
"3+	c #CAB2B2",
"4+	c #5E4646",
"5+	c #B98587",
"6+	c #D5B1B2",
"7+	c #A68A8A",
"8+	c #CE868A",
"9+	c #BAA6A6",
"0+	c #B89696",
"a+	c #E6D6D7",
"b+	c #3D2E2F",
"c+	c #6A4242",
"d+	c #BEAAAB",
"e+	c #561012",
"f+	c #B29E9F",
"g+	c #200608",
"h+	c #EBD6D7",
"i+	c #AC8E8E",
"j+	c #2B1A1A",
"k+	c #D4C2C2",
"l+	c #3E060A",
"m+	c #4A2A2E",
"n+	c #A68686",
"o+	c #5A3236",
"p+	c #AE6A6A",
"q+	c #9A8686",
"r+	c #E2C6C6",
"s+	c #BA7E7E",
"t+	c #963E42",
"u+	c #E2CACE",
"v+	c #C64E52",
"w+	c #BEAFAF",
"x+	c #DE7A86",
"y+	c #E2C2C2",
"z+	c #863E42",
"A+	c #8A6266",
"B+	c #661E2A",
"C+	c #D6CACA",
"D+	c #2C1214",
"E+	c #947274",
"F+	c #BA8E8E",
"G+	c #625252",
"                                                              ",
"                                                              ",
"                          F+F+$.G.L b y %                     ",
"                    F.u.u.6+^ n.r / -.y v+A ;+[               ",
"                *+B T k Y.Y.B n.G.z+{ R L.| W.q =             ",
"              B T q.*.*.Y Y.^ 5+s.& n W.;.^ j.R = _.          ",
"            X.8.2 D &.D Y #...h N.e+n R | }.V.=.h.B+p         ",
"          T (+h+D &.&.*.Y.^ X ^.- e+{  .W.=.=.x+! f.~+A.      ",
"        X.u+K.N %+&.&.Y y+E.g l+l+Q.z+t+y H ;.O o.p+9 c ~     ",
"        T 2 N #+%+%+*.k B 7 U F ^.K @+b L c.8+2.o.5+=+^.&+    ",
"      X.|./+w.#+%+N C.B 6+F.E+c+c+h ( G.$.> 2.o.5+<+!.J D.&+  ",
"      k+h+N %+%+#+K.q.*+3+1+u [.P h M.X 5+:+6.~.e [.A+g G d   ",
"      3 2 w.#+%+N C.k+3+v u.a.7 J.M M.m : 6.: 1 <+!.t.o+o }   ",
"    S.' /+w.#+w.2 T {.x.S.v 1+z 7 S J.S F.F.S 1 m M.m.-+o g+d ",
"    S.(+/+w.#+N # X.]+S.a.a.z 1.7 u 0+0+0+S J.l.{+0.o+k.G ++++",
"    I.a+w.#+w.h+8.{.S.v d+a.1.E.E.u '.S 4 i+E E+P z.k.D+g+++s ",
"    (.2 w.w.f (+|+>.S.v 9+a.1.E.E.0+'.S 4 i+l.B.m.9.].` s ++s ",
"    Z a+w./+# k+>.S.d+I.9+1.E.E.'.'.4 R.$+`.T. +>+k.6 g+++s s ",
"    $+C+/+f ' |+w+w+a.9+1.1.f+E.'.'.4 4 7+:.,+3.-+W ` e.s s s ",
"    i.i a+(+k+>.w+I.I.r.1.E.f+'.j R.R.$+`.T.0.9.k.[+s s s e.e.",
"      _+C+k+i w+I.$ r.r.Z p.p.R.R.y.$+5.:.U.%.; W d.s e.s s   ",
"      H.>.|+w+I.I.r.1.Z p.p.j j +.4 $+'+B.Z.9.7.` s e.e.e.s   ",
"      w ) (.(.I.r.r.Z Z p.'.j +.+.$+q+t  +)+O.6 d.e.e.4.e.4.  ",
"        @.) r.$ r.Z p.p._+.+R.y.$+5.2+v.3.b+j+).4.e.e.e.4.    ",
"        %.@.i._ _ _ _+'.j +.+.y.$+* @ Z.+ O.[+s 4.4.e.e..     ",
"          O.l ) _ _ _+.++.+.+.) i.t U.%.^+P.).4.e.e.4.4.      ",
"            3.2+$+.+.+.++.) $+i.'+w l + 7.C e.4.4.4.e.        ",
"              b+3.H.}+) ) ) }+Q @ @.< ; 6 !+4.4.4.e.          ",
"                6 b+, t H.2+* H.v.%.b.] !+4.4.4.s             ",
"                    6 j+7.+ l , < b+C 4.4.e.e.                ",
"                          !+).6 C !+4.e.                      "};
