/* XPM */
static char * knob13_xpm[] = {
"31 31 256 2",
"  	c None",
". 	c #060202",
"+ 	c #362626",
"@ 	c #605252",
"# 	c #7A6E6E",
"$ 	c #CE7A7A",
"% 	c #928686",
"& 	c #B64E52",
"* 	c #D06268",
"= 	c #66161A",
"- 	c #8A2A32",
"; 	c #B48688",
"> 	c #C8868E",
", 	c #C25252",
"' 	c #59161D",
") 	c #7E2A2A",
"! 	c #CA9696",
"~ 	c #B27676",
"{ 	c #A2565A",
"] 	c #564646",
"^ 	c #A69A9A",
"/ 	c #281A1C",
"( 	c #C6A6A9",
"_ 	c #A47A7C",
": 	c #865A5A",
"< 	c #867A7A",
"[ 	c #563636",
"} 	c #221616",
"| 	c #DEA6A6",
"1 	c #766666",
"2 	c #B69A9B",
"3 	c #463636",
"4 	c #9E9292",
"5 	c #BE8E92",
"6 	c #1E1212",
"7 	c #7E5252",
"8 	c #DAAAAE",
"9 	c #E24E56",
"0 	c #B6A2A2",
"a 	c #DE9AA2",
"b 	c #6E363A",
"c 	c #6B5E5E",
"d 	c #A0868A",
"e 	c #967676",
"f 	c #BA8E8E",
"g 	c #1A0A0A",
"h 	c #A62E3E",
"i 	c #AA8A8A",
"j 	c #D5B2B5",
"k 	c #927A7A",
"l 	c #EAC2CA",
"m 	c #9A3E3E",
"n 	c #E68A96",
"o 	c #4E3232",
"p 	c #B68E90",
"q 	c #827273",
"r 	c #6E5252",
"s 	c #D4A6AA",
"t 	c #E66A7E",
"u 	c #A69294",
"v 	c #78222C",
"w 	c #DA9A9E",
"x 	c #3E2A2A",
"y 	c #B65666",
"z 	c #724E4E",
"A 	c #968A8A",
"B 	c #CAAEB2",
"C 	c #8E5E5E",
"D 	c #504242",
"E 	c #BA6262",
"F 	c #160A0A",
"G 	c #E66E82",
"H 	c #8E8283",
"I 	c #BEA2A4",
"J 	c #AA9A9B",
"K 	c #C29A9A",
"L 	c #E0AEB2",
"M 	c #6A3A3E",
"N 	c #AE9A9B",
"O 	c #B29698",
"P 	c #120202",
"Q 	c #BEA6A8",
"R 	c #825A5A",
"S 	c #624646",
"T 	c #9A5E62",
"U 	c #C69E9E",
"V 	c #9E8E8E",
"W 	c #907676",
"X 	c #4E3E3E",
"Y 	c #C2829A",
"Z 	c #2E1A1A",
"` 	c #D29292",
" .	c #9A8687",
"..	c #928284",
"+.	c #AB9294",
"@.	c #745E5E",
"#.	c #B29E9E",
"$.	c #783E40",
"%.	c #CEA6AA",
"&.	c #564A4A",
"*.	c #E6729A",
"=.	c #AA4656",
"-.	c #8A6266",
";.	c #462E2E",
">.	c #5E3A3E",
",.	c #B67E7E",
"'.	c #EE4E6E",
").	c #625656",
"!.	c #827676",
"~.	c #DAB2B9",
"{.	c #EA767E",
"].	c #E2B6BC",
"^.	c #A27E7E",
"/.	c #BB9A9B",
"(.	c #7F6A6A",
"_.	c #D2AAAE",
":.	c #601E22",
"<.	c #8A7E7E",
"[.	c #C29498",
"}.	c #413232",
"|.	c #9E8282",
"1.	c #561E24",
"2.	c #BA6672",
"3.	c #C6AAAC",
"4.	c #9A8E8E",
"5.	c #F2464E",
"6.	c #D29EA2",
"7.	c #120607",
"8.	c #342224",
"9.	c #AA9696",
"0.	c #6E5656",
"a.	c #9A8A8A",
"b.	c #A69697",
"c.	c #926A6E",
"d.	c #C27C7E",
"e.	c #6A5656",
"f.	c #2A1618",
"g.	c #8A7274",
"h.	c #4D3636",
"i.	c #B29A9A",
"j.	c #DE9EA6",
"k.	c #7A6262",
"l.	c #624A4A",
"m.	c #BA9698",
"n.	c #B69696",
"o.	c #986668",
"p.	c #584244",
"q.	c #AC7878",
"r.	c #1E0A0A",
"s.	c #803C3E",
"t.	c #BAA6A6",
"u.	c #BA9E9E",
"v.	c #D28286",
"w.	c #AC8080",
"x.	c #C65666",
"y.	c #0A0202",
"z.	c #925A5A",
"A.	c #A63E42",
"B.	c #C65E7E",
"C.	c #C2AAAA",
"D.	c #9A7E7E",
"E.	c #B69EA0",
"F.	c #A28E91",
"G.	c #8E7A7C",
"H.	c #422E30",
"I.	c #A29696",
"J.	c #DE929E",
"K.	c #DAA2AA",
"L.	c #866A6A",
"M.	c #665A5A",
"N.	c #E67A8E",
"O.	c #CE9A9E",
"P.	c #766A6A",
"Q.	c #6E6262",
"R.	c #5B4E4F",
"S.	c #361A1A",
"T.	c #CC9E9E",
"U.	c #9E8A8C",
"V.	c #765656",
"W.	c #BE8AA2",
"X.	c #BAA2A5",
"Y.	c #5D4A4B",
"Z.	c #3A2E2E",
"`.	c #765252",
" +	c #EAB6BE",
".+	c #825E5E",
"++	c #CAA6AA",
"@+	c #AE9697",
"#+	c #756265",
"$+	c #CEAAAE",
"%+	c #968687",
"&+	c #968282",
"*+	c #D6666E",
"=+	c #862A36",
"-+	c #A29292",
";+	c #9E7276",
">+	c #AE8E8E",
",+	c #967E7F",
"'+	c #866E6E",
")+	c #EE6A7A",
"!+	c #E6AEB6",
"~+	c #C2A6AA",
"{+	c #CAAAAD",
"]+	c #2A1E1E",
"^+	c #BE9E9E",
"/+	c #A28A8D",
"(+	c #7E7272",
"_+	c #4A3A3A",
":+	c #C2A2A6",
"<+	c #8A7A7C",
"[+	c #C69A9D",
"}+	c #927E7F",
"|+	c #D3AEB1",
"1+	c #1E0E10",
"2+	c #8E7E7E",
"3+	c #160607",
"4+	c #9A8A8E",
"5+	c #DAAEB5",
"6+	c #C29E9F",
"7+	c #DAB6BA",
"8+	c #321E1E",
"9+	c #867273",
"0+	c #867678",
"a+	c #A88E90",
"b+	c #E2B2BA",
"c+	c #C6A2A2",
"d+	c #2E1E20",
"e+	c #886666",
"f+	c #463232",
"g+	c #622226",
"h+	c #6E5A5A",
"i+	c #6A5A5A",
"j+	c #E0A2AC",
"k+	c #644E4E",
"l+	c #CAA2A6",
"m+	c #7E6E70",
"n+	c #221214",
"o+	c #665658",
"p+	c #AA969A",
"q+	c #B29A9E",
"r+	c #9E8E92",
"s+	c #B29EA2",
"t+	c #BA9EA2",
"u+	c #3A2626",
"v+	c #5A4646",
"w+	c #CEAEB2",
"x+	c #160202",
"y+	c #523E3E",
"z+	c #0E0202",
"A+	c #7A6A6E",
"B+	c #3E2E2E",
"C+	c #220E0E",
"D+	c #661A22",
"E+	c #E28E9A",
"F+	c #A64A5A",
"G+	c #E67A7E",
"                                                              ",
"                                                              ",
"                          m./.d k ,+g.'+                      ",
"                    5+~.w+~+2 a+d |.,+G.}+9+#+                ",
"                K.b+l 7+|+~+I q++.U.|.&+}+G.9+#+h+            ",
"              j. +].].~.j w+( t+q+u V  .,+}+<+0+1 Y.          ",
"            E+j+!+L 8 5+~.j w+C.I 2 +.r+%+&+2+0+q M.p.        ",
"        '.N.n J.J.j+8 |+|+|+j w+3.X.q+9.a+ .}+2+0+A+).X       ",
"        G t x.y 2.> ! | $+w+$+B B ~+X.#.J F. ...G.!.1 R.H.    ",
"      5.)+*.B.h =+s.T ; [+%.{+B 3.C.Q t.#.J -+U...<+q c ]     ",
"      G+{.l+Y =.v ' 1.M o.u.( 3.C.Q Q t.0 s+p+-+U...G.(+M.f.  ",
"      * *+> W.F+v ' 1.M -.K ++( :+Q X.X.X.0 #.J -+4.% <+#+]+  ",
"    9 * , & A.=+D+1.o._ p $+( ~+I X.X.0 0 0 s+^ b.4 4+% # 3   ",
"    $ v.E m ) = ' b W.! ++j ( I I X.0 s+N N J J p+u 4 A <.R.1+",
"    d.w d.{ s.D+g+q.[+l+j 3.:+I t+t+s+s+N N J b.I.I.-+r+A P.} ",
"    ,.K.` ~ z.$.$.w.K %.$+:+X.t+X.s+s+N N p+p+I.-+r+r+4.A A+6 ",
"    q.O.T.! w.C : f %.j c+^+t+E.E.q+#.N J u u -+-+4.4+A % Q.6 ",
"    o.;+[.U [+>+_ U j ++:+^+E.2 2 q+p+p+b.b.-+r+4.r+4+% !.}.7.",
"    R R w.f K K m.6+:+^+t+t+E.q+i.N J +.u -+-+r+4+A A % # / z+",
"    7 V.L.|.>+n./.^+^+u.E.E.2 i.N p++.b.-+-+U.4+A %+% H P.} y.",
"      z r e+W |.i +.i.2 i.i.N @+p+b.u -+r+4.r+4+A &+% <.M.n+  ",
"      z S r k.'+W ^.d +.@+N @+9.9.u -+F.r+U.A %+% % 2+# + P   ",
"      >.o o l.0.#+L.g.,+d F.u u u -+r+V 4. .A ..H H < ).6 .   ",
"        o f+[ p.l.e.@.1 9+}+%+U.V U.V 4+ .A % % H < c ]+z+    ",
"        [ 8.8+H.y+S k+e.@.(.9+}+%+ .%+A % ....2+!.).B+7..     ",
"          S.8+x f+h.X p.l.@ h+1 '+< H ......<.< i+/ 7.z+      ",
"            [ u+d+u+}.3 y+] Y.@ i+#+A+!.< <+m+@ ]+7.z+        ",
"              8+1+C+Z u+B+}._+D Y.@ o+i+i+).D } z+z+          ",
"                f.3+g g g 6 d+x }.3 Z.+ } 1+F z+P             ",
"                    r.x+P P 7.7.7.F 3+7.z+z+z+                ",
"                          z+P z+z+z+z+z+                      "};
