/* XPM */
static char * knob23_xpm[] = {
"31 31 256 2",
"  	c None",
". 	c #0A0202",
"+ 	c #392A2A",
"@ 	c #5E5252",
"# 	c #867A79",
"$ 	c #BAAEAE",
"% 	c #DA5E5A",
"& 	c #C67A7A",
"* 	c #B6464E",
"= 	c #660E12",
"- 	c #9A8E8E",
"; 	c #924646",
"> 	c #B2564E",
", 	c #4E0A0A",
"' 	c #A26266",
") 	c #221615",
"! 	c #BE8E8E",
"~ 	c #822A26",
"{ 	c #AEA2A2",
"] 	c #817272",
"^ 	c #554646",
"/ 	c #E2B6BA",
"( 	c #B98E8E",
"_ 	c #BE9696",
": 	c #AA7E7C",
"< 	c #8A5A5A",
"[ 	c #726666",
"} 	c #C09E9C",
"| 	c #CEAEAE",
"1 	c #662A2A",
"2 	c #AD9E9E",
"3 	c #DEA2A2",
"4 	c #221212",
"5 	c #A27E7A",
"6 	c #9E9292",
"7 	c #7A3A3A",
"8 	c #C64A56",
"9 	c #8E8282",
"0 	c #3A2424",
"a 	c #463A3A",
"b 	c #B29696",
"c 	c #D2A2A6",
"d 	c #CDB6B6",
"e 	c #200606",
"f 	c #2E2222",
"g 	c #BEA6A6",
"h 	c #7A524E",
"i 	c #D06A6A",
"j 	c #460E0E",
"k 	c #A29292",
"l 	c #802424",
"m 	c #F23E42",
"n 	c #EE8A8A",
"o 	c #4C2A26",
"p 	c #AA6E6E",
"q 	c #B26E6E",
"r 	c #A69695",
"s 	c #EA7A82",
"t 	c #190E0D",
"u 	c #523632",
"v 	c #E46C72",
"w 	c #927676",
"x 	c #B29A99",
"y 	c #5E1616",
"z 	c #621A1A",
"A 	c #8A6666",
"B 	c #361E1C",
"C 	c #160606",
"D 	c #CEA8A8",
"E 	c #E2BEC2",
"F 	c #928685",
"G 	c #695A5A",
"H 	c #D2B6B6",
"I 	c #A68E8E",
"J 	c #624642",
"K 	c #CA9292",
"L 	c #DAAEAE",
"M 	c #C6A6A6",
"N 	c #A63236",
"O 	c #B6A6A7",
"P 	c #765656",
"Q 	c #866868",
"R 	c #261A18",
"S 	c #724A48",
"T 	c #BE766E",
"U 	c #E6C6CA",
"V 	c #442E2C",
"W 	c #4A2E2E",
"X 	c #D27A7E",
"Y 	c #D2BABA",
"Z 	c #AA9696",
"` 	c #CE7672",
" .	c #8A7A7A",
"..	c #BA9A9A",
"+.	c #541C1C",
"@.	c #CE868A",
"#.	c #9A4246",
"$.	c #BE6A6A",
"%.	c #76262A",
"&.	c #6C5654",
"*.	c #9E6E6E",
"=.	c #523A3A",
"-.	c #8E7470",
";.	c #BEAEAE",
">.	c #7B6E6D",
",.	c #EEC2C6",
"'.	c #C2B2B2",
").	c #F24E4E",
"!.	c #D29A98",
"~.	c #B08886",
"{.	c #A58685",
"].	c #765E5E",
"^.	c #AC403C",
"/.	c #B29E9C",
"(.	c #AA9A99",
"_.	c #622626",
":.	c #DAC2C2",
"<.	c #623E3E",
"[.	c #968A89",
"}.	c #2A1A18",
"|.	c #0E0202",
"1.	c #B2A2A2",
"2.	c #BA827E",
"3.	c #EABABA",
"4.	c #C69E9B",
"5.	c #522424",
"6.	c #120605",
"7.	c #9E8E8E",
"8.	c #DABABA",
"9.	c #A2726E",
"0.	c #200E0A",
"a.	c #180A08",
"b.	c #D4AEB0",
"c.	c #928282",
"d.	c #DE6A6E",
"e.	c #6E6262",
"f.	c #3A2E2D",
"g.	c #927A7A",
"h.	c #362222",
"i.	c #6A4E4E",
"j.	c #DE7676",
"k.	c #574A4A",
"l.	c #C59997",
"m.	c #7B6969",
"n.	c #BEAAAA",
"o.	c #82625E",
"p.	c #BAA2A1",
"q.	c #B9AAAA",
"r.	c #563E3E",
"s.	c #BEA2A1",
"t.	c #4B3636",
"u.	c #2D1E1D",
"v.	c #966666",
"w.	c #6F5B5B",
"x.	c #5E2222",
"y.	c #827676",
"z.	c #CA8E8A",
"A.	c #5E4B4A",
"B.	c #463632",
"C.	c #CB9A96",
"D.	c #2A1614",
"E.	c #C6AEB0",
"F.	c #C8AAAA",
"G.	c #4E3A3A",
"H.	c #E0AAAC",
"I.	c #AA9292",
"J.	c #E25E62",
"K.	c #EE6E6E",
"L.	c #C8645A",
"M.	c #120202",
"N.	c #2A0E0E",
"O.	c #D48E8A",
"P.	c #AE9A9A",
"Q.	c #422422",
"R.	c #E6C2C2",
"S.	c #DAB6B6",
"T.	c #7A4C4E",
"U.	c #B69E9E",
"V.	c #DAA6AA",
"W.	c #8A6E6A",
"X.	c #EAC2C6",
"Y.	c #BA9292",
"Z.	c #634B4B",
"`.	c #C6B6B6",
" +	c #645252",
".+	c #D6BEBE",
"++	c #968686",
"@+	c #AA7675",
"#+	c #CDBABA",
"$+	c #BA9E9E",
"%+	c #917E7D",
"&+	c #A28E8E",
"*+	c #AA6262",
"=+	c #B69A9A",
"-+	c #443231",
";+	c #BAA6A6",
">+	c #EECACA",
",+	c #9A8A8A",
"'+	c #6A5E5E",
")+	c #A68A88",
"!+	c #DABEBE",
"~+	c #C2AAAC",
"{+	c #C2A2A2",
"]+	c #C6A2A6",
"^+	c #B6A2A2",
"/+	c #AE9696",
"(+	c #C6B2B2",
"_+	c #3E2A26",
":+	c #8A2A32",
"<+	c #5A4646",
"[+	c #925A56",
"}+	c #26120E",
"|+	c #DA9E9E",
"1+	c #D66A72",
"2+	c #A69292",
"3+	c #9A7676",
"4+	c #1A0202",
"5+	c #D6BABB",
"6+	c #725656",
"7+	c #B68686",
"8+	c #5A4242",
"9+	c #AE8282",
"0+	c #A69A96",
"a+	c #362624",
"b+	c #665654",
"c+	c #CAB2B2",
"d+	c #DEC2C2",
"e+	c #3E3232",
"f+	c #261616",
"g+	c #968281",
"h+	c #B89695",
"i+	c #D65E66",
"j+	c #1A0606",
"k+	c #C2A6A6",
"l+	c #AA8E8F",
"m+	c #3E2E2E",
"n+	c #DAB2B3",
"o+	c #766261",
"p+	c #5A4E4E",
"q+	c #554241",
"r+	c #4E3E3E",
"s+	c #766666",
"t+	c #322222",
"u+	c #CAA6A5",
"v+	c #C2AEB0",
"w+	c #2E1A18",
"x+	c #867676",
"y+	c #CEB2B2",
"z+	c #E2C2C4",
"A+	c #C47E7C",
"B+	c #A46666",
"C+	c #BE9A9C",
"D+	c #A48280",
"E+	c #621E1E",
"F+	c #D67E7C",
"G+	c #8A7E7C",
"                                                              ",
"                                                              ",
"                      m ).J.i+i $.*+p p                       ",
"                    j.K.v n s d.F+& K ! < h S                 ",
"                @.T X v d.d i % F+O.!.C.9+A <.o o             ",
"              3 |+q #.* 8 A+L.L.` O.!.l.( 3+P t.Q.Q.          ",
"            V.3.H.' %.:+N ^.^.> T z.!.l.Y.5 o.J o B N.        ",
"          c / ,.V.B+z = l l l ; *+2.l.4.h+D+o.Z.t.h.0.e       ",
"        u+H >+,.L @+y , z z E+7 [+p _ 4.h+{.Q i.=.Q.w+}+e     ",
"        b.E >+E L 9++.j x._.1 T.v.: _ l.h+{.W.6+=.V B }+j+    ",
"      C+H z+U R.n+( 5.+.*.9.*.@+Y.4.} C+h+)+-.6+q+V h.D.a.4+  ",
"      =+y+!+R.E H _ Z.h 9+( ~.Y.4.u+} $+b )+-.].8+-+a+}.0.C   ",
"      =+E.5+d+z+5+u+D+)+u+n+b.]+{+]+C+$+x )+w ].<+-+h.w+f+j+  ",
"    {.I.E.Y !+E 8.| ]+]+F.F.M {+} $+$+=+b I. .o+<+-+0 u.D.t M.",
"    I.x F.d .+!+5+y+F.u+M {+{+s.$+$+=+=+/+l+g.s+Z.B.0 u.D.) 6.",
"    b p.~+c+#+:.5+c+F.~+k+g p.p.$+U.x x /+I %+s+i.a + u.f+4 M.",
"    2+^+n.E.d .+Y c+~+g s.g $+U.=+U.P./+Z I 5 m.i.a + u.4 a.|.",
"    g+7.^+v+c+#+#+E.k+n.g p.U.U./.P./+Z 2+7.c.>.b+r._+u.) |.M.",
"    %+g+P.q.(+d #+(+g ;+^+^+^+/.x P./+Z 2+&+++>.b+q+f.u.4 M.|.",
"    g.c.2 ;+n.`.#+(+n.p.^+U.x P.P.Z r r k 7.g+] G q+m+t+f+6.M.",
"      g.k 1.;+v+`.v+q.^+1./.2 (.P.Z 2+2+&+7.++] G ^ e+f 4 |.  ",
"      s+] r O ;.'.'.;+^+/.2 P.(.r r k 7.7.,+++x+'+^ e+f 6.M.  ",
"      w.s+++2 n.v+'.O 1.2 (.(.r k k k - ,+++c.x+e.k.-+R |.M.  ",
"        e.] k O ;.;.O 2 P.(.r r k 6 - ,+,+++9  .e.k.f.a.M.    ",
"        A.p+s+r O q.O 2 (.r r r 7.7.7.,+[.++%+# s+^ u.|.M.    ",
"          q+@ # 0+O O 2 r r 6 7.7.- [.[.F 9 9 y.b+a t M.      ",
"            t.r+m.6 2 0+r k 6 6 - ,+++F F G+x+e.u.a.|.        ",
"              4 a+p+F k 6 6 7.[.[.[.F 9 G+>.G + a.|.          ",
"                a.R a [ y.# y.# G+G+] [ '+f 4 6.|.            ",
"                    a.4 R ) R f.p+^ u.R 4 |.|.                ",
"                          |.|.6.t t . .                       "};
