/* XPM */
static char * knob3_xpm[] = {
"31 31 256 2",
"  	c None",
". 	c #0E0202",
"+ 	c #3D2F2F",
"@ 	c #7B6A6B",
"# 	c #DACECE",
"$ 	c #B2A6A6",
"% 	c #B2363E",
"& 	c #7A1A22",
"* 	c #867A7A",
"= 	c #923A42",
"- 	c #521216",
"; 	c #BA868A",
"> 	c #400A0C",
", 	c #625555",
"' 	c #D2C6C6",
") 	c #9A8E8E",
"! 	c #2F1E1E",
"~ 	c #7A343A",
"{ 	c #BA737A",
"] 	c #E1B5B9",
"^ 	c #261A1A",
"/ 	c #9E3E3E",
"( 	c #D2BEBE",
"_ 	c #2A0202",
": 	c #C28A8A",
"< 	c #E6D6D7",
"[ 	c #AA9E9E",
"} 	c #BA666A",
"| 	c #A46C70",
"1 	c #CEAAAE",
"2 	c #4C3234",
"3 	c #B27E82",
"4 	c #8A5A5A",
"5 	c #AE9293",
"6 	c #231616",
"7 	c #F6D6DA",
"8 	c #C8BABA",
"9 	c #B64448",
"0 	c #1E0203",
"a 	c #C2969A",
"b 	c #3C2A2A",
"c 	c #524242",
"d 	c #724A4E",
"e 	c #9A6A6E",
"f 	c #BA1E22",
"g 	c #D2969A",
"h 	c #7E5656",
"i 	c #964E4E",
"j 	c #C2B6B6",
"k 	c #C7AAAB",
"l 	c #A27E7E",
"m 	c #E23A36",
"n 	c #A69A9A",
"o 	c #9A6666",
"p 	c #522629",
"q 	c #6E2E32",
"r 	c #F2DEE1",
"s 	c #1E1111",
"t 	c #F2C6CA",
"u 	c #EECED2",
"v 	c #8E8282",
"w 	c #A62232",
"x 	c #3A1A1A",
"y 	c #160202",
"z 	c #CE4A4A",
"A 	c #C0A6A8",
"B 	c #947072",
"C 	c #AA8E8E",
"D 	c #6E2226",
"E 	c #CC989A",
"F 	c #2A1014",
"G 	c #D63242",
"H 	c #765A5E",
"I 	c #B09697",
"J 	c #FEDEE2",
"K 	c #9E9292",
"L 	c #7A6E6E",
"M 	c #DEBABE",
"N 	c #5A4E4E",
"O 	c #C6464A",
"P 	c #D6767A",
"Q 	c #EEDEDE",
"R 	c #EECACE",
"S 	c #724242",
"T 	c #6A3E42",
"U 	c #D2B8B8",
"V 	c #C0AEAE",
"W 	c #C67E82",
"X 	c #BA9A9A",
"Y 	c #C2565A",
"Z 	c #B49E9F",
"` 	c #623A3E",
" .	c #A6323A",
"..	c #FADEE0",
"+.	c #3A161A",
"@.	c #A9515A",
"#.	c #8E1E2A",
"$.	c #6C5E5E",
"%.	c #BCA2A4",
"&.	c #180A0A",
"*.	c #E8CFD0",
"=.	c #864E51",
"-.	c #6A121A",
";.	c #E4CACC",
">.	c #807274",
",.	c #A28286",
"'.	c #86666A",
").	c #725252",
"!.	c #B08686",
"~.	c #F2E2E2",
"{.	c #A48E8F",
"].	c #5E1A22",
"^.	c #C88C8E",
"/.	c #B6767A",
"(.	c #362A2A",
"_.	c #EADADB",
":.	c #8E5E5E",
"<.	c #200A0A",
"[.	c #D8A0A8",
"}.	c #7E3232",
"|.	c #8D7D7E",
"1.	c #A29696",
"2.	c #CE5E5E",
"3.	c #A66666",
"4.	c #4E161A",
"5.	c #BAAEAE",
"6.	c #958687",
"7.	c #CA767A",
"8.	c #B69698",
"9.	c #9E7577",
"0.	c #D0565E",
"a.	c #120202",
"b.	c #DAACB0",
"c.	c #C4A2A4",
"d.	c #FAD6DA",
"e.	c #4C3A3A",
"f.	c #A67676",
"g.	c #82262A",
"h.	c #B6A6A7",
"i.	c #6A3A3E",
"j.	c #622626",
"k.	c #4E0A12",
"l.	c #C44854",
"m.	c #AE3E4A",
"n.	c #8A6E72",
"o.	c #823E42",
"p.	c #AA868A",
"q.	c #AA9293",
"r.	c #DAC0C0",
"s.	c #967C7C",
"t.	c #180606",
"u.	c #423636",
"v.	c #5E3E3E",
"w.	c #B68E92",
"x.	c #A29292",
"y.	c #E2C2C6",
"z.	c #B2A2A2",
"A.	c #9F8989",
"B.	c #C8AFB1",
"C.	c #341414",
"D.	c #877678",
"E.	c #AE9A9A",
"F.	c #574545",
"G.	c #B9AAAA",
"H.	c #120606",
"I.	c #F6D0D4",
"J.	c #D9C6C9",
"K.	c #320A0A",
"L.	c #D2B2B6",
"M.	c #432F2F",
"N.	c #461212",
"O.	c #BB9192",
"P.	c #8D6566",
"Q.	c #988A8B",
"R.	c #786262",
"S.	c #624646",
"T.	c #CE868E",
"U.	c #B64A5A",
"V.	c #362022",
"W.	c #C0AAAA",
"X.	c #644E4E",
"Y.	c #563A3A",
"Z.	c #8E262A",
"`.	c #D27E86",
" +	c #DFD2D2",
".+	c #DACACA",
"++	c #1A0202",
"@+	c #C29A9E",
"#+	c #723A3A",
"$+	c #825E62",
"%+	c #3A2226",
"&+	c #CE9EA2",
"*+	c #C64E4A",
"=+	c #AE5662",
"-+	c #6E5A5E",
";+	c #C69296",
">+	c #C66666",
",+	c #B68A8E",
"'+	c #CA465C",
")+	c #F6DEE1",
"!+	c #AEA2A2",
"~+	c #AA9697",
"{+	c #675656",
"]+	c #2B1A1C",
"^+	c #231111",
"/+	c #A68A8A",
"(+	c #200608",
"_+	c #FAE2E4",
":+	c #FEE2E5",
"<+	c #F4DADD",
"[+	c #C2B2B2",
"}+	c #BB9E9F",
"|+	c #E0CED0",
"1+	c #EED9DC",
"2+	c #BAA6A7",
"3+	c #E8C1C6",
"4+	c #310505",
"5+	c #C9B6B6",
"6+	c #5E464A",
"7+	c #AE8A8D",
"8+	c #B69A9C",
"9+	c #C2868A",
"0+	c #AE9EA0",
"a+	c #DAB6BA",
"b+	c #302222",
"c+	c #EED2D5",
"d+	c #F6E2E3",
"e+	c #A69293",
"f+	c #A69697",
"g+	c #AA9A9B",
"h+	c #5A0E12",
"i+	c #460E12",
"j+	c #9E8E8F",
"k+	c #E6B6BA",
"l+	c #AA6E72",
"m+	c #422626",
"n+	c #DA969A",
"o+	c #865A5E",
"p+	c #968282",
"q+	c #826E6E",
"r+	c #AE3232",
"s+	c #862E32",
"t+	c #AE666E",
"u+	c #CA464E",
"v+	c #B6A2A2",
"w+	c #DEC6CA",
"x+	c #6A464A",
"y+	c #D0AEB2",
"z+	c #827676",
"A+	c #FCDADC",
"B+	c #B69296",
"C+	c #220202",
"D+	c #B29A9C",
"E+	c #862A36",
"F+	c #D1C2C4",
"G+	c #B29293",
"                                                              ",
"                                                              ",
"                          |+.+|+|+.+J.5+                      ",
"                    <+r r 1+_._.<  +<  +.+$ A.                ",
"                c+r ~.Q Q 1+_.Q Q _._.< < # ' V ,             ",
"              *.1+r r r r ~.r 1+1+Q _._.< <  +8 * $.          ",
"            *.<+d+d+)+~.~.~.~.~.Q Q _.< |+J.F+8 h.6.+         ",
"          *.<+d+)+..d+_+d+d+r Q _.<  +.+F+8 j 5.h.1., F.      ",
"        3+<+.._+_+_+d+)+r r 1+*.|+J.( 8 [+G.G.$ z.[ K z+b+    ",
"        R A+:+J :+:+<+)+1+c+.+J.( 5+[+G.G.h.$ $ !+0+n 6.M.    ",
"      a+7 ..:+..<+A+c+;.w+r.U [+V V W.h.h.v+z.!+0+[ n ) , ^+  ",
"      3+<+A+d.7 u ;.y.r.L.B.V B.W.2+G.2+h.z.z.0+[ g+1.1.>.^   ",
"      t d.I.t 3+M a+L.B.B.B.A W.W.2+v+v+z.0+0+g+g+n 1.K * !   ",
"    ;+t t 3+] ] 1 1 k k k A A %.%.v+v+Z Z 0+g+g+n e+x.K * 6 . ",
"    ; ] b.b.[.&+O.,+w.a c.A A %.%.v+z.0+Z E.g+f+1.K K ) D.^ . ",
"    l+g [.g ; | i.p ` P.8.}+}+%.Z Z D+Z g+g+f+e+x.x.j+Q.z+(.. ",
"    { n+T.t+~ ].> > p h ,+}+X X X D+E.I ~+~+1.x.K j+j+Q.>.^ . ",
"    { `.@.Z.-.h+k.4.S o+9.O.X 8+D+D+I ~+f+e+{.{.A.Q.6.6.@ 6 . ",
"    @.@.% w #.& D q =.o+P.7+8.8.I 5 ~+q.e+x.j+) Q.6.|.z+, s . ",
"    m.U.'+'+9  .s+~ =.:.P.!.8.I G+I q.e+{.A.Q.6.|.D.L , b+. . ",
"    G l.P ( 0.9 = o.=.e 9.!.B+I 5 q.{.{.A.6.s.D.@ -+N + &..   ",
"    m *+0.0.O 9 @.3.| !.w.c.B+C {./+A.p+|.q+R., F.e.+ ]+H..   ",
"      % % O u+Y t+{ 3 ,+@+c.G+p.A.s.n.@ -+N c M.(.! 6 H.. a.  ",
"      f Z./ >+7.W ^.E a w.7+,.s.n.R.{+6+Y.M.%+]+s H.. . .     ",
"        g.}.i { 9+9+,+!.l B '.H X.6+2 b ! 6 s t.a.a.. . a.    ",
"          D j.#+o 9.9.e $+).S.Y.p %+]+^+<.y a.. . . . a.      ",
"            - N.p T d S.v.2 m+V.^+<.(+a.y a.a.a.. . a.        ",
"              > 4+K.K.+.x C.F <.(+++a.y a.a.a.a.. y           ",
"                4+_ C+C+C+0 0 y y y a.y a.a.. a.a.            ",
"                    4+C+C+++++++y y y a.a.a.++                ",
"                          ++y y y y y y                       "};
