/* XPM */
static char * tX_fx_close_xpm[] = {
"10 10 36 1",
" 	c None",
".	c #4444E1",
"+	c #4D4DB8",
"@	c #514FB0",
"#	c #4545DC",
"$	c #5858F9",
"%	c #6464CF",
"&	c #585697",
"*	c #4747D4",
"=	c #4343E0",
"-	c #5959F2",
";	c #6C6CAF",
">	c #5B5A89",
",	c #5351A8",
"'	c #6868BF",
")	c #6363D0",
"!	c #4848CF",
"~	c #757575",
"{	c #5B5A61",
"]	c #5553A0",
"^	c #5B5A87",
"/	c #6F6F9F",
"(	c #5D5DE8",
"_	c #5B5A73",
":	c #4848C9",
"<	c #4B4BC2",
"[	c #5F5FE2",
"}	c #6C6CAB",
"|	c #5C5A63",
"1	c #5B5A75",
"2	c #6D6DA4",
"3	c #5D5DEA",
"4	c #737388",
"5	c #5C5B6E",
"6	c #75757A",
"7	c #5C5B7C",
"..+@ ..+@ ",
"#$%&*=-;> ",
",');!$)~{ ",
"]^/)()~{_ ",
" :<[)}|1  ",
".=$)2);&@ ",
"#3)~{/)4> ",
",/~{5^6~{ ",
"]7{_ ]7{_ ",
"          "};
