/* XPM */
static char * tX_fx_up_xpm[] = {
"10 10 31 1",
" 	c None",
".	c #4444E1",
"+	c #4D4DB8",
"@	c #514FB0",
"#	c #4343E0",
"$	c #5959F2",
"%	c #6464CF",
"&	c #585697",
"*	c #5858F9",
"=	c #6868C3",
"-	c #6C6CAF",
";	c #6363D0",
">	c #4545DC",
",	c #5D5DEA",
"'	c #6D6DA4",
")	c #6969B8",
"!	c #737388",
"~	c #5B5A89",
"{	c #5351A8",
"]	c #6F6F9F",
"^	c #757575",
"/	c #5C5B7C",
"(	c #6868BF",
"_	c #5B5A61",
":	c #75757A",
"<	c #5553A0",
"[	c #6262D7",
"}	c #757576",
"|	c #5B5A73",
"1	c #4B4BC2",
"2	c #5C5A63",
"   ..+@   ",
"  .#$%&@  ",
" .#**=-&@ ",
".#**;;=-&@",
">,;')!';!~",
"{]^/(^_:^_",
"</_{[}_/_|",
"   1[}2   ",
"   {]^_   ",
"   </_|   "};
