/* XPM */
static char * tx_reload_xpm[] = {
"15 12 97 2",
"  	c None",
". 	c #19E01C",
"+ 	c #0DEA11",
"@ 	c #08F10D",
"# 	c #08EF0C",
"$ 	c #08ED0B",
"% 	c #08E70B",
"& 	c #06CB09",
"* 	c #0CB60F",
"= 	c #2ABA2D",
"- 	c #2DF331",
"; 	c #09EE0D",
"> 	c #09FF0E",
", 	c #09FB0E",
"' 	c #08EC0B",
") 	c #07E00A",
"! 	c #06C209",
"~ 	c #049A07",
"{ 	c #07A70A",
"] 	c #2EB030",
"^ 	c #09FE0E",
"/ 	c #059907",
"( 	c #024A03",
"_ 	c #024403",
": 	c #036E05",
"< 	c #05A008",
"[ 	c #049807",
"} 	c #049106",
"| 	c #0A9E0D",
"1 	c #06CC0A",
"2 	c #08F60D",
"3 	c #048C07",
"4 	c #000700",
"5 	c #011401",
"6 	c #012C02",
"7 	c #012502",
"8 	c #012D02",
"9 	c #023703",
"0 	c #024103",
"a 	c #048B06",
"b 	c #1A9D1C",
"c 	c #06D00A",
"d 	c #06CE0A",
"e 	c #047A06",
"f 	c #023D03",
"g 	c #047C06",
"h 	c #059F07",
"i 	c #05A208",
"j 	c #06BB09",
"k 	c #06BD09",
"l 	c #06B709",
"m 	c #05A307",
"n 	c #047305",
"o 	c #048306",
"p 	c #048006",
"q 	c #024F04",
"r 	c #048706",
"s 	c #05A908",
"t 	c #059407",
"u 	c #036305",
"v 	c #026405",
"w 	c #048C06",
"x 	c #025E04",
"y 	c #001701",
"z 	c #012602",
"A 	c #035A04",
"B 	c #024603",
"C 	c #06C60A",
"D 	c #05B809",
"E 	c #05A308",
"F 	c #047F06",
"G 	c #025304",
"H 	c #001601",
"I 	c #07A80A",
"J 	c #06C10A",
"K 	c #07C309",
"L 	c #07D00A",
"M 	c #06D20A",
"N 	c #06BC0A",
"O 	c #035704",
"P 	c #012401",
"Q 	c #012802",
"R 	c #031304",
"S 	c #0B5B0C",
"T 	c #048806",
"U 	c #05AB08",
"V 	c #05A708",
"W 	c #025804",
"X 	c #000A00",
"Y 	c #0D1F0D",
"Z 	c #252C25",
"` 	c #0A580B",
" .	c #000F00",
"..	c #000000",
"+.	c #000200",
"@.	c #012501",
"#.	c #0D740F",
"                              ",
"    . + @ # $ % & * =         ",
"  - ; > , ' % ) ! ~ { ]       ",
"  ; ^ > / ( _ : < [ } |       ",
"  1 2 3 4 5 6 7 8 9 0 a b     ",
"  c d e f g h i j k l m n     ",
"  3 o p q r s t u v w x y     ",
"  z A : B o j C D E F G H     ",
"    I k J K L M N O P Q R     ",
"    S B T U U V W 4 X Y Z     ",
"      `  .......+.@.#.        ",
"                              "};
