/* XPM */
static char * tx_record_xpm[] = {
"21 18 187 2",
"  	c None",
". 	c #B23535",
"+ 	c #A21515",
"@ 	c #990909",
"# 	c #9A1818",
"$ 	c #A53A3A",
"% 	c #E51313",
"& 	c #E40707",
"* 	c #C50808",
"= 	c #C10B0B",
"- 	c #BC0D0D",
"; 	c #B70F0F",
"> 	c #B31010",
", 	c #910F0F",
"' 	c #851C1C",
") 	c #C45353",
"! 	c #E60505",
"~ 	c #E10707",
"{ 	c #D80909",
"] 	c #C20A0A",
"^ 	c #BD0C0C",
"/ 	c #B90E0E",
"( 	c #B40F0F",
"_ 	c #AF1111",
": 	c #901111",
"< 	c #620D0D",
"[ 	c #781111",
"} 	c #A55F5F",
"| 	c #E70404",
"1 	c #E30606",
"2 	c #DD0808",
"3 	c #D70A0A",
"4 	c #980909",
"5 	c #940B0B",
"6 	c #910C0C",
"7 	c #8D0E0E",
"8 	c #890F0F",
"9 	c #7C0F0F",
"0 	c #600D0D",
"a 	c #5D0E0E",
"b 	c #711313",
"c 	c #E91212",
"d 	c #E40606",
"e 	c #DF0808",
"f 	c #580505",
"g 	c #150101",
"h 	c #000000",
"i 	c #230303",
"j 	c #590B0B",
"k 	c #7A1111",
"l 	c #761212",
"m 	c #5B0F0F",
"n 	c #581010",
"o 	c #732222",
"p 	c #DB0505",
"q 	c #C30606",
"r 	c #4F0404",
"s 	c #040000",
"t 	c #290505",
"u 	c #540C0C",
"v 	c #741313",
"w 	c #6F1414",
"x 	c #250707",
"y 	c #410E0E",
"z 	c #B73434",
"A 	c #A70505",
"B 	c #A30707",
"C 	c #7F0606",
"D 	c #140101",
"E 	c #060000",
"F 	c #4E0707",
"G 	c #720D0D",
"H 	c #5D0C0C",
"I 	c #460A0A",
"J 	c #530D0D",
"K 	c #691313",
"L 	c #751616",
"M 	c #0B0202",
"N 	c #854545",
"O 	c #A91212",
"P 	c #A40606",
"Q 	c #A00707",
"R 	c #720606",
"S 	c #080000",
"T 	c #570808",
"U 	c #8A0F0F",
"V 	c #851010",
"W 	c #7E1111",
"X 	c #711111",
"Y 	c #6A1212",
"Z 	c #711515",
"` 	c #721717",
" .	c #0A0202",
"..	c #6F2828",
"+.	c #A10606",
"@.	c #A10707",
"#.	c #9D0909",
"$.	c #730808",
"%.	c #210303",
"&.	c #800D0D",
"*.	c #861010",
"=.	c #831212",
"-.	c #811414",
";.	c #8C1717",
">.	c #7A1616",
",.	c #7E1919",
"'.	c #6F1818",
").	c #641C1C",
"!.	c #A41515",
"~.	c #9E0808",
"{.	c #9A0A0A",
"].	c #800A0A",
"^.	c #350404",
"/.	c #330505",
"(.	c #830F0F",
"_.	c #831111",
":.	c #801313",
"<.	c #891515",
"[.	c #9C1B1B",
"}.	c #871A1A",
"|.	c #8C1E1E",
"1.	c #6C1919",
"2.	c #692A2A",
"3.	c #AE3737",
"4.	c #9B0A0A",
"5.	c #970B0B",
"6.	c #8E0C0C",
"7.	c #680A0A",
"8.	c #540909",
"9.	c #730E0E",
"0.	c #891414",
"a.	c #941717",
"b.	c #A61D1D",
"c.	c #A21F1F",
"d.	c #971F1F",
"e.	c #912121",
"f.	c #691A1A",
"g.	c #0A0303",
"h.	c #7C4949",
"i.	c #720808",
"j.	c #6E0909",
"k.	c #690A0A",
"l.	c #880F0F",
"m.	c #750E0E",
"n.	c #811212",
"o.	c #931616",
"p.	c #9A1919",
"q.	c #9F1D1D",
"r.	c #A02020",
"s.	c #992323",
"t.	c #7D1F1F",
"u.	c #1A0707",
"v.	c #030101",
"w.	c #701616",
"x.	c #3C0505",
"y.	c #3A0606",
"z.	c #640C0C",
"A.	c #871212",
"B.	c #921818",
"C.	c #9A1C1C",
"D.	c #982121",
"E.	c #7E1E1E",
"F.	c #241616",
"G.	c #630A0A",
"H.	c #390606",
"I.	c #380707",
"J.	c #5B0D0D",
"K.	c #7C1414",
"L.	c #781515",
"M.	c #741616",
"N.	c #701717",
"O.	c #1B0707",
"P.	c #170808",
"Q.	c #AD5B5B",
"R.	c #5E0C0C",
"S.	c #360707",
"T.	c #020000",
"U.	c #180808",
"V.	c #8E6767",
"W.	c #621B1B",
"X.	c #250606",
"Y.	c #251616",
"Z.	c #8D4343",
"`.	c #772525",
" +	c #6B1919",
".+	c #702828",
"++	c #814747",
"                                          ",
"              . + @ # $                   ",
"          % & * = - ; > , '               ",
"      ) ! ~ { ] ^ / ( _ : < [ }           ",
"      | 1 2 3 4 5 6 7 8 9 0 a b           ",
"    c d e 3 f g h h i j k l m n o         ",
"    p q { r h h h h s t u v w x y         ",
"  z A B C D h E F G H I J K L M M N       ",
"  O P Q R S S T U V W X Y Z ` M  ...      ",
"  +.@.#.$.g %.&.*.=.-.;.>.,.'.M  .).      ",
"  !.~.{.].^./.(._.:.<.[.}.|.1. . .2.      ",
"  3.4.5.6.7.8.9.0.a.b.c.d.e.f. .g.h.      ",
"    i.j.k.l.m.n.o.p.q.r.s.t.u.h v.        ",
"    w.x.y.z.A.<.B.C.r.D.E.u.h h F.        ",
"      G.H.I.J.K.L.M.N.1.O.h h P.          ",
"      Q.R.S.T.h h h h h h h U.V.          ",
"          W.X.h h h h h h Y.              ",
"              Z.`. +.+++                  "};
