/* XPM */
static char * tx_smaller_logo_xpm[] = {
"30 200 256 2",
"  	c None",
". 	c #020202",
"+ 	c #8E8262",
"@ 	c #262626",
"# 	c #4A4A4A",
"$ 	c #E4E2E0",
"% 	c #817257",
"& 	c #CAB682",
"* 	c #9C9275",
"= 	c #726848",
"- 	c #59360B",
"; 	c #1F1E1D",
"> 	c #78502D",
", 	c #434242",
"' 	c #5E5E5E",
") 	c #AEA28A",
"! 	c #1A1A19",
"~ 	c #6D4C2D",
"{ 	c #332E1E",
"] 	c #171615",
"^ 	c #997543",
"/ 	c #D9D7D1",
"( 	c #5A543C",
"_ 	c #8A663C",
": 	c #16120A",
"< 	c #422E17",
"[ 	c #8E8368",
"} 	c #664B25",
"| 	c #866636",
"1 	c #7A725E",
"2 	c #3E2912",
"3 	c #B49969",
"4 	c #CAB286",
"5 	c #DAC276",
"6 	c #363635",
"7 	c #624B2A",
"8 	c #0F0E09",
"9 	c #828282",
"0 	c #BEA47C",
"a 	c #6E6652",
"b 	c #38220E",
"c 	c #8C7E63",
"d 	c #CDCAC3",
"e 	c #525252",
"f 	c #A3977B",
"g 	c #827E6E",
"h 	c #F1F1ED",
"i 	c #8F8672",
"j 	c #BAAE92",
"k 	c #6A3A0E",
"l 	c #5E4C2A",
"m 	c #776654",
"n 	c #645645",
"o 	c #3A2815",
"p 	c #523F21",
"q 	c #D2C19C",
"r 	c #4E3E1E",
"s 	c #5A5A5A",
"t 	c #79562D",
"u 	c #726044",
"v 	c #301F10",
"w 	c #969696",
"x 	c #706A52",
"y 	c #100903",
"z 	c #8A622E",
"A 	c #5A4D3B",
"B 	c #C6C5C3",
"C 	c #7E7763",
"D 	c #BAA672",
"E 	c #3E3E3E",
"F 	c #623E16",
"G 	c #9A9A86",
"H 	c #3E2E19",
"I 	c #433A34",
"J 	c #6E542F",
"K 	c #54463A",
"L 	c #8E8E8E",
"M 	c #291607",
"N 	c #929292",
"O 	c #6E5E3E",
"P 	c #B0A68C",
"Q 	c #78624A",
"R 	c #2B1A0A",
"S 	c #433A26",
"T 	c #0A0602",
"U 	c #362818",
"V 	c #B48A4E",
"W 	c #564D47",
"X 	c #D6BEA6",
"Y 	c #4E422E",
"Z 	c #C2B69A",
"` 	c #F7F6F4",
" .	c #5C5344",
"..	c #9A9A9A",
"+.	c #261A0E",
"@.	c #7B766A",
"#.	c #775A39",
"$.	c #AE6E26",
"%.	c #626262",
"&.	c #2A2012",
"*.	c #565656",
"=.	c #A6A6A6",
"-.	c #3A2F20",
";.	c #865A26",
">.	c #524C40",
",.	c #473318",
"'.	c #C8BEA8",
").	c #868685",
"!.	c #6F6E6D",
"~.	c #A18E6B",
"{.	c #564127",
"].	c #8F754C",
"^.	c #BEB29A",
"/.	c #4E4E4E",
"(.	c #22160B",
"_.	c #6D5236",
":.	c #726658",
"<.	c #4A4644",
"[.	c #AA9E8A",
"}.	c #322718",
"|.	c #3A3A3A",
"1.	c #B3A792",
"2.	c #1E1209",
"3.	c #060603",
"4.	c #AC783A",
"5.	c #968272",
"6.	c #DEAE5E",
"7.	c #DBCAAD",
"8.	c #AAAAAA",
"9.	c #EADBBE",
"0.	c #A58556",
"a.	c #7A7A7A",
"b.	c #4E351D",
"c.	c #938976",
"d.	c #A27A3A",
"e.	c #C0BEB8",
"f.	c #D9D2C3",
"g.	c #624E40",
"h.	c #B29E86",
"i.	c #464646",
"j.	c #8A8A8A",
"k.	c #AA927A",
"l.	c #6E6A5E",
"m.	c #1C0E04",
"n.	c #323232",
"o.	c #2D2A1A",
"p.	c #968A6C",
"q.	c #222221",
"r.	c #1E160D",
"s.	c #55391B",
"t.	c #060202",
"u.	c #AEAEAE",
"v.	c #3E322C",
"w.	c #AA9272",
"x.	c #7A7262",
"y.	c #5B534A",
"z.	c #1A120B",
"A.	c #8E8273",
"B.	c #FAFAEE",
"C.	c #C49C60",
"D.	c #3E362B",
"E.	c #7C5F34",
"F.	c #5B3F1D",
"G.	c #826D55",
"H.	c #9E8E7A",
"I.	c #443323",
"J.	c #877757",
"K.	c #6E5936",
"L.	c #F6EACA",
"M.	c #442A11",
"N.	c #463E26",
"O.	c #5E4228",
"P.	c #7B6846",
"Q.	c #BAAE9E",
"R.	c #57462D",
"S.	c #CEC4B2",
"T.	c #B6B6B6",
"U.	c #66522A",
"V.	c #E0DED7",
"W.	c #665E57",
"X.	c #623A1A",
"Y.	c #B2B2B2",
"Z.	c #664D31",
"`.	c #A26222",
" +	c #9E9E8E",
".+	c #5E4C3A",
"++	c #665A3A",
"@+	c #160E06",
"#+	c #666665",
"$+	c #2E2E2E",
"%+	c #9A6E3A",
"&+	c #2A2A2A",
"*+	c #99835D",
"=+	c #776B61",
"-+	c #7E4622",
";+	c #6D5841",
">+	c #625A52",
",+	c #767675",
"'+	c #3A322F",
")+	c #7E7E7E",
"!+	c #EAD29E",
"~+	c #9B7D4F",
"{+	c #726A62",
"]+	c #65533A",
"^+	c #4D3A22",
"/+	c #E9E8E3",
"(+	c #7A6B55",
"_+	c #0A0A05",
":+	c #845626",
"<+	c #634528",
"[+	c #A2A2A2",
"}+	c #846037",
"|+	c #94866A",
"1+	c #121212",
"2+	c #AD9B77",
"3+	c #5A5652",
"4+	c #917B58",
"5+	c #4E3E33",
"6+	c #A99E84",
"7+	c #6E6662",
"8+	c #4E4A48",
"9+	c #6E441E",
"0+	c #624C36",
"a+	c #727271",
"b+	c #7A603F",
"c+	c #553A25",
"d+	c #A67236",
"e+	c #E2D8CC",
"f+	c #927E62",
"g+	c #554131",
"h+	c #482E16",
"i+	c #4E443C",
"j+	c #8C6C47",
"k+	c #6D604F",
"l+	c #9A8A56",
"m+	c #4A341F",
"n+	c #6A6A69",
"o+	c #867C70",
"p+	c #827A6C",
"q+	c #5E4622",
"r+	c #887250",
"s+	c #846A46",
"t+	c #9A8E7E",
"u+	c #BEB2A2",
"v+	c #524D4B",
"w+	c #EEE9DD",
"x+	c #D1D0C8",
"y+	c #FDFCFA",
"z+	c #625E5A",
"A+	c #565250",
"B+	c #9E9E9E",
"C+	c #42220A",
"D+	c #A28E62",
"E+	c #463E37",
"F+	c #BEAE82",
"G+	c #66625E",
"                                                            ",
"                                                            ",
"                                                            ",
"                                                            ",
"                                                            ",
"        .                                                   ",
"    d+q+T . .                                       ,+D..   ",
"    4+i+&.v y . .                               S e.h 6+.   ",
"    ]+!.s E &.b.&.] 8 3.                  |.C P f j.,+[ .   ",
"    R.*.|.# G+G+f./ T.s 3.            r.J.w+Y.a+6 ] |.|+t.  ",
"    .+*.@ ; |.a.a.Y.` d E.        }.,.r+@.3+@ ! ] 8 6 c..   ",
"    R.*.q.; |.j.N a+).|+3   8 ,.{.i+#+!.# ; $+] ! 1+6 p.3.  ",
"    .+*.@ $+#+!.<.;+J   &.b.]+v+a+L )+*., ; 6 ! ! 1+|.p..   ",
"    .+a.)+Y.d j+> y o < >.z+a.B+[+..#+/.E ; , ] ! 1+n.p.3.  ",
"    g.e.h /+[+&.H {.i+z+)+[+[+B+B+B+a+/.n.@ /.] ] ] 6 p.3.  ",
"    ^ 0 j.S J A i.a+j.N ..B+B+[+[+B+)+e $+@ *.! 1+] 6 k.    ",
"      6+Q.=.g a.L B+B+w ..B+B+B+B+B+)+e $+@ ' &+] @ , g.    ",
"    3 e.a+i.#+....[+..w ..[+B+[+[+[+9 /.$+q.e 6 # (+s+      ",
"    G.e q.@ n+....[+B+....[+B+B+B+B+)+# E |.<.]+z   D.o..   ",
"     .# ! @ ,+..w B+B+..B+B+[+B+[+B+j.).T.1.;.  +.} 1.'.:   ",
"    ]+/.! $+).L w [+[+w ..B+[+..).%.B+B.S.A.y.<+b+3+v+* ]   ",
"    ]+/.! 6 N ).N [+B+....w a.z+W J     c.y+x+e &+! |.* :   ",
"    n # ! |.N 9 L [+B+,+#+<.u ^       [. +[+i.# @ ! 6 * 1+  ",
"    ;+# ! 6 N a.9 a.s K ~           _ ^+*.*.$+/.@ 1+|.* ]   ",
"    ++# ! |.9 *.<.]+E.                  M.g.l.# n.] 6 t+]   ",
"    ;+' e ,+g.J                             6.0 ' ' i.~.    ",
"    {+T./+9.                                      _.=+ .    ",
"    9.L.                3.3.. .                       >     ",
"                      <+;+P._.y .                           ",
"                    m %.n+' n+j+T                           ",
"                  G.w [+B+w ,+7+b..                         ",
"                  n L B+B+w L s <+                          ",
"                  e.N [+..L )+a++                           ",
"                  B.T.N ..N )+@.^                           ",
"                    Z *.a+a.G+l+! 3.. . . 3.3.. . . . .     ",
"                    d.P.% 3 t 2 {.A.I.R.r {+(+v 2 s.b.}..   ",
"                  J.s a+a+e /.A+!.B+' n+7+L N *.z+!.!.% t.  ",
"                  #.)+L N j.a.)+N w s n+[+)+&+|.q.o.|.i 3.  ",
"                  s+a.).).)+#+n+w ..|.j.u.#+; 6 ! 6 |.c .   ",
"                  r+)+).a.,+' #+w L $+..B+n.$+i.! 6 |.+ 3.  ",
"                  + )+L )+!.' #+N 9 $+[+)+; /.*.! 6 |.+ t.  ",
"                  ].a.w L 9 a.)+w 9 n.w s @ n+n+; &+|.f     ",
"                  > v+3+A+v+v+y.*.v+a+#+!.*.v+v+#+a+%.0+    ",
"                                  9+0.l+*+F F.9+            ",
"                                  . t.t.. . . .             ",
"                            +.H Z.F.|+) l R m.t.. .         ",
"                        G 1.;+>.*.' s e %.# Y c+&.3..       ",
"                        S.B ).a.L |.=.j.; # %.e D.t y .     ",
"                      |+N [+w ).a+e Y.j.; &+, !.#+l.#.t.    ",
"                    3 N ....).L |.w T.[+n.; , s q./.k+m+.   ",
"                  C.!.L B+..L #+s T.T.Y.*.] |.e ; q.#+7 .   ",
"                  e+j.L [+N N 6 B+Y.T.T.n+] n.# @ ; i.m &.  ",
"                  ;+n+!.%.' a+i.n+a+a+n+/.*.#+n+%.# /.@.    ",
"                  F b.q+J.]+n c ;+0+g.P.i g+o.}.v.s+r+c+    ",
"                      T T y T t.T T t.T T y 8 8 8 y 8 y .   ",
"                  D+g.Q ;+>+i Q ;+Z.;+Q c.k+i+i+5+G.u u &.  ",
"                  n ,+a.z+s 9 ).j.).j.j.n+|.|.E i.|./.c ,.  ",
"                  <+a+j.n.N T.u.8.8.8.Y.=.6 ] 1+] ; E u     ",
"                  `.*.,+6 u.Y.u.8.=.=.Y.u.s &+] ] ! , z     ",
"                    s+' *.Y.u.u.8.8.8.u.T.L /.! 1+! *+      ",
"                      >.#+[+u.u.8.8.=.u.T.=.!.; &+}.        ",
"                      }+V.9 ,+w u.8.8.u.Y.8.#+i.=+          ",
"                      _+7+D 4+G+*.%.!.!.' # i+J             ",
"                    t ]+_+      4.%+}+> >                   ",
"                  *+#+f+M                                   ",
"          _+_+_+1+#.# G.M T T T T T T T T T ] ! _+_+T . .   ",
"      s+Q o I.c+K A.@ !.Q 7 q+q+q+q+q+7 7 _.2+'.I.-.m+Z..   ",
"      _ s !.a+,+a.!.&+,+)+)+9 )+9 )+)+)+)+9 ).%.s a+n+J.t.  ",
"        v *.)+N B+!.# Y.u.=.=.[+=.=.=.=.8.8.Y.L @ ' s + .   ",
"          b *.j...,+*.T.8.=.=.=.=.=.=.=.=.8.T...@ ' %.J.3.  ",
"            '.B ).,+n+T.8.[+[+[+[+[+=.=.=.8.Y.B+&+s #+% t.  ",
"            / B.B+j.)+/ e.u.=.=.=.=.=.=.8.8.Y.=.@ ' G+J.    ",
"                ` V.B B.V.u.j.9 9 )+)+9 9 9 )+n+i.!.#+c     ",
"                /+B.` y+y+h.Q ~ <+~ ~ ~ t E.P.6+c 5+;+s+    ",
"                  f.y+y+h                                   ",
"                    $ y+/+6 1+. . . . . . . . . . . . .     ",
"                      / c.R.M.2 2 M.,.^+p l A ( o v R +..   ",
"                      '.|+A+3+y.3+*.*.A+*.*.*.s %.*.e E+.   ",
"                    y+y+d u.8.8.u.u.T.Y.Y.u.8.j.&+n+a+ .t.  ",
"                    Q.$ T.[+[+=.=.8.Y.Y.Y.T.Y.B+@ /.n+u 3.  ",
"                  C.j.u.=.=.[+=.8.u.Y.T.Y.T.T.[+&+&+*.J..   ",
"                  ;+j.=.=.[+=.=.8.u.T.Y.T.T.Y.8.n.] E |+T   ",
"                  O.j.=.=.....B+B+........N L 9 6 &+|.p.    ",
"                  ~ a.a+K W .+;+k+@.j.[+g L 8...c m i {.    ",
"                  :+x.~+,.^+U r.2.R   ( b ,.n 2 $+{ -.y .   ",
"                    X 3 g.>.O j+M &.s+r+B d x+T.P.Q P.O T   ",
"                    B.B B+N 9 *.4+b.W.7+n+!.!.3+A+e s H.b   ",
"                    Q.B =.[+=.j.W <+,+i.n+)+a.,+&+E E+g M.  ",
"                  9+a+8.[+B+=.u./.#.#+s %.!./.# @ E E u &.  ",
"                  $.3+B+[+[+u.x+=.~.m s s ' ! ! ! 6 , R.    ",
"                    ~+' N u.d B.` f.G.' e # ] q.1+@ v+}+    ",
"                      ~+z+*.a+/+h     D.*.E q.n.$+E -.      ",
"                          :+}+        2 j+)+n+#+9 b+        ",
"                            . 3.3.3.. . q.++} <+{.@+. .     ",
"                        < b h+s.p s.Z.g U.J R.b b h+p N..   ",
"                    /+7.s v+3+*.3+3+' G+%.n+#+%.%.%.#+p+3.  ",
"                  / y+` B T.u.Y.T.Y.Y.8., 1+1+; ; @ E p+3.  ",
"                  !+/+$ T.8.Y.T.Y.T.u.Y.s ] 1+] 1+# # =+T   ",
"                  ].[+e.=.8.Y.u.a.[+Y.Y.,+; ; ! ] *.*.a 3.  ",
"                  g+N =.8.u.Y.[+$+e Y.u...q.&+; ] /.' W.T   ",
"                  5+).=.=.8.8.9 |.E )+=.[+6 # # 6 E #+n     ",
"                  }+G+' z+%.%.,+*.v+!.G+s g e # /.@.G+P.    ",
"                      h+< h+< p 2 v Y ,.2 {.U +.b Y ,.}.    ",
"                    E.U.++J.= ++U.2 K.J F.O K.2 2 O = m+.   ",
"                  J.s *.s #+' s %.%.n+s *.s #+%.z+7+#+1 T   ",
"                  } ).[+' n.,+8.e ] q.L Y.8., ! q.$+*.++3.  ",
"                  ~ !.,+n.@ )+u.*.1+! g T.Y.e 1+1+n.s ]+3.  ",
"                  > # n.] ; ,+ +E 8 8 %.T.Y.e 1+! $+s .+T   ",
"                  b+n.] 8 ! %.a.$+1+1+/.Y.8.|.1+; @ *.A T   ",
"                  f E @ @ @ 6 E q.q.@ E N a.$+6 # n./..+    ",
"                  h l./.e 8+s 7+z+s A+!.8.w ' i., A+l.J.    ",
"                      - - M.h+O.F.X.- } p+a s.C+U b.{.N.    ",
"        (.q.t.. .     8 8 8 8 1+8 8 8 8 8 : 8 8 8 1+T t..   ",
"      4+G.} o 2.. J u I D.'+S 5+E+N.E+S D.'+D.'+D.D.% *+y   ",
"    3 %.e *.*.g+2.#.s s ' e # /.%.%./., *.#+!.#+G+%.s w.m.  ",
"    n+/.E $+n+A+I.O.s i.i.@ ] &+e e &+1+] , ' e i.*.' j &.  ",
"  ~ a+*./.e j.z+;+0+' n+%.q.! , n+' n.1+8 ; , # # n+,+x+8+  ",
"  X.#+' e *.L ).f.m n+j.)+&+q./.,+#+6 ] 8 1+; 6 e !.a+a !   ",
"    W !.e *.L B+7.3+a+..j.$+@ s a.n+E ! 8 8 1+; , z+a+Z.    ",
"    -+e n+%.!.|   ~ ' %.n+#+#+!.!.!.n+%.s *.*.' !.a+n+J.    ",
"      9+v.n ~+      *+F+_.D.-.I.c+v.U { 5+E.s+#.g+-.]+V     ",
"                                . . . . . . . . . . t..     ",
"                        y ; +.8 8 : : 8 : z.(.(.r.z.] : .   ",
"                      ^.* f+>.i+i+i.i+, E+, # 8+<., i+v..   ",
"                    ;.,+<.|.E n+3+E E *.s 3+8+<.<.E ' W t.  ",
"                  X [+n.!.z+; *.|.q.&+n.E , |.6 n.&+s  .3.  ",
"                  b+!.6 ..!.q.' z+z+<.|.i.# i.# , n.' W .   ",
"                  r+e # N s q.n+N ..a+E E /./.*.# |.%.>.3.  ",
"                  r+, # ' 6 &+,+..N ).# , /.*.' e E %. .    ",
"                  <+n+' ' %.#+s *.*.s ' %.%.' ' %.#+' c     ",
"                    ~+u 7 } &.b q+:.F.&.+.+.&.&.+.; I.p     ",
"                      o U U &.8 m.&.M @+: ] @+8 @+2.r.@+.   ",
"                  }+a+a {+p+y.i+y.,+l.<.i+i.i+<., <.<.v..   ",
"                  b+E @ n.n.i.,+)+j.L ).*., # %.' , s >+t.  ",
"                  r+n.! $+q.E #+n+N w j.e q.@ E E q.# a .   ",
"                  J.&+8 ] ! e %.' L w L n+$+@ 6 6 ! E G.t.  ",
"                  p.$+1+8 @ G+%.*.).L ).)+, &+n.$+] E c .   ",
"                  u+e q.! E a.,+#+L L L L a+# i.|.q.6 f     ",
"                  *+8+#+!.e v+v+8+y.y.A+z+3+/./.e %.7+0+    ",
"                    k 7 Z.h+o o b M.M.M.s.h+C+2 D.F.Z.(.    ",
"                    9+l {.b b b b M.b U ^+b.b 2 S q+l ,..   ",
"                  ].*.l.n+A+v+v+v+y.e >.s s e s %.!.=+= .   ",
"                  Z.s n.q., a+9 9 L 9 !.N w ( &+; ] E + t.  ",
"                  ~ # i.; &+*.n+a+9 n+3+9 L i.! ; ] 6 + 3.  ",
"                  > i.# ! n.e #+!.a.n+e !.N *.q.q.] 6 + .   ",
"                  t i.# ; # n+#+a+a.#+i.s L !.; ! ] |.p.3.  ",
"                  <+, |.$+#+a.,+)+)+n+# s j.9 6 @ q.6 w.    ",
"                  b.!.!.*.8+/././.# /.e /./.e e %.%.%. .    ",
"                          2 o ,.                            ",
"                        8 y t..                             ",
"                      s+i+}.b : .                           ",
"                    n , %.n+i.m+8 .                         ",
"                  u )+$+E e n+<.U .                         ",
"                  A.)+&+, s !.z+D.                          ",
"                  h a.&+, %.a+,+s+                          ",
"                  ` L n.i.' ,+p+d.                          ",
"                    V.).,+,+W.d+T . . . . . . . . . . .     ",
"                    ].}+*+^ } &.v M r.r.r.M R ,.^+b r.+..   ",
"                  E.*.%.)+G+*.e *.e *.*.*.3+*.3+s A+*.Y .   ",
"                  r+|.! |./.s ,+)+n+' ' #+%.s )...L n+k+.   ",
"                  + |.] $+E /.!.a+/./.e s e E n+..).%.J..   ",
"                  p.n.] &+i.' 9 n+# i.i.e s |./.L )+%.c 3.  ",
"                  f n.] $+# !.).#+, # # s n+, $+!.a+%.G..   ",
"                  / E $+/.#+a.j.a.%.n+n+a.9 *.E !.9 %.p+    ",
"                  h x.e i.<.8+3+W <.<.<.8+8+<./., W 3+*+    ",
"                                                            ",
"                              . 3.3.. .         . .         ",
"                          o.m+h+<+} D..     4 j+h+y .       ",
"                        k.p.%.n+a+z+I .   q w+j.*.;._+.     ",
"                      ~+' %.a...B+a.D.3.      > %.>+s..     ",
"                    P.E n.# a.B+B+,+'+t.        2+a+5+v .   ",
"                    W.n.$+# )+B+[+a.D.3.        w+/+#+H .   ",
"                  2+*.|.|./.a...B+)+Y             h )+o 8   ",
"                  ~+s ' ' ' s *.s %.*+            & ' E+o.  ",
"                    s.M.2 M.h+} u q+O.. . . . . . X.!.|.U   ",
"                      r.z.z.2.M b R z.2.M v M M v #.9 >.D.  ",
"                  #.' 8+8+# # A+'  .<.8+y.>+A+ .3+!...1 r   ",
"                  j+%.# # s l.j.w N 9 )+j.w j.#+j.B+j.|+    ",
"                  b.*.# n.E /.)+B+w a.#+)+w )+# a+B+#+j+    ",
"                    v.#+|.E ' j.B+j.#+*.a+).!.# ,+w 5+      ",
"                      I #+*.G+j.B+9 *.|.n+a.' A+9 @.5       ",
"                        v.s a+L ..)+/.$+%.9 a+a+W.>         ",
"                        2.h+R.3+' a+' *.!.n+L e+            ",
"                      b t.    4.~+c+E+]+l Z.                ",
"                  ^ 3+o o.                                  ",
"          . . . T r+n+i+@ . . . . . . . . . . . . . . .     ",
"      V d.| P.{.P.4+%., 2 C+C+C+m+h+M.b.F c+h+h+<+= u H .   ",
"      k+#+%.%.#+n+#+# 7+z+' ' ' 3+s *.3+s s s s s s ' 5+t.  ",
"        E+3+q.; n+' 6 6 |., *.#+j.N N ..N j.a.a.N ..a+H t.  ",
"          m 3+q.s *.6 $+&+6 *.a+L L w B+).).a.)+w B+,+< 3.  ",
"            m G+e # n.n.n.|.' )+w N w B+9 ).)+)+N ..a.M.t.  ",
"              E+#+*.|.n.n.|.s a.L L ..[+).)+a.,+j.L )+m+T   ",
"                c #+/.6 /.s !.)+).j.j.9 ).).9 a.9 9 a.g+    ",
"                  % %.' >+, <.<.]+;+x j.@.O n g.g.i+n |+    ",
"                    K {+                                    ",
"                      *+                                    ",
"                                                            ",
"                                                            ",
"                                                            ",
"                                                            "};
