/* XPM */
static char * tx_audioengine_xpm[] = {
"21 18 181 2",
"  	c None",
". 	c #FFFFFF",
"+ 	c #E0DEDE",
"@ 	c #CDCCCC",
"# 	c #C2C2C2",
"$ 	c #9F9E9E",
"% 	c #989797",
"& 	c #EDEDED",
"* 	c #CECCCC",
"= 	c #E2E2E2",
"- 	c #DAD9D9",
"; 	c #A4A3A3",
"> 	c #747373",
", 	c #898888",
"' 	c #D8D8D8",
") 	c #3A3939",
"! 	c #0C0C0C",
"~ 	c #303030",
"{ 	c #555454",
"] 	c #949393",
"^ 	c #737373",
"/ 	c #626262",
"( 	c #858484",
"_ 	c #C7C6C6",
": 	c #252525",
"< 	c #222222",
"[ 	c #999898",
"} 	c #6D6C6C",
"| 	c #454545",
"1 	c #878686",
"2 	c #383737",
"3 	c #535353",
"4 	c #C9C8C8",
"5 	c #2B2B2B",
"6 	c #AFAEAE",
"7 	c #E0DFDF",
"8 	c #A2A1A1",
"9 	c #6B6B6B",
"0 	c #818080",
"a 	c #686767",
"b 	c #727070",
"c 	c #E7E5E5",
"d 	c #3E3E3E",
"e 	c #191818",
"f 	c #828181",
"g 	c #E4E2E2",
"h 	c #E5E3E3",
"i 	c #C0BFBF",
"j 	c #8C8B8B",
"k 	c #999797",
"l 	c #A8A7A7",
"m 	c #1F1E1E",
"n 	c #434242",
"o 	c #F5F3F3",
"p 	c #232323",
"q 	c #2E2E2E",
"r 	c #BAB9B9",
"s 	c #D8D7D7",
"t 	c #D8D6D6",
"u 	c #B8B7B7",
"v 	c #807F7F",
"w 	c #666565",
"x 	c #919090",
"y 	c #9C9B9B",
"z 	c #131313",
"A 	c #EAEAEA",
"B 	c #262626",
"C 	c #4D4D4D",
"D 	c #C5C3C3",
"E 	c #C4C3C3",
"F 	c #C1C0C0",
"G 	c #A5A4A4",
"H 	c #767575",
"I 	c #484848",
"J 	c #5C5B5B",
"K 	c #949292",
"L 	c #373737",
"M 	c #050505",
"N 	c #D9D9D9",
"O 	c #BDBCBC",
"P 	c #B5B4B4",
"Q 	c #343434",
"R 	c #BFBEBE",
"S 	c #B6B5B5",
"T 	c #B2B0B0",
"U 	c #646262",
"V 	c #2C2C2C",
"W 	c #8C8989",
"X 	c #424242",
"Y 	c #010101",
"Z 	c #F5F5F5",
"` 	c #FEFCFC",
" .	c #B0B0B0",
"..	c #838282",
"+.	c #3E3D3D",
"@.	c #595959",
"#.	c #ACABAB",
"$.	c #A7A5A5",
"%.	c #A3A2A2",
"&.	c #4A4949",
"*.	c #1A1A1A",
"=.	c #444343",
"-.	c #D7D7D7",
";.	c #BEBDBD",
">.	c #B5B5B5",
",.	c #B1B0B0",
"'.	c #ADACAC",
").	c #929191",
"!.	c #434343",
"~.	c #939292",
"{.	c #979696",
"].	c #908F8F",
"^.	c #757373",
"/.	c #595858",
"(.	c #9E9D9D",
"_.	c #6A6A6A",
":.	c #6A6969",
"<.	c #A7A6A6",
"[.	c #9A9999",
"}.	c #383838",
"|.	c #888787",
"1.	c #747272",
"2.	c #464646",
"3.	c #141414",
"4.	c #171616",
"5.	c #817F7F",
"6.	c #807D7D",
"7.	c #242323",
"8.	c #020202",
"9.	c #575656",
"0.	c #313030",
"a.	c #5E5D5D",
"b.	c #9B9A9A",
"c.	c #424141",
"d.	c #6E6D6D",
"e.	c #5C5A5A",
"f.	c #2A2A2A",
"g.	c #444444",
"h.	c #8E8D8D",
"i.	c #080808",
"j.	c #969595",
"k.	c #333232",
"l.	c #282828",
"m.	c #3C3C3C",
"n.	c #676666",
"o.	c #5C5C5C",
"p.	c #5F5F5F",
"q.	c #848282",
"r.	c #6B6A6A",
"s.	c #484747",
"t.	c #525151",
"u.	c #8F8D8D",
"v.	c #8D8B8B",
"w.	c #000000",
"x.	c #535252",
"y.	c #2F2F2F",
"z.	c #4C4B4B",
"A.	c #7B7A7A",
"B.	c #717070",
"C.	c #7A7979",
"D.	c #848383",
"E.	c #8F8C8C",
"F.	c #939090",
"G.	c #636161",
"H.	c #6F6E6E",
"I.	c #2B2A2A",
"J.	c #313131",
"K.	c #696767",
"L.	c #8B8A8A",
"M.	c #8A8888",
"N.	c #5A5858",
"O.	c #222121",
"P.	c #908E8E",
"Q.	c #151515",
"R.	c #181818",
"S.	c #1D1D1D",
"T.	c #0E0E0E",
"U.	c #1B1A1A",
"V.	c #4B4B4B",
"W.	c #030303",
"X.	c #262525",
"                  . . . + @ # $ %         ",
"                . . . & * = - ; > ,       ",
"            . . . . ' ) ! ~ { ] ^ / (     ",
"          . . . . _ : < ^ [ } | 1 2 3 (   ",
"        . . . . 4 : 5 6 7 * 8 9 0 a : b   ",
"    . . . . . c d e f g h i j 0 k l m n   ",
"  . . . . . o j p q r s t u v w x y : z   ",
". . . . . A i ^ B C D E F G H I J K L M   ",
". . . . N O P H Q / R S T ] U V 2 W X Y   ",
". Z ` ' O S  ...+.@.#.$.%., &.*.L ( =.Y   ",
"-.;.u >.S ,.'.).X !.~.{.].^.q z /...) Y   ",
"  (._.:.x <.<.[.C }.0 |.1.2.3.4.5.6.7.8.  ",
"    9.0.L a.|.b.:.c.d.( e.f.z g.h.b M i.  ",
"    j.@.k.l.m.n.1 o.p.q.r.s.t.u.v.m.w.7.  ",
"          x.Q y.z.A.B.C.D.E.j.F.G.w.w.    ",
"            H.n I.J.K.L.q.M.j N.w.w.O.    ",
"              P.t.I.*.Q.R.S.T.w.w.U.      ",
"                  r.V.l.W.w.w.Y X.        "};
