/* XPM */
static char * tX_fx_down_xpm[] = {
"10 10 31 1",
" 	c None",
".	c #4444E1",
"+	c #4D4DB8",
"@	c #514FB0",
"#	c #4545DC",
"$	c #5858F9",
"%	c #6C6CAF",
"&	c #5B5A89",
"*	c #4B4BC2",
"=	c #6262D7",
"-	c #757576",
";	c #5C5A63",
">	c #6464CF",
",	c #5959F4",
"'	c #6E6EA1",
")	c #5959F2",
"!	c #5351A8",
"~	c #6868BF",
"{	c #6363D0",
"]	c #5D5DE8",
"^	c #6868C3",
"/	c #757575",
"(	c #5B5A61",
"_	c #5553A0",
":	c #5B5A87",
"<	c #6F6F9F",
"[	c #6969B8",
"}	c #737388",
"|	c #5B5A73",
"1	c #75757A",
"2	c #5C5B7C",
"   ..+@   ",
"   #$%&   ",
"   *=-;   ",
"..+#=-&.+@",
"#$>.,'+)%&",
"!~{]$^]{/(",
"_:<[{{}/(|",
" _:<[}/(| ",
"  _:1/(|  ",
"   _2(|   "};
