/* XPM */
static char * tx_grab_xpm[] = {
"21 18 156 2",
"  	c None",
". 	c #C8C6C6",
"+ 	c #DBD9D9",
"@ 	c #C9C6C6",
"# 	c #B5B2B2",
"$ 	c #B1AFAF",
"% 	c #ACAAAA",
"& 	c #8A8787",
"* 	c #7A7777",
"= 	c #D5D3D3",
"- 	c #D6D3D3",
"; 	c #C6C3C3",
"> 	c #AEABAB",
", 	c #A9A6A6",
"' 	c #898686",
") 	c #646262",
"! 	c #787575",
"~ 	c #9C9B9B",
"{ 	c #6A6969",
"] 	c #201F1F",
"^ 	c #000000",
"/ 	c #323131",
"( 	c #827F7F",
"_ 	c #636161",
": 	c #575555",
"< 	c #676464",
"[ 	c #7F7E7E",
"} 	c #474646",
"| 	c #070707",
"1 	c #111010",
"2 	c #484747",
"3 	c #535151",
"4 	c #4B4848",
"5 	c #6A6666",
"6 	c #6D6B6B",
"7 	c #757272",
"8 	c #736F6F",
"9 	c #6D6A6A",
"0 	c #3E3C3C",
"a 	c #BAB7B7",
"b 	c #B9B4B4",
"c 	c #9C9999",
"d 	c #B1ACAC",
"e 	c #908C8C",
"f 	c #474545",
"g 	c #4B4949",
"h 	c #4D4A4A",
"i 	c #858080",
"j 	c #696565",
"k 	c #5C5858",
"l 	c #BAB6B6",
"m 	c #ADA8A8",
"n 	c #999494",
"o 	c #ACA7A7",
"p 	c #4D4B4B",
"q 	c #464343",
"r 	c #868181",
"s 	c #6D6868",
"t 	c #827D7D",
"u 	c #686464",
"v 	c #444242",
"w 	c #575252",
"x 	c #B4B0B0",
"y 	c #A5A1A1",
"z 	c #AEAAAA",
"A 	c #7C7878",
"B 	c #797575",
"C 	c #080808",
"D 	c #736E6E",
"E 	c #7B7777",
"F 	c #6C6868",
"G 	c #696464",
"H 	c #5A5656",
"I 	c #1A1919",
"J 	c #333030",
"K 	c #918D8D",
"L 	c #8D8A8A",
"M 	c #7C7979",
"N 	c #767272",
"O 	c #706C6C",
"P 	c #787474",
"Q 	c #666262",
"R 	c #635E5E",
"S 	c #060606",
"T 	c #8A8686",
"U 	c #767373",
"V 	c #080707",
"W 	c #6D6969",
"X 	c #757070",
"Y 	c #676262",
"Z 	c #635F5F",
"` 	c #605B5B",
" .	c #878383",
"..	c #6A6565",
"+.	c #726D6D",
"@.	c #645F5F",
"#.	c #5D5858",
"$.	c #060505",
"%.	c #696666",
"&.	c #413F3F",
"*.	c #181717",
"=.	c #373434",
"-.	c #040303",
";.	c #8B8787",
">.	c #888383",
",.	c #706D6D",
"'.	c #6E6969",
").	c #5B5757",
"!.	c #7B7575",
"~.	c #857E7E",
"{.	c #5F5A5A",
"].	c #5A5555",
"^.	c #565151",
"/.	c #191818",
"(.	c #191717",
"_.	c #9D9898",
":.	c #9E9898",
"<.	c #847F7F",
"[.	c #817C7C",
"}.	c #7D7777",
"|.	c #797373",
"1.	c #767070",
"2.	c #726C6C",
"3.	c #6F6868",
"4.	c #6A6464",
"5.	c #665F5F",
"6.	c #373333",
"7.	c #2A2727",
"8.	c #7E7A7A",
"9.	c #7B7676",
"0.	c #6B6767",
"a.	c #686363",
"b.	c #646060",
"c.	c #625D5D",
"d.	c #5E5959",
"e.	c #5B5656",
"f.	c #585353",
"g.	c #554F4F",
"h.	c #514C4C",
"i.	c #050505",
"j.	c #656161",
"k.	c #4C4949",
"l.	c #151414",
"m.	c #141313",
"n.	c #131212",
"o.	c #0C0B0B",
"p.	c #0B0A0A",
"q.	c #0F0E0E",
"r.	c #121010",
"s.	c #121111",
"t.	c #100F0F",
"u.	c #040404",
"v.	c #575454",
"w.	c #312F2F",
"x.	c #010101",
"y.	c #100E0E",
"                                          ",
"  . + @ # $ % & *                         ",
"  = - ; $ > , ' ) !                       ",
"  ~ { ] ^ ^ / ( _ : <                     ",
"  [ } | ^ ^ 1 2 ( 3 4 5                   ",
"            6 7 8 9 ] 0                   ",
"        a b c d e f g h i j k             ",
"      a l m n o p q r s t u v w           ",
"      x y z A B C D E F G H I J           ",
"      K L M B N C O P G Q R S S           ",
"      L T B U 8 V W X Y Z ` S S           ",
"      T  .U 8 O | ..+.@.` #.S $.          ",
"      %.&.^ ^ ^ ^ *.=.^ ^ ^ ^ -.          ",
"      ;.>.,.'.5 ).!.~.{.].^./.(.          ",
"      _.:.<.[.}.|.1.2.3.4.5.6.7.          ",
"      8.9.0.a.b.c.d.e.f.g.h.i.i.          ",
"      j.k.l.m.n.o.p.q.r.s.t.^ u.          ",
"      v.w.x.^ ^ ^ ^ ^ ^ ^ ^ ^ y.          "};
