/* XPM */
static char * tx_minimize_xpm[] = {
"12 12 59 1",
" 	c None",
".	c #DFB200",
"+	c #BE9800",
"@	c #F5C400",
"#	c #F9C700",
"$	c #B38F00",
"%	c #896D00",
"&	c #EBBC00",
"*	c #FCC900",
"=	c #A18000",
"-	c #564400",
";	c #F7C500",
">	c #FDCA00",
",	c #9E7E00",
"'	c #3A2E00",
")	c #655000",
"!	c #F0C000",
"~	c #F6C400",
"{	c #A88600",
"]	c #4A3B00",
"^	c #3D3000",
"/	c #FAC800",
"(	c #D1A700",
"_	c #AF8C00",
":	c #775F00",
"<	c #392D00",
"[	c #5F4C00",
"}	c #F3C200",
"|	c #EABB00",
"1	c #BA9400",
"2	c #524100",
"3	c #F1C000",
"4	c #C9A000",
"5	c #B08C00",
"6	c #7C6300",
"7	c #342900",
"8	c #534200",
"9	c #E5B700",
"0	c #E6B800",
"a	c #D2A800",
"b	c #9A7B00",
"c	c #997A00",
"d	c #846900",
"e	c #362B00",
"f	c #2A2100",
"g	c #C69E00",
"h	c #AB8800",
"i	c #755D00",
"j	c #2F2500",
"k	c #1A1400",
"l	c #151000",
"m	c #020100",
"n	c #060400",
"o	c #AE8B00",
"p	c #826800",
"q	c #403300",
"r	c #100C00",
"s	c #070500",
"t	c #1D1700",
"     .+     ",
"    @#$%    ",
"   &**=-    ",
"   #;>,')   ",
"  !~~!{]^   ",
"  /@#(_:<[  ",
" }@;|1$=2<  ",
" ;3~4$$5678 ",
"9|0a,bbcdef ",
"ghijkkkklmn ",
"opqrsssssst ",
"            "};
