/* XPM */
static char * tx_play_xpm[] = {
"21 18 209 2",
"  	c None",
". 	c #39C40A",
"+ 	c #43E40C",
"@ 	c #48F60D",
"# 	c #49F80E",
"$ 	c #46E610",
"% 	c #41D011",
"& 	c #38AF11",
"* 	c #3DD10B",
"= 	c #46F00D",
"- 	c #49F211",
"; 	c #48E613",
"> 	c #48E016",
", 	c #4BE019",
"' 	c #47CD1A",
") 	c #3FB019",
"! 	c #268407",
"~ 	c #2A8F07",
"{ 	c #3CC70D",
"] 	c #42D511",
"^ 	c #46DB14",
"/ 	c #49DE18",
"( 	c #4CDE1B",
"_ 	c #4EDB1E",
": 	c #50D921",
"< 	c #4ECD22",
"[ 	c #47B621",
"} 	c #6FB757",
"| 	c #1F6B06",
"1 	c #32A40C",
"2 	c #37AB0F",
"3 	c #38AA11",
"4 	c #41BD16",
"5 	c #49D11C",
"6 	c #4FD921",
"7 	c #50D524",
"8 	c #52D126",
"9 	c #54D02A",
"0 	c #54C92C",
"a 	c #50B82B",
"b 	c #469D28",
"c 	c #237807",
"d 	c #1D6007",
"e 	c #2E930D",
"f 	c #37A811",
"g 	c #36A012",
"h 	c #379E15",
"i 	c #389C17",
"j 	c #3FA91B",
"k 	c #4BBF22",
"l 	c #52CD28",
"m 	c #56CF2C",
"n 	c #55C72E",
"o 	c #57C430",
"p 	c #58C133",
"q 	c #56B634",
"r 	c #4D9E30",
"s 	c #267E09",
"t 	c #1F6308",
"u 	c #30950E",
"v 	c #37A512",
"w 	c #153D07",
"x 	c #040C01",
"y 	c #020600",
"z 	c #1C490C",
"A 	c #36891A",
"B 	c #3E981F",
"C 	c #48A826",
"D 	c #52BA2E",
"E 	c #5ABE36",
"F 	c #5BBC39",
"G 	c #5DB83C",
"H 	c #5AAD3C",
"I 	c #539A39",
"J 	c #29840A",
"K 	c #216609",
"L 	c #339811",
"M 	c #38A415",
"N 	c #123207",
"O 	c #000000",
"P 	c #091504",
"Q 	c #285B16",
"R 	c #3F8B24",
"S 	c #499D2C",
"T 	c #55B034",
"U 	c #5CB83B",
"V 	c #5EB53E",
"W 	c #549D39",
"X 	c #529539",
"Y 	c #4F8938",
"Z 	c #29810C",
"` 	c #21640A",
" .	c #339512",
"..	c #39A216",
"+.	c #1E520C",
"@.	c #1C4B0C",
"#.	c #183E0B",
"$.	c #020401",
"%.	c #1D4011",
"&.	c #3D8025",
"*.	c #458B2B",
"=.	c #498D30",
"-.	c #55A03A",
";.	c #3B6B29",
">.	c #3C6A2B",
",.	c #4E8539",
"'.	c #297D0D",
").	c #21620B",
"!.	c #339113",
"~.	c #3AA017",
"{.	c #1E510D",
"].	c #1F500E",
"^.	c #3E991F",
"/.	c #43A123",
"(.	c #449E25",
"_.	c #3C8822",
":.	c #3D8524",
"<.	c #418928",
"[.	c #45882D",
"}.	c #478630",
"|.	c #42792E",
"1.	c #26431B",
"2.	c #233D1A",
"3.	c #457334",
"4.	c #2A7E0E",
"5.	c #22610D",
"6.	c #349115",
"7.	c #3C9F1A",
"8.	c #225510",
"9.	c #4DBA27",
"0.	c #54C42D",
"a.	c #57C531",
"b.	c #59C334",
"c.	c #59BD36",
"d.	c #57B136",
"e.	c #4B9430",
"f.	c #427F2C",
"g.	c #2A4E1D",
"h.	c #080E05",
"i.	c #020402",
"j.	c #121E0D",
"k.	c #416932",
"l.	c #2B7D10",
"m.	c #22600D",
"n.	c #369016",
"o.	c #3C9D1B",
"p.	c #337F18",
"q.	c #45A722",
"r.	c #57CD2E",
"s.	c #56C630",
"t.	c #58C132",
"u.	c #56B934",
"v.	c #4D9F30",
"w.	c #42832A",
"x.	c #294F1B",
"y.	c #203418",
"z.	c #487138",
"A.	c #2B7810",
"B.	c #215C0E",
"C.	c #338617",
"D.	c #3D9C1D",
"E.	c #47AD24",
"F.	c #54C72C",
"G.	c #58CA31",
"H.	c #56BF31",
"I.	c #4FA92F",
"J.	c #428A29",
"K.	c #2A541B",
"L.	c #091105",
"M.	c #111C0C",
"N.	c #375929",
"O.	c #2A7411",
"P.	c #20540E",
"Q.	c #2E7616",
"R.	c #47A925",
"S.	c #4BAC28",
"T.	c #4BA82B",
"U.	c #439027",
"V.	c #2F641D",
"W.	c #0E1C08",
"X.	c #101D0B",
"Y.	c #365B27",
"Z.	c #2D7713",
"`.	c #193F0C",
" +	c #2A6814",
".+	c #3F9620",
"++	c #3F9422",
"@+	c #265417",
"#+	c #081205",
"$+	c #0E1B0A",
"%+	c #355D25",
"&+	c #2F7B16",
"*+	c #183A0C",
"=+	c #1A3D0E",
"-+	c #0B1A06",
";+	c #091106",
">+	c #2C511E",
",+	c #457C31",
"'+	c #348218",
")+	c #112A08",
"!+	c #0E1D09",
"~+	c #305D20",
"{+	c #729F63",
"]+	c #265B14",
"^+	c #0D1F07",
"/+	c #010200",
"(+	c #0B1907",
"_+	c #275018",
":+	c #3F7F28",
"                                          ",
"  . + @ # $ % &                           ",
"  * * = - ; > , ' )                       ",
"  ! ~ { ] ^ / ( _ : < [ }                 ",
"  ! | 1 2 3 4 5 6 7 8 9 0 a b             ",
"  c d e f g h i j k l m n o p q r         ",
"  s t u v w x y z A B C D p E F G H I     ",
"  J K L M N O O O O P Q R S T U V W X Y   ",
"  Z `  ...+.@.#.O O O $.%.&.*.=.-.;.>.,.  ",
"  '.).!.~.{.].^./.(._.:.<.*.[.}.|.1.2.3.  ",
"  4.5.6.7.].8.9.0.a.b.c.d.e.f.g.h.i.j.k.  ",
"  l.m.n.o.p.q.r.s.t.u.v.w.x.h.O O O y.z.  ",
"  A.B.C.D.E.F.G.H.I.J.K.L.O O O M.N.      ",
"  O.P.Q.^.R.S.T.U.V.W.O O O X.Y.          ",
"  Z.`. +.+++_.@+#+O O O $+%+              ",
"  &+`.*+=+-+O O O O ;+>+,+                ",
"  '+)+O O O O O !+~+{+                    ",
"    ]+^+/+(+_+:+                          "};
