/* XPM */
static char * tx_power_xpm[] = {
"21 18 145 2",
"  	c None",
". 	c #CA0505",
"+ 	c #C80505",
"@ 	c #A80505",
"# 	c #840404",
"$ 	c #760303",
"% 	c #C20505",
"& 	c #C30505",
"* 	c #A30505",
"= 	c #570202",
"- 	c #430202",
"; 	c #D12222",
"> 	c #B10505",
", 	c #BF0505",
"' 	c #980404",
") 	c #8E0404",
"! 	c #0F0000",
"~ 	c #470202",
"{ 	c #970505",
"] 	c #7D2020",
"^ 	c #CC0505",
"/ 	c #880404",
"( 	c #C10505",
"_ 	c #940404",
": 	c #850404",
"< 	c #070000",
"[ 	c #6B0303",
"} 	c #AA0505",
"| 	c #4F0202",
"1 	c #670303",
"2 	c #C50505",
"3 	c #920404",
"4 	c #830404",
"5 	c #010000",
"6 	c #6F0303",
"7 	c #A40505",
"8 	c #4E0202",
"9 	c #4C0202",
"0 	c #630303",
"a 	c #D22222",
"b 	c #C90505",
"c 	c #C60505",
"d 	c #030000",
"e 	c #860404",
"f 	c #800404",
"g 	c #020000",
"h 	c #760404",
"i 	c #820404",
"j 	c #650303",
"k 	c #4A0202",
"l 	c #480303",
"m 	c #702121",
"n 	c #C40505",
"o 	c #B30505",
"p 	c #4B0202",
"q 	c #000000",
"r 	c #8C0404",
"s 	c #7E0404",
"t 	c #5A0303",
"u 	c #790404",
"v 	c #6E0404",
"w 	c #610404",
"x 	c #180101",
"y 	c #350202",
"z 	c #9C0404",
"A 	c #990404",
"B 	c #0E0000",
"C 	c #890404",
"D 	c #7B0404",
"E 	c #2D0101",
"F 	c #6C0404",
"G 	c #670404",
"H 	c #6D0404",
"I 	c #9B2121",
"J 	c #960404",
"K 	c #620303",
"L 	c #500202",
"M 	c #3E0202",
"N 	c #130000",
"O 	c #6F0404",
"P 	c #710505",
"Q 	c #6B0404",
"R 	c #742121",
"S 	c #8D0404",
"T 	c #970404",
"U 	c #0A0000",
"V 	c #150000",
"W 	c #3F0202",
"X 	c #790505",
"Y 	c #7C0505",
"Z 	c #680404",
"` 	c #600404",
" .	c #972121",
"..	c #910404",
"+.	c #6D0303",
"@.	c #240101",
"#.	c #230101",
"$.	c #700303",
"%.	c #730404",
"&.	c #7C0404",
"*.	c #920606",
"=.	c #830606",
"-.	c #870606",
";.	c #660404",
">.	c #6F2121",
",.	c #7A0404",
"'.	c #520202",
").	c #5E0303",
"!.	c #770404",
"~.	c #980606",
"{.	c #960606",
"].	c #8F0606",
"^.	c #880606",
"/.	c #630404",
"(.	c #6E0303",
"_.	c #6C0303",
":.	c #640303",
"<.	c #5F0303",
"[.	c #6A0303",
"}.	c #7D0404",
"|.	c #860606",
"1.	c #8D0606",
"2.	c #750505",
"3.	c #742020",
"4.	c #400202",
"5.	c #600303",
"6.	c #740404",
"7.	c #720404",
"8.	c #7D0505",
"9.	c #900606",
"0.	c #8C0606",
"a.	c #760505",
"b.	c #311E1E",
"c.	c #3C0202",
"d.	c #580303",
"e.	c #690404",
"f.	c #640404",
"g.	c #160101",
"h.	c #3B0202",
"i.	c #0B0000",
"j.	c #692020",
"k.	c #290101",
"l.	c #752121",
"m.	c #620404",
"n.	c #722121",
"              . + @ # $                   ",
"              % & * = -                   ",
"          ; > , ' ) ! ~ { ]               ",
"        ^ + / ( _ : < [ } | 1             ",
"      ^ + 2 ~ ) 3 4 5 6 7 8 9 0           ",
"    a b c % d e ) f g h i j k l m         ",
"    n o , p q $ r s g t u v w x y         ",
"    z A 6 B q 6 C D g E F G H g g         ",
"  I A J K q q L M q q N O P Q g g R       ",
"  S T _ K U V t E q q W X Y Z g g `       ",
"   ._ ..+.@.#.$.h %.&.*.=.-.;.g g >.      ",
"    ..) ,.'.W ).!.: ~.{.].^./.g g         ",
"    (._.:.%.<.[.}.|.1.*.].2.x q q         ",
"    3.4.W 5.6.7.8.-.9.0.a.x q q b.        ",
"      ).M c.d.O F e.G f.x q q g.          ",
"        t h.i.q q q q q q q g.            ",
"          j.k.q q q q q q b.              ",
"                l.m.n.                    "};
