/* XPM */
static char * tx_stop_xpm[] = {
"21 18 193 2",
"  	c None",
". 	c #C0C0C0",
"+ 	c #E6E5E5",
"@ 	c #F1F0F0",
"# 	c #E7E6E6",
"$ 	c #DCD9D9",
"% 	c #D5D2D2",
"& 	c #CFCCCC",
"* 	c #CAC5C5",
"= 	c #C4C0C0",
"- 	c #BFBABA",
"; 	c #BAB4B4",
"> 	c #B4AEAE",
", 	c #ABA4A4",
"' 	c #938D8D",
") 	c #857E7E",
"! 	c #777070",
"~ 	c #D3D3D3",
"{ 	c #E0DFDF",
"] 	c #E7E5E5",
"^ 	c #DEDCDC",
"/ 	c #D0CCCC",
"( 	c #CAC6C6",
"_ 	c #C0BABA",
": 	c #B4AFAF",
"< 	c #B0A8A8",
"[ 	c #A49D9D",
"} 	c #726D6D",
"| 	c #666161",
"1 	c #736C6C",
"2 	c #D0CFCF",
"3 	c #B5B3B3",
"4 	c #C7C5C5",
"5 	c #C3C1C1",
"6 	c #A6A4A4",
"7 	c #9C9999",
"8 	c #979393",
"9 	c #938F8F",
"0 	c #8E8A8A",
"a 	c #8B8686",
"b 	c #868181",
"c 	c #837E7E",
"d 	c #878080",
"e 	c #343131",
"f 	c #363333",
"g 	c #736B6B",
"h 	c #B5B4B4",
"i 	c #949292",
"j 	c #B1AEAE",
"k 	c #787676",
"l 	c #565454",
"m 	c #3F3D3D",
"n 	c #3A3838",
"o 	c #383737",
"p 	c #474444",
"q 	c #615C5C",
"r 	c #736E6E",
"s 	c #787171",
"t 	c #393636",
"u 	c #2A2727",
"v 	c #706868",
"w 	c #A09F9F",
"x 	c #878686",
"y 	c #A4A1A1",
"z 	c #959393",
"A 	c #212121",
"B 	c #000000",
"C 	c #323030",
"D 	c #676161",
"E 	c #746D6D",
"F 	c #494444",
"G 	c #292626",
"H 	c #595252",
"I 	c #9A9898",
"J 	c #838181",
"K 	c #9F9C9C",
"L 	c #928E8E",
"M 	c #181717",
"N 	c #060505",
"O 	c #0A0909",
"P 	c #0A0A0A",
"Q 	c #312E2E",
"R 	c #4D4949",
"S 	c #706A6A",
"T 	c #706969",
"U 	c #4E4848",
"V 	c #211F1F",
"W 	c #3E3939",
"X 	c #858383",
"Y 	c #A39F9F",
"Z 	c #242323",
"` 	c #252424",
" .	c #847F7F",
"..	c #817B7B",
"+.	c #7C7777",
"@.	c #767171",
"#.	c #635D5D",
"$.	c #6C6565",
"%.	c #4B4545",
"&.	c #1B1919",
"*.	c #302C2C",
"=.	c #969393",
"-.	c #848181",
";.	c #A5A1A1",
">.	c #858181",
",.	c #222121",
"'.	c #232222",
").	c #817C7C",
"!.	c #797373",
"~.	c #6F6969",
"{.	c #5E5858",
"].	c #696161",
"^.	c #464141",
"/.	c #191717",
"(.	c #2C2828",
"_.	c #8B8888",
":.	c #7F7C7C",
"<.	c #9D9999",
"[.	c #7E7A7A",
"}.	c #201F1F",
"|.	c #7D7878",
"1.	c #756E6E",
"2.	c #6A6363",
"3.	c #585252",
"4.	c #686060",
"5.	c #655D5D",
"6.	c #443E3E",
"7.	c #181616",
"8.	c #2B2626",
"9.	c #817D7D",
"0.	c #777373",
"a.	c #908C8C",
"b.	c #837F7F",
"c.	c #585454",
"d.	c #A49C9C",
"e.	c #9F9595",
"f.	c #998F8F",
"g.	c #988E8E",
"h.	c #857B7B",
"i.	c #796F6F",
"j.	c #615858",
"k.	c #3F3939",
"l.	c #161414",
"m.	c #292424",
"n.	c #777474",
"o.	c #6E6A6A",
"p.	c #8F8888",
"q.	c #9D9595",
"r.	c #988F8F",
"s.	c #948989",
"t.	c #8D8282",
"u.	c #786D6D",
"v.	c #5D5454",
"w.	c #2E2A2A",
"x.	c #110F0F",
"y.	c #262121",
"z.	c #736F6F",
"A.	c #666262",
"B.	c #777272",
"C.	c #7F7979",
"D.	c #827B7B",
"E.	c #857D7D",
"F.	c #7C7474",
"G.	c #746B6B",
"H.	c #6A6262",
"I.	c #625A5A",
"J.	c #5D5555",
"K.	c #584E4E",
"L.	c #1A1717",
"M.	c #272121",
"N.	c #6C6868",
"O.	c #5A5656",
"P.	c #635F5F",
"Q.	c #716B6B",
"R.	c #666060",
"S.	c #5D5757",
"T.	c #504A4A",
"U.	c #474141",
"V.	c #4A4242",
"W.	c #4D4545",
"X.	c #3A3434",
"Y.	c #090808",
"Z.	c #080707",
"`.	c #332B2B",
" +	c #656161",
".+	c #2F2D2D",
"++	c #0D0B0B",
"@+	c #413636",
"#+	c #3A3737",
"$+	c #060606",
"%+	c #020202",
"&+	c #241E1E",
"*+	c #433737",
"                                          ",
"    . + @ # $ % & * = - ; > , ' ) !       ",
"    ~ { ] ^ % / ( = _ ; : < [ } | 1       ",
"    2 3 4 5 6 7 8 9 0 a b c d e f g       ",
"    h i j 7 k l m n o p q r s t u v       ",
"    w x y z A B B B B B C D E F G H       ",
"    I J K L M B N O P Q R S T U V W       ",
"    I X Y 0 Z `  ...+.@.#.! $.%.&.*.      ",
"    =.-.;.>.,.'.).+.!.~.{.v ].^./.(.      ",
"    _.:.<.[.}.'.|.!.1.2.3.4.5.6.7.8.      ",
"    9.0.a.b.c.} d.e.f.g.h.i.j.k.l.m.      ",
"    n.o.c  ...p.q.r.s.s.t.u.v.w.x.y.      ",
"    z.A.B.C.C.D.E.F.G.H.I.J.K.L.O M.      ",
"    N.O.P.@.Q.R.S.3.T.U.V.W.X.Y.Z.`.      ",
"     +.+B B B B B B B B B B B B ++@+      ",
"    } #+$+B B B B B B B B B B %+&+*+      ",
"                                          ",
"                                          "};
