/* XPM */
static char * tx_sequencer_xpm[] = {
"21 18 148 2",
"  	c None",
". 	c #FFFFFF",
"+ 	c #D7D7D7",
"@ 	c #D1D0D0",
"# 	c #C7C7C7",
"$ 	c #F8F8F8",
"% 	c #F2F1F1",
"& 	c #B9B9B9",
"* 	c #C8C8C8",
"= 	c #C5C5C5",
"- 	c #BFBFBF",
"; 	c #B6B5B5",
"> 	c #F2F2F2",
", 	c #EBEBEB",
"' 	c #323232",
") 	c #000000",
"! 	c #6C6C6C",
"~ 	c #ECEBEB",
"{ 	c #B3B3B3",
"] 	c #ADACAC",
"^ 	c #A5A4A4",
"/ 	c #ECECEC",
"( 	c #E6E5E5",
"_ 	c #121212",
": 	c #111111",
"< 	c #626262",
"[ 	c #D4D4D4",
"} 	c #A2A1A1",
"| 	c #9C9B9B",
"1 	c #929191",
"2 	c #7F7E7E",
"3 	c #E6E6E6",
"4 	c #DFDEDE",
"5 	c #030303",
"6 	c #8F8E8E",
"7 	c #434242",
"8 	c #101010",
"9 	c #0F0F0F",
"0 	c #585858",
"a 	c #BEBDBD",
"b 	c #5F5F5F",
"c 	c #454444",
"d 	c #E1DFDF",
"e 	c #D9D9D9",
"f 	c #B4B4B4",
"g 	c #AEADAD",
"h 	c #818080",
"i 	c #3C3B3B",
"j 	c #4E4E4E",
"k 	c #7D7B7B",
"l 	c #020202",
"m 	c #F4F4F4",
"n 	c #AFAEAE",
"o 	c #A8A7A7",
"p 	c #A3A1A1",
"q 	c #EEEDED",
"r 	c #A9A8A8",
"s 	c #A3A2A2",
"t 	c #969595",
"u 	c #9D9C9C",
"v 	c #969494",
"w 	c #C3C3C3",
"x 	c #BDBCBC",
"y 	c #B7B6B6",
"z 	c #A3A3A3",
"A 	c #979696",
"B 	c #908F8F",
"C 	c #908E8E",
"D 	c #010101",
"E 	c #C4C3C3",
"F 	c #B7B7B7",
"G 	c #B1B0B0",
"H 	c #9E9D9D",
"I 	c #989696",
"J 	c #919090",
"K 	c #8B8A8A",
"L 	c #8A8888",
"M 	c #020101",
"N 	c #E4E4E4",
"O 	c #DDDDDD",
"P 	c #C5C4C4",
"Q 	c #BEBEBE",
"R 	c #B8B7B7",
"S 	c #B2B1B1",
"T 	c #ABAAAA",
"U 	c #989797",
"V 	c #CBCACA",
"W 	c #C3C0C0",
"X 	c #B0AFAF",
"Y 	c #A4A1A1",
"Z 	c #A6A6A6",
"` 	c #929292",
" .	c #B9B8B8",
"..	c #B2B2B2",
"+.	c #ACABAB",
"@.	c #383838",
"#.	c #CDCBCB",
"$.	c #C2C1C1",
"%.	c #A9A7A7",
"&.	c #A09E9E",
"*.	c #989898",
"=.	c #616060",
"-.	c #5E5D5D",
";.	c #898888",
">.	c #272727",
",.	c #8C8B8B",
"'.	c #C4C2C2",
").	c #BBB9B9",
"!.	c #7A7979",
"~.	c #747272",
"{.	c #6D6C6C",
"].	c #8F8F8F",
"^.	c #5B5A5A",
"/.	c #1C1B1B",
"(.	c #BFBEBE",
"_.	c #B4B2B2",
":.	c #7B7979",
"<.	c #747373",
"[.	c #6E6D6D",
"}.	c #686666",
"|.	c #858585",
"1.	c #3E3E3E",
"2.	c #232323",
"3.	c #8F8D8D",
"4.	c #949393",
"5.	c #8E8D8D",
"6.	c #7C7A7A",
"7.	c #757474",
"8.	c #6F6D6D",
"9.	c #686767",
"0.	c #626060",
"a.	c #6E6C6C",
"b.	c #696868",
"c.	c #5B5959",
"d.	c #706E6E",
"e.	c #636161",
"f.	c #161515",
"g.	c #838282",
"h.	c #605F5F",
"i.	c #393838",
"j.	c #515050",
"k.	c #646262",
"l.	c #161616",
"m.	c #676666",
"n.	c #575656",
"o.	c #363535",
"p.	c #090909",
"q.	c #121111",
"          . . + @ #                       ",
"          $ % & * = - ;                   ",
"          > , ' ) ! ~ { ] ^               ",
"          / ( ) ) _ : < [ } | 1 2         ",
"          3 4 5 5 6 7 8 9 0 a b c         ",
"          d e 5 5 f g h i j k l l         ",
"    . . m . . 5 5 n o } | p | l l         ",
"  . . . q . . 5 l r s | t u v l l         ",
". . . . w x y l l z u A B A C l D         ",
". . . E a F G l l H I J K B L M D         ",
"N O P Q R S T l l U V W H X Y D D         ",
"T Z `  ...+.@.) ) #.$.G I %.&.D D         ",
"*.=.-.;.] >.) ) ,.'.).S !.~.{.D D         ",
"  ].^.8 ) ) ) /.(.r _.:.<.[.}.D D         ",
"    |.1.) ) 2.3.4.5.6.7.8.9.0.D D         ",
"              ;.a.b.c.d.b.e.f.) )         ",
"              g.h.i i.j.k.l.) ) :         ",
"                m.n.o.p.) ) ) q.          "};
