/* XPM */
static char * tx_wave_xpm[] = {
"15 12 58 1",
" 	c None",
".	c #0B9505",
"+	c #14F108",
"@	c #045700",
"#	c #154C13",
"$	c #18D40E",
"%	c #046000",
"&	c #068C00",
"*	c #093D07",
"=	c #21FF16",
"-	c #045E00",
";	c #023D00",
">	c #07AD00",
",	c #045500",
"'	c #067202",
")	c #1CFF11",
"!	c #11FF05",
"~	c #12F806",
"{	c #045800",
"]	c #07A400",
"^	c #0BE900",
"/	c #079D00",
"(	c #047300",
"_	c #08C000",
":	c #08BB01",
"<	c #07B800",
"[	c #0AB303",
"}	c #0FD205",
"|	c #09AB00",
"1	c #068700",
"2	c #057800",
"3	c #078E00",
"4	c #07A700",
"5	c #07A500",
"6	c #057D00",
"7	c #068E00",
"8	c #069900",
"9	c #155513",
"0	c #1E1E1E",
"a	c #050505",
"b	c #011000",
"c	c #056F00",
"d	c #011E00",
"e	c #011800",
"f	c #046F00",
"g	c #045A00",
"h	c #1A211A",
"i	c #14AD0E",
"j	c #057400",
"k	c #069800",
"l	c #08B900",
"m	c #032E01",
"n	c #179D12",
"o	c #08A401",
"p	c #111511",
"q	c #207A1C",
"r	c #053A03",
"s	c #090D09",
"               ",
"      .        ",
"     +@#       ",
"    $%&*       ",
"   =-;>,'      ",
" )!~{]^/(_:<[  ",
" }|12345267829 ",
"    0abcdefgh  ",
"      i]jklm   ",
"       no>,p   ",
"        qrs    ",
"               "};
